<svg xmlns="http://www.w3.org/2000/svg" xmlns:xlink="http://www.w3.org/1999/xlink" width="108" height="108" viewBox="0 0 108 108">
  <defs>
    <filter id="Trazado_904820" x="0" y="0" width="108" height="108" filterUnits="userSpaceOnUse">
      <feOffset dy="3" input="SourceAlpha"/>
      <feGaussianBlur stdDeviation="3" result="blur"/>
      <feFlood flood-opacity="0.161"/>
      <feComposite operator="in" in2="blur"/>
      <feComposite in="SourceGraphic"/>
    </filter>
  </defs>
  <g id="Grupo_1222588" data-name="Grupo 1222588" transform="translate(9 6)">
    <g id="Grupo_1173585" data-name="Grupo 1173585" transform="translate(0 0)">
      <g id="Grupo_1173428" data-name="Grupo 1173428">
        <g id="Grupo_1171958" data-name="Grupo 1171958">
          <g id="Grupo_1167341" data-name="Grupo 1167341">
            <g id="Grupo_1166792" data-name="Grupo 1166792">
              <g transform="matrix(1, 0, 0, 1, -9, -6)" filter="url(#Trazado_904820)">
                <g id="Trazado_904820-2" data-name="Trazado 904820" transform="translate(9 6)" fill="#e7f2f8">
                  <path d="M 44.99999618530273 88.50002288818359 C 39.12687301635742 88.50002288818359 33.43022155761719 87.35009765625 28.06829643249512 85.08218383789062 C 22.88852119445801 82.89133453369141 18.23629570007324 79.75460815429688 14.24084663391113 75.75916290283203 C 10.24540901184082 71.76371002197266 7.108683586120605 67.11148834228516 4.917821407318115 61.93171310424805 C 2.649921178817749 56.56978607177734 1.499996185302734 50.87313461303711 1.499996185302734 45.0000114440918 C 1.499996185302734 39.12688827514648 2.649921178817749 33.43023681640625 4.917821407318115 28.06829833984375 C 7.108683586120605 22.88852310180664 10.24540901184082 18.2363109588623 14.24084663391113 14.2408618927002 C 18.23629570007324 10.24541187286377 22.88852119445801 7.108686447143555 28.06829643249512 4.917823791503906 C 33.43022155761719 2.649924039840698 39.12687301635742 1.499998927116394 44.99999618530273 1.499998927116394 C 50.87311935424805 1.499998927116394 56.56977081298828 2.649924039840698 61.93169784545898 4.917823791503906 C 67.11147308349609 7.108686447143555 71.76369476318359 10.24541187286377 75.75914764404297 14.2408618927002 C 79.75458526611328 18.2363109588623 82.89131164550781 22.88852310180664 85.08216857910156 28.06829833984375 C 87.35007476806641 33.43023681640625 88.5 39.12688827514648 88.5 45.0000114440918 C 88.5 50.87313461303711 87.35007476806641 56.56978607177734 85.08216857910156 61.93171310424805 C 82.89131164550781 67.11148834228516 79.75458526611328 71.76371002197266 75.75914764404297 75.75916290283203 C 71.76369476318359 79.75460815429688 67.11147308349609 82.89133453369141 61.93169784545898 85.08218383789062 C 56.56977081298828 87.35009765625 50.87311935424805 88.50002288818359 44.99999618530273 88.50002288818359 Z" stroke="none"/>
                  <path d="M 44.99999618530273 3 C 39.32870864868164 3 33.82865142822266 4.110054016113281 28.65262603759766 6.299339294433594 C 23.65165710449219 8.414566040039062 19.15968322753906 11.44333648681641 15.301513671875 15.30152893066406 C 11.44333648681641 19.15969848632812 8.414566040039062 23.65165710449219 6.299339294433594 28.65264129638672 C 4.110054016113281 33.82866668701172 2.999992370605469 39.3287239074707 2.999992370605469 45.0000114440918 C 2.999992370605469 50.67129898071289 4.110054016113281 56.17135620117188 6.299339294433594 61.34738159179688 C 8.414566040039062 66.34836578369141 11.44333648681641 70.84032440185547 15.301513671875 74.69849395751953 C 19.15968322753906 78.55668640136719 23.65165710449219 81.58545684814453 28.65262603759766 83.70068359375 C 33.82865142822266 85.88996887207031 39.32870864868164 87.00002288818359 44.99999618530273 87.00002288818359 C 50.67128372192383 87.00002288818359 56.17134094238281 85.88996887207031 61.34736633300781 83.70068359375 C 66.34834289550781 81.58545684814453 70.84030914306641 78.55668640136719 74.69847869873047 74.69849395751953 C 78.55665588378906 70.84032440185547 81.58542633056641 66.34836578369141 83.70065307617188 61.34738159179688 C 85.88993835449219 56.17135620117188 87 50.67129898071289 87 45.0000114440918 C 87 39.3287239074707 85.88993835449219 33.82866668701172 83.70065307617188 28.65264129638672 C 81.58542633056641 23.65165710449219 78.55665588378906 19.15969848632812 74.69847869873047 15.30152893066406 C 70.84030914306641 11.44333648681641 66.34834289550781 8.414566040039062 61.34736633300781 6.299339294433594 C 56.17134094238281 4.110054016113281 50.67128372192383 3 44.99999618530273 3 M 44.99999618530273 0 C 69.85281372070312 0 90 20.14719390869141 90 45.0000114440918 C 90 69.85282897949219 69.85281372070312 90.00002288818359 44.99999618530273 90.00002288818359 C 20.14717864990234 90.00002288818359 -7.62939453125e-06 69.85282897949219 -7.62939453125e-06 45.0000114440918 C -7.62939453125e-06 20.14719390869141 20.14717864990234 0 44.99999618530273 0 Z" stroke="none" fill="#248abf"/>
                </g>
              </g>
            </g>
          </g>
        </g>
      </g>
    </g>
    <g id="man_1172853" transform="translate(21.034 11.306)">
      <path id="Trazado_1175534" data-name="Trazado 1175534" d="M102.385,17.111C102.385,11.8,95.5,7.5,87.007,7.5s-15.378,4.3-15.378,9.611V29.606h30.756Zm0,0" transform="translate(-63.041 -6.601)" fill="#b57f5f"/>
      <path id="Trazado_1175535" data-name="Trazado 1175535" d="M82.2,24.069s.555-6.764.576-10.572a6.225,6.225,0,0,1,3.242-5.735c-8.03.319-14.39,4.48-14.39,9.58V29.836H82.905c-.285-2.413-.7-5.767-.7-5.767Zm0,0" transform="translate(-63.041 -6.831)" fill="#9f6e50"/>
      <path id="Trazado_1175536" data-name="Trazado 1175536" d="M49.494,315.374l-10.13-2.98a2.883,2.883,0,0,1-2.07-2.766V304.1H23.839v5.531a2.883,2.883,0,0,1-2.07,2.766l-10.13,2.98a5.767,5.767,0,0,0-4.14,5.532v7.219H53.634v-7.219a5.766,5.766,0,0,0-4.139-5.532Zm0,0" transform="translate(-6.601 -267.636)" fill="#e3aa75"/>
      <path id="Trazado_1175537" data-name="Trazado 1175537" d="M49.495,389.581l-3.97-1.168c-1.594,4.67-7.678,8.152-14.957,8.152S17.2,393.084,15.61,388.414l-3.97,1.168A5.766,5.766,0,0,0,7.5,395.114v7.219H53.634v-7.219a5.766,5.766,0,0,0-4.139-5.532Zm0,0" transform="translate(-6.601 -341.843)" fill="#ffe09f"/>
      <path id="Trazado_1175538" data-name="Trazado 1175538" d="M143.773,308.3a15.238,15.238,0,0,0,13.456,0v-4.2H143.773Zm0,0" transform="translate(-126.535 -267.637)" fill="#d29b6e"/>
      <path id="Trazado_1175539" data-name="Trazado 1175539" d="M93.753,128.376h-1.3a1.922,1.922,0,0,1-1.922-1.922v-2.884a32.64,32.64,0,0,1-14.417-3.844H69.382v6.727a1.923,1.923,0,0,1-1.922,1.923h-1.3a2.5,2.5,0,0,0-2.527,2.155,2.4,2.4,0,0,0,2.39,2.65h1.49a12.482,12.482,0,0,0,24.892,0h1.49a2.4,2.4,0,0,0,2.39-2.65,2.5,2.5,0,0,0-2.528-2.155Zm0,0" transform="translate(-55.988 -105.371)" fill="#f5b97d"/>
      <path id="Trazado_1175540" data-name="Trazado 1175540" d="M171.8,108.734c-2.812.138-8.376-.339-14.417-5.038,0,0-.525.523-1.423,1.277.023.026.039.057.064.082.223.223,5.589,5.476,15.344,5.476.143,0,.288-.008.432-.01v-1.788Zm0,0" transform="translate(-137.258 -91.262)" fill="#e3aa75"/>
      <path id="Trazado_1175541" data-name="Trazado 1175541" d="M142.473,41.92a4.175,4.175,0,0,0-.5,3.335.484.484,0,0,0,.544.33,4.363,4.363,0,0,0,3.228-5.317.484.484,0,0,0-.544-.33,4.176,4.176,0,0,0-2.728,1.982Zm0,0" transform="translate(-124.816 -35.142)" fill="#f6d190"/>
      <path id="Trazado_1175542" data-name="Trazado 1175542" d="M138.116,91.086a4.175,4.175,0,0,0,3.335.5.485.485,0,0,0,.331-.544,4.364,4.364,0,0,0-5.317-3.228.485.485,0,0,0-.33.545A4.173,4.173,0,0,0,138.116,91.086Zm0,0" transform="translate(-119.804 -77.15)" fill="#f6d190"/>
      <path id="Trazado_1175543" data-name="Trazado 1175543" d="M94.867,54.342a4.187,4.187,0,0,0,.6,3.266.524.524,0,0,0,.7.149,4.372,4.372,0,0,0,1.271-6.011.524.524,0,0,0-.7-.149A4.187,4.187,0,0,0,94.867,54.342Zm0,0" transform="translate(-83.404 -45.343)" fill="#ecbd83"/>
      <path id="Trazado_1175544" data-name="Trazado 1175544" d="M101.544,106.05a4.188,4.188,0,0,0,3.267-.6.524.524,0,0,0,.149-.7,4.372,4.372,0,0,0-6.011-1.271.524.524,0,0,0-.149.7A4.186,4.186,0,0,0,101.544,106.05Zm0,0" transform="translate(-86.886 -90.454)" fill="#ecbd83"/>
      <path id="Trazado_1175545" data-name="Trazado 1175545" d="M52.5,85.779A4.188,4.188,0,0,0,54.776,88.2a.527.527,0,0,0,.676-.267,4.373,4.373,0,0,0-2.2-5.733.526.526,0,0,0-.675.267A4.19,4.19,0,0,0,52.5,85.779Zm0,0" transform="translate(-45.942 -72.311)" fill="#ecbd83"/>
      <g id="Grupo_1222584" data-name="Grupo 1222584" transform="translate(25.932 4.796)">
        <path id="Trazado_1175546" data-name="Trazado 1175546" d="M227.228,41.982a4.176,4.176,0,0,1,.5,3.335.484.484,0,0,1-.544.33,4.368,4.368,0,0,1-3.246-5.254.528.528,0,0,1,.626-.38,4.189,4.189,0,0,1,2.664,1.969Zm0,0" transform="translate(-222.902 -40)" fill="#f6d190"/>
        <path id="Trazado_1175547" data-name="Trazado 1175547" d="M219.958,91.086a4.174,4.174,0,0,1-3.335.5.484.484,0,0,1-.33-.544,4.364,4.364,0,0,1,5.317-3.228.485.485,0,0,1,.331.545A4.176,4.176,0,0,1,219.958,91.086Zm0,0" transform="translate(-216.285 -81.946)" fill="#f6d190"/>
        <path id="Trazado_1175548" data-name="Trazado 1175548" d="M280.012,54.342a4.187,4.187,0,0,1-.6,3.266.524.524,0,0,1-.7.149,4.372,4.372,0,0,1-1.271-6.011.524.524,0,0,1,.7-.149A4.187,4.187,0,0,1,280.012,54.342Zm0,0" transform="translate(-269.49 -50.139)" fill="#f6d190"/>
        <path id="Trazado_1175549" data-name="Trazado 1175549" d="M251.754,106.05a4.187,4.187,0,0,1-3.266-.6.524.524,0,0,1-.149-.7,4.372,4.372,0,0,1,6.011-1.271.524.524,0,0,1,.149.7A4.187,4.187,0,0,1,251.754,106.05Zm0,0" transform="translate(-244.428 -95.25)" fill="#f6d190"/>
        <path id="Trazado_1175550" data-name="Trazado 1175550" d="M320.485,85.779A4.187,4.187,0,0,1,318.21,88.2a.527.527,0,0,1-.675-.267A4.372,4.372,0,0,1,319.73,82.2a.527.527,0,0,1,.676.267A4.19,4.19,0,0,1,320.485,85.779Zm0,0" transform="translate(-305.06 -77.107)" fill="#f6d190"/>
      </g>
      <path id="Trazado_1175551" data-name="Trazado 1175551" d="M168.063,376.711l-4.3-1.731a.96.96,0,0,0-.962.143l-19.024,15.325H166.84l1.816-12.709a.962.962,0,0,0-.593-1.028Zm0,0" transform="translate(-126.535 -329.96)" fill="#ff8086"/>
      <path id="Trazado_1175552" data-name="Trazado 1175552" d="M59.442,378.164a1.922,1.922,0,1,1-1.922-1.922A1.922,1.922,0,0,1,59.442,378.164Zm0,0" transform="translate(-48.932 -331.131)" fill="#f6d190"/>
      <path id="Trazado_1175553" data-name="Trazado 1175553" d="M272.031,459.114l4.569-5.874a.791.791,0,0,1,1.4.657l-1.16,5.217Zm0,0" transform="translate(-239.415 -398.625)" fill="#e5646e"/>
      <path id="Trazado_1175554" data-name="Trazado 1175554" d="M163.759,374.979a.962.962,0,0,0-.962.143l-19.024,15.325h8.621l12.789-14.9Zm0,0" transform="translate(-126.535 -329.958)" fill="#e5646e"/>
      <path id="Trazado_1175555" data-name="Trazado 1175555" d="M71.346,140.237,71.3,127.742H69.38v5.767a1.923,1.923,0,0,1-1.922,1.922H66.015a2.4,2.4,0,1,0,0,4.805h1.49A12.405,12.405,0,0,0,81.88,151.608a12.486,12.486,0,0,1-10.534-11.371Zm0,0" transform="translate(-55.986 -112.426)" fill="#e3aa75"/>
      <path id="Trazado_1175559" data-name="Trazado 1175559" d="M43.148,46.875l-.332-.1a1.858,1.858,0,0,0-.952-.86l-4.3-1.731a1.861,1.861,0,0,0-1.861.277l-.2.162-2.48-.729a2,2,0,0,1-1.424-1.9v-4.14a13.5,13.5,0,0,0,3.4-3.411,3.555,3.555,0,0,0,.977,1.04.9.9,0,1,0,1.043-1.465,2.067,2.067,0,0,1-.8-1.744,13.282,13.282,0,0,0,.619-1.692,4.63,4.63,0,0,0,2.144,1.895.9.9,0,1,0,.74-1.639A2.98,2.98,0,0,1,38.006,28.7a3.4,3.4,0,0,0,3.182-2.956,3.315,3.315,0,0,0-.833-2.548,5.86,5.86,0,0,0,1.655.681.9.9,0,0,0,.436-1.745,3.26,3.26,0,0,1-2.47-2.121,4.315,4.315,0,0,1-.22-1.7.885.885,0,0,0,.007-.111,6.105,6.105,0,0,0-.2-1.539A5.088,5.088,0,0,0,42.2,13.788a4.957,4.957,0,0,0-.413-4.545.9.9,0,0,0-.964-.368,4.315,4.315,0,0,0-.714.251,9.787,9.787,0,0,0-4.79-6.174A21.67,21.67,0,0,0,23.966,0,21.675,21.675,0,0,0,12.615,2.952a9.784,9.784,0,0,0-4.791,6.18A4.352,4.352,0,0,0,7.1,8.875a.9.9,0,0,0-.965.368,4.959,4.959,0,0,0-.413,4.545,5.086,5.086,0,0,0,2.647,2.879,6.1,6.1,0,0,0-.2,1.533.885.885,0,0,0,.007.111,3.467,3.467,0,0,1-2.69,3.822.9.9,0,0,0,.436,1.745,5.816,5.816,0,0,0,1.761-.747,3.193,3.193,0,0,0-.939,1.939,3.3,3.3,0,0,0,3.181,3.637,2.979,2.979,0,0,1-1.707,2.128.9.9,0,0,0,.74,1.639A4.629,4.629,0,0,0,11.1,30.58a13.287,13.287,0,0,0,.62,1.694,2.079,2.079,0,0,1-.8,1.741.9.9,0,0,0,1.042,1.466,3.549,3.549,0,0,0,.976-1.039,13.511,13.511,0,0,0,3.4,3.411v4.138a1.994,1.994,0,0,1-1.424,1.9L10.68,45.142A2.82,2.82,0,0,0,5.8,46.576l-1.019.3A6.7,6.7,0,0,0,0,53.27v7.219a.9.9,0,0,0,1.8,0V53.27A4.894,4.894,0,0,1,5.292,48.6l.808-.238a2.818,2.818,0,0,0,3.515,1.3,18.287,18.287,0,0,0,12.343,5.871l-5.285,4.258a.9.9,0,1,0,1.128,1.4L36.827,45.864a.063.063,0,0,1,.062-.009l.365.147-1.216,1.4A.9.9,0,0,0,37.4,48.584l1.622-1.872,2.174.874a.061.061,0,0,1,.038.066L39.415,60.362a.9.9,0,0,0,.763,1.017.915.915,0,0,0,.128.009.9.9,0,0,0,.889-.772l1.7-11.93a4.9,4.9,0,0,1,3.234,4.584v7.219a.9.9,0,1,0,1.8,0V53.27a6.7,6.7,0,0,0-4.785-6.395ZM40.517,13.147a3.418,3.418,0,0,1-1.438,1.746,3.543,3.543,0,0,1,1.527-4.005A3.418,3.418,0,0,1,40.517,13.147ZM13.569,4.477A19.861,19.861,0,0,1,23.966,1.8a19.864,19.864,0,0,1,10.4,2.679c2.581,1.613,4.024,3.7,4.078,5.9a5.442,5.442,0,0,0-.955,1.612,5.566,5.566,0,0,0-.27.963q-.226-.208-.469-.409a5.114,5.114,0,0,0,.586-3.733,4.958,4.958,0,0,0-2.809-3.6.9.9,0,0,0-1.01.214A4.958,4.958,0,0,0,32.4,9.856c.02.092.042.183.066.274q-.358-.137-.727-.261a5.139,5.139,0,0,0-.712-3.557,4.958,4.958,0,0,0-3.841-2.464.9.9,0,0,0-.883.536,4.934,4.934,0,0,0,.334,4.4,26.246,26.246,0,0,0-5.361,0,4.934,4.934,0,0,0,.335-4.406.9.9,0,0,0-.882-.536,4.958,4.958,0,0,0-3.841,2.465,5.136,5.136,0,0,0-.711,3.561c-.247.084-.491.171-.73.263.024-.092.047-.185.067-.28A4.956,4.956,0,0,0,14.4,5.43a.9.9,0,0,0-1.01-.214,4.958,4.958,0,0,0-2.809,3.6,5.11,5.11,0,0,0,.591,3.742q-.246.2-.472.413a5.606,5.606,0,0,0-.272-.975,5.453,5.453,0,0,0-.94-1.6c.048-2.2,1.492-4.3,4.079-5.92Zm19.5,10.239a3.42,3.42,0,0,1-2.246-.263,3.541,3.541,0,0,1,4.194-.887,3.421,3.421,0,0,1-1.947,1.15ZM28.256,7.994a3.423,3.423,0,0,1-.5-2.207,3.542,3.542,0,0,1,2.233,3.572c-.142-.035-.286-.067-.429-.1a3.525,3.525,0,0,1-1.309-1.265Zm7.055,3.437a3.543,3.543,0,0,1-.887-4.194,3.541,3.541,0,0,1,.887,4.194Zm-6.921.5a3.417,3.417,0,0,1,2.206-.5,3.542,3.542,0,0,1-3.664,2.224A3.421,3.421,0,0,1,28.389,11.933ZM13.755,9.484a3.424,3.424,0,0,1-1.15,1.947,3.541,3.541,0,0,1,.887-4.194,3.417,3.417,0,0,1,.263,2.246Zm4.67-2.239a3.418,3.418,0,0,1,1.73-1.457,3.417,3.417,0,0,1-.5,2.206,3.522,3.522,0,0,1-1.32,1.272c-.14.031-.279.063-.417.1a3.441,3.441,0,0,1,.5-2.118ZM15.143,13.3a3.421,3.421,0,0,1,1.947,1.15,3.541,3.541,0,0,1-4.194-.887A3.417,3.417,0,0,1,15.143,13.3Zm3.635-.136a3.418,3.418,0,0,1-1.457-1.73,3.541,3.541,0,0,1,3.664,2.225A3.421,3.421,0,0,1,18.778,13.167ZM7.4,13.147a3.421,3.421,0,0,1-.089-2.26,3.541,3.541,0,0,1,1.527,4.005A3.419,3.419,0,0,1,7.4,13.147Zm4.971,13.7a.9.9,0,0,0-1.8,0v.062H10.03a1.5,1.5,0,0,1-1.5-1.662A1.6,1.6,0,0,1,10.167,23.9h1.3a2.825,2.825,0,0,0,2.821-2.821V18.84a.9.9,0,1,0-1.8,0v2.243a1.024,1.024,0,0,1-1.023,1.023h-1.3a3.526,3.526,0,0,0-1.806.5A5.465,5.465,0,0,0,9.968,18.15,5.158,5.158,0,0,1,11.5,14.706a5.174,5.174,0,0,0,2.968,1.769,5.569,5.569,0,0,0,1.147.121A4.778,4.778,0,0,0,18.9,15.363a.88.88,0,0,0,.11-.127,5.091,5.091,0,0,0,1.568.256,4.5,4.5,0,0,0,1.813-.373.9.9,0,0,0,.536-.882,4.89,4.89,0,0,0-2.088-3.589,24.7,24.7,0,0,1,6.245,0,4.888,4.888,0,0,0-2.09,3.591.9.9,0,0,0,.536.882,4.5,4.5,0,0,0,1.813.373,5.092,5.092,0,0,0,1.568-.256.88.88,0,0,0,.11.127A4.777,4.777,0,0,0,32.3,16.6a5.57,5.57,0,0,0,1.148-.121A5.172,5.172,0,0,0,36.42,14.7a5.167,5.167,0,0,1,1.545,3.452,5.487,5.487,0,0,0,1.5,4.349,3.3,3.3,0,0,0-1.558-.392H36.461a1.024,1.024,0,0,1-1.023-1.023V18.2a.9.9,0,1,0-1.8,0v2.883A2.824,2.824,0,0,0,36.461,23.9H37.9a1.5,1.5,0,0,1,1.5,1.662,1.6,1.6,0,0,1-1.633,1.346H37.36v-.053a.9.9,0,0,0-1.8,0,11.6,11.6,0,0,1-23.19-.008ZM7.565,47.033a1.023,1.023,0,1,1,1.023,1.023A1.024,1.024,0,0,1,7.565,47.033ZM10.994,48.5a2.8,2.8,0,0,0,.415-1.472c0-.077,0-.153-.01-.229l4.023-1.183a3.8,3.8,0,0,0,2.715-3.629V38.907a13.377,13.377,0,0,0,11.657,0v3.086a3.8,3.8,0,0,0,2.715,3.629L33.793,46l-9.712,7.823C18.706,53.8,13.819,51.78,10.994,48.5Zm0,0" transform="translate(0 0)"/>
      <path id="Trazado_1175562" data-name="Trazado 1175562" d="M218.127,415.522a.9.9,0,0,0-1.268.091l-8.467,9.769a.9.9,0,0,0,1.359,1.178l8.467-9.77A.9.9,0,0,0,218.127,415.522Zm0,0" transform="translate(-183.213 -365.508)"/>
    </g>
  </g>
</svg>
