<svg xmlns="http://www.w3.org/2000/svg" xmlns:xlink="http://www.w3.org/1999/xlink" width="108" height="108" viewBox="0 0 108 108">
  <defs>
    <filter id="Trazado_904820" x="0" y="0" width="108" height="108" filterUnits="userSpaceOnUse">
      <feOffset dy="3" input="SourceAlpha"/>
      <feGaussianBlur stdDeviation="3" result="blur"/>
      <feFlood flood-opacity="0.161"/>
      <feComposite operator="in" in2="blur"/>
      <feComposite in="SourceGraphic"/>
    </filter>
    <clipPath id="clip-path">
      <path id="path4683" d="M0-682.665H60v60H0Z" transform="translate(0 682.665)"/>
    </clipPath>
  </defs>
  <g id="Grupo_1222658" data-name="Grupo 1222658" transform="translate(-200.5 -9179.3)">
    <g id="Grupo_1222481" data-name="Grupo 1222481" transform="translate(209.5 9185.3)">
      <g id="Grupo_1173585" data-name="Grupo 1173585" transform="translate(0 0)">
        <g id="Grupo_1173428" data-name="Grupo 1173428">
          <g id="Grupo_1171958" data-name="Grupo 1171958">
            <g id="Grupo_1167341" data-name="Grupo 1167341">
              <g id="Grupo_1166792" data-name="Grupo 1166792">
                <g transform="matrix(1, 0, 0, 1, -9, -6)" filter="url(#Trazado_904820)">
                  <g id="Trazado_904820-2" data-name="Trazado 904820" transform="translate(9 6)" fill="#fcf5f0">
                    <path d="M 44.99999618530273 88.49993133544922 C 39.12687301635742 88.49993133544922 33.43022155761719 87.35000610351562 28.06829643249512 85.08209991455078 C 22.88852119445801 82.89124298095703 18.23629570007324 79.75453186035156 14.24084663391113 75.75907897949219 C 10.24540901184082 71.76362609863281 7.108683586120605 67.11141204833984 4.917821407318115 61.931640625 C 2.649921178817749 56.56971740722656 1.499996185302734 50.87307739257812 1.499996185302734 44.99996566772461 C 1.499996185302734 39.12685394287109 2.649921178817749 33.43020248413086 4.917821407318115 28.06827735900879 C 7.108683586120605 22.88851547241211 10.24540901184082 18.23628997802734 14.24084663391113 14.24085330963135 C 18.23629570007324 10.24540328979492 22.88852119445801 7.108690738677979 28.06829643249512 4.91782808303833 C 33.43022155761719 2.649928092956543 39.12687301635742 1.500003218650818 44.99999618530273 1.500003218650818 C 50.87311935424805 1.500003218650818 56.56977081298828 2.649928092956543 61.93169784545898 4.91782808303833 C 67.11147308349609 7.108690738677979 71.76369476318359 10.24540328979492 75.75914764404297 14.24085330963135 C 79.75458526611328 18.23628997802734 82.89131164550781 22.88851547241211 85.08216857910156 28.06827735900879 C 87.35007476806641 33.43020248413086 88.5 39.12685394287109 88.5 44.99996566772461 C 88.5 50.87307739257812 87.35007476806641 56.56971740722656 85.08216857910156 61.931640625 C 82.89131164550781 67.11141204833984 79.75458526611328 71.76362609863281 75.75914764404297 75.75907897949219 C 71.76369476318359 79.75453186035156 67.11147308349609 82.89124298095703 61.93169784545898 85.08209991455078 C 56.56977081298828 87.35000610351562 50.87311935424805 88.49993133544922 44.99999618530273 88.49993133544922 Z" stroke="none"/>
                    <path d="M 44.99999618530273 3.000007629394531 C 39.32870864868164 3.000007629394531 33.82865142822266 4.110069274902344 28.65262603759766 6.299339294433594 C 23.65165710449219 8.414581298828125 19.15968322753906 11.44333648681641 15.301513671875 15.30150604248047 C 11.44333648681641 19.15968322753906 8.414566040039062 23.65163421630859 6.299339294433594 28.65260696411133 C 4.110054016113281 33.82863616943359 2.999992370605469 39.32867813110352 2.999992370605469 44.99996566772461 C 2.999992370605469 50.67123794555664 4.110054016113281 56.17127990722656 6.299339294433594 61.34730911254883 C 8.414566040039062 66.34828186035156 11.44333648681641 70.84024047851562 15.301513671875 74.69841003417969 C 19.15968322753906 78.55657958984375 23.65165710449219 81.58535003662109 28.65262603759766 83.70057678222656 C 33.82865142822266 85.88986206054688 39.32870864868164 86.99992370605469 44.99999618530273 86.99992370605469 C 50.67128372192383 86.99992370605469 56.17134094238281 85.88986206054688 61.34736633300781 83.70057678222656 C 66.34834289550781 81.58535003662109 70.84030914306641 78.55657958984375 74.69847869873047 74.69841003417969 C 78.55665588378906 70.84024047851562 81.58542633056641 66.34828186035156 83.70065307617188 61.34730911254883 C 85.88993835449219 56.17127990722656 87 50.67123794555664 87 44.99996566772461 C 87 39.32867813110352 85.88993835449219 33.82863616943359 83.70065307617188 28.65260696411133 C 81.58542633056641 23.65163421630859 78.55665588378906 19.15968322753906 74.69847869873047 15.30150604248047 C 70.84030914306641 11.44333648681641 66.34834289550781 8.414581298828125 61.34736633300781 6.299339294433594 C 56.17134094238281 4.110069274902344 50.67128372192383 3.000007629394531 44.99999618530273 3.000007629394531 M 44.99999618530273 7.62939453125e-06 C 69.85281372070312 7.62939453125e-06 90 20.14717864990234 90 44.99996566772461 C 90 69.85273742675781 69.85281372070312 89.99992370605469 44.99999618530273 89.99992370605469 C 20.14717864990234 89.99992370605469 -7.62939453125e-06 69.85273742675781 -7.62939453125e-06 44.99996566772461 C -7.62939453125e-06 20.14717864990234 20.14717864990234 7.62939453125e-06 44.99999618530273 7.62939453125e-06 Z" stroke="none" fill="#eca675"/>
                  </g>
                </g>
              </g>
            </g>
          </g>
        </g>
      </g>
    </g>
    <g id="g4677" transform="translate(226.532 9884.998)">
      <g id="g4679" transform="translate(0 -682.665)">
        <g id="g4681" clip-path="url(#clip-path)">
          <g id="g4687" transform="translate(3.483 0.879)">
            <path id="path4689" d="M-402.509-85.367v42.254a1.779,1.779,0,0,1-1.779,1.779l-5.246,1.186h-29.982a1.779,1.779,0,0,1-1.779-1.779V-91.814a1.779,1.779,0,0,1,1.779-1.779H-410.7a1.779,1.779,0,0,1,1.261.524l6.414,6.447a1.779,1.779,0,0,1,.518,1.255" transform="translate(441.296 93.593)" fill="#f2fbff"/>
          </g>
          <g id="g4691" transform="translate(32.889 0.879)">
            <path id="path4693" d="M-109.653-85.367v43.44a1.779,1.779,0,0,1-1.779,1.779H-113.8a1.779,1.779,0,0,0,1.779-1.779v-43.44a1.777,1.777,0,0,0-.159-.734,14.22,14.22,0,0,0-.36-1.707l-4.563-3.4-1.85-1.86a1.78,1.78,0,0,0-1.262-.524h2.372a1.78,1.78,0,0,1,.683.136c.214.089.411,1.406.579,1.574l6.414,5.261a1.777,1.777,0,0,1,.36.521,1.779,1.779,0,0,1,.159.734" transform="translate(120.22 93.593)" fill="#dff6fd"/>
          </g>
          <g id="g4695" transform="translate(26.834 14.074)">
            <path id="path4697" d="M-44.142-188.9a1.3,1.3,0,0,1-.611.152h-2.338a1.3,1.3,0,0,1-1.3-1.3V-205.8a1.3,1.3,0,0,1,1.3-1.3h2.338a1.3,1.3,0,0,1,.611.152c-.413.218,1.677.654,1.677,1.153v15.745c0,.5-2.09.935-1.677,1.153" transform="translate(48.396 207.105)" fill="#dff6fd"/>
          </g>
          <g id="g4699" transform="translate(35.244 29.726)">
            <path id="path4701" d="M-27.167-12.31v4.929h-.447a.864.864,0,0,0-.862.8l-1.3,17.48c0,.069-.008.136-.009.2h4.745c0-.068,0-.135.009-.2l.113-17.48c.033-.452,1.6-.8,2.048-.8h.447V-13.5Z" transform="translate(29.785 13.496)" fill="#dff6fd"/>
          </g>
          <g id="g4703" transform="translate(41.42 21.489)">
            <path id="path4705" d="M-42.246-297.842h-4.071v-28.7h1.7Z" transform="translate(46.317 326.543)" fill="#e19a74"/>
          </g>
          <path id="path4707" d="M497.878-409.476h-1.9v-28.7h1.9Z" transform="translate(-452.387 459.666)" fill="#dc8758"/>
          <g id="g4709" transform="translate(32.354 15.592)">
            <path id="path4711" d="M-230.41-146.67l-6.544,1.186h-15.659V-160.8h15.659l6.544,1.186Z" transform="translate(252.613 160.804)" fill="#fee97d"/>
          </g>
          <g id="g4713" transform="translate(48.013 15.591)">
            <path id="path4715" d="M-36.928,0l1.186,15.321h-4.745V0Z" transform="translate(40.487)" fill="#fddf30"/>
          </g>
          <g id="g4717" transform="translate(30.392 14.074)">
            <path id="path4719" d="M-16.875-190.474H-17.2a1.3,1.3,0,0,1-1.3-1.3v-15.746a1.3,1.3,0,0,1,1.3-1.3h.322a1.3,1.3,0,0,1,1.3,1.3v15.746a1.3,1.3,0,0,1-1.3,1.3" transform="translate(18.501 208.829)" fill="#e19a74"/>
          </g>
          <g id="g4721" transform="translate(38.798 35.84)">
            <path id="path4723" d="M-48.334-239.154h0a4.624,4.624,0,0,1-1.78-.114,4.659,4.659,0,0,1-2.865-4.651l.624-8.4,1.36-2.341-1.081-1.415.4-5.325a.865.865,0,0,1,.863-.8h2.594a.865.865,0,0,1,.863.8l2.485,17.48c.2,2.7-.75,4.765-3.458,4.765" transform="translate(52.991 262.199)" fill="#fee97d"/>
          </g>
          <g id="g4725" transform="translate(31.68 14.074)">
            <path id="path4727" d="M-37.975-13.54V2.2a1.3,1.3,0,0,1-1.3,1.3h-2.338a1.3,1.3,0,0,0,1.27-1.3V-13.54a1.3,1.3,0,0,0-1.287-1.3h2.355a1.3,1.3,0,0,1,1.3,1.3" transform="translate(41.635 14.845)" fill="#dc8758"/>
          </g>
          <g id="g4729" transform="translate(41.676 35.84)">
            <path id="path4731" d="M-18.465-241.61a4.636,4.636,0,0,1-1.779-.352,4.659,4.659,0,0,0,2.866-4.65L-18-255.005l1.068-1.584-1.347-2.171-.4-5.331a.866.866,0,0,0-.864-.8h3.559a.866.866,0,0,1,.864.8l.4,5.324-1.093,1.26,1.372,2.5.624,8.392a4.658,4.658,0,0,1-4.645,5" transform="translate(20.244 264.893)" fill="#fddf30"/>
          </g>
          <g id="g4733" transform="translate(39.435 41.965)">
            <path id="path4735" d="M-46.525-39.047h-4.483l.279-3.763H-46.8l1.317,1.774Z" transform="translate(51.008 42.809)" fill="#f2fbff"/>
          </g>
          <g id="g4737" transform="translate(43.639 41.966)">
            <path id="path4739" d="M-39.821-39.045H-43.38l-.279-3.763H-40.1Z" transform="translate(43.659 42.808)" fill="#dff6fd"/>
          </g>
          <g id="g4741" transform="translate(35.262 0.879)">
            <path id="path4743" d="M-85.034-85.367h-7.008a1.186,1.186,0,0,1-1.186-1.186v-7.04a1.78,1.78,0,0,1,1.262.524l6.414,6.447a1.779,1.779,0,0,1,.518,1.255" transform="translate(93.228 93.593)" fill="#fd8087"/>
          </g>
          <g id="g4745" transform="translate(51.572 14.074)">
            <path id="path4747" d="M-16.875-190.474H-17.2a1.3,1.3,0,0,1-1.3-1.3v-15.746a1.3,1.3,0,0,1,1.3-1.3h.322a1.3,1.3,0,0,1,1.3,1.3v15.746a1.3,1.3,0,0,1-1.3,1.3" transform="translate(18.501 208.829)" fill="#e19a74"/>
          </g>
          <g id="g4749" transform="translate(52.86 14.074)">
            <path id="path4751" d="M-37.975-13.54V2.2a1.3,1.3,0,0,1-1.3,1.3h-2.338a1.3,1.3,0,0,0,1.27-1.3V-13.54a1.305,1.305,0,0,0-1.287-1.3h2.355a1.3,1.3,0,0,1,1.3,1.3" transform="translate(41.635 14.845)" fill="#dc8758"/>
          </g>
          <g id="g4753" transform="translate(3.483 0.879)">
            <path id="path4755" d="M-414.818-149.843v-6.213a1.779,1.779,0,0,0-.518-1.255l-6.414-6.447a1.78,1.78,0,0,0-1.262-.524h-30a1.78,1.78,0,0,0-1.779,1.779v12.22" transform="translate(454.791 164.282)" fill="none" stroke="#000" stroke-linecap="round" stroke-linejoin="round" stroke-miterlimit="10" stroke-width="1"/>
          </g>
          <g id="g4757" transform="translate(35.261 1.116)">
            <path id="path4759" d="M-82.572-82.9h-6.771a1.186,1.186,0,0,1-1.186-1.186v-6.8" transform="translate(90.529 90.893)" fill="none" stroke="#000" stroke-linecap="round" stroke-linejoin="round" stroke-miterlimit="10" stroke-width="1"/>
          </g>
          <g id="g4761" transform="translate(3.483 20.044)">
            <path id="path4763" d="M-78.52-355.745h-5.787a1.779,1.779,0,0,1-1.779-1.779v-32.5" transform="translate(86.086 390.026)" fill="none" stroke="#000" stroke-linecap="round" stroke-linejoin="round" stroke-miterlimit="10" stroke-width="1"/>
          </g>
          <g id="g4765" transform="translate(16.215 54.325)">
            <path id="path4767" d="M-231.471,0h-22.305" transform="translate(253.777)" fill="none" stroke="#000" stroke-linecap="round" stroke-linejoin="round" stroke-miterlimit="10" stroke-width="1"/>
          </g>
          <g id="g4769" transform="translate(41.42 31.058)">
            <path id="path4771" d="M0-47.02v-4.531" transform="translate(0 51.551)" fill="none" stroke="#000" stroke-linecap="round" stroke-linejoin="round" stroke-miterlimit="10" stroke-width="1"/>
          </g>
          <g id="g4773" transform="translate(45.491 31.124)">
            <path id="path4775" d="M0,0V4.464" fill="none" stroke="#000" stroke-linecap="round" stroke-linejoin="round" stroke-miterlimit="10" stroke-width="1"/>
          </g>
          <g id="g4777" transform="translate(35.648 30.911)">
            <path id="path4779" d="M-161.8,0h-15.591" transform="translate(177.392)" fill="none" stroke="#000" stroke-linecap="round" stroke-linejoin="round" stroke-miterlimit="10" stroke-width="1"/>
          </g>
          <g id="g4781" transform="translate(35.517 15.592)">
            <path id="path4783" d="M0,0H15.757" fill="none" stroke="#000" stroke-linecap="round" stroke-linejoin="round" stroke-miterlimit="10" stroke-width="1"/>
          </g>
          <g id="g4785" transform="translate(51.572 14.074)">
            <path id="path4787" d="M-51.337-92.753v8.112a1.3,1.3,0,0,1-1.3,1.3H-54.98a1.3,1.3,0,0,1-1.3-1.3v-15.746a1.3,1.3,0,0,1,1.3-1.3h2.338a1.3,1.3,0,0,1,1.3,1.3v2.467" transform="translate(56.284 101.69)" fill="none" stroke="#000" stroke-linecap="round" stroke-linejoin="round" stroke-miterlimit="10" stroke-width="1"/>
          </g>
          <g id="g4789" transform="translate(30.392 14.074)">
            <path id="path4791" d="M-37.8-190.474h-2.338a1.3,1.3,0,0,1-1.3-1.3v-15.746a1.3,1.3,0,0,1,1.3-1.3H-37.8a1.3,1.3,0,0,1,1.3,1.3v15.746A1.3,1.3,0,0,1-37.8-190.474Z" transform="translate(41.444 208.829)" fill="none" stroke="#000" stroke-linecap="round" stroke-linejoin="round" stroke-miterlimit="10" stroke-width="1"/>
          </g>
          <g id="g4793" transform="translate(39.952 41.965)">
            <path id="path4795" d="M0,0H7.008" fill="none" stroke="#000" stroke-linecap="round" stroke-linejoin="round" stroke-miterlimit="10" stroke-width="1"/>
          </g>
          <g id="g4797" transform="translate(39.672 45.728)">
            <path id="path4799" d="M-78.521,0h-7.567" transform="translate(86.088)" fill="none" stroke="#000" stroke-linecap="round" stroke-linejoin="round" stroke-miterlimit="10" stroke-width="1"/>
          </g>
          <g id="g4801" transform="translate(38.798 35.84)">
            <path id="path4803" d="M-48.334-241.615h0a4.657,4.657,0,0,1-4.644-5l1.3-17.479a.865.865,0,0,1,.863-.8h4.966a.865.865,0,0,1,.863.8l1.3,17.479A4.657,4.657,0,0,1-48.334-241.615Z" transform="translate(52.991 264.898)" fill="none" stroke="#000" stroke-linecap="round" stroke-linejoin="round" stroke-miterlimit="10" stroke-width="1"/>
          </g>
          <g id="g4805" transform="translate(10.108 9.789)">
            <path id="path4807" d="M0,0H18.292" fill="none" stroke="#000" stroke-linecap="round" stroke-linejoin="round" stroke-miterlimit="10" stroke-width="1"/>
          </g>
          <g id="g4809" transform="translate(10.108 16.107)">
            <path id="path4811" d="M0,0H12.777" fill="none" stroke="#000" stroke-linecap="round" stroke-linejoin="round" stroke-miterlimit="10" stroke-width="1"/>
          </g>
          <g id="g4813" transform="translate(10.108 22.425)">
            <path id="path4815" d="M0,0H12.777" fill="none" stroke="#000" stroke-linecap="round" stroke-linejoin="round" stroke-miterlimit="10" stroke-width="1"/>
          </g>
          <g id="g4817" transform="translate(10.108 28.743)">
            <path id="path4819" d="M0,0H12.777" fill="none" stroke="#000" stroke-linecap="round" stroke-linejoin="round" stroke-miterlimit="10" stroke-width="1"/>
          </g>
          <g id="g4821" transform="translate(10.425 44.124)">
            <path id="path4823" d="M0-26.2l2.053-2.053A1.6,1.6,0,0,1,4.785-27.12a1.6,1.6,0,0,0,2.732,1.132l1.027-1.027a1.6,1.6,0,0,1,1.132-.469h4.767" transform="translate(0 28.723)" fill="none" stroke="#000" stroke-linecap="round" stroke-linejoin="round" stroke-miterlimit="10" stroke-width="1"/>
          </g>
        </g>
      </g>
    </g>
  </g>
</svg>
