<svg xmlns="http://www.w3.org/2000/svg" xmlns:xlink="http://www.w3.org/1999/xlink" width="113" height="113" viewBox="0 0 113 113">
  <defs>
    <filter id="Trazado_982547" x="0" y="0" width="113" height="113" filterUnits="userSpaceOnUse">
      <feOffset dy="3" input="SourceAlpha"/>
      <feGaussianBlur stdDeviation="3" result="blur"/>
      <feFlood flood-opacity="0.161"/>
      <feComposite operator="in" in2="blur"/>
      <feComposite in="SourceGraphic"/>
    </filter>
  </defs>
  <g id="Grupo_1222666" data-name="Grupo 1222666" transform="translate(-2415 -11062.269)">
    <g id="Grupo_1222486" data-name="Grupo 1222486" transform="translate(2424 11068.269)">
      <g id="Grupo_1208010" data-name="Grupo 1208010" transform="translate(0 0)">
        <g id="Grupo_1202142" data-name="Grupo 1202142" transform="translate(0 0)">
          <g id="Grupo_1201923" data-name="Grupo 1201923">
            <g id="Grupo_1176928" data-name="Grupo 1176928" transform="translate(0)">
              <g id="Grupo_1172322" data-name="Grupo 1172322">
                <g id="Grupo_1164700" data-name="Grupo 1164700">
                  <g id="Grupo_1160931" data-name="Grupo 1160931">
                    <g id="Grupo_1160749" data-name="Grupo 1160749">
                      <g id="Grupo_1158891" data-name="Grupo 1158891">
                        <g id="Grupo_1157406" data-name="Grupo 1157406">
                          <g id="Grupo_1155793" data-name="Grupo 1155793">
                            <g id="Grupo_1154704" data-name="Grupo 1154704">
                              <g id="Grupo_1150790" data-name="Grupo 1150790">
                                <g id="Grupo_1154214" data-name="Grupo 1154214" transform="translate(0)">
                                  <g id="Grupo_1152583" data-name="Grupo 1152583">
                                    <g id="Grupo_1146973" data-name="Grupo 1146973">
                                      <g id="Grupo_1146954" data-name="Grupo 1146954">
                                        <g transform="matrix(1, 0, 0, 1, -9, -6)" filter="url(#Trazado_982547)">
                                          <g id="Trazado_982547-2" data-name="Trazado 982547" transform="translate(9 6)" fill="#f2f4f0">
                                            <path d="M 47.5 93.49984741210938 C 41.28938674926758 93.49984741210938 35.26533508300781 92.2838134765625 29.59519958496094 89.88556671142578 C 24.11773300170898 87.56878662109375 19.19814682006836 84.25181579589844 14.97310638427734 80.02677917480469 C 10.74805355072021 75.80173492431641 7.431079864501953 70.88216400146484 5.114306449890137 65.40470886230469 C 2.716039896011353 59.73457717895508 1.50001335144043 53.71053695678711 1.50001335144043 47.49992370605469 C 1.50001335144043 41.28931045532227 2.716039896011353 35.2652702331543 5.114306449890137 29.59513664245605 C 7.431079864501953 24.11768341064453 10.74805355072021 19.19811058044434 14.97310638427734 14.97307014465332 C 19.19814682006836 10.74803066253662 24.11773300170898 7.431056976318359 29.59519958496094 5.114283561706543 C 35.26533508300781 2.716030359268188 41.28938674926758 1.500003695487976 47.5 1.500003695487976 C 53.71062850952148 1.500003695487976 59.73466491699219 2.716030359268188 65.40481567382812 5.114283561706543 C 70.88227844238281 7.431056976318359 75.80186462402344 10.74803066253662 80.02690887451172 14.97307014465332 C 84.25196075439453 19.19811058044434 87.56893157958984 24.11768341064453 89.88570404052734 29.59513664245605 C 92.28397369384766 35.2652702331543 93.5 41.28931045532227 93.5 47.49992370605469 C 93.5 53.71053695678711 92.28397369384766 59.73457717895508 89.88570404052734 65.40470886230469 C 87.56893157958984 70.88216400146484 84.25196075439453 75.80173492431641 80.02690887451172 80.02677917480469 C 75.80186462402344 84.25181579589844 70.88227844238281 87.56878662109375 65.40481567382812 89.88556671142578 C 59.73466491699219 92.2838134765625 53.71062850952148 93.49984741210938 47.5 93.49984741210938 Z" stroke="none"/>
                                            <path d="M 47.5 3 C 41.49121475219727 3 35.66376876831055 4.176155090332031 30.17951965332031 6.495803833007812 C 24.88084411621094 8.7369384765625 20.12152099609375 11.94596862792969 16.03375244140625 16.03372192382812 C 11.94598388671875 20.12149047851562 8.736953735351562 24.88081359863281 6.495796203613281 30.17947387695312 C 4.176155090332031 35.6637077331543 3 41.49115371704102 3 47.49992370605469 C 3 53.50869369506836 4.176155090332031 59.33613967895508 6.495796203613281 64.82037353515625 C 8.736953735351562 70.11903381347656 11.94598388671875 74.87835693359375 16.03375244140625 78.96612548828125 C 20.12152099609375 83.05387878417969 24.88084411621094 86.26290893554688 30.17951965332031 88.50404357910156 C 35.66376876831055 90.82369232177734 41.49121475219727 91.99984741210938 47.5 91.99984741210938 C 53.50878524780273 91.99984741210938 59.33623123168945 90.82369232177734 64.82049560546875 88.50404357910156 C 70.11915588378906 86.26290893554688 74.87847900390625 83.05387878417969 78.96624755859375 78.96612548828125 C 83.05401611328125 74.87835693359375 86.26304626464844 70.11903381347656 88.50418090820312 64.82037353515625 C 90.82382965087891 59.33613967895508 91.99998474121094 53.50869369506836 91.99998474121094 47.49992370605469 C 91.99998474121094 41.49115371704102 90.82382965087891 35.6637077331543 88.50418090820312 30.17947387695312 C 86.26304626464844 24.88081359863281 83.05401611328125 20.12149047851562 78.96624755859375 16.03372192382812 C 74.87847900390625 11.94596862792969 70.11915588378906 8.7369384765625 64.82049560546875 6.495803833007812 C 59.33623123168945 4.176155090332031 53.50878524780273 3 47.5 3 M 47.5 0 C 73.7335205078125 0 94.99998474121094 21.26644897460938 94.99998474121094 47.49992370605469 C 94.99998474121094 73.7333984375 73.7335205078125 94.99984741210938 47.5 94.99984741210938 C 21.26649475097656 94.99984741210938 0 73.7333984375 0 47.49992370605469 C 0 21.26644897460938 21.26649475097656 0 47.5 0 Z" stroke="none" fill="#899e78"/>
                                          </g>
                                        </g>
                                      </g>
                                    </g>
                                  </g>
                                </g>
                              </g>
                            </g>
                          </g>
                        </g>
                      </g>
                    </g>
                  </g>
                </g>
              </g>
            </g>
          </g>
        </g>
      </g>
    </g>
    <g id="bible_1561784" transform="translate(2438.31 11080.06)">
      <g id="Grupo_1222664" data-name="Grupo 1222664" transform="translate(6.063 15.877)">
        <path id="Trazado_1175711" data-name="Trazado 1175711" d="M61.256,21V60.317H39.632a6.365,6.365,0,0,1-12.007,0H6V21h4.25V52.878h6.142a26.5,26.5,0,0,1,17.236,6.376,26.5,26.5,0,0,1,17.236-6.376h6.142V21Z" transform="translate(-6 -14.624)" fill="#b27946"/>
        <path id="Trazado_1175712" data-name="Trazado 1175712" d="M41.878,15a8.492,8.492,0,0,0-6.641,3.188l-.074.234h-3.57l-.074-.234A8.492,8.492,0,0,0,24.877,15H10V53.254h6.142A26.5,26.5,0,0,1,33.377,59.63a26.5,26.5,0,0,1,17.236-6.376h6.142V15Z" transform="translate(-5.75 -15)" fill="#e6e9ed"/>
        <path id="Trazado_1175713" data-name="Trazado 1175713" d="M50.887,32.007V47.946H36.01V37.32l-.17-.244a10.137,10.137,0,0,0,3.751-5.186l.669.117Z" transform="translate(-4.132 -13.943)" fill="#b4dd7f"/>
        <path id="Trazado_1175714" data-name="Trazado 1175714" d="M32.5,18a7.089,7.089,0,0,1,1.785.234c3.57.956,6.3,4.707,6.673,9.33.032.351.043.7.043,1.063a12.722,12.722,0,0,1-.669,4.134,10.137,10.137,0,0,1-3.751,5.186,7.194,7.194,0,0,1-4.08,1.307c-4.7,0-8.5-4.76-8.5-10.626,0-5.1,2.88-9.362,6.716-10.392A7.089,7.089,0,0,1,32.5,18Z" transform="translate(-4.873 -14.812)" fill="#fcd770"/>
        <path id="Trazado_1175715" data-name="Trazado 1175715" d="M35.842,25.659a2.258,2.258,0,0,1,0,3.188L32.25,32.438l-3.592-3.592a2.254,2.254,0,0,1,3.188-3.188l.4.4.4-.4a2.258,2.258,0,0,1,3.188,0Z" transform="translate(-4.623 -14.374)" fill="#ff826e"/>
      </g>
      <g id="Grupo_1222665" data-name="Grupo 1222665" transform="translate(5 1)">
        <path id="Trazado_1175716" data-name="Trazado 1175716" d="M32.313,34l4.342-4.342a3.316,3.316,0,0,0-4.342-4.993,3.317,3.317,0,0,0-4.342,4.993Zm-2-7.878a1.2,1.2,0,0,1,.843.349l1.154,1.154,1.154-1.154a1.192,1.192,0,0,1,1.685,1.685L32.313,31l-2.839-2.839a1.192,1.192,0,0,1,.843-2.034Z" transform="translate(-3.623 0.44)"/>
        <rect id="Rectángulo_421307" data-name="Rectángulo 421307" width="2" height="3" transform="translate(27.69 -0.059)"/>
        <rect id="Rectángulo_421308" data-name="Rectángulo 421308" width="3" height="2" transform="translate(22.69 3.941)"/>
        <rect id="Rectángulo_421309" data-name="Rectángulo 421309" width="3" height="2" transform="translate(31.69 3.941)"/>
        <path id="Trazado_1175717" data-name="Trazado 1175717" d="M58.13,20.877V14.5H42.191a9.508,9.508,0,0,0-7.214,3.307c-.075-.013-.149-.032-.224-.041V12.376h3.188V10.25H34.753V6H32.628v4.25H29.44v2.125h3.188v5.39c-.075.011-.149.03-.224.041A9.511,9.511,0,0,0,25.19,14.5H9.25v6.376H5V62.318H26.976a7.429,7.429,0,0,0,13.429,0H62.381V20.877Zm-15.939-4.25H56.005V52.755H50.926a27.541,27.541,0,0,0-16.173,5.278V40.99a8.033,8.033,0,0,0,2.125-.606V50.63h17V32.565h-11a14.063,14.063,0,0,0,.371-3.188H53.88V27.252H43.088a13.584,13.584,0,0,0-.5-2.125H53.88V23H41.7a10.31,10.31,0,0,0-4.46-4.47A7.387,7.387,0,0,1,42.191,16.626ZM26.252,29.377c0-5.274,3.338-9.563,7.438-9.563s7.438,4.29,7.438,9.563-3.338,9.563-7.438,9.563S26.252,34.651,26.252,29.377ZM42.2,34.69h9.556V48.5H39V39.09A11.329,11.329,0,0,0,42.2,34.69ZM11.376,16.626H25.19a7.387,7.387,0,0,1,4.955,1.905A10.316,10.316,0,0,0,25.685,23H13.5v2.125h11.29a13.7,13.7,0,0,0-.5,2.125H13.5v2.125H24.127a14.224,14.224,0,0,0,.166,2.125H13.5v2.125h11.29a12.794,12.794,0,0,0,.894,2.125H13.5v2.125H27.147a8.9,8.9,0,0,0,5.481,3.111V58.033a27.541,27.541,0,0,0-16.173-5.278H11.376Zm48.88,43.567H38.944l-.25.708a5.305,5.305,0,0,1-10.008,0l-.25-.708H7.125V23H9.25V54.88h7.2A25.434,25.434,0,0,1,33,61l.692.593L34.381,61A25.442,25.442,0,0,1,50.926,54.88h7.2V23h2.125Z" transform="translate(-5 -0.687)"/>
        <rect id="Rectángulo_421310" data-name="Rectángulo 421310" width="10" height="2" transform="translate(38.69 17.941)"/>
        <rect id="Rectángulo_421311" data-name="Rectángulo 421311" width="10" height="2" transform="translate(8.69 17.941)"/>
        <rect id="Rectángulo_421312" data-name="Rectángulo 421312" width="2" height="3" transform="translate(8.69 38.941)"/>
        <rect id="Rectángulo_421313" data-name="Rectángulo 421313" width="2" height="3" transform="translate(12.69 38.941)"/>
        <rect id="Rectángulo_421314" data-name="Rectángulo 421314" width="2" height="3" transform="translate(16.69 38.941)"/>
        <rect id="Rectángulo_421315" data-name="Rectángulo 421315" width="17" height="2" transform="translate(8.69 43.941)"/>
        <rect id="Rectángulo_421316" data-name="Rectángulo 421316" width="17" height="2" transform="translate(8.69 47.941)"/>
      </g>
    </g>
  </g>
</svg>
