<svg xmlns="http://www.w3.org/2000/svg" xmlns:xlink="http://www.w3.org/1999/xlink" width="113" height="113" viewBox="0 0 113 113">
  <defs>
    <filter id="Trazado_982547" x="0" y="0" width="113" height="113" filterUnits="userSpaceOnUse">
      <feOffset dy="3" input="SourceAlpha"/>
      <feGaussianBlur stdDeviation="3" result="blur"/>
      <feFlood flood-opacity="0.161"/>
      <feComposite operator="in" in2="blur"/>
      <feComposite in="SourceGraphic"/>
    </filter>
  </defs>
  <g id="Grupo_1222681" data-name="Grupo 1222681" transform="translate(-2415 -11488)">
    <g id="Grupo_1222488" data-name="Grupo 1222488" transform="translate(2424 11494)">
      <g id="Grupo_1208010" data-name="Grupo 1208010" transform="translate(0 0)">
        <g id="Grupo_1202142" data-name="Grupo 1202142" transform="translate(0 0)">
          <g id="Grupo_1201923" data-name="Grupo 1201923">
            <g id="Grupo_1176928" data-name="Grupo 1176928" transform="translate(0)">
              <g id="Grupo_1172322" data-name="Grupo 1172322">
                <g id="Grupo_1164700" data-name="Grupo 1164700">
                  <g id="Grupo_1160931" data-name="Grupo 1160931">
                    <g id="Grupo_1160749" data-name="Grupo 1160749">
                      <g id="Grupo_1158891" data-name="Grupo 1158891">
                        <g id="Grupo_1157406" data-name="Grupo 1157406">
                          <g id="Grupo_1155793" data-name="Grupo 1155793">
                            <g id="Grupo_1154704" data-name="Grupo 1154704">
                              <g id="Grupo_1150790" data-name="Grupo 1150790">
                                <g id="Grupo_1154214" data-name="Grupo 1154214" transform="translate(0)">
                                  <g id="Grupo_1152583" data-name="Grupo 1152583">
                                    <g id="Grupo_1146973" data-name="Grupo 1146973">
                                      <g id="Grupo_1146954" data-name="Grupo 1146954">
                                        <g transform="matrix(1, 0, 0, 1, -9, -6)" filter="url(#Trazado_982547)">
                                          <g id="Trazado_982547-2" data-name="Trazado 982547" transform="translate(9 6)" fill="#f2f4f0">
                                            <path d="M 47.5 93.49984741210938 C 41.28938674926758 93.49984741210938 35.26533508300781 92.2838134765625 29.59519958496094 89.88556671142578 C 24.11773300170898 87.56878662109375 19.19814682006836 84.25181579589844 14.97310638427734 80.02677917480469 C 10.74805355072021 75.80173492431641 7.431079864501953 70.88216400146484 5.114306449890137 65.40470886230469 C 2.716039896011353 59.73457717895508 1.50001335144043 53.71053695678711 1.50001335144043 47.49992370605469 C 1.50001335144043 41.28931045532227 2.716039896011353 35.2652702331543 5.114306449890137 29.59513664245605 C 7.431079864501953 24.11768341064453 10.74805355072021 19.19811058044434 14.97310638427734 14.97307014465332 C 19.19814682006836 10.74803066253662 24.11773300170898 7.431056976318359 29.59519958496094 5.114283561706543 C 35.26533508300781 2.716030359268188 41.28938674926758 1.500003695487976 47.5 1.500003695487976 C 53.71062850952148 1.500003695487976 59.73466491699219 2.716030359268188 65.40481567382812 5.114283561706543 C 70.88227844238281 7.431056976318359 75.80186462402344 10.74803066253662 80.02690887451172 14.97307014465332 C 84.25196075439453 19.19811058044434 87.56893157958984 24.11768341064453 89.88570404052734 29.59513664245605 C 92.28397369384766 35.2652702331543 93.5 41.28931045532227 93.5 47.49992370605469 C 93.5 53.71053695678711 92.28397369384766 59.73457717895508 89.88570404052734 65.40470886230469 C 87.56893157958984 70.88216400146484 84.25196075439453 75.80173492431641 80.02690887451172 80.02677917480469 C 75.80186462402344 84.25181579589844 70.88227844238281 87.56878662109375 65.40481567382812 89.88556671142578 C 59.73466491699219 92.2838134765625 53.71062850952148 93.49984741210938 47.5 93.49984741210938 Z" stroke="none"/>
                                            <path d="M 47.5 3 C 41.49121475219727 3 35.66376876831055 4.176155090332031 30.17951965332031 6.495803833007812 C 24.88084411621094 8.7369384765625 20.12152099609375 11.94596862792969 16.03375244140625 16.03372192382812 C 11.94598388671875 20.12149047851562 8.736953735351562 24.88081359863281 6.495796203613281 30.17947387695312 C 4.176155090332031 35.6637077331543 3 41.49115371704102 3 47.49992370605469 C 3 53.50869369506836 4.176155090332031 59.33613967895508 6.495796203613281 64.82037353515625 C 8.736953735351562 70.11903381347656 11.94598388671875 74.87835693359375 16.03375244140625 78.96612548828125 C 20.12152099609375 83.05387878417969 24.88084411621094 86.26290893554688 30.17951965332031 88.50404357910156 C 35.66376876831055 90.82369232177734 41.49121475219727 91.99984741210938 47.5 91.99984741210938 C 53.50878524780273 91.99984741210938 59.33623123168945 90.82369232177734 64.82049560546875 88.50404357910156 C 70.11915588378906 86.26290893554688 74.87847900390625 83.05387878417969 78.96624755859375 78.96612548828125 C 83.05401611328125 74.87835693359375 86.26304626464844 70.11903381347656 88.50418090820312 64.82037353515625 C 90.82382965087891 59.33613967895508 91.99998474121094 53.50869369506836 91.99998474121094 47.49992370605469 C 91.99998474121094 41.49115371704102 90.82382965087891 35.6637077331543 88.50418090820312 30.17947387695312 C 86.26304626464844 24.88081359863281 83.05401611328125 20.12149047851562 78.96624755859375 16.03372192382812 C 74.87847900390625 11.94596862792969 70.11915588378906 8.7369384765625 64.82049560546875 6.495803833007812 C 59.33623123168945 4.176155090332031 53.50878524780273 3 47.5 3 M 47.5 0 C 73.7335205078125 0 94.99998474121094 21.26644897460938 94.99998474121094 47.49992370605469 C 94.99998474121094 73.7333984375 73.7335205078125 94.99984741210938 47.5 94.99984741210938 C 21.26649475097656 94.99984741210938 0 73.7333984375 0 47.49992370605469 C 0 21.26644897460938 21.26649475097656 0 47.5 0 Z" stroke="none" fill="#899e78"/>
                                          </g>
                                        </g>
                                      </g>
                                    </g>
                                  </g>
                                </g>
                              </g>
                            </g>
                          </g>
                        </g>
                      </g>
                    </g>
                  </g>
                </g>
              </g>
            </g>
          </g>
        </g>
      </g>
    </g>
    <g id="priest_307951" transform="translate(2441 11506.313)">
      <path id="Trazado_1175751" data-name="Trazado 1175751" d="M419.466,341.871h0a5.374,5.374,0,0,1-5.374-5.374v-7.021H424.84V336.5A5.374,5.374,0,0,1,419.466,341.871Z" transform="translate(-364.56 -285.059)" fill="#f9c573"/>
      <path id="Trazado_1175752" data-name="Trazado 1175752" d="M417.533,336.5v-7.021h-3.441V336.5a5.374,5.374,0,0,0,5.374,5.374h0C418.4,341.87,417.533,339.464,417.533,336.5Z" transform="translate(-364.56 -285.058)" fill="#e2af66"/>
      <path id="Trazado_1175753" data-name="Trazado 1175753" d="M43.415,23.109h-1.64v-9.14h-5.5v9.14h-9.14v5.5h9.14V51.013h5.5V28.606h9.14v-5.5Z" transform="translate(-23.891 -7.291)" fill="#f9c573"/>
      <path id="Trazado_1175754" data-name="Trazado 1175754" d="M113.056,419.694h12.505v-3.449H116.5A3.449,3.449,0,0,0,113.056,419.694Z" transform="translate(-99.533 -361.449)" fill="#e0c8a2"/>
      <path id="Trazado_1175755" data-name="Trazado 1175755" d="M113.056,308.31v14.055a3.449,3.449,0,0,1,3.449-3.449h9.056V305.692h-9.887A2.618,2.618,0,0,0,113.056,308.31Z" transform="translate(-99.533 -264.12)" fill="#fce8ca"/>
      <path id="Trazado_1175756" data-name="Trazado 1175756" d="M21.014,419.694H8.509v-3.449h9.056A3.449,3.449,0,0,1,21.014,419.694Z" transform="translate(-7.491 -361.449)" fill="#e0c8a2"/>
      <path id="Trazado_1175757" data-name="Trazado 1175757" d="M21.014,308.31v14.055a3.449,3.449,0,0,0-3.449-3.449H8.509V305.692H18.4A2.618,2.618,0,0,1,21.014,308.31Z" transform="translate(-7.491 -264.12)" fill="#fce8ca"/>
      <g id="Grupo_1222680" data-name="Grupo 1222680" transform="translate(15.523 27.091)">
        <path id="Trazado_1175758" data-name="Trazado 1175758" d="M132.72,190.789a3.082,3.082,0,0,1,.14-6.161,3,3,0,0,1,.452.033Z" transform="translate(-129.778 -184.628)" fill="#e0b394"/>
        <path id="Trazado_1175759" data-name="Trazado 1175759" d="M382.829,190.789a3.082,3.082,0,0,0-.14-6.161,3.175,3.175,0,0,0-.452.033Z" transform="translate(-352.039 -184.628)" fill="#e0b394"/>
      </g>
      <path id="Trazado_1175760" data-name="Trazado 1175760" d="M171.042,329.483H158.585a8.17,8.17,0,0,0-8.17,8.17v11.992h28.8V337.652A8.169,8.169,0,0,0,171.042,329.483Z" transform="translate(-132.423 -285.065)" fill="#666"/>
      <path id="Trazado_1175761" data-name="Trazado 1175761" d="M163.618,329.483h-5.034a8.17,8.17,0,0,0-8.17,8.17v11.992h5.034V337.652A8.169,8.169,0,0,1,163.618,329.483Z" transform="translate(-132.423 -285.065)" fill="#4d4d4d"/>
      <path id="Trazado_1175762" data-name="Trazado 1175762" d="M163.268,93.279l-5.422-3.94a10,10,0,0,1-4.075-9.05l.941-9.733a13.076,13.076,0,0,1,13.015-11.818h0a13.076,13.076,0,0,1,13.015,11.818l.941,9.733a10,10,0,0,1-4.075,9.05l-5.422,3.94A7.585,7.585,0,0,1,163.268,93.279Z" transform="translate(-135.337 -46.706)" fill="#f7cba4"/>
      <path id="Trazado_1175763" data-name="Trazado 1175763" d="M157.154,82.232a6.035,6.035,0,0,0,1.4,4.24l5.667,6.964a4.512,4.512,0,0,0,.995.885,7.541,7.541,0,0,1-1.943-1.018l-5.423-3.939a10,10,0,0,1-4.074-9.05l.939-9.733a13.073,13.073,0,0,1,12.82-11.815c-4.095.1-8.732,3.959-8.974,8.07Z" transform="translate(-135.345 -46.731)" fill="#e0b394"/>
      <line id="Línea_3676" data-name="Línea 3676" y2="2.375" transform="translate(32.39 48.018)" fill="none" stroke="#fff" stroke-linecap="round" stroke-linejoin="round" stroke-miterlimit="10" stroke-width="1"/>
      <path id="Trazado_1175764" data-name="Trazado 1175764" d="M198.079,65.471a6.941,6.941,0,0,1-6.222-2.132,6.944,6.944,0,0,1-10.421,0,6.939,6.939,0,0,1-6.22,2.132,13.078,13.078,0,0,1,22.863,0Z" transform="translate(-154.257 -46.711)" fill="#4d4d4d"/>
      <path id="Trazado_1175769" data-name="Trazado 1175769" d="M163.876,351.894H143.887V340.416a6.289,6.289,0,0,1,3.05-5.414.991.991,0,0,0-1.028-1.694,8.256,8.256,0,0,0-4,7.108v12.468a.991.991,0,0,0,.991.991h20.979a.991.991,0,0,0,0-1.981Z" transform="translate(-124.932 -288.306)"/>
      <path id="Trazado_1175770" data-name="Trazado 1175770" d="M351.284,333.309A.991.991,0,1,0,350.256,335a6.29,6.29,0,0,1,3.052,5.414v11.478h-3a.991.991,0,0,0,0,1.981H354.3a.991.991,0,0,0,.991-.991V340.417A8.258,8.258,0,0,0,351.284,333.309Z" transform="translate(-307.537 -288.307)"/>
      <path id="Trazado_1175772" data-name="Trazado 1175772" d="M125.124,63.175l-.229,2.37a4.074,4.074,0,0,0-.75,7.943,11.035,11.035,0,0,0,4.518,9.367l5.423,3.94a8.566,8.566,0,0,0,4.05,1.585v1.433a.991.991,0,0,0,1.981,0V88.379a8.576,8.576,0,0,0,4.05-1.585l5.423-3.94a11.034,11.034,0,0,0,4.518-9.367,4.073,4.073,0,0,0-.75-7.942l-.229-2.37a14.066,14.066,0,0,0-28,0Zm-1.875,6.417A2.094,2.094,0,0,1,124.7,67.6l-.369,3.818A2.087,2.087,0,0,1,123.249,69.592Zm31.752,0a2.086,2.086,0,0,1-1.077,1.83l-.369-3.817A2.094,2.094,0,0,1,155,69.592ZM139.125,52.443a12.065,12.065,0,0,1,9.641,4.8,5.9,5.9,0,0,1-3.7-1.871.99.99,0,0,0-.726-.317h-.013a.991.991,0,0,0-.73.335,5.953,5.953,0,0,1-8.935,0,.991.991,0,0,0-1.469-.018,5.979,5.979,0,0,1-3.7,1.869A12.094,12.094,0,0,1,139.125,52.443Zm-10.868,6.8c.188.014.377.022.565.022a7.963,7.963,0,0,0,5.075-1.837,7.932,7.932,0,0,0,10.456,0,7.968,7.968,0,0,0,5.076,1.838c.188,0,.377-.008.565-.022a11.981,11.981,0,0,1,1.161,4.125L152.1,73.1a9.043,9.043,0,0,1-3.671,8.153L143,85.191a6.578,6.578,0,0,1-7.752,0l-5.423-3.94a9.042,9.042,0,0,1-3.671-8.153l.941-9.733A11.986,11.986,0,0,1,128.257,59.241Z" transform="translate(-106.762 -39.419)"/>
      <path id="Trazado_1175773" data-name="Trazado 1175773" d="M36.271,332.47h.9v2.091a.991.991,0,0,0,1.981,0V332.47h.9a.991.991,0,1,0,0-1.981h-.9V329.33a.991.991,0,1,0-1.981,0v1.159h-.9a.991.991,0,0,0,0,1.981Z" transform="translate(-31.06 -284.058)"/>
      <path id="Trazado_1175774" data-name="Trazado 1175774" d="M227.527,362.192a.991.991,0,0,0-1.4-1.4L221.1,365.82l-5.029-5.029a.991.991,0,0,0-1.4,1.4l5.439,5.439v1.541h-.9a.991.991,0,0,0,0,1.981h.9v2.091a.991.991,0,1,0,1.981,0v-2.091h.9a.991.991,0,0,0,0-1.981h-.9v-1.541Z" transform="translate(-188.734 -312.372)"/>
      <path id="Trazado_1175776" data-name="Trazado 1175776" d="M417.321,325.518a.991.991,0,0,0,.991-.991v-2.343a.991.991,0,0,0-.991-.991H406.574a.991.991,0,0,0-.991.991v7.021a6.374,6.374,0,0,0,5.374,6.287v5.863h-2.7a.991.991,0,0,0,0,1.981h7.374a.991.991,0,1,0,0-1.981h-2.7v-5.863a6.375,6.375,0,0,0,5.374-6.287v-1.64a.991.991,0,0,0-1.981,0v1.64a4.383,4.383,0,0,1-8.766,0v-6.031h8.766v1.352A.991.991,0,0,0,417.321,325.518Z" transform="translate(-357.069 -277.767)"/>
      <path id="Trazado_1175777" data-name="Trazado 1175777" d="M15.368,312.611h-.845A2.462,2.462,0,0,1,15.556,311a.991.991,0,0,0-1.069-1.667V298.972a1.63,1.63,0,0,1,1.628-1.628H18.1a.991.991,0,1,0,0-1.981H16.114a3.6,3.6,0,0,0-2.618,1.129,3.6,3.6,0,0,0-2.618-1.129H.991a.991.991,0,0,0-.991.991V313.6a.991.991,0,0,0,.991.991H15.368a.991.991,0,0,0,0-1.981ZM1.981,297.344h8.9a1.63,1.63,0,0,1,1.628,1.628v10.359a4.414,4.414,0,0,0-2.459-.745H1.982V297.344Zm0,13.224h8.064a2.461,2.461,0,0,1,2.421,2.043H1.981Z" transform="translate(0 -255.026)"/>
      <path id="Trazado_1175778" data-name="Trazado 1175778" d="M96.028,185.068a.991.991,0,0,0-.991.991v10.325a.991.991,0,0,0,1.981,0V186.059A.991.991,0,0,0,96.028,185.068Z" transform="translate(-83.669 -157.924)"/>
      <path id="Trazado_1175779" data-name="Trazado 1175779" d="M19.619,22.306h8.149v2.262a.991.991,0,0,0,1.981,0V21.315a.991.991,0,0,0-.991-.991H20.609V16.808h8.149a.991.991,0,0,0,.991-.991V7.668h3.516v8.149a.991.991,0,0,0,.991.991H35.9a.991.991,0,0,0,0-1.981h-.65V6.678a.991.991,0,0,0-.991-.991h-5.5a.991.991,0,0,0-.991.991v8.149H19.619a.991.991,0,0,0-.991.991v5.5A.991.991,0,0,0,19.619,22.306Z" transform="translate(-16.4)"/>
      <circle id="Elipse_14653" data-name="Elipse 14653" cx="0.991" cy="0.991" r="0.991" transform="translate(51.203 46.584)"/>
      <circle id="Elipse_14654" data-name="Elipse 14654" cx="0.991" cy="0.991" r="0.991" transform="translate(53.888 46.584)"/>
      <circle id="Elipse_14655" data-name="Elipse 14655" cx="0.991" cy="0.991" r="0.991" transform="translate(56.574 46.584)"/>
    </g>
  </g>
</svg>
