<svg xmlns="http://www.w3.org/2000/svg" xmlns:xlink="http://www.w3.org/1999/xlink" width="113" height="113" viewBox="0 0 113 113">
  <defs>
    <filter id="Trazado_982547" x="0" y="0" width="113" height="113" filterUnits="userSpaceOnUse">
      <feOffset dy="3" input="SourceAlpha"/>
      <feGaussianBlur stdDeviation="3" result="blur"/>
      <feFlood flood-opacity="0.161"/>
      <feComposite operator="in" in2="blur"/>
      <feComposite in="SourceGraphic"/>
    </filter>
  </defs>
  <g id="Grupo_1222604" data-name="Grupo 1222604" transform="translate(-38 -2325.645)">
    <g id="Grupo_1222422" data-name="Grupo 1222422" transform="translate(47 2331.645)">
      <g id="Grupo_1208010" data-name="Grupo 1208010" transform="translate(0 0)">
        <g id="Grupo_1202142" data-name="Grupo 1202142" transform="translate(0 0)">
          <g id="Grupo_1201923" data-name="Grupo 1201923">
            <g id="Grupo_1176928" data-name="Grupo 1176928" transform="translate(0)">
              <g id="Grupo_1172322" data-name="Grupo 1172322">
                <g id="Grupo_1164700" data-name="Grupo 1164700">
                  <g id="Grupo_1160931" data-name="Grupo 1160931">
                    <g id="Grupo_1160749" data-name="Grupo 1160749">
                      <g id="Grupo_1158891" data-name="Grupo 1158891">
                        <g id="Grupo_1157406" data-name="Grupo 1157406">
                          <g id="Grupo_1155793" data-name="Grupo 1155793">
                            <g id="Grupo_1154704" data-name="Grupo 1154704">
                              <g id="Grupo_1150790" data-name="Grupo 1150790">
                                <g id="Grupo_1154214" data-name="Grupo 1154214" transform="translate(0)">
                                  <g id="Grupo_1152583" data-name="Grupo 1152583">
                                    <g id="Grupo_1146973" data-name="Grupo 1146973">
                                      <g id="Grupo_1146954" data-name="Grupo 1146954">
                                        <g transform="matrix(1, 0, 0, 1, -9, -6)" filter="url(#Trazado_982547)">
                                          <g id="Trazado_982547-2" data-name="Trazado 982547" transform="translate(9 6)" fill="#f2f4f0">
                                            <path d="M 47.50000762939453 93.49986267089844 C 41.28937911987305 93.49986267089844 35.26534271240234 92.28383636474609 29.59519386291504 89.88558197021484 C 24.11772727966309 87.56880950927734 19.19814109802246 84.25183868408203 14.97310066223145 80.02679443359375 C 10.74804782867432 75.8017578125 7.431074142456055 70.88218688964844 5.114300727844238 65.40471649169922 C 2.716034412384033 59.73458480834961 1.500007629394531 53.71054458618164 1.500007629394531 47.49993133544922 C 1.500007629394531 41.2893180847168 2.716034412384033 35.26527786254883 5.114300727844238 29.59514427185059 C 7.431074142456055 24.11767768859863 10.74804782867432 19.19810485839844 14.97310066223145 14.97306442260742 C 19.19814109802246 10.74802494049072 24.11772727966309 7.431051254272461 29.59519386291504 5.114277839660645 C 35.26534271240234 2.71602463722229 41.28937911987305 1.499997973442078 47.50000762939453 1.499997973442078 C 53.71063613891602 1.499997973442078 59.73467254638672 2.71602463722229 65.40482330322266 5.114277839660645 C 70.88228607177734 7.431051254272461 75.80187225341797 10.74802494049072 80.02691650390625 14.97306442260742 C 84.25196838378906 19.19810485839844 87.56893920898438 24.11767768859863 89.88571166992188 29.59514427185059 C 92.28398132324219 35.26527786254883 93.50000762939453 41.2893180847168 93.50000762939453 47.49993133544922 C 93.50000762939453 53.71054458618164 92.28398132324219 59.73458480834961 89.88571166992188 65.40471649169922 C 87.56893920898438 70.88218688964844 84.25196838378906 75.8017578125 80.02691650390625 80.02679443359375 C 75.80187225341797 84.25183868408203 70.88228607177734 87.56880950927734 65.40482330322266 89.88558197021484 C 59.73467254638672 92.28383636474609 53.71063613891602 93.49986267089844 47.50000762939453 93.49986267089844 Z" stroke="none"/>
                                            <path d="M 47.50000762939453 2.999992370605469 C 41.4912223815918 2.999992370605469 35.66377639770508 4.1761474609375 30.17951202392578 6.495796203613281 C 24.88085174560547 8.736930847167969 20.12152862548828 11.94596099853516 16.03376007080078 16.03372955322266 C 11.94597625732422 20.12148284912109 8.736961364746094 24.88080596923828 6.495803833007812 30.17946624755859 C 4.176162719726562 35.66371536254883 3.000007629394531 41.49116134643555 3.000007629394531 47.49993133544922 C 3.000007629394531 53.50870132446289 4.176162719726562 59.33614730834961 6.495803833007812 64.82038879394531 C 8.736961364746094 70.11905670166016 11.94597625732422 74.87836456298828 16.03376007080078 78.96613311767578 C 20.12152862548828 83.05390167236328 24.88085174560547 86.26291656494141 30.17951202392578 88.50406646728516 C 35.66377639770508 90.82369995117188 41.4912223815918 91.99985504150391 47.50000762939453 91.99985504150391 C 53.50879287719727 91.99985504150391 59.33623886108398 90.82369995117188 64.82049560546875 88.50406646728516 C 70.11916351318359 86.26291656494141 74.87848663330078 83.05390167236328 78.96625518798828 78.96613311767578 C 83.05403900146484 74.87836456298828 86.26305389404297 70.11905670166016 88.50421142578125 64.82038879394531 C 90.8238525390625 59.33614730834961 92.00000762939453 53.50870132446289 92.00000762939453 47.49993133544922 C 92.00000762939453 41.49116134643555 90.8238525390625 35.66371536254883 88.50421142578125 30.17946624755859 C 86.26305389404297 24.88080596923828 83.05403900146484 20.12148284912109 78.96625518798828 16.03372955322266 C 74.87848663330078 11.94596099853516 70.11916351318359 8.736930847167969 64.82049560546875 6.495796203613281 C 59.33623886108398 4.1761474609375 53.50879287719727 2.999992370605469 47.50000762939453 2.999992370605469 M 47.50000762939453 -7.62939453125e-06 C 73.73352813720703 -7.62939453125e-06 95.00000762939453 21.26644134521484 95.00000762939453 47.49993133544922 C 95.00000762939453 73.73342132568359 73.73352813720703 94.99985504150391 47.50000762939453 94.99985504150391 C 21.26648712158203 94.99985504150391 7.62939453125e-06 73.73342132568359 7.62939453125e-06 47.49993133544922 C 7.62939453125e-06 21.26644134521484 21.26648712158203 -7.62939453125e-06 47.50000762939453 -7.62939453125e-06 Z" stroke="none" fill="#899e78"/>
                                          </g>
                                        </g>
                                      </g>
                                    </g>
                                  </g>
                                </g>
                              </g>
                            </g>
                          </g>
                        </g>
                      </g>
                    </g>
                  </g>
                </g>
              </g>
            </g>
          </g>
        </g>
      </g>
    </g>
    <g id="_02-law" data-name="02-law" transform="translate(60 2349.205)">
      <path id="Trazado_1175601" data-name="Trazado 1175601" d="M55.222,60.795H19.538L7,48.257V1H55.222Z" fill="#f2f6fc"/>
      <path id="Trazado_1175602" data-name="Trazado 1175602" d="M19.538,62.538,7,50H19.538Z" transform="translate(0 -1.743)" fill="#cdd2e1"/>
      <path id="Trazado_1175603" data-name="Trazado 1175603" d="M37.573,27.929v3.858H26V27.929L27.929,26h7.715Z" transform="translate(-0.676 -0.889)" fill="#cdd2e1"/>
      <path id="Trazado_1175604" data-name="Trazado 1175604" d="M35.893,26H33l1.929,1.929v3.858h2.893V27.929Z" transform="translate(-0.925 -0.889)" fill="#afb4c8"/>
      <path id="Trazado_1175605" data-name="Trazado 1175605" d="M16,18h9.644A4.822,4.822,0,1,1,16,18Z" transform="translate(-0.32 -0.605)" fill="#ffda45"/>
      <path id="Trazado_1175606" data-name="Trazado 1175606" d="M38,18h9.644A4.822,4.822,0,0,1,38,18Z" transform="translate(-1.103 -0.605)" fill="#ffda45"/>
      <path id="Trazado_1175607" data-name="Trazado 1175607" d="M44.876,18A4.807,4.807,0,0,1,41.5,22.576a4.76,4.76,0,0,0,1.447.246A4.822,4.822,0,0,0,47.769,18Z" transform="translate(-1.227 -0.605)" fill="#ffa426"/>
      <path id="Trazado_1175608" data-name="Trazado 1175608" d="M22.876,18A4.807,4.807,0,0,1,19.5,22.576a4.76,4.76,0,0,0,1.447.246A4.822,4.822,0,0,0,25.769,18Z" transform="translate(-0.445 -0.605)" fill="#ffa426"/>
      <path id="Trazado_1175609" data-name="Trazado 1175609" d="M32.787,43.858a1.929,1.929,0,0,1,0-3.858h17.36l2.893,2.893h2.893V56.4H53.04l-2.893,2.893H39.538L36.644,56.4v-.964H30.858a1.929,1.929,0,1,1,0-3.858H28.929a1.929,1.929,0,0,1,0-3.858h1.929a1.929,1.929,0,1,1,0-3.858Z" transform="translate(-0.711 -1.387)" fill="#cdd2e1"/>
      <path id="Trazado_1175610" data-name="Trazado 1175610" d="M32.787,40.858a1.929,1.929,0,1,1,0-3.858h17.36l2.893,2.893h2.893V53.4H53.04l-2.893,2.893H39.538L36.644,53.4v-.964H30.858a1.929,1.929,0,1,1,0-3.858H28.929a1.929,1.929,0,0,1,0-3.858h1.929a1.929,1.929,0,1,1,0-3.858Z" transform="translate(-0.711 -1.28)" fill="#ffdaaa"/>
      <path id="Trazado_1175611" data-name="Trazado 1175611" d="M57,38h5.787V55.36H57V38Z" transform="translate(-1.778 -1.316)" fill="#ff7045"/>
      <path id="Trazado_1175612" data-name="Trazado 1175612" d="M57,38v2.893h2.893V55.36h2.893V38Z" transform="translate(-1.778 -1.316)" fill="#f92814"/>
      <path id="Trazado_1175613" data-name="Trazado 1175613" d="M37,52.538V53.5L39.893,56.4H50.5L53.4,53.5h2.893V40H53.4V52.538Z" transform="translate(-1.067 -1.387)" fill="#ffb680"/>
      <path id="Trazado_1175614" data-name="Trazado 1175614" d="M0,0A1.929,1.929,0,0,1,1.929,1.929v9.644H0Z" transform="translate(28.218 49.222) rotate(-90)" fill="#ffb680"/>
      <path id="Trazado_1175615" data-name="Trazado 1175615" d="M0,0A1.929,1.929,0,0,1,1.929,1.929V13.5H0Z" transform="translate(26.289 45.364) rotate(-90)" fill="#ffb680"/>
      <path id="Trazado_1175616" data-name="Trazado 1175616" d="M0,0A1.929,1.929,0,0,1,1.929,1.929v9.644H0Z" transform="translate(28.218 41.506) rotate(-90)" fill="#ffb680"/>
      <path id="Trazado_1175617" data-name="Trazado 1175617" d="M0,0A1.929,1.929,0,0,1,1.929,1.929V9.644H0Z" transform="translate(30.146 37.648) rotate(-90)" fill="#ffb680"/>
      <g id="Grupo_1222603" data-name="Grupo 1222603" transform="translate(7 1)">
        <path id="Trazado_1175618" data-name="Trazado 1175618" d="M19.538,62.538V50H7" transform="translate(-7 -2.743)" fill="none" stroke="#000" stroke-linejoin="round" stroke-width="2"/>
        <path id="Trazado_1175619" data-name="Trazado 1175619" d="M55.222,56.937v3.858H19.538L7,48.257V1H55.222V33.791" transform="translate(-7 -1)" fill="none" stroke="#000" stroke-linejoin="round" stroke-width="2"/>
        <path id="Trazado_1175620" data-name="Trazado 1175620" d="M37.573,31.787H26V27.929L27.929,26h7.715l1.929,1.929Z" transform="translate(-7.676 -1.889)" fill="none" stroke="#000" stroke-linejoin="round" stroke-width="2"/>
        <path id="Trazado_1175621" data-name="Trazado 1175621" d="M32,25.218V4" transform="translate(-7.889 -1.107)" fill="none" stroke="#000" stroke-linejoin="round" stroke-width="2"/>
        <path id="Trazado_1175622" data-name="Trazado 1175622" d="M25.644,18A4.822,4.822,0,1,1,16,18Z" transform="translate(-7.32 -1.605)" fill="none" stroke="#000" stroke-linejoin="round" stroke-width="2"/>
        <path id="Trazado_1175623" data-name="Trazado 1175623" d="M47.644,18A4.822,4.822,0,0,1,38,18Z" transform="translate(-8.103 -1.605)" fill="none" stroke="#000" stroke-linejoin="round" stroke-width="2"/>
        <path id="Trazado_1175624" data-name="Trazado 1175624" d="M16,17.68,20.822,9l4.822,8.68" transform="translate(-7.32 -1.285)" fill="none" stroke="#000" stroke-linejoin="round" stroke-width="2"/>
        <path id="Trazado_1175625" data-name="Trazado 1175625" d="M38,17.68,42.822,9l4.822,8.68" transform="translate(-8.103 -1.285)" fill="none" stroke="#000" stroke-linejoin="round" stroke-width="2"/>
        <path id="Trazado_1175626" data-name="Trazado 1175626" d="M18,9H45" transform="translate(-7.391 -1.285)" fill="none" stroke="#000" stroke-linejoin="round" stroke-width="2"/>
        <path id="Trazado_1175627" data-name="Trazado 1175627" d="M23,32H40.36" transform="translate(-7.569 -2.103)" fill="none" stroke="#000" stroke-linejoin="round" stroke-width="2"/>
        <path id="Trazado_1175628" data-name="Trazado 1175628" d="M43,32h1.929" transform="translate(-8.28 -2.103)" fill="none" stroke="#000" stroke-linejoin="round" stroke-width="2"/>
        <path id="Trazado_1175629" data-name="Trazado 1175629" d="M56.289,53.964H53.4L50.5,56.858H39.893L37,53.964V53" transform="translate(-8.067 -2.849)" fill="none" stroke="#000" stroke-linejoin="round" stroke-width="2"/>
        <path id="Trazado_1175630" data-name="Trazado 1175630" d="M43.467,52.858H30.929a1.929,1.929,0,1,1,0-3.858h9.644" transform="translate(-7.782 -2.707)" fill="none" stroke="#000" stroke-linejoin="round" stroke-width="2"/>
        <path id="Trazado_1175631" data-name="Trazado 1175631" d="M40.5,48.858H28.929a1.929,1.929,0,0,1,0-3.858H40.5" transform="translate(-7.711 -2.565)" fill="none" stroke="#000" stroke-linejoin="round" stroke-width="2"/>
        <path id="Trazado_1175632" data-name="Trazado 1175632" d="M40.573,44.858H30.929a1.929,1.929,0,1,1,0-3.858h9.644" transform="translate(-7.782 -2.423)" fill="none" stroke="#000" stroke-linejoin="round" stroke-width="2"/>
        <path id="Trazado_1175633" data-name="Trazado 1175633" d="M40.644,40.858H32.929a1.929,1.929,0,0,1,0-3.858h17.36l2.893,2.893h2.893" transform="translate(-7.854 -2.28)" fill="none" stroke="#000" stroke-linejoin="round" stroke-width="2"/>
        <path id="Trazado_1175634" data-name="Trazado 1175634" d="M57,44.751V55.36h5.787V38H57v4.822" transform="translate(-8.778 -2.316)" fill="none" stroke="#000" stroke-linejoin="round" stroke-width="2"/>
      </g>
    </g>
  </g>
</svg>
