<svg xmlns="http://www.w3.org/2000/svg" xmlns:xlink="http://www.w3.org/1999/xlink" width="113" height="113" viewBox="0 0 113 113">
  <defs>
    <filter id="Trazado_982547" x="0" y="0" width="113" height="113" filterUnits="userSpaceOnUse">
      <feOffset dy="3" input="SourceAlpha"/>
      <feGaussianBlur stdDeviation="3" result="blur"/>
      <feFlood flood-opacity="0.161"/>
      <feComposite operator="in" in2="blur"/>
      <feComposite in="SourceGraphic"/>
    </filter>
    <clipPath id="clip-path">
      <path id="path729" d="M0-682.665H66.721v66.721H0Z" transform="translate(0 682.665)"/>
    </clipPath>
  </defs>
  <g id="Grupo_1222662" data-name="Grupo 1222662" transform="translate(-817 -11066.529)">
    <g id="Grupo_1222661" data-name="Grupo 1222661">
      <g id="Grupo_1222485" data-name="Grupo 1222485" transform="translate(826 11072.529)">
        <g id="Grupo_1208010" data-name="Grupo 1208010" transform="translate(0 0)">
          <g id="Grupo_1202142" data-name="Grupo 1202142" transform="translate(0 0)">
            <g id="Grupo_1201923" data-name="Grupo 1201923">
              <g id="Grupo_1176928" data-name="Grupo 1176928" transform="translate(0)">
                <g id="Grupo_1172322" data-name="Grupo 1172322">
                  <g id="Grupo_1164700" data-name="Grupo 1164700">
                    <g id="Grupo_1160931" data-name="Grupo 1160931">
                      <g id="Grupo_1160749" data-name="Grupo 1160749">
                        <g id="Grupo_1158891" data-name="Grupo 1158891">
                          <g id="Grupo_1157406" data-name="Grupo 1157406">
                            <g id="Grupo_1155793" data-name="Grupo 1155793">
                              <g id="Grupo_1154704" data-name="Grupo 1154704">
                                <g id="Grupo_1150790" data-name="Grupo 1150790">
                                  <g id="Grupo_1154214" data-name="Grupo 1154214" transform="translate(0)">
                                    <g id="Grupo_1152583" data-name="Grupo 1152583">
                                      <g id="Grupo_1146973" data-name="Grupo 1146973">
                                        <g id="Grupo_1146954" data-name="Grupo 1146954">
                                          <g transform="matrix(1, 0, 0, 1, -9, -6)" filter="url(#Trazado_982547)">
                                            <g id="Trazado_982547-2" data-name="Trazado 982547" transform="translate(9 6)" fill="#f2f4f0">
                                              <path d="M 47.5 93.49984741210938 C 41.28938674926758 93.49984741210938 35.26533508300781 92.2838134765625 29.59519958496094 89.88556671142578 C 24.11773300170898 87.56878662109375 19.19814682006836 84.25181579589844 14.97310638427734 80.02677917480469 C 10.74805355072021 75.80173492431641 7.431079864501953 70.88216400146484 5.114306449890137 65.40470886230469 C 2.716039896011353 59.73457717895508 1.50001335144043 53.71053695678711 1.50001335144043 47.49992370605469 C 1.50001335144043 41.28931045532227 2.716039896011353 35.2652702331543 5.114306449890137 29.59513664245605 C 7.431079864501953 24.11768341064453 10.74805355072021 19.19811058044434 14.97310638427734 14.97307014465332 C 19.19814682006836 10.74803066253662 24.11773300170898 7.431056976318359 29.59519958496094 5.114283561706543 C 35.26533508300781 2.716030359268188 41.28938674926758 1.500003695487976 47.5 1.500003695487976 C 53.71062850952148 1.500003695487976 59.73466491699219 2.716030359268188 65.40481567382812 5.114283561706543 C 70.88227844238281 7.431056976318359 75.80186462402344 10.74803066253662 80.02690887451172 14.97307014465332 C 84.25196075439453 19.19811058044434 87.56893157958984 24.11768341064453 89.88570404052734 29.59513664245605 C 92.28397369384766 35.2652702331543 93.5 41.28931045532227 93.5 47.49992370605469 C 93.5 53.71053695678711 92.28397369384766 59.73457717895508 89.88570404052734 65.40470886230469 C 87.56893157958984 70.88216400146484 84.25196075439453 75.80173492431641 80.02690887451172 80.02677917480469 C 75.80186462402344 84.25181579589844 70.88227844238281 87.56878662109375 65.40481567382812 89.88556671142578 C 59.73466491699219 92.2838134765625 53.71062850952148 93.49984741210938 47.5 93.49984741210938 Z" stroke="none"/>
                                              <path d="M 47.5 3 C 41.49121475219727 3 35.66376876831055 4.176155090332031 30.17951965332031 6.495803833007812 C 24.88084411621094 8.7369384765625 20.12152099609375 11.94596862792969 16.03375244140625 16.03372192382812 C 11.94598388671875 20.12149047851562 8.736953735351562 24.88081359863281 6.495796203613281 30.17947387695312 C 4.176155090332031 35.6637077331543 3 41.49115371704102 3 47.49992370605469 C 3 53.50869369506836 4.176155090332031 59.33613967895508 6.495796203613281 64.82037353515625 C 8.736953735351562 70.11903381347656 11.94598388671875 74.87835693359375 16.03375244140625 78.96612548828125 C 20.12152099609375 83.05387878417969 24.88084411621094 86.26290893554688 30.17951965332031 88.50404357910156 C 35.66376876831055 90.82369232177734 41.49121475219727 91.99984741210938 47.5 91.99984741210938 C 53.50878524780273 91.99984741210938 59.33623123168945 90.82369232177734 64.82049560546875 88.50404357910156 C 70.11915588378906 86.26290893554688 74.87847900390625 83.05387878417969 78.96624755859375 78.96612548828125 C 83.05401611328125 74.87835693359375 86.26304626464844 70.11903381347656 88.50418090820312 64.82037353515625 C 90.82382965087891 59.33613967895508 91.99998474121094 53.50869369506836 91.99998474121094 47.49992370605469 C 91.99998474121094 41.49115371704102 90.82382965087891 35.6637077331543 88.50418090820312 30.17947387695312 C 86.26304626464844 24.88081359863281 83.05401611328125 20.12149047851562 78.96624755859375 16.03372192382812 C 74.87847900390625 11.94596862792969 70.11915588378906 8.7369384765625 64.82049560546875 6.495803833007812 C 59.33623123168945 4.176155090332031 53.50878524780273 3 47.5 3 M 47.5 0 C 73.7335205078125 0 94.99998474121094 21.26644897460938 94.99998474121094 47.49992370605469 C 94.99998474121094 73.7333984375 73.7335205078125 94.99984741210938 47.5 94.99984741210938 C 21.26649475097656 94.99984741210938 0 73.7333984375 0 47.49992370605469 C 0 21.26644897460938 21.26649475097656 0 47.5 0 Z" stroke="none" fill="#899e78"/>
                                            </g>
                                          </g>
                                        </g>
                                      </g>
                                    </g>
                                  </g>
                                </g>
                              </g>
                            </g>
                          </g>
                        </g>
                      </g>
                    </g>
                  </g>
                </g>
              </g>
            </g>
          </g>
        </g>
      </g>
    </g>
    <g id="g723" transform="translate(840.14 11770.334)">
      <g id="g725" transform="translate(0 -682.665)">
        <g id="g727" clip-path="url(#clip-path)">
          <g id="g733" transform="translate(0.977 19.21)">
            <path id="path735" d="M-272.5-429.581h-11.9a36.2,36.2,0,0,1,0-6.488,115.434,115.434,0,0,1-17.621-15.589c.76-12.6.768-12.719.022-24.12-.008-.111-.014-.223-.022-.336,7.05,0,7.054,4.432,7.054,19.122l3.612,3.3h0c4.2-3.135,7.623.683,18.777,10.391a86.865,86.865,0,0,1,.073,13.725" transform="translate(302.013 476.115)" fill="#ffd6ae"/>
          </g>
          <g id="g737" transform="translate(9.929 40.555)">
            <path id="path739" d="M-189.86-232.533h-3.606a102.087,102.087,0,0,0-.332-12.195c-7.064-7.971-11.38-10.821-16.628-10.321l1.715-1.6h0c4.2-3.135,7.623.683,18.777,10.391a86.865,86.865,0,0,1,.073,13.725" transform="translate(210.426 257.721)" fill="#f9c193"/>
          </g>
          <g id="g741" transform="translate(4.692 23.43)">
            <path id="path743" d="M-74-161.978c.412-7.609,1.688-17.546-5.512-17.546h-2.5v17.516Z" transform="translate(82.021 179.524)" fill="#ffd6ae"/>
          </g>
          <g id="g745" transform="translate(0.977 19.21)">
            <path id="path747" d="M-98.467-206.954c-8.162.61-6.969-5.452-6.969-9.453,0-7.641-.843-11.4-3.675-12.629-.008-.111-.014-.223-.022-.336,7.05,0,7.054,4.432,7.054,19.122Z" transform="translate(109.133 229.371)" fill="#f9c193"/>
          </g>
          <g id="g749" transform="translate(35.992 19.21)">
            <path id="path751" d="M-2.158-429.581h11.9a36.2,36.2,0,0,0,0-6.488,115.435,115.435,0,0,0,17.621-15.589c-.76-12.6-.768-12.719-.022-24.12.008-.111.014-.223.022-.336-7.05,0-7.054,4.432-7.054,19.122l-3.612,3.3h0c-4.2-3.135-7.623.683-18.777,10.391a86.846,86.846,0,0,0-.073,13.725" transform="translate(2.392 476.115)" fill="#ffd6ae"/>
          </g>
          <g id="g753" transform="translate(35.992 40.555)">
            <path id="path755" d="M-2.158-232.533H1.447a102.085,102.085,0,0,1,.332-12.195c7.064-7.971,11.38-10.821,16.628-10.321l-1.715-1.6h0c-4.2-3.135-7.623.683-18.777,10.391a86.846,86.846,0,0,0-.073,13.725" transform="translate(2.392 257.721)" fill="#f9c193"/>
          </g>
          <g id="g757" transform="translate(53.658 23.43)">
            <path id="path759" d="M-3.277-161.978c-.412-7.609-1.688-17.546,5.512-17.546h2.5v17.516Z" transform="translate(3.632 179.524)" fill="#ffd6ae"/>
          </g>
          <g id="g761" transform="translate(55.077 19.21)">
            <path id="path763" d="M0-206.954c8.162.61,6.969-5.452,6.969-9.453,0-7.641.843-11.4,3.675-12.629.008-.111.014-.223.022-.336-7.05,0-7.054,4.432-7.054,19.122Z" transform="translate(0 229.371)" fill="#f9c193"/>
          </g>
          <g id="g765" transform="translate(12.515 0.977)">
            <path id="path767" d="M-192.442-337.555q-.639-.27-1.258-.547c-33.3-14.974-18.131-48.4,1.258-31.235a19.951,19.951,0,0,1,6.768-4.13c15.8-5.3,23.987,22.978-6.768,35.912" transform="translate(213.288 374.12)" fill="#ff7e64"/>
          </g>
          <g id="g769" transform="translate(32.103 0.977)">
            <path id="path771" d="M-11.609-337.555q-.639-.27-1.258-.547c25.147-12.2,20.614-35.235,8.026-35.365,15.8-5.3,23.987,22.978-6.768,35.912" transform="translate(12.867 374.12)" fill="#e55038"/>
          </g>
          <g id="g773" transform="translate(48.122 56.552)">
            <path id="path775" d="M-33.728,0C-34.9.912-36.12,1.821-37.381,2.709a36.091,36.091,0,0,1,0,6.482" transform="translate(37.381)" fill="none" stroke="#000" stroke-linecap="round" stroke-linejoin="round" stroke-miterlimit="10" stroke-width="1"/>
          </g>
          <g id="g777" transform="translate(55.392 19.255)">
            <path id="path779" d="M-95.564,0a219.932,219.932,0,0,0,0,24.432,113.847,113.847,0,0,1-10.352,9.923" transform="translate(105.916)" fill="none" stroke="#000" stroke-linecap="round" stroke-linejoin="round" stroke-miterlimit="10" stroke-width="1"/>
          </g>
          <g id="g781" transform="translate(55.325 19.255)">
            <path id="path783" d="M-96.182,0c-7.05,0-7.055,4.428-7.055,19.1l-3.364,3.072" transform="translate(106.601)" fill="none" stroke="#000" stroke-linecap="round" stroke-linejoin="round" stroke-miterlimit="10" stroke-width="1"/>
          </g>
          <g id="g785" transform="translate(35.993 40.578)">
            <path id="path787" d="M-112.386-92.672c4.719-3.827,8.626-7.367,8.626-7.367-5.146-5.635-7.873-2.193-20.493,8.782a86.733,86.733,0,0,0-.073,13.711" transform="translate(124.56 102.711)" fill="none" stroke="#000" stroke-linecap="round" stroke-linejoin="round" stroke-miterlimit="10" stroke-width="1"/>
          </g>
          <g id="g789" transform="translate(0.977 19.255)">
            <path id="path791" d="M0,0C.768,11.724.768,11.722,0,24.432A115.4,115.4,0,0,0,17.621,40.006a36.078,36.078,0,0,0,0,6.482" fill="none" stroke="#000" stroke-linecap="round" stroke-linejoin="round" stroke-miterlimit="10" stroke-width="1"/>
          </g>
          <g id="g793" transform="translate(0.977 19.255)">
            <path id="path795" d="M0,0C7.05,0,7.055,4.428,7.055,19.1l3.364,3.072" fill="none" stroke="#000" stroke-linecap="round" stroke-linejoin="round" stroke-miterlimit="10" stroke-width="1"/>
          </g>
          <g id="g797" transform="translate(23.541 46.022)">
            <path id="path799" d="M0,0C1.919,1.646,4.172,3.655,6.88,6.01a86.743,86.743,0,0,1,.073,13.711" fill="none" stroke="#000" stroke-linecap="round" stroke-linejoin="round" stroke-miterlimit="10" stroke-width="1"/>
          </g>
          <g id="g801" transform="translate(9.928 40.578)">
            <path id="path803" d="M-79.631-92.673c-4.719-3.827-8.626-7.367-8.626-7.367,3.216-3.522,5.488-3.5,9.82-.305" transform="translate(88.257 102.711)" fill="none" stroke="#000" stroke-linecap="round" stroke-linejoin="round" stroke-miterlimit="10" stroke-width="1"/>
          </g>
          <g id="g805" transform="translate(7.196 23.472)">
            <path id="path807" d="M0,0C7.2,0,5.924,9.928,5.512,17.529" fill="none" stroke="#000" stroke-linejoin="round" stroke-miterlimit="10" stroke-width="1"/>
          </g>
          <g id="g809" transform="translate(53.63 23.472)">
            <path id="path811" d="M-54.408,0c-7.2,0-5.959,9.9-5.547,17.5" transform="translate(60.301)" fill="none" stroke="#000" stroke-linejoin="round" stroke-miterlimit="10" stroke-width="1"/>
          </g>
          <g id="g813" transform="translate(12.514 10.689)">
            <path id="path815" d="M-308.972-175.592a43.177,43.177,0,0,1-12.623,7.832c-16.731-7.036-21.937-18.611-20.663-26.853" transform="translate(342.441 194.613)" fill="none" stroke="#000" stroke-linecap="round" stroke-linejoin="round" stroke-miterlimit="10" stroke-width="1"/>
          </g>
          <g id="g817" transform="translate(14.049 0.977)">
            <path id="path819" d="M0-50.868C3.165-56.934,10.834-59.1,19.311-51.6c15.557-13.773,28.395,5.025,15.66,20.729" transform="translate(0 56.378)" fill="none" stroke="#000" stroke-linecap="round" stroke-linejoin="round" stroke-miterlimit="10" stroke-width="1"/>
          </g>
          <g id="g821" transform="translate(33.36 11.581)">
            <path id="path823" d="M0,0V17.914" fill="none" stroke="#000" stroke-linecap="round" stroke-linejoin="round" stroke-miterlimit="10" stroke-width="1"/>
          </g>
          <g id="g825" transform="translate(28.598 16.54)">
            <path id="path827" d="M-87.931,0h-9.525" transform="translate(97.456)" fill="none" stroke="#000" stroke-linecap="round" stroke-linejoin="round" stroke-miterlimit="10" stroke-width="1"/>
          </g>
        </g>
      </g>
    </g>
  </g>
</svg>
