<svg xmlns="http://www.w3.org/2000/svg" xmlns:xlink="http://www.w3.org/1999/xlink" width="113" height="113" viewBox="0 0 113 113">
  <defs>
    <filter id="Trazado_982547" x="0" y="0" width="113" height="113" filterUnits="userSpaceOnUse">
      <feOffset dy="3" input="SourceAlpha"/>
      <feGaussianBlur stdDeviation="3" result="blur"/>
      <feFlood flood-opacity="0.161"/>
      <feComposite operator="in" in2="blur"/>
      <feComposite in="SourceGraphic"/>
    </filter>
  </defs>
  <g id="Grupo_1222621" data-name="Grupo 1222621" transform="translate(-38 -2783.645)">
    <g id="Grupo_1222424" data-name="Grupo 1222424" transform="translate(47 2789.645)">
      <g id="Grupo_1208010" data-name="Grupo 1208010" transform="translate(0 0)">
        <g id="Grupo_1202142" data-name="Grupo 1202142" transform="translate(0 0)">
          <g id="Grupo_1201923" data-name="Grupo 1201923">
            <g id="Grupo_1176928" data-name="Grupo 1176928" transform="translate(0)">
              <g id="Grupo_1172322" data-name="Grupo 1172322">
                <g id="Grupo_1164700" data-name="Grupo 1164700">
                  <g id="Grupo_1160931" data-name="Grupo 1160931">
                    <g id="Grupo_1160749" data-name="Grupo 1160749">
                      <g id="Grupo_1158891" data-name="Grupo 1158891">
                        <g id="Grupo_1157406" data-name="Grupo 1157406">
                          <g id="Grupo_1155793" data-name="Grupo 1155793">
                            <g id="Grupo_1154704" data-name="Grupo 1154704">
                              <g id="Grupo_1150790" data-name="Grupo 1150790">
                                <g id="Grupo_1154214" data-name="Grupo 1154214" transform="translate(0)">
                                  <g id="Grupo_1152583" data-name="Grupo 1152583">
                                    <g id="Grupo_1146973" data-name="Grupo 1146973">
                                      <g id="Grupo_1146954" data-name="Grupo 1146954">
                                        <g transform="matrix(1, 0, 0, 1, -9, -6)" filter="url(#Trazado_982547)">
                                          <g id="Trazado_982547-2" data-name="Trazado 982547" transform="translate(9 6)" fill="#f2f4f0">
                                            <path d="M 47.50000762939453 93.49986267089844 C 41.28937911987305 93.49986267089844 35.26534271240234 92.28383636474609 29.59519386291504 89.88558197021484 C 24.11772727966309 87.56880950927734 19.19814109802246 84.25183868408203 14.97310066223145 80.02679443359375 C 10.74804782867432 75.8017578125 7.431074142456055 70.88218688964844 5.114300727844238 65.40471649169922 C 2.716034412384033 59.73458480834961 1.500007629394531 53.71054458618164 1.500007629394531 47.49993133544922 C 1.500007629394531 41.2893180847168 2.716034412384033 35.26527786254883 5.114300727844238 29.59514427185059 C 7.431074142456055 24.11767768859863 10.74804782867432 19.19810485839844 14.97310066223145 14.97306442260742 C 19.19814109802246 10.74802494049072 24.11772727966309 7.431051254272461 29.59519386291504 5.114277839660645 C 35.26534271240234 2.71602463722229 41.28937911987305 1.499997973442078 47.50000762939453 1.499997973442078 C 53.71063613891602 1.499997973442078 59.73467254638672 2.71602463722229 65.40482330322266 5.114277839660645 C 70.88228607177734 7.431051254272461 75.80187225341797 10.74802494049072 80.02691650390625 14.97306442260742 C 84.25196838378906 19.19810485839844 87.56893920898438 24.11767768859863 89.88571166992188 29.59514427185059 C 92.28398132324219 35.26527786254883 93.50000762939453 41.2893180847168 93.50000762939453 47.49993133544922 C 93.50000762939453 53.71054458618164 92.28398132324219 59.73458480834961 89.88571166992188 65.40471649169922 C 87.56893920898438 70.88218688964844 84.25196838378906 75.8017578125 80.02691650390625 80.02679443359375 C 75.80187225341797 84.25183868408203 70.88228607177734 87.56880950927734 65.40482330322266 89.88558197021484 C 59.73467254638672 92.28383636474609 53.71063613891602 93.49986267089844 47.50000762939453 93.49986267089844 Z" stroke="none"/>
                                            <path d="M 47.50000762939453 2.999992370605469 C 41.4912223815918 2.999992370605469 35.66377639770508 4.1761474609375 30.17951202392578 6.495796203613281 C 24.88085174560547 8.736930847167969 20.12152862548828 11.94596099853516 16.03376007080078 16.03372955322266 C 11.94597625732422 20.12148284912109 8.736961364746094 24.88080596923828 6.495803833007812 30.17946624755859 C 4.176162719726562 35.66371536254883 3.000007629394531 41.49116134643555 3.000007629394531 47.49993133544922 C 3.000007629394531 53.50870132446289 4.176162719726562 59.33614730834961 6.495803833007812 64.82038879394531 C 8.736961364746094 70.11905670166016 11.94597625732422 74.87836456298828 16.03376007080078 78.96613311767578 C 20.12152862548828 83.05390167236328 24.88085174560547 86.26291656494141 30.17951202392578 88.50406646728516 C 35.66377639770508 90.82369995117188 41.4912223815918 91.99985504150391 47.50000762939453 91.99985504150391 C 53.50879287719727 91.99985504150391 59.33623886108398 90.82369995117188 64.82049560546875 88.50406646728516 C 70.11916351318359 86.26291656494141 74.87848663330078 83.05390167236328 78.96625518798828 78.96613311767578 C 83.05403900146484 74.87836456298828 86.26305389404297 70.11905670166016 88.50421142578125 64.82038879394531 C 90.8238525390625 59.33614730834961 92.00000762939453 53.50870132446289 92.00000762939453 47.49993133544922 C 92.00000762939453 41.49116134643555 90.8238525390625 35.66371536254883 88.50421142578125 30.17946624755859 C 86.26305389404297 24.88080596923828 83.05403900146484 20.12148284912109 78.96625518798828 16.03372955322266 C 74.87848663330078 11.94596099853516 70.11916351318359 8.736930847167969 64.82049560546875 6.495796203613281 C 59.33623886108398 4.1761474609375 53.50879287719727 2.999992370605469 47.50000762939453 2.999992370605469 M 47.50000762939453 -7.62939453125e-06 C 73.73352813720703 -7.62939453125e-06 95.00000762939453 21.26644134521484 95.00000762939453 47.49993133544922 C 95.00000762939453 73.73342132568359 73.73352813720703 94.99985504150391 47.50000762939453 94.99985504150391 C 21.26648712158203 94.99985504150391 7.62939453125e-06 73.73342132568359 7.62939453125e-06 47.49993133544922 C 7.62939453125e-06 21.26644134521484 21.26648712158203 -7.62939453125e-06 47.50000762939453 -7.62939453125e-06 Z" stroke="none" fill="#899e78"/>
                                          </g>
                                        </g>
                                      </g>
                                    </g>
                                  </g>
                                </g>
                              </g>
                            </g>
                          </g>
                        </g>
                      </g>
                    </g>
                  </g>
                </g>
              </g>
            </g>
          </g>
        </g>
      </g>
    </g>
    <g id="swear_2328393" transform="translate(66.355 2808.355)">
      <g id="Grupo_1222619" data-name="Grupo 1222619" transform="translate(1.892 1.892)">
        <path id="Trazado_1175674" data-name="Trazado 1175674" d="M2.892,2H29.645a.894.894,0,0,1,.892.892V20.138a5.389,5.389,0,0,0-1.784-.3,1.789,1.789,0,0,0-1.784,1.784V23.4H21.619v4.245a1.1,1.1,0,0,1-2.087.5L17.16,23.4H2.892A.894.894,0,0,1,2,22.51V2.892A.894.894,0,0,1,2.892,2Z" transform="translate(-2 -2)" fill="#e6e9ed"/>
        <g id="Grupo_1222618" data-name="Grupo 1222618" transform="translate(0 10.701)">
          <path id="Trazado_1175675" data-name="Trazado 1175675" d="M29.134,14v2.675a.894.894,0,0,1-.892.892H22.892A.894.894,0,0,1,22,16.675V14Z" transform="translate(-4.165 -14)" fill="#b27946"/>
          <path id="Trazado_1175676" data-name="Trazado 1175676" d="M13.134,14v2.675a.894.894,0,0,1-.892.892H6.892A.894.894,0,0,1,6,16.675V14Z" transform="translate(-2.433 -14)" fill="#b27946"/>
          <path id="Trazado_1175677" data-name="Trazado 1175677" d="M16.268,34.892v3.567a.894.894,0,0,1-.892.892H2.892A.894.894,0,0,1,2,38.459V34.892A.894.894,0,0,1,2.892,34H15.376A.894.894,0,0,1,16.268,34.892Z" transform="translate(-2 -16.165)" fill="#b27946"/>
          <path id="Trazado_1175678" data-name="Trazado 1175678" d="M16.268,56.892v3.567a.894.894,0,0,1-.892.892H2.892A.894.894,0,0,1,2,60.459V56.892A.894.894,0,0,1,2.892,56H15.376A.894.894,0,0,1,16.268,56.892Z" transform="translate(-2 -18.546)" fill="#b27946"/>
        </g>
        <path id="Trazado_1175679" data-name="Trazado 1175679" d="M14.7,49.809v4.459H4V40H14.7v9.809Z" transform="translate(-2.216 -6.113)" fill="#d3a06c"/>
        <path id="Trazado_1175680" data-name="Trazado 1175680" d="M33.835,46.782v3.567H16V45H32.453l.009-.009A19.076,19.076,0,0,0,33.835,46.782Z" transform="translate(-3.515 -6.653)" fill="#cf9e76"/>
        <path id="Trazado_1175681" data-name="Trazado 1175681" d="M55.619,47V60.376H36V47Z" transform="translate(-5.68 -6.871)" fill="#b4dd7f"/>
        <path id="Trazado_1175682" data-name="Trazado 1175682" d="M53.186,15.376a2.675,2.675,0,0,1,5.351,0V30.349a21.222,21.222,0,0,1-3.567,11.78H35.351a19.077,19.077,0,0,1-1.373-1.792A22.184,22.184,0,0,1,30,27.665V21.619a1.789,1.789,0,0,1,1.784-1.784,5.389,5.389,0,0,1,1.784.3l2,1.266a5.3,5.3,0,0,1,1.569,3.781V8.242a2.675,2.675,0,0,1,5.351,0V4.675a2.675,2.675,0,0,1,5.351,0V8.242a2.675,2.675,0,1,1,5.351,0Z" transform="translate(-5.031 -2)" fill="#f0d0b4"/>
      </g>
      <g id="Grupo_1222620" data-name="Grupo 1222620" transform="translate(1 1)">
        <path id="Trazado_1175683" data-name="Trazado 1175683" d="M56.289,15.268A3.571,3.571,0,0,0,52.722,11.7a3.53,3.53,0,0,0-1.784.5V8.134a3.571,3.571,0,0,0-3.567-3.567,3.53,3.53,0,0,0-1.784.5v-.5a3.567,3.567,0,0,0-7.134,0v.5a3.53,3.53,0,0,0-1.784-.5A3.571,3.571,0,0,0,33.1,8.134V20.718a6.254,6.254,0,0,0-1.784-1.271V2.784A1.785,1.785,0,0,0,29.536,1H2.784A1.785,1.785,0,0,0,1,2.784V22.4a1.785,1.785,0,0,0,1.784,1.784H16.5l2.124,4.248a1.994,1.994,0,0,0,3.777-.892V24.186h3.567v3.372a23.123,23.123,0,0,0,3.238,11.788H15.268V36.67a1.785,1.785,0,0,0,1.784-1.784V31.32a1.785,1.785,0,0,0-1.784-1.784H2.784A1.785,1.785,0,0,0,1,31.32v3.567A1.785,1.785,0,0,0,2.784,36.67V49.155A1.785,1.785,0,0,0,1,50.938v3.567a1.785,1.785,0,0,0,1.784,1.784H15.268a1.785,1.785,0,0,0,1.784-1.784V50.938a1.785,1.785,0,0,0-1.784-1.784V46.48H31.32v9.809h21.4V42.272a22.053,22.053,0,0,0,3.567-12.032ZM20.619,22.4v5.14a.217.217,0,0,1-.4.094L17.6,22.4H2.784V2.784H29.536V18.907a6.265,6.265,0,0,0-.892-.071,2.679,2.679,0,0,0-2.675,2.675V22.4ZM2.784,31.32H15.268v3.567H2.784ZM15.269,54.506H2.784V50.938H15.268Zm-10.7-5.351V36.67h8.918V49.155Zm10.7-4.459V41.129H30.383c.3.409.612.806.937,1.2V44.7ZM33.1,54.506V42.912H50.938V54.506Zm21.4-24.266a20.277,20.277,0,0,1-3.159,10.889H32.627a21.344,21.344,0,0,1-4.874-13.571V21.51a.893.893,0,0,1,.892-.892A4.464,4.464,0,0,1,33.1,25.077v5.351h1.784V8.134a1.784,1.784,0,1,1,3.567,0V25.349h1.784V4.567a1.784,1.784,0,0,1,3.567,0v20.51h1.784V8.134a1.784,1.784,0,1,1,3.567,0V25.077h1.784V15.268a1.784,1.784,0,1,1,3.567,0Z" transform="translate(-1 -1)"/>
        <path id="Trazado_1175684" data-name="Trazado 1175684" d="M19.268,15.7a1.785,1.785,0,0,0,1.784,1.784H26.4A1.785,1.785,0,0,0,28.186,15.7V12.756L24.2,6.784H17.485V5H15.7V6.784H8.982L5,12.756V15.7a1.785,1.785,0,0,0,1.784,1.784h5.351A1.785,1.785,0,0,0,13.918,15.7V12.756L11.125,8.567H15.7v10.7H12.134v1.784h8.918V19.268H17.485V8.567H22.06l-2.792,4.189Zm-12.485,0V13.918h5.351V15.7Zm4.577-3.567h-3.8l1.9-2.851ZM21.052,15.7V13.918H26.4V15.7Zm2.675-6.418,1.9,2.851h-3.8Z" transform="translate(-1.433 -1.433)"/>
      </g>
    </g>
  </g>
</svg>
