<svg xmlns="http://www.w3.org/2000/svg" xmlns:xlink="http://www.w3.org/1999/xlink" width="113" height="113" viewBox="0 0 113 113">
  <defs>
    <filter id="Trazado_982547" x="0" y="0" width="113" height="113" filterUnits="userSpaceOnUse">
      <feOffset dy="3" input="SourceAlpha"/>
      <feGaussianBlur stdDeviation="3" result="blur"/>
      <feFlood flood-opacity="0.161"/>
      <feComposite operator="in" in2="blur"/>
      <feComposite in="SourceGraphic"/>
    </filter>
  </defs>
  <g id="Grupo_1222679" data-name="Grupo 1222679" transform="translate(-2761 -11062.269)">
    <g id="Grupo_1222487" data-name="Grupo 1222487" transform="translate(2770 11068.269)">
      <g id="Grupo_1208010" data-name="Grupo 1208010" transform="translate(0 0)">
        <g id="Grupo_1202142" data-name="Grupo 1202142" transform="translate(0 0)">
          <g id="Grupo_1201923" data-name="Grupo 1201923">
            <g id="Grupo_1176928" data-name="Grupo 1176928" transform="translate(0)">
              <g id="Grupo_1172322" data-name="Grupo 1172322">
                <g id="Grupo_1164700" data-name="Grupo 1164700">
                  <g id="Grupo_1160931" data-name="Grupo 1160931">
                    <g id="Grupo_1160749" data-name="Grupo 1160749">
                      <g id="Grupo_1158891" data-name="Grupo 1158891">
                        <g id="Grupo_1157406" data-name="Grupo 1157406">
                          <g id="Grupo_1155793" data-name="Grupo 1155793">
                            <g id="Grupo_1154704" data-name="Grupo 1154704">
                              <g id="Grupo_1150790" data-name="Grupo 1150790">
                                <g id="Grupo_1154214" data-name="Grupo 1154214" transform="translate(0)">
                                  <g id="Grupo_1152583" data-name="Grupo 1152583">
                                    <g id="Grupo_1146973" data-name="Grupo 1146973">
                                      <g id="Grupo_1146954" data-name="Grupo 1146954">
                                        <g transform="matrix(1, 0, 0, 1, -9, -6)" filter="url(#Trazado_982547)">
                                          <g id="Trazado_982547-2" data-name="Trazado 982547" transform="translate(9 6)" fill="#f2f4f0">
                                            <path d="M 47.5 93.49984741210938 C 41.28938674926758 93.49984741210938 35.26533508300781 92.2838134765625 29.59519958496094 89.88556671142578 C 24.11773300170898 87.56878662109375 19.19814682006836 84.25181579589844 14.97310638427734 80.02677917480469 C 10.74805355072021 75.80173492431641 7.431079864501953 70.88216400146484 5.114306449890137 65.40470886230469 C 2.716039896011353 59.73457717895508 1.50001335144043 53.71053695678711 1.50001335144043 47.49992370605469 C 1.50001335144043 41.28931045532227 2.716039896011353 35.2652702331543 5.114306449890137 29.59513664245605 C 7.431079864501953 24.11768341064453 10.74805355072021 19.19811058044434 14.97310638427734 14.97307014465332 C 19.19814682006836 10.74803066253662 24.11773300170898 7.431056976318359 29.59519958496094 5.114283561706543 C 35.26533508300781 2.716030359268188 41.28938674926758 1.500003695487976 47.5 1.500003695487976 C 53.71062850952148 1.500003695487976 59.73466491699219 2.716030359268188 65.40481567382812 5.114283561706543 C 70.88227844238281 7.431056976318359 75.80186462402344 10.74803066253662 80.02690887451172 14.97307014465332 C 84.25196075439453 19.19811058044434 87.56893157958984 24.11768341064453 89.88570404052734 29.59513664245605 C 92.28397369384766 35.2652702331543 93.5 41.28931045532227 93.5 47.49992370605469 C 93.5 53.71053695678711 92.28397369384766 59.73457717895508 89.88570404052734 65.40470886230469 C 87.56893157958984 70.88216400146484 84.25196075439453 75.80173492431641 80.02690887451172 80.02677917480469 C 75.80186462402344 84.25181579589844 70.88227844238281 87.56878662109375 65.40481567382812 89.88556671142578 C 59.73466491699219 92.2838134765625 53.71062850952148 93.49984741210938 47.5 93.49984741210938 Z" stroke="none"/>
                                            <path d="M 47.5 3 C 41.49121475219727 3 35.66376876831055 4.176155090332031 30.17951965332031 6.495803833007812 C 24.88084411621094 8.7369384765625 20.12152099609375 11.94596862792969 16.03375244140625 16.03372192382812 C 11.94598388671875 20.12149047851562 8.736953735351562 24.88081359863281 6.495796203613281 30.17947387695312 C 4.176155090332031 35.6637077331543 3 41.49115371704102 3 47.49992370605469 C 3 53.50869369506836 4.176155090332031 59.33613967895508 6.495796203613281 64.82037353515625 C 8.736953735351562 70.11903381347656 11.94598388671875 74.87835693359375 16.03375244140625 78.96612548828125 C 20.12152099609375 83.05387878417969 24.88084411621094 86.26290893554688 30.17951965332031 88.50404357910156 C 35.66376876831055 90.82369232177734 41.49121475219727 91.99984741210938 47.5 91.99984741210938 C 53.50878524780273 91.99984741210938 59.33623123168945 90.82369232177734 64.82049560546875 88.50404357910156 C 70.11915588378906 86.26290893554688 74.87847900390625 83.05387878417969 78.96624755859375 78.96612548828125 C 83.05401611328125 74.87835693359375 86.26304626464844 70.11903381347656 88.50418090820312 64.82037353515625 C 90.82382965087891 59.33613967895508 91.99998474121094 53.50869369506836 91.99998474121094 47.49992370605469 C 91.99998474121094 41.49115371704102 90.82382965087891 35.6637077331543 88.50418090820312 30.17947387695312 C 86.26304626464844 24.88081359863281 83.05401611328125 20.12149047851562 78.96624755859375 16.03372192382812 C 74.87847900390625 11.94596862792969 70.11915588378906 8.7369384765625 64.82049560546875 6.495803833007812 C 59.33623123168945 4.176155090332031 53.50878524780273 3 47.5 3 M 47.5 0 C 73.7335205078125 0 94.99998474121094 21.26644897460938 94.99998474121094 47.49992370605469 C 94.99998474121094 73.7333984375 73.7335205078125 94.99984741210938 47.5 94.99984741210938 C 21.26649475097656 94.99984741210938 0 73.7333984375 0 47.49992370605469 C 0 21.26644897460938 21.26649475097656 0 47.5 0 Z" stroke="none" fill="#899e78"/>
                                          </g>
                                        </g>
                                      </g>
                                    </g>
                                  </g>
                                </g>
                              </g>
                            </g>
                          </g>
                        </g>
                      </g>
                    </g>
                  </g>
                </g>
              </g>
            </g>
          </g>
        </g>
      </g>
    </g>
    <g id="oath_9882269" transform="translate(2733.316 11075.348)">
      <g id="Grupo_1222677" data-name="Grupo 1222677" transform="translate(60.828 7.5)">
        <g id="Grupo_1222675" data-name="Grupo 1222675" transform="translate(0 0)">
          <path id="Trazado_1175718" data-name="Trazado 1175718" d="M60.828,427.714v4.029a3.29,3.29,0,0,0,3.29,3.29h37.156a2.014,2.014,0,0,0,2.014-2.014v-8.594H64.118A3.29,3.29,0,0,0,60.828,427.714Z" transform="translate(-60.828 -369.191)" fill="#fd4755"/>
          <path id="Trazado_1175719" data-name="Trazado 1175719" d="M328.146,433.018a2.014,2.014,0,0,1-2.014,2.014h5.3a2.014,2.014,0,0,0,2.014-2.014v-8.594h-5.3Z" transform="translate(-290.985 -369.191)" fill="#fb2b3a"/>
          <path id="Trazado_1175720" data-name="Trazado 1175720" d="M64.118,431H99.083a.406.406,0,0,0,.406-.406v-6.174H64.118a3.29,3.29,0,0,0-3.29,3.29h0A3.29,3.29,0,0,0,64.118,431Z" transform="translate(-60.828 -369.19)" fill="#fff"/>
          <path id="Trazado_1175721" data-name="Trazado 1175721" d="M320,424.424V430.6a.406.406,0,0,1-.406.406h3.974a.406.406,0,0,0,.406-.406v-6.174Z" transform="translate(-285.315 -369.191)" fill="#f3eae6"/>
          <path id="Trazado_1175722" data-name="Trazado 1175722" d="M66.563,427.714h0a3.29,3.29,0,0,1,3.29-3.29H64.118a3.29,3.29,0,0,0-3.29,3.29h0a3.29,3.29,0,0,0,3.29,3.29h5.735A3.29,3.29,0,0,1,66.563,427.714Z" transform="translate(-60.828 -369.191)" fill="#e1d3ce"/>
          <path id="Trazado_1175723" data-name="Trazado 1175723" d="M107.409,431a3.29,3.29,0,0,1-3.29-3.29h0a3.29,3.29,0,0,1,3.29-3.29" transform="translate(-98.384 -369.19)" fill="none" stroke="#000" stroke-linecap="round" stroke-linejoin="round" stroke-miterlimit="10" stroke-width="1"/>
          <g id="Grupo_1222667" data-name="Grupo 1222667" transform="translate(0 55.233)">
            <path id="Trazado_1175724" data-name="Trazado 1175724" d="M293,424.423V431h7.5a.406.406,0,0,0,.406-.406v-6.174H293Z" transform="translate(-262.24 -424.423)" fill="none" stroke="#000" stroke-linecap="round" stroke-linejoin="round" stroke-miterlimit="10" stroke-width="1"/>
            <path id="Trazado_1175725" data-name="Trazado 1175725" d="M76.157,424.424H64.118a3.29,3.29,0,0,0-3.29,3.29h0a3.29,3.29,0,0,0,3.29,3.29H76.157Z" transform="translate(-60.828 -424.424)" fill="none" stroke="#000" stroke-linecap="round" stroke-linejoin="round" stroke-miterlimit="10" stroke-width="1"/>
          </g>
          <path id="Trazado_1175726" data-name="Trazado 1175726" d="M102.069,64.645a10.335,10.335,0,0,1-9.09-15.26H64.118a3.29,3.29,0,0,0-3.29,3.29v49.684a3.29,3.29,0,0,1,3.29-3.29h39.17v-34.5A10.371,10.371,0,0,1,102.069,64.645Z" transform="translate(-60.828 -43.836)" fill="#fe646f"/>
          <path id="Trazado_1175727" data-name="Trazado 1175727" d="M345.416,160.175a10.438,10.438,0,0,1-4.08-.825v35.116h5.3V160.1A10.548,10.548,0,0,1,345.416,160.175Z" transform="translate(-304.175 -139.233)" fill="#fd4755"/>
          <path id="Trazado_1175728" data-name="Trazado 1175728" d="M287.889,195.855a.677.677,0,0,1,.677.677v2.858h11.7V165.025" transform="translate(-257.809 -144.157)" fill="none" stroke="#000" stroke-linecap="round" stroke-linejoin="round" stroke-miterlimit="10" stroke-width="1"/>
          <path id="Trazado_1175729" data-name="Trazado 1175729" d="M92.827,49.385H64.118a3.29,3.29,0,0,0-3.29,3.29V65.1" transform="translate(-60.828 -43.836)" fill="none" stroke="#000" stroke-linecap="round" stroke-linejoin="round" stroke-miterlimit="10" stroke-width="1"/>
          <path id="Trazado_1175730" data-name="Trazado 1175730" d="M60.828,203.021v32.62a3.29,3.29,0,0,1,3.29-3.29H76.157" transform="translate(-60.828 -177.119)" fill="none" stroke="#000" stroke-linecap="round" stroke-linejoin="round" stroke-miterlimit="10" stroke-width="1"/>
          <g id="Grupo_1222673" data-name="Grupo 1222673" transform="translate(3.646 13.418)">
            <g id="Grupo_1222672" data-name="Grupo 1222672">
              <g id="Grupo_1222668" data-name="Grupo 1222668" transform="translate(0 16.081)">
                <path id="Trazado_1175731" data-name="Trazado 1175731" d="M98.557,230.176v6.333a1.454,1.454,0,0,1-1.567,1.45,1.509,1.509,0,0,1-.945-.451l-2.171-2.171a3.609,3.609,0,0,0-5.11.006,1.456,1.456,0,0,0,.006,2.047l10.894,10.337a5.31,5.31,0,0,1,1.655,3.852v.931h12.85a5.4,5.4,0,0,1,2.142-4.271,6.368,6.368,0,0,0,2.485-4.812l0-13.251Z" transform="translate(-88.347 -230.176)" fill="#ffcebf"/>
              </g>
              <path id="Trazado_1175732" data-name="Trazado 1175732" d="M285.082,177.138V168.19a2.53,2.53,0,0,0-2.53-2.53h0a2.53,2.53,0,0,0-2.53,2.53v8.477" transform="translate(-254.629 -158.126)" fill="#ffcebf"/>
              <g id="Grupo_1222669" data-name="Grupo 1222669" transform="translate(23.172 7.534)">
                <path id="Trazado_1175733" data-name="Trazado 1175733" d="M268.014,165.659a2.515,2.515,0,0,0-1.325.377,2.526,2.526,0,0,1,1.206,2.153l0,17.663a6.367,6.367,0,0,1-2.485,4.812c-1.333,1.026-2.142,4.194-2.142,5.876h2.65a5.4,5.4,0,0,1,2.142-4.271,6.368,6.368,0,0,0,2.485-4.812l0-19.268A2.53,2.53,0,0,0,268.014,165.659Z" transform="translate(-263.264 -165.659)" fill="#ffb09e"/>
              </g>
              <path id="Trazado_1175734" data-name="Trazado 1175734" d="M285.082,177.138V168.19a2.53,2.53,0,0,0-2.53-2.53h0a2.53,2.53,0,0,0-2.53,2.53v8.477" transform="translate(-254.629 -158.126)" fill="none" stroke="#000" stroke-linecap="round" stroke-linejoin="round" stroke-miterlimit="10" stroke-width="1"/>
              <g id="Grupo_1222671" data-name="Grupo 1222671" transform="translate(10.21)">
                <g id="Grupo_1222670" data-name="Grupo 1222670">
                  <path id="Trazado_1175735" data-name="Trazado 1175735" d="M246.881,149.654v-12.6a2.53,2.53,0,0,0-2.53-2.53h0a2.53,2.53,0,0,0-2.53,2.53v12.6" transform="translate(-231.698 -131.112)" fill="#ffcebf"/>
                  <path id="Trazado_1175736" data-name="Trazado 1175736" d="M246.881,149.654v-12.6a2.53,2.53,0,0,0-2.53-2.53h0a2.53,2.53,0,0,0-2.53,2.53v12.6" transform="translate(-231.698 -131.112)" fill="none" stroke="#000" stroke-linecap="round" stroke-linejoin="round" stroke-miterlimit="10" stroke-width="1"/>
                  <path id="Trazado_1175737" data-name="Trazado 1175737" d="M208.68,127.419v-16.1a2.53,2.53,0,0,0-2.53-2.53h0a2.53,2.53,0,0,0-2.53,2.53v16.1" transform="translate(-198.558 -108.788)" fill="#ffcebf"/>
                  <path id="Trazado_1175738" data-name="Trazado 1175738" d="M208.68,127.419v-16.1a2.53,2.53,0,0,0-2.53-2.53h0a2.53,2.53,0,0,0-2.53,2.53v16.1" transform="translate(-198.558 -108.788)" fill="none" stroke="#000" stroke-linecap="round" stroke-linejoin="round" stroke-miterlimit="10" stroke-width="1"/>
                  <path id="Trazado_1175739" data-name="Trazado 1175739" d="M170.479,148.4V137.051a2.53,2.53,0,0,0-2.53-2.53h0a2.53,2.53,0,0,0-2.53,2.53v12.907" transform="translate(-165.418 -131.112)" fill="#ffcebf"/>
                  <path id="Trazado_1175740" data-name="Trazado 1175740" d="M170.479,148.4V137.051a2.53,2.53,0,0,0-2.53-2.53h0a2.53,2.53,0,0,0-2.53,2.53v12.907" transform="translate(-165.418 -131.112)" fill="none" stroke="#000" stroke-linecap="round" stroke-linejoin="round" stroke-miterlimit="10" stroke-width="1"/>
                </g>
              </g>
            </g>
          </g>
          <g id="Grupo_1222674" data-name="Grupo 1222674" transform="translate(30.77)">
            <circle id="Elipse_14652" data-name="Elipse 14652" cx="10.471" cy="10.471" r="10.471" fill="#00f2a6"/>
            <path id="Trazado_1175741" data-name="Trazado 1175741" d="M354.784,7.5a10.482,10.482,0,0,0-2.65.339,10.473,10.473,0,0,1,0,20.263,10.471,10.471,0,1,0,2.65-20.6Z" transform="translate(-344.313 -7.5)" fill="#05e39c"/>
            <path id="Trazado_1175742" data-name="Trazado 1175742" d="M294.688,20.616a10.476,10.476,0,1,0-.146-4.637" transform="translate(-294.35 -7.5)" fill="none" stroke="#000" stroke-linecap="round" stroke-linejoin="round" stroke-miterlimit="10" stroke-width="1"/>
            <path id="Trazado_1175743" data-name="Trazado 1175743" d="M335.61,67.4l3.64,3.694,6.037-6.382" transform="translate(-329.978 -57.129)" fill="none" stroke="#000" stroke-linecap="round" stroke-linejoin="round" stroke-miterlimit="10" stroke-width="1"/>
          </g>
        </g>
        <g id="Grupo_1222676" data-name="Grupo 1222676" transform="translate(15.329 51.698)">
          <path id="Trazado_1175744" data-name="Trazado 1175744" d="M177.2,411.888h14.1a.662.662,0,0,0,.662-.662V398.407a.662.662,0,0,0-.662-.662H177.2a.662.662,0,0,0-.662.662v12.818A.662.662,0,0,0,177.2,411.888Z" transform="translate(-176.537 -397.745)" fill="#9e9797"/>
        </g>
        <path id="Trazado_1175745" data-name="Trazado 1175745" d="M256.344,397.745H251.51a.662.662,0,0,1,.662.662v12.818a.662.662,0,0,1-.662.662h4.834a.662.662,0,0,0,.662-.662V398.407A.662.662,0,0,0,256.344,397.745Z" transform="translate(-226.249 -346.046)" fill="#766e6e"/>
        <path id="Trazado_1175746" data-name="Trazado 1175746" d="M180.48,397.745H177.2a.662.662,0,0,0-.662.662v12.818a.662.662,0,0,0,.662.662h14.1a.662.662,0,0,0,.662-.662V398.407a.662.662,0,0,0-.662-.662h-6.186" transform="translate(-161.208 -346.046)" fill="none" stroke="#000" stroke-linecap="round" stroke-linejoin="round" stroke-miterlimit="10" stroke-width="1"/>
        <line id="Línea_3674" data-name="Línea 3674" y2="0.406" transform="translate(18.683 55.217)" fill="none" stroke="#000" stroke-linecap="round" stroke-linejoin="round" stroke-miterlimit="10" stroke-width="1"/>
        <line id="Línea_3675" data-name="Línea 3675" y2="0.406" transform="translate(18.683 58.736)" fill="none" stroke="#000" stroke-linecap="round" stroke-linejoin="round" stroke-miterlimit="10" stroke-width="1"/>
      </g>
      <g id="Grupo_1222678" data-name="Grupo 1222678" transform="translate(60.828 62.733)">
        <path id="Trazado_1175747" data-name="Trazado 1175747" d="M288,435.032h10.351a2.014,2.014,0,0,0,2.014-2.014v-8.594" transform="translate(-257.902 -424.424)" fill="none" stroke="#000" stroke-linecap="round" stroke-linejoin="round" stroke-miterlimit="10" stroke-width="1"/>
        <path id="Trazado_1175748" data-name="Trazado 1175748" d="M60.828,449.258v4.028a3.29,3.29,0,0,0,3.29,3.29h12.7" transform="translate(-60.828 -445.968)" fill="none" stroke="#000" stroke-linecap="round" stroke-linejoin="round" stroke-miterlimit="10" stroke-width="1"/>
      </g>
      <path id="Trazado_1175749" data-name="Trazado 1175749" d="M283.3,252.376a5.405,5.405,0,0,1,2.138-4.135,6.368,6.368,0,0,0,2.485-4.812l0-13.251" transform="translate(-192.995 -193.177)" fill="none" stroke="#000" stroke-linecap="round" stroke-linejoin="round" stroke-miterlimit="10" stroke-width="1"/>
      <path id="Trazado_1175750" data-name="Trazado 1175750" d="M98.556,230.176v6.333a1.454,1.454,0,0,1-1.567,1.45,1.509,1.509,0,0,1-.945-.451l-2.171-2.171a3.609,3.609,0,0,0-5.111.006,1.456,1.456,0,0,0,.006,2.047l10.894,10.337a5.31,5.31,0,0,1,1.655,3.852v.8" transform="translate(-23.873 -193.177)" fill="none" stroke="#000" stroke-linecap="round" stroke-linejoin="round" stroke-miterlimit="10" stroke-width="1"/>
    </g>
  </g>
</svg>
