<svg xmlns="http://www.w3.org/2000/svg" xmlns:xlink="http://www.w3.org/1999/xlink" width="99.544" height="99.544" viewBox="0 0 99.544 99.544">
  <defs>
    <filter id="Trazado_904820" x="0" y="0" width="99.544" height="99.544" filterUnits="userSpaceOnUse">
      <feOffset dy="3" input="SourceAlpha"/>
      <feGaussianBlur stdDeviation="3" result="blur"/>
      <feFlood flood-opacity="0.161"/>
      <feComposite operator="in" in2="blur"/>
      <feComposite in="SourceGraphic"/>
    </filter>
  </defs>
  <g id="Grupo_1222576" data-name="Grupo 1222576" transform="translate(9 6)">
    <g id="Grupo_1173585" data-name="Grupo 1173585" transform="translate(0 0)">
      <g id="Grupo_1173428" data-name="Grupo 1173428">
        <g id="Grupo_1171958" data-name="Grupo 1171958">
          <g id="Grupo_1167341" data-name="Grupo 1167341">
            <g id="Grupo_1166792" data-name="Grupo 1166792">
              <g transform="matrix(1, 0, 0, 1, -9, -6)" filter="url(#Trazado_904820)">
                <g id="Trazado_904820-2" data-name="Trazado 904820" transform="translate(9 6)" fill="#f2f4f0">
                  <path d="M 40.77218246459961 80.04439544677734 C 35.46981811523438 80.04439544677734 30.32684135437012 79.00625610351562 25.48614692687988 76.95880889892578 C 20.80981826782227 74.98088836669922 16.6097354888916 72.14900970458984 13.00255870819092 68.54183197021484 C 9.395394325256348 64.93465423583984 6.563511848449707 60.73457336425781 4.585594177246094 56.05824661254883 C 2.538147211074829 51.2175407409668 1.500005960464478 46.0745735168457 1.500005960464478 40.77219772338867 C 1.500005960464478 35.46982192993164 2.538147211074829 30.32685661315918 4.585594177246094 25.48615074157715 C 6.563511848449707 20.80982208251953 9.395394325256348 16.60973930358887 13.00255870819092 13.00256252288818 C 16.6097354888916 9.3953857421875 20.80981826782227 6.563503742218018 25.48614692687988 4.585586071014404 C 30.32684135437012 2.538138866424561 35.46981811523438 1.499997735023499 40.77218246459961 1.499997735023499 C 46.07455825805664 1.499997735023499 51.21752548217773 2.538138866424561 56.05823135375977 4.585586071014404 C 60.73455810546875 6.563503742218018 64.93463897705078 9.3953857421875 68.54181671142578 13.00256252288818 C 72.14897918701172 16.60973930358887 74.98086547851562 20.80982208251953 76.95878601074219 25.48615074157715 C 79.00623321533203 30.32685661315918 80.04437255859375 35.46982192993164 80.04437255859375 40.77219772338867 C 80.04437255859375 46.0745735168457 79.00623321533203 51.2175407409668 76.95878601074219 56.05824661254883 C 74.98086547851562 60.73457336425781 72.14897918701172 64.93465423583984 68.54181671142578 68.54183197021484 C 64.93463897705078 72.14900970458984 60.73455810546875 74.98088836669922 56.05823135375977 76.95880889892578 C 51.21752548217773 79.00625610351562 46.07455825805664 80.04439544677734 40.77218246459961 80.04439544677734 Z" stroke="none"/>
                  <path d="M 40.77218246459961 3 C 35.67164993286133 3 30.72527694702148 3.998275756835938 26.07046127319336 5.967094421386719 C 21.57294082641602 7.869384765625 17.53311920166016 10.59331512451172 14.06320953369141 14.06322479248047 C 10.59331512451172 17.53311920166016 7.869384765625 21.57294464111328 5.967086791992188 26.07047653198242 C 3.998275756835938 30.72529220581055 2.999992370605469 35.67166519165039 2.999992370605469 40.77219772338867 C 2.999992370605469 45.87273025512695 3.998275756835938 50.81910705566406 5.967086791992188 55.47391510009766 C 7.869384765625 59.97145080566406 10.59331512451172 64.01126098632812 14.06320953369141 67.48117065429688 C 17.53311920166016 70.95108032226562 21.57294082641602 73.67501068115234 26.07046127319336 75.57730102539062 C 30.72527694702148 77.54611968994141 35.67164993286133 78.54439544677734 40.77218246459961 78.54439544677734 C 45.87271499633789 78.54439544677734 50.819091796875 77.54611968994141 55.47389984130859 75.57730102539062 C 59.97142028808594 73.67501068115234 64.01124572753906 70.95108032226562 67.48115539550781 67.48117065429688 C 70.9510498046875 64.01126098632812 73.67498016357422 59.97145080566406 75.57727813720703 55.47391510009766 C 77.54608917236328 50.81910705566406 78.54437255859375 45.87273025512695 78.54437255859375 40.77219772338867 C 78.54437255859375 35.67166519165039 77.54608917236328 30.72529220581055 75.57727813720703 26.07047653198242 C 73.67498016357422 21.57294464111328 70.9510498046875 17.53311920166016 67.48115539550781 14.06322479248047 C 64.01124572753906 10.59331512451172 59.97142028808594 7.869384765625 55.47389984130859 5.967094421386719 C 50.819091796875 3.998275756835938 45.87271499633789 3 40.77218246459961 3 M 40.77218246459961 0 C 63.29003524780273 0 81.54437255859375 18.25432968139648 81.54437255859375 40.77219772338867 C 81.54437255859375 63.2900505065918 63.29003524780273 81.54439544677734 40.77218246459961 81.54439544677734 C 18.25432968139648 81.54439544677734 -7.62939453125e-06 63.2900505065918 -7.62939453125e-06 40.77219772338867 C -7.62939453125e-06 18.25432968139648 18.25432968139648 0 40.77218246459961 0 Z" stroke="none" fill="#4a5641"/>
                </g>
              </g>
            </g>
          </g>
        </g>
      </g>
    </g>
    <g id="swear_2328393" transform="translate(15.393 15.393)">
      <g id="Grupo_1222619" data-name="Grupo 1222619" transform="translate(1.798 1.798)">
        <path id="Trazado_1175674" data-name="Trazado 1175674" d="M2.8,2H26.743a.8.8,0,0,1,.8.8V18.235a4.823,4.823,0,0,0-1.6-.271,1.6,1.6,0,0,0-1.6,1.6v1.6H19.559v3.8a.987.987,0,0,1-1.868.447l-2.123-4.246H2.8a.8.8,0,0,1-.8-.8V2.8A.8.8,0,0,1,2.8,2Z" transform="translate(-2 -2)" fill="#e6e9ed"/>
        <g id="Grupo_1222618" data-name="Grupo 1222618" transform="translate(0 9.578)">
          <path id="Trazado_1175675" data-name="Trazado 1175675" d="M28.385,14v2.394a.8.8,0,0,1-.8.8H22.8a.8.8,0,0,1-.8-.8V14Z" transform="translate(-6.037 -14)" fill="#b27946"/>
          <path id="Trazado_1175676" data-name="Trazado 1175676" d="M12.385,14v2.394a.8.8,0,0,1-.8.8H6.8a.8.8,0,0,1-.8-.8V14Z" transform="translate(-2.807 -14)" fill="#b27946"/>
          <path id="Trazado_1175677" data-name="Trazado 1175677" d="M14.771,34.8v3.193a.8.8,0,0,1-.8.8H2.8a.8.8,0,0,1-.8-.8V34.8a.8.8,0,0,1,.8-.8H13.972A.8.8,0,0,1,14.771,34.8Z" transform="translate(-2 -18.037)" fill="#b27946"/>
          <path id="Trazado_1175678" data-name="Trazado 1175678" d="M14.771,56.8v3.193a.8.8,0,0,1-.8.8H2.8a.8.8,0,0,1-.8-.8V56.8a.8.8,0,0,1,.8-.8H13.972A.8.8,0,0,1,14.771,56.8Z" transform="translate(-2 -22.477)" fill="#b27946"/>
        </g>
        <path id="Trazado_1175679" data-name="Trazado 1175679" d="M13.578,48.78v3.991H4V40h9.578v8.78Z" transform="translate(-2.404 -9.67)" fill="#d3a06c"/>
        <path id="Trazado_1175680" data-name="Trazado 1175680" d="M31.963,46.594v3.193H16V45H30.726l.008-.008A17.074,17.074,0,0,0,31.963,46.594Z" transform="translate(-4.826 -10.677)" fill="#cf9e76"/>
        <path id="Trazado_1175681" data-name="Trazado 1175681" d="M53.559,47V58.972H36V47Z" transform="translate(-8.863 -11.083)" fill="#b4dd7f"/>
        <path id="Trazado_1175682" data-name="Trazado 1175682" d="M50.752,13.972a2.394,2.394,0,0,1,4.789,0v13.4a19,19,0,0,1-3.193,10.544H34.789a17.074,17.074,0,0,1-1.229-1.6A19.856,19.856,0,0,1,30,24.971V19.559a1.6,1.6,0,0,1,1.6-1.6,4.823,4.823,0,0,1,1.6.271l1.788,1.133a4.744,4.744,0,0,1,1.4,3.384V7.587a2.394,2.394,0,0,1,4.789,0V4.394a2.394,2.394,0,0,1,4.789,0V7.587a2.394,2.394,0,1,1,4.789,0Z" transform="translate(-7.652 -2)" fill="#f0d0b4"/>
      </g>
      <g id="Grupo_1222620" data-name="Grupo 1222620" transform="translate(1 1)">
        <path id="Trazado_1175683" data-name="Trazado 1175683" d="M50.486,13.771a3.2,3.2,0,0,0-3.193-3.193,3.16,3.16,0,0,0-1.6.444V7.385A3.2,3.2,0,0,0,42.5,4.193a3.16,3.16,0,0,0-1.6.444V4.193a3.193,3.193,0,1,0-6.385,0v.444a3.16,3.16,0,0,0-1.6-.444,3.2,3.2,0,0,0-3.193,3.193V18.648a5.6,5.6,0,0,0-1.6-1.137V2.6a1.6,1.6,0,0,0-1.6-1.6H2.6A1.6,1.6,0,0,0,1,2.6V20.156a1.6,1.6,0,0,0,1.6,1.6H14.874l1.9,3.8a1.785,1.785,0,0,0,3.381-.8v-3h3.193V24.77a20.7,20.7,0,0,0,2.9,10.551H13.771V32.926a1.6,1.6,0,0,0,1.6-1.6V28.137a1.6,1.6,0,0,0-1.6-1.6H2.6a1.6,1.6,0,0,0-1.6,1.6V31.33a1.6,1.6,0,0,0,1.6,1.6V44.1A1.6,1.6,0,0,0,1,45.7V48.89a1.6,1.6,0,0,0,1.6,1.6H13.771a1.6,1.6,0,0,0,1.6-1.6V45.7a1.6,1.6,0,0,0-1.6-1.6V41.706H28.137v8.78H47.293V37.94a19.738,19.738,0,0,0,3.193-10.769ZM18.559,20.156v4.6a.2.2,0,0,1-.357.084L15.86,20.156H2.6V2.6H26.541V17.027a5.608,5.608,0,0,0-.8-.064,2.4,2.4,0,0,0-2.394,2.394v.8ZM2.6,28.137H13.771V31.33H2.6ZM13.771,48.89H2.6V45.7H13.771ZM4.193,44.1V32.926h7.982V44.1Zm9.578-3.991V36.917H27.3c.266.366.548.722.839,1.071V40.11Zm15.963,8.78V38.513H45.7V48.89ZM48.89,27.171a18.148,18.148,0,0,1-2.827,9.746H29.307A19.1,19.1,0,0,1,24.945,24.77V19.358a.8.8,0,0,1,.8-.8,4,4,0,0,1,3.991,3.991v4.789h1.6V7.385a1.6,1.6,0,1,1,3.193,0V22.793h1.6V4.193a1.6,1.6,0,1,1,3.193,0V22.55h1.6V7.385a1.6,1.6,0,1,1,3.193,0V22.55h1.6v-8.78a1.6,1.6,0,1,1,3.193,0Z" transform="translate(-1 -1)"/>
        <path id="Trazado_1175684" data-name="Trazado 1175684" d="M17.771,14.578a1.6,1.6,0,0,0,1.6,1.6h4.789a1.6,1.6,0,0,0,1.6-1.6V11.942L22.188,6.6H16.174V5h-1.6V6.6H8.564L5,11.942v2.636a1.6,1.6,0,0,0,1.6,1.6h4.789a1.6,1.6,0,0,0,1.6-1.6V11.942l-2.5-3.749h4.1v9.578H11.385v1.6h7.982v-1.6H16.174V8.193h4.1l-2.5,3.749Zm-11.174,0v-1.6h4.789v1.6Zm4.1-3.193h-3.4l1.7-2.552Zm8.674,3.193v-1.6h4.789v1.6Zm2.394-5.744,1.7,2.552h-3.4Z" transform="translate(-1.807 -1.807)"/>
      </g>
    </g>
  </g>
</svg>
