<svg xmlns="http://www.w3.org/2000/svg" xmlns:xlink="http://www.w3.org/1999/xlink" width="108" height="108" viewBox="0 0 108 108">
  <defs>
    <filter id="Trazado_904820" x="0" y="0" width="108" height="108" filterUnits="userSpaceOnUse">
      <feOffset dy="3" input="SourceAlpha"/>
      <feGaussianBlur stdDeviation="3" result="blur"/>
      <feFlood flood-opacity="0.161"/>
      <feComposite operator="in" in2="blur"/>
      <feComposite in="SourceGraphic"/>
    </filter>
    <clipPath id="clip-path">
      <path id="path1139" d="M0-682.665H61.241v61.241H0Z" transform="translate(0 682.665)"/>
    </clipPath>
  </defs>
  <g id="Grupo_1222684" data-name="Grupo 1222684" transform="translate(-620 -1324)">
    <g id="Grupo_1222527" data-name="Grupo 1222527" transform="translate(629 1330)">
      <g id="Grupo_1222228" data-name="Grupo 1222228" transform="translate(0 0)">
        <g id="Grupo_1173585" data-name="Grupo 1173585">
          <g id="Grupo_1173428" data-name="Grupo 1173428">
            <g id="Grupo_1171958" data-name="Grupo 1171958">
              <g id="Grupo_1167341" data-name="Grupo 1167341">
                <g id="Grupo_1166792" data-name="Grupo 1166792">
                  <g transform="matrix(1, 0, 0, 1, -9, -6)" filter="url(#Trazado_904820)">
                    <g id="Trazado_904820-2" data-name="Trazado 904820" transform="translate(9 6)" fill="#fcf5f0">
                      <path d="M 44.99999618530273 88.50002288818359 C 39.12687301635742 88.50002288818359 33.43022155761719 87.35009765625 28.06829643249512 85.08218383789062 C 22.88852119445801 82.89133453369141 18.23629570007324 79.75460815429688 14.24084663391113 75.75916290283203 C 10.24540901184082 71.76371002197266 7.108683586120605 67.11148834228516 4.917821407318115 61.93171310424805 C 2.649921178817749 56.56978607177734 1.499996185302734 50.87313461303711 1.499996185302734 45.0000114440918 C 1.499996185302734 39.12688827514648 2.649921178817749 33.43023681640625 4.917821407318115 28.06829833984375 C 7.108683586120605 22.88852310180664 10.24540901184082 18.2363109588623 14.24084663391113 14.2408618927002 C 18.23629570007324 10.24541187286377 22.88852119445801 7.108686447143555 28.06829643249512 4.917823791503906 C 33.43022155761719 2.649924039840698 39.12687301635742 1.499998927116394 44.99999618530273 1.499998927116394 C 50.87311935424805 1.499998927116394 56.56977081298828 2.649924039840698 61.93169784545898 4.917823791503906 C 67.11147308349609 7.108686447143555 71.76369476318359 10.24541187286377 75.75914764404297 14.2408618927002 C 79.75458526611328 18.2363109588623 82.89131164550781 22.88852310180664 85.08216857910156 28.06829833984375 C 87.35007476806641 33.43023681640625 88.5 39.12688827514648 88.5 45.0000114440918 C 88.5 50.87313461303711 87.35007476806641 56.56978607177734 85.08216857910156 61.93171310424805 C 82.89131164550781 67.11148834228516 79.75458526611328 71.76371002197266 75.75914764404297 75.75916290283203 C 71.76369476318359 79.75460815429688 67.11147308349609 82.89133453369141 61.93169784545898 85.08218383789062 C 56.56977081298828 87.35009765625 50.87311935424805 88.50002288818359 44.99999618530273 88.50002288818359 Z" stroke="none"/>
                      <path d="M 44.99999618530273 3 C 39.32870864868164 3 33.82865142822266 4.110054016113281 28.65262603759766 6.299339294433594 C 23.65165710449219 8.414566040039062 19.15968322753906 11.44333648681641 15.301513671875 15.30152893066406 C 11.44333648681641 19.15969848632812 8.414566040039062 23.65165710449219 6.299339294433594 28.65264129638672 C 4.110054016113281 33.82866668701172 2.999992370605469 39.3287239074707 2.999992370605469 45.0000114440918 C 2.999992370605469 50.67129898071289 4.110054016113281 56.17135620117188 6.299339294433594 61.34738159179688 C 8.414566040039062 66.34836578369141 11.44333648681641 70.84032440185547 15.301513671875 74.69849395751953 C 19.15968322753906 78.55668640136719 23.65165710449219 81.58545684814453 28.65262603759766 83.70068359375 C 33.82865142822266 85.88996887207031 39.32870864868164 87.00002288818359 44.99999618530273 87.00002288818359 C 50.67128372192383 87.00002288818359 56.17134094238281 85.88996887207031 61.34736633300781 83.70068359375 C 66.34834289550781 81.58545684814453 70.84030914306641 78.55668640136719 74.69847869873047 74.69849395751953 C 78.55665588378906 70.84032440185547 81.58542633056641 66.34836578369141 83.70065307617188 61.34738159179688 C 85.88993835449219 56.17135620117188 87 50.67129898071289 87 45.0000114440918 C 87 39.3287239074707 85.88993835449219 33.82866668701172 83.70065307617188 28.65264129638672 C 81.58542633056641 23.65165710449219 78.55665588378906 19.15969848632812 74.69847869873047 15.30152893066406 C 70.84030914306641 11.44333648681641 66.34834289550781 8.414566040039062 61.34736633300781 6.299339294433594 C 56.17134094238281 4.110054016113281 50.67128372192383 3 44.99999618530273 3 M 44.99999618530273 0 C 69.85281372070312 0 90 20.14719390869141 90 45.0000114440918 C 90 69.85282897949219 69.85281372070312 90.00002288818359 44.99999618530273 90.00002288818359 C 20.14717864990234 90.00002288818359 -7.62939453125e-06 69.85282897949219 -7.62939453125e-06 45.0000114440918 C -7.62939453125e-06 20.14719390869141 20.14717864990234 0 44.99999618530273 0 Z" stroke="none" fill="#eca675"/>
                    </g>
                  </g>
                </g>
              </g>
            </g>
          </g>
        </g>
      </g>
    </g>
    <g id="g1125" transform="translate(643.379 2027.044)">
      <g id="g1127" transform="translate(5.19 -675.664)">
        <path id="path1129" d="M-95.279,0l-9.39,17.841H-85.89Z" transform="translate(104.669)" fill="none" stroke="#000" stroke-linecap="round" stroke-linejoin="round" stroke-miterlimit="10" stroke-width="1"/>
      </g>
      <g id="g1131" transform="translate(14.579 -678.419)">
        <path id="path1133" d="M0,0V20.6" fill="none" stroke="#000" stroke-linecap="round" stroke-linejoin="round" stroke-miterlimit="10" stroke-width="1"/>
      </g>
      <g id="g1135" transform="translate(0 -682.665)">
        <g id="g1137" clip-path="url(#clip-path)">
          <g id="g1143" transform="translate(4.684 24.334)">
            <path id="path1145" d="M-.493-5.462,1.662-1.73a.359.359,0,0,0,.311.179H16.735a.359.359,0,0,0,.311-.179L19.2-5.462A.359.359,0,0,0,18.89-6H-.182a.359.359,0,0,0-.311.538" transform="translate(0.541 6)" fill="#fed402"/>
          </g>
          <g id="g1147" transform="translate(37.272 7.001)">
            <path id="path1149" d="M-95.279,0l-9.39,17.841H-85.89Z" transform="translate(104.669)" fill="none" stroke="#000" stroke-linecap="round" stroke-linejoin="round" stroke-miterlimit="10" stroke-width="1"/>
          </g>
          <g id="g1151" transform="translate(46.662 4.246)">
            <path id="path1153" d="M0,0V20.6" transform="translate(0)" fill="none" stroke="#000" stroke-linecap="round" stroke-linejoin="round" stroke-miterlimit="10" stroke-width="1"/>
          </g>
          <g id="g1155" transform="translate(36.766 24.334)">
            <path id="path1157" d="M-.493-5.462,1.661-1.73a.359.359,0,0,0,.311.179H16.735a.359.359,0,0,0,.311-.179L19.2-5.462A.359.359,0,0,0,18.889-6H-.183a.359.359,0,0,0-.311.538" transform="translate(0.542 6)" fill="#fed402"/>
          </g>
          <g id="g1159" transform="translate(4.684 24.334)">
            <path id="path1161" d="M-.493-5.462,1.662-1.73a.359.359,0,0,0,.311.179H16.735a.359.359,0,0,0,.311-.179L19.2-5.462A.359.359,0,0,0,18.89-6H-.182a.359.359,0,0,0-.311.538" transform="translate(0.541 6)" fill="#c96e58"/>
          </g>
          <g id="g1163" transform="translate(4.684 24.334)">
            <path id="path1165" d="M-73.8-43.33l-2.155-3.732a.359.359,0,0,1,.311-.538H-80.71a.359.359,0,0,0-.311.538l2.155,3.732a.359.359,0,0,0,.311.179h5.069a.359.359,0,0,1-.311-.179" transform="translate(81.069 47.6)" fill="#bb5d4c"/>
          </g>
          <g id="g1167" transform="translate(4.684 24.334)">
            <path id="path1169" d="M-.493-5.462,1.662-1.73a.359.359,0,0,0,.311.179H16.735a.359.359,0,0,0,.311-.179L19.2-5.462A.359.359,0,0,0,18.89-6H-.182A.359.359,0,0,0-.493-5.462Z" transform="translate(0.541 6)" fill="none" stroke="#000" stroke-linecap="round" stroke-linejoin="round" stroke-miterlimit="10" stroke-width="1"/>
          </g>
          <g id="g1171" transform="translate(36.766 24.334)">
            <path id="path1173" d="M-.493-5.462,1.661-1.73a.359.359,0,0,0,.311.179H16.735a.359.359,0,0,0,.311-.179L19.2-5.462A.359.359,0,0,0,18.889-6H-.183a.359.359,0,0,0-.311.538" transform="translate(0.542 6)" fill="#c96e58"/>
          </g>
          <g id="g1175" transform="translate(36.766 24.334)">
            <path id="path1177" d="M-80.151-43.33l-2.155-3.732a.359.359,0,0,1,.311-.538h-5.7a.359.359,0,0,0-.311.538l2.155,3.732a.359.359,0,0,0,.311.179h5.7a.359.359,0,0,1-.311-.179" transform="translate(88.05 47.6)" fill="#bb5d4c"/>
          </g>
          <g id="g1179" transform="translate(36.766 24.334)">
            <path id="path1181" d="M-153.679-45.15h2.132a.359.359,0,0,0,.311-.179l2.155-3.732a.359.359,0,0,0-.311-.538h-19.072a.359.359,0,0,0-.311.538l2.155,3.732a.359.359,0,0,0,.311.179h8.445" transform="translate(168.824 49.6)" fill="none" stroke="#000" stroke-linecap="round" stroke-linejoin="round" stroke-miterlimit="10" stroke-width="1"/>
          </g>
          <g id="g1183" transform="translate(30.621 3.733)">
            <path id="path1185" d="M0-352.264v-34.715" transform="translate(0 386.979)" fill="none" stroke="#000" stroke-linecap="round" stroke-linejoin="round" stroke-miterlimit="10" stroke-width="1"/>
          </g>
          <g id="g1187" transform="translate(28.224 12.335)">
            <path id="path1189" d="M-48.629-244.212h-4.792v-23.469a.6.6,0,0,1,.6-.6h3.6a.6.6,0,0,1,.6.6Z" transform="translate(53.421 268.279)" fill="#bb5d4c"/>
          </g>
          <g id="g1191" transform="translate(28.224 12.335)">
            <path id="path1193" d="M-26.661,0H-28.69a.6.6,0,0,0-.6.6V24.067h2.029V.6a.6.6,0,0,1,.6-.6" transform="translate(29.288 0)" fill="#a44f3e"/>
          </g>
          <g id="g1195" transform="translate(28.224 12.335)">
            <path id="path1197" d="M-48.629-30.194v-2.378a.6.6,0,0,0-.6-.6h-3.6a.6.6,0,0,0-.6.6V-9.1h4.792V-26.007" transform="translate(53.421 33.169)" fill="none" stroke="#000" stroke-linecap="round" stroke-linejoin="round" stroke-miterlimit="10" stroke-width="1"/>
          </g>
          <g id="g1199" transform="translate(10.324 4.246)">
            <path id="path1201" d="M0,0H40.592" fill="none" stroke="#000" stroke-linecap="round" stroke-linejoin="round" stroke-miterlimit="10" stroke-width="1"/>
          </g>
          <g id="g1203" transform="translate(27.272 0.897)">
            <path id="path1205" d="M-67.956-33.978A3.349,3.349,0,0,1-71.3-30.63a3.348,3.348,0,0,1-3.349-3.349A3.348,3.348,0,0,1-71.3-37.327a3.349,3.349,0,0,1,3.349,3.349" transform="translate(74.653 37.327)" fill="#883f2e"/>
          </g>
          <g id="g1207" transform="translate(27.272 0.897)">
            <path id="path1209" d="M-30.349-33.978a3.347,3.347,0,0,1,1.853-3,3.333,3.333,0,0,0-1.5-.353,3.349,3.349,0,0,0-3.349,3.349,3.349,3.349,0,0,0,3.349,3.349,3.333,3.333,0,0,0,1.5-.353,3.348,3.348,0,0,1-1.853-3" transform="translate(33.34 37.327)" fill="#6d3326"/>
          </g>
          <g id="g1211" transform="translate(27.272 0.897)">
            <path id="path1213" d="M-67.956-33.978A3.349,3.349,0,0,1-71.3-30.63a3.348,3.348,0,0,1-3.349-3.349A3.348,3.348,0,0,1-71.3-37.327,3.349,3.349,0,0,1-67.956-33.978Z" transform="translate(74.653 37.327)" fill="none" stroke="#000" stroke-linecap="round" stroke-linejoin="round" stroke-miterlimit="10" stroke-width="1"/>
          </g>
          <g id="g1215" transform="translate(25.029 34.865)">
            <path id="path1217" d="M-113.469-65.124h-11.182V-69.15a2.392,2.392,0,0,1,2.392-2.392h6.4a2.392,2.392,0,0,1,2.392,2.392Z" transform="translate(124.652 71.542)" fill="#883f2e"/>
          </g>
          <g id="g1219" transform="translate(25.029 34.865)">
            <path id="path1221" d="M-65.231,0h-4.036A2.392,2.392,0,0,0-71.66,2.392V6.418h4.036V2.392A2.392,2.392,0,0,1-65.231,0" transform="translate(71.66 0)" fill="#6d3326"/>
          </g>
          <g id="g1223" transform="translate(25.029 34.865)">
            <path id="path1225" d="M-113.469-65.124h-11.182V-69.15a2.392,2.392,0,0,1,2.392-2.392h6.4a2.392,2.392,0,0,1,2.392,2.392Z" transform="translate(124.652 71.542)" fill="none" stroke="#000" stroke-linecap="round" stroke-linejoin="round" stroke-miterlimit="10" stroke-width="1"/>
          </g>
          <g id="g1227" transform="translate(20.474 40.005)">
            <path id="path1229" d="M-205.913-63.8h-20.293v-4.237a2.05,2.05,0,0,1,2.05-2.05h16.193a2.05,2.05,0,0,1,2.05,2.05Z" transform="translate(226.206 70.084)" fill="#bb5d4c"/>
          </g>
          <g id="g1231" transform="translate(20.474 40.005)">
            <path id="path1233" d="M-71.988,0h-5.044a2.05,2.05,0,0,0-2.05,2.05V6.287h5.044V2.05A2.05,2.05,0,0,1-71.988,0" transform="translate(79.082)" fill="#a44f3e"/>
          </g>
          <g id="g1235" transform="translate(20.474 40.005)">
            <path id="path1237" d="M-205.913-103.825h-20.293v-8.182a2.05,2.05,0,0,1,2.05-2.05h16.193a2.05,2.05,0,0,1,2.05,2.05Z" transform="translate(226.206 114.057)" fill="none" stroke="#000" stroke-linecap="round" stroke-linejoin="round" stroke-miterlimit="10" stroke-width="1"/>
          </g>
          <g id="g1239" transform="translate(1.626 45.333)">
            <path id="path1241" d="M-560.863-126.437h-49.043a6.23,6.23,0,0,1-6.23-6.23h0a6.23,6.23,0,0,1,6.23-6.23h49.043Z" transform="translate(616.136 138.897)" fill="#6e61b6"/>
          </g>
          <g id="g1243" transform="translate(1.626 45.333)">
            <path id="path1245" d="M-30.708-63.218h0a6.23,6.23,0,0,1,6.23-6.23H-27.5a6.23,6.23,0,0,0-6.23,6.23,6.23,6.23,0,0,0,6.23,6.23h3.026a6.23,6.23,0,0,1-6.23-6.23" transform="translate(33.735 69.448)" fill="#6354b1"/>
          </g>
          <g id="g1247" transform="translate(1.626 45.333)">
            <path id="path1249" d="M-560.863-126.437h-49.043a6.23,6.23,0,0,1-6.23-6.23h0a6.23,6.23,0,0,1,6.23-6.23h14.032Z" transform="translate(616.136 138.897)" fill="none" stroke="#000" stroke-linecap="round" stroke-linejoin="round" stroke-miterlimit="10" stroke-width="1"/>
          </g>
          <g id="g1251" transform="translate(9.294 45.333)">
            <path id="path1253" d="M0-32.42v6.07a3.2,3.2,0,0,0,3.195,3.195H47.6v-12.46H3.195A3.2,3.2,0,0,0,0-32.42" transform="translate(0 35.615)" fill="#fff3de"/>
          </g>
          <g id="g1255" transform="translate(9.294 45.338)">
            <path id="path1257" d="M-63.123-96.045a3.2,3.2,0,0,1-3.195-3.195v-6.07c0-.067,0-.134.007-.2a3.2,3.2,0,0,0-3.033,3.191v6.07a3.2,3.2,0,0,0,3.195,3.2h44.41v-2.991Z" transform="translate(69.344 105.51)" fill="#ffe5c2"/>
          </g>
          <g id="g1259" transform="translate(9.294 45.333)">
            <path id="path1261" d="M-178.777,0H-193.2A3.2,3.2,0,0,0-196.4,3.195v6.07A3.2,3.2,0,0,0-193.2,12.46h44.41V0h-25.8" transform="translate(196.395)" fill="none" stroke="#000" stroke-linecap="round" stroke-linejoin="round" stroke-miterlimit="10" stroke-width="1"/>
          </g>
          <g id="g1263" transform="translate(50.19 45.333)">
            <path id="path1265" d="M0,0H9.425" fill="none" stroke="#000" stroke-linecap="round" stroke-linejoin="round" stroke-miterlimit="10" stroke-width="1"/>
          </g>
          <g id="g1267" transform="translate(50.19 57.794)">
            <path id="path1269" d="M0,0H9.425" fill="none" stroke="#000" stroke-linecap="round" stroke-linejoin="round" stroke-miterlimit="10" stroke-width="1"/>
          </g>
          <g id="g1271" transform="translate(36.611 49.327)">
            <path id="path1273" d="M0,0H19.969" fill="none" stroke="#000" stroke-linecap="round" stroke-linejoin="round" stroke-miterlimit="10" stroke-width="1"/>
          </g>
          <g id="g1275" transform="translate(13.784 49.327)">
            <path id="path1277" d="M-66.29-108.142V-118.8h-6.533v10.657a.359.359,0,0,0,.563.3l2.7-1.871,2.7,1.871a.359.359,0,0,0,.563-.3" transform="translate(72.822 118.8)" fill="#fb2b3a"/>
          </g>
          <g id="g1279" transform="translate(13.784 49.327)">
            <path id="path1281" d="M-30.518,0h-3.008V10.657a.359.359,0,0,0,.563.3l2.445-1.692Z" transform="translate(33.525)" fill="#e41f2d"/>
          </g>
          <g id="g1283" transform="translate(13.784 49.327)">
            <path id="path1285" d="M-66.29-108.142V-118.8h-6.533v10.657a.359.359,0,0,0,.563.3l2.7-1.871,2.7,1.871A.359.359,0,0,0-66.29-108.142Z" transform="translate(72.822 118.8)" fill="none" stroke="#000" stroke-linecap="round" stroke-linejoin="round" stroke-miterlimit="10" stroke-width="1"/>
          </g>
          <g id="g1287" transform="translate(12.489 49.327)">
            <path id="path1289" d="M0,0H16.294" fill="none" stroke="#000" stroke-linecap="round" stroke-linejoin="round" stroke-miterlimit="10" stroke-width="1"/>
          </g>
          <g id="g1291" transform="translate(36.611 53.8)">
            <path id="path1293" d="M0,0H19.969" fill="none" stroke="#000" stroke-linecap="round" stroke-linejoin="round" stroke-miterlimit="10" stroke-width="1"/>
          </g>
        </g>
      </g>
    </g>
  </g>
</svg>
