<svg xmlns="http://www.w3.org/2000/svg" xmlns:xlink="http://www.w3.org/1999/xlink" width="99.544" height="99.544" viewBox="0 0 99.544 99.544">
  <defs>
    <filter id="Trazado_904820" x="0" y="0" width="99.544" height="99.544" filterUnits="userSpaceOnUse">
      <feOffset dy="3" input="SourceAlpha"/>
      <feGaussianBlur stdDeviation="3" result="blur"/>
      <feFlood flood-opacity="0.161"/>
      <feComposite operator="in" in2="blur"/>
      <feComposite in="SourceGraphic"/>
    </filter>
  </defs>
  <g id="Grupo_1222704" data-name="Grupo 1222704" transform="translate(-162.228 -3780)">
    <g id="Grupo_1222569" data-name="Grupo 1222569" transform="translate(171.228 3786)">
      <g id="Grupo_1173585" data-name="Grupo 1173585" transform="translate(0 0)">
        <g id="Grupo_1173428" data-name="Grupo 1173428">
          <g id="Grupo_1171958" data-name="Grupo 1171958">
            <g id="Grupo_1167341" data-name="Grupo 1167341">
              <g id="Grupo_1166792" data-name="Grupo 1166792">
                <g transform="matrix(1, 0, 0, 1, -9, -6)" filter="url(#Trazado_904820)">
                  <g id="Trazado_904820-2" data-name="Trazado 904820" transform="translate(9 6)" fill="#f2f4f0">
                    <path d="M 40.77218246459961 80.04439544677734 C 35.46981811523438 80.04439544677734 30.32684135437012 79.00625610351562 25.48614692687988 76.95880889892578 C 20.80981826782227 74.98088836669922 16.6097354888916 72.14900970458984 13.00255870819092 68.54183197021484 C 9.395394325256348 64.93465423583984 6.563511848449707 60.73457336425781 4.585594177246094 56.05824661254883 C 2.538147211074829 51.2175407409668 1.500005960464478 46.0745735168457 1.500005960464478 40.77219772338867 C 1.500005960464478 35.46982192993164 2.538147211074829 30.32685661315918 4.585594177246094 25.48615074157715 C 6.563511848449707 20.80982208251953 9.395394325256348 16.60973930358887 13.00255870819092 13.00256252288818 C 16.6097354888916 9.3953857421875 20.80981826782227 6.563503742218018 25.48614692687988 4.585586071014404 C 30.32684135437012 2.538138866424561 35.46981811523438 1.499997735023499 40.77218246459961 1.499997735023499 C 46.07455825805664 1.499997735023499 51.21752548217773 2.538138866424561 56.05823135375977 4.585586071014404 C 60.73455810546875 6.563503742218018 64.93463897705078 9.3953857421875 68.54181671142578 13.00256252288818 C 72.14897918701172 16.60973930358887 74.98086547851562 20.80982208251953 76.95878601074219 25.48615074157715 C 79.00623321533203 30.32685661315918 80.04437255859375 35.46982192993164 80.04437255859375 40.77219772338867 C 80.04437255859375 46.0745735168457 79.00623321533203 51.2175407409668 76.95878601074219 56.05824661254883 C 74.98086547851562 60.73457336425781 72.14897918701172 64.93465423583984 68.54181671142578 68.54183197021484 C 64.93463897705078 72.14900970458984 60.73455810546875 74.98088836669922 56.05823135375977 76.95880889892578 C 51.21752548217773 79.00625610351562 46.07455825805664 80.04439544677734 40.77218246459961 80.04439544677734 Z" stroke="none"/>
                    <path d="M 40.77218246459961 3 C 35.67164993286133 3 30.72527694702148 3.998275756835938 26.07046127319336 5.967094421386719 C 21.57294082641602 7.869384765625 17.53311920166016 10.59331512451172 14.06320953369141 14.06322479248047 C 10.59331512451172 17.53311920166016 7.869384765625 21.57294464111328 5.967086791992188 26.07047653198242 C 3.998275756835938 30.72529220581055 2.999992370605469 35.67166519165039 2.999992370605469 40.77219772338867 C 2.999992370605469 45.87273025512695 3.998275756835938 50.81910705566406 5.967086791992188 55.47391510009766 C 7.869384765625 59.97145080566406 10.59331512451172 64.01126098632812 14.06320953369141 67.48117065429688 C 17.53311920166016 70.95108032226562 21.57294082641602 73.67501068115234 26.07046127319336 75.57730102539062 C 30.72527694702148 77.54611968994141 35.67164993286133 78.54439544677734 40.77218246459961 78.54439544677734 C 45.87271499633789 78.54439544677734 50.819091796875 77.54611968994141 55.47389984130859 75.57730102539062 C 59.97142028808594 73.67501068115234 64.01124572753906 70.95108032226562 67.48115539550781 67.48117065429688 C 70.9510498046875 64.01126098632812 73.67498016357422 59.97145080566406 75.57727813720703 55.47391510009766 C 77.54608917236328 50.81910705566406 78.54437255859375 45.87273025512695 78.54437255859375 40.77219772338867 C 78.54437255859375 35.67166519165039 77.54608917236328 30.72529220581055 75.57727813720703 26.07047653198242 C 73.67498016357422 21.57294464111328 70.9510498046875 17.53311920166016 67.48115539550781 14.06322479248047 C 64.01124572753906 10.59331512451172 59.97142028808594 7.869384765625 55.47389984130859 5.967094421386719 C 50.819091796875 3.998275756835938 45.87271499633789 3 40.77218246459961 3 M 40.77218246459961 0 C 63.29003524780273 0 81.54437255859375 18.25432968139648 81.54437255859375 40.77219772338867 C 81.54437255859375 63.2900505065918 63.29003524780273 81.54439544677734 40.77218246459961 81.54439544677734 C 18.25432968139648 81.54439544677734 -7.62939453125e-06 63.2900505065918 -7.62939453125e-06 40.77219772338867 C -7.62939453125e-06 18.25432968139648 18.25432968139648 0 40.77218246459961 0 Z" stroke="none" fill="#4a5641"/>
                  </g>
                </g>
              </g>
            </g>
          </g>
        </g>
      </g>
    </g>
    <g id="law_3852249" transform="translate(184.427 3798.327)">
      <path id="Trazado_1175882" data-name="Trazado 1175882" d="M31.313,20.907l-.828-3.313L28,15.11,37.11,6l2.485,2.485,3.313.828Z" transform="translate(-4.655 -0.859)" fill="#976947"/>
      <path id="Trazado_1175883" data-name="Trazado 1175883" d="M26.017,29,2.686,52.331A2.343,2.343,0,0,0,6,55.644L29.33,32.313Z" transform="translate(-0.188 -4.811)" fill="#c18e59"/>
      <path id="Trazado_1175884" data-name="Trazado 1175884" d="M36.737,5,27,14.737a1.757,1.757,0,0,1-2.485-2.485l9.738-9.738A1.757,1.757,0,0,1,36.737,5Z" transform="translate(-3.968 -0.172)" fill="#c18e59"/>
      <path id="Trazado_1175885" data-name="Trazado 1175885" d="M40,29.595l3.313.828L45.8,32.907l9.11-9.11-2.485-2.485L51.595,18Z" transform="translate(-6.717 -2.921)" fill="#976947"/>
      <path id="Trazado_1175886" data-name="Trazado 1175886" d="M56.252,24.514l-9.738,9.738A1.757,1.757,0,0,0,49,36.737L58.737,27a1.757,1.757,0,0,0-2.485-2.485Z" transform="translate(-7.748 -3.952)" fill="#c18e59"/>
      <path id="Trazado_1175887" data-name="Trazado 1175887" d="M0,0H16.4V9.37H0Z" transform="translate(26.653 20.049) rotate(-45)" fill="#674025"/>
      <path id="Trazado_1175888" data-name="Trazado 1175888" d="M0,0H14.055V5.856H0Z" transform="translate(29.136 22.533) rotate(-45)" fill="#774c2f"/>
      <path id="Trazado_1175889" data-name="Trazado 1175889" d="M31.627,24l-1.313,1.313a1.656,1.656,0,0,0,0,2.342L34.6,31.939a1.656,1.656,0,0,0,2.342,0l1.313-1.313" transform="translate(-4.969 -3.952)" fill="#442518"/>
      <path id="Trazado_1175890" data-name="Trazado 1175890" d="M18.745,30.023a9.156,9.156,0,1,0-4.491,3.6l5.95,2.231Z" transform="translate(-0.171 -2.558)" fill="#976947"/>
      <path id="Trazado_1175891" data-name="Trazado 1175891" d="M17.595,23.312V21.656H12.625V20H10.969v1.656H6v1.656H7.656v3.313H6.828v1.656h3.313V26.625H9.313V23.313h1.656v7.454H9.313v1.656h4.969V30.766H12.625V23.312h1.657v3.314h-.828v1.656h3.313V26.625h-.828V23.312Z" transform="translate(-0.875 -3.265)" fill="#f0ae42"/>
      <path id="Trazado_1175892" data-name="Trazado 1175892" d="M24,56H55.471v4.969H24Z" transform="translate(-3.968 -9.45)" fill="#442518"/>
      <path id="Trazado_1175893" data-name="Trazado 1175893" d="M24,59H52.986v2.485H24Z" transform="translate(-3.968 -9.966)" fill="#674025"/>
      <path id="Trazado_1175894" data-name="Trazado 1175894" d="M28,54.969V53.313A3.313,3.313,0,0,1,31.313,50h18.22a3.313,3.313,0,0,1,3.313,3.313v1.656" transform="translate(-4.655 -8.419)" fill="#674025"/>
      <path id="Trazado_1175895" data-name="Trazado 1175895" d="M30.8,29.3a2.475,2.475,0,0,0,1.757-.726l.982-.982,2.634.663,1.765,1.764a2.58,2.58,0,0,0,3.9,3.357l9.738-9.741a2.579,2.579,0,0,0-3.357-3.9l-1.764-1.764-.773-3.091h-.014a.817.817,0,0,0-.2-.388L38.838,7.864a.808.808,0,0,0-.388-.2V7.646L35.364,6.88,33.6,5.117a2.559,2.559,0,0,0,.512-1.532A2.585,2.585,0,0,0,29.7,1.757l-9.738,9.738a2.579,2.579,0,0,0,3.357,3.9l1.764,1.764.663,2.635-.982.981a2.465,2.465,0,0,0-.09,3.4l-4.85,4.85L19.466,27.6a9.985,9.985,0,1,0-5.387,4.345l2.053.77L1.912,46.935A3.171,3.171,0,1,0,6.4,51.419L29.152,28.661A2.474,2.474,0,0,0,30.8,29.3Zm18.948-8.423a.928.928,0,0,1,.657,1.585L40.666,32.2a.929.929,0,1,1-1.313-1.313l9.738-9.738A.938.938,0,0,1,49.747,20.876Zm-2.727,0L39.08,28.815l-1.9-1.9A.828.828,0,0,0,36.8,26.7L34.9,26.225,44.426,16.7l.474,1.894a.828.828,0,0,0,.218.384Zm-3.313-5.8L33.283,25.5l-5.454-5.454L38.252,9.625Zm-21.918-.828a.928.928,0,0,1-.657-1.585L30.87,2.928a.929.929,0,0,1,1.313,1.313l-9.738,9.738a.938.938,0,0,1-.657.272Zm2.727,0,7.939-7.939,1.9,1.9a.828.828,0,0,0,.385.218l1.893.474-9.524,9.524-.473-1.894a.828.828,0,0,0-.218-.384Zm1.414,7.7.728-.728,5.454,5.454-.728.728a.828.828,0,0,1-1.171,0L25.93,23.118a.828.828,0,0,1,0-1.171ZM14.087,30.24a.816.816,0,0,0-.287.051,8.287,8.287,0,1,1,4.083-3.275.828.828,0,0,0-.107.65l1.077,4.307L14.38,30.3a.836.836,0,0,0-.3-.055ZM5.225,50.248a1.515,1.515,0,0,1-2.142-2.143L17.831,33.359l1.91.716a.85.85,0,0,0,.292.052.828.828,0,0,0,.8-1.029l-.549-2.2L25.83,25.36,27.971,27.5Z"/>
      <path id="Trazado_1175896" data-name="Trazado 1175896" d="M12.625,20H10.969v1.656H6v1.656H7.656v3.313H6.828v1.656h3.313V26.625H9.313V23.313h1.656v7.454H9.313v1.656h4.969V30.766H12.625V23.312h1.657v3.314h-.828v1.656h3.313V26.625h-.828V23.312h1.656V21.656H12.625Z" transform="translate(-0.875 -3.265)"/>
      <path id="Trazado_1175897" data-name="Trazado 1175897" d="M55.3,53.969H52.814v-.828A4.146,4.146,0,0,0,48.674,49H30.454a4.146,4.146,0,0,0-4.141,4.141v.828H23.828A.828.828,0,0,0,23,54.8v4.969a.828.828,0,0,0,.828.828H55.3a.828.828,0,0,0,.828-.828V54.8A.828.828,0,0,0,55.3,53.969Zm-27.33-.828a2.485,2.485,0,0,1,2.485-2.485h18.22a2.485,2.485,0,0,1,2.485,2.485v.828H27.969Zm26.5,5.8H24.656V55.625H54.471Z" transform="translate(-3.796 -8.247)"/>
    </g>
  </g>
</svg>
