<svg xmlns="http://www.w3.org/2000/svg" xmlns:xlink="http://www.w3.org/1999/xlink" width="113" height="113" viewBox="0 0 113 113">
  <defs>
    <filter id="Trazado_982547" x="0" y="0" width="113" height="113" filterUnits="userSpaceOnUse">
      <feOffset dy="3" input="SourceAlpha"/>
      <feGaussianBlur stdDeviation="3" result="blur"/>
      <feFlood flood-opacity="0.161"/>
      <feComposite operator="in" in2="blur"/>
      <feComposite in="SourceGraphic"/>
    </filter>
    <clipPath id="clip-path">
      <path id="path10160" d="M0-682.665H64.3v64.3H0Z" transform="translate(0 682.665)"/>
    </clipPath>
  </defs>
  <g id="Grupo_1222703" data-name="Grupo 1222703" transform="translate(-6639 -2501.288)">
    <g id="Grupo_1222534" data-name="Grupo 1222534" transform="translate(6648 2507.288)">
      <g id="Grupo_1208010" data-name="Grupo 1208010" transform="translate(0 0)">
        <g id="Grupo_1202142" data-name="Grupo 1202142" transform="translate(0 0)">
          <g id="Grupo_1201923" data-name="Grupo 1201923">
            <g id="Grupo_1176928" data-name="Grupo 1176928" transform="translate(0)">
              <g id="Grupo_1172322" data-name="Grupo 1172322">
                <g id="Grupo_1164700" data-name="Grupo 1164700">
                  <g id="Grupo_1160931" data-name="Grupo 1160931">
                    <g id="Grupo_1160749" data-name="Grupo 1160749">
                      <g id="Grupo_1158891" data-name="Grupo 1158891">
                        <g id="Grupo_1157406" data-name="Grupo 1157406">
                          <g id="Grupo_1155793" data-name="Grupo 1155793">
                            <g id="Grupo_1154704" data-name="Grupo 1154704">
                              <g id="Grupo_1150790" data-name="Grupo 1150790">
                                <g id="Grupo_1154214" data-name="Grupo 1154214" transform="translate(0)">
                                  <g id="Grupo_1152583" data-name="Grupo 1152583">
                                    <g id="Grupo_1146973" data-name="Grupo 1146973">
                                      <g id="Grupo_1146954" data-name="Grupo 1146954">
                                        <g transform="matrix(1, 0, 0, 1, -9, -6)" filter="url(#Trazado_982547)">
                                          <g id="Trazado_982547-2" data-name="Trazado 982547" transform="translate(9 6)" fill="#f2f4f0">
                                            <path d="M 47.5 93.49984741210938 C 41.28938674926758 93.49984741210938 35.26533508300781 92.2838134765625 29.59519958496094 89.88556671142578 C 24.11773300170898 87.56878662109375 19.19814682006836 84.25181579589844 14.97310638427734 80.02677917480469 C 10.74805355072021 75.80173492431641 7.431079864501953 70.88216400146484 5.114306449890137 65.40470886230469 C 2.716039896011353 59.73457717895508 1.50001335144043 53.71053695678711 1.50001335144043 47.49992370605469 C 1.50001335144043 41.28931045532227 2.716039896011353 35.2652702331543 5.114306449890137 29.59513664245605 C 7.431079864501953 24.11768341064453 10.74805355072021 19.19811058044434 14.97310638427734 14.97307014465332 C 19.19814682006836 10.74803066253662 24.11773300170898 7.431056976318359 29.59519958496094 5.114283561706543 C 35.26533508300781 2.716030359268188 41.28938674926758 1.500003695487976 47.5 1.500003695487976 C 53.71062850952148 1.500003695487976 59.73466491699219 2.716030359268188 65.40481567382812 5.114283561706543 C 70.88227844238281 7.431056976318359 75.80186462402344 10.74803066253662 80.02690887451172 14.97307014465332 C 84.25196075439453 19.19811058044434 87.56893157958984 24.11768341064453 89.88570404052734 29.59513664245605 C 92.28397369384766 35.2652702331543 93.5 41.28931045532227 93.5 47.49992370605469 C 93.5 53.71053695678711 92.28397369384766 59.73457717895508 89.88570404052734 65.40470886230469 C 87.56893157958984 70.88216400146484 84.25196075439453 75.80173492431641 80.02690887451172 80.02677917480469 C 75.80186462402344 84.25181579589844 70.88227844238281 87.56878662109375 65.40481567382812 89.88556671142578 C 59.73466491699219 92.2838134765625 53.71062850952148 93.49984741210938 47.5 93.49984741210938 Z" stroke="none"/>
                                            <path d="M 47.5 3 C 41.49121475219727 3 35.66376876831055 4.176155090332031 30.17951965332031 6.495803833007812 C 24.88084411621094 8.7369384765625 20.12152099609375 11.94596862792969 16.03375244140625 16.03372192382812 C 11.94598388671875 20.12149047851562 8.736953735351562 24.88081359863281 6.495796203613281 30.17947387695312 C 4.176155090332031 35.6637077331543 3 41.49115371704102 3 47.49992370605469 C 3 53.50869369506836 4.176155090332031 59.33613967895508 6.495796203613281 64.82037353515625 C 8.736953735351562 70.11903381347656 11.94598388671875 74.87835693359375 16.03375244140625 78.96612548828125 C 20.12152099609375 83.05387878417969 24.88084411621094 86.26290893554688 30.17951965332031 88.50404357910156 C 35.66376876831055 90.82369232177734 41.49121475219727 91.99984741210938 47.5 91.99984741210938 C 53.50878524780273 91.99984741210938 59.33623123168945 90.82369232177734 64.82049560546875 88.50404357910156 C 70.11915588378906 86.26290893554688 74.87847900390625 83.05387878417969 78.96624755859375 78.96612548828125 C 83.05401611328125 74.87835693359375 86.26304626464844 70.11903381347656 88.50418090820312 64.82037353515625 C 90.82382965087891 59.33613967895508 91.99998474121094 53.50869369506836 91.99998474121094 47.49992370605469 C 91.99998474121094 41.49115371704102 90.82382965087891 35.6637077331543 88.50418090820312 30.17947387695312 C 86.26304626464844 24.88081359863281 83.05401611328125 20.12149047851562 78.96624755859375 16.03372192382812 C 74.87847900390625 11.94596862792969 70.11915588378906 8.7369384765625 64.82049560546875 6.495803833007812 C 59.33623123168945 4.176155090332031 53.50878524780273 3 47.5 3 M 47.5 0 C 73.7335205078125 0 94.99998474121094 21.26644897460938 94.99998474121094 47.49992370605469 C 94.99998474121094 73.7333984375 73.7335205078125 94.99984741210938 47.5 94.99984741210938 C 21.26649475097656 94.99984741210938 0 73.7333984375 0 47.49992370605469 C 0 21.26644897460938 21.26649475097656 0 47.5 0 Z" stroke="none" fill="#899e78"/>
                                          </g>
                                        </g>
                                      </g>
                                    </g>
                                  </g>
                                </g>
                              </g>
                            </g>
                          </g>
                        </g>
                      </g>
                    </g>
                  </g>
                </g>
              </g>
            </g>
          </g>
        </g>
      </g>
    </g>
    <g id="g10152" transform="translate(6665.851 3206.304)">
      <path id="path10154" d="M28.839-541.074H10v-17.172H28.839Z" transform="translate(-9.058 -112.701)" fill="#756e78"/>
      <g id="g10156" transform="translate(0 -682.665)">
        <g id="g10158" transform="translate(0 0)" clip-path="url(#clip-path)">
          <g id="g10164" transform="translate(0.942 11.719)">
            <path id="path10166" d="M-132.87,0V8.79a5.87,5.87,0,0,1-5.87,5.87h-7.946v2.512h18.839V0Z" transform="translate(146.686)" fill="#544f57"/>
          </g>
          <g id="g10168" transform="translate(3.173 1.008)">
            <path id="path10170" d="M-69.137,0h0a7.189,7.189,0,0,0-7.189,7.189V10.71h3.77V7.189A3.419,3.419,0,0,1-69.137,3.77a3.419,3.419,0,0,1,3.419,3.419V10.71h3.77V7.189A7.189,7.189,0,0,0-69.137,0" transform="translate(76.326)" fill="#d3ced5"/>
          </g>
          <g id="g10172" transform="translate(7.351 15.277)">
            <path id="path10174" d="M-57.907-28.955a3.011,3.011,0,0,0-3.011-3.011,3.011,3.011,0,0,0-3.011,3.011A3.009,3.009,0,0,0-62.5-26.4v4.484h3.172V-26.4a3.009,3.009,0,0,0,1.424-2.559" transform="translate(63.928 31.965)" fill="#d3ced5"/>
          </g>
          <g id="g10176" transform="translate(0.942 11.719)">
            <path id="path10178" d="M-181.18-133.9v3.248H-200.02v-17.172h18.839v9.528" transform="translate(200.02 147.824)" fill="none" stroke="#000" stroke-linecap="round" stroke-linejoin="round" stroke-miterlimit="10" stroke-width="1.5"/>
          </g>
          <g id="g10180" transform="translate(3.173 1.008)">
            <path id="path10182" d="M-69.137,0h0a7.189,7.189,0,0,0-7.189,7.189V10.71h3.77V7.189A3.419,3.419,0,0,1-69.137,3.77a3.419,3.419,0,0,1,3.419,3.419V10.71h3.77V7.189A7.189,7.189,0,0,0-69.137,0Z" transform="translate(76.326)" fill="none" stroke="#000" stroke-linecap="round" stroke-linejoin="round" stroke-miterlimit="10" stroke-width="1.5"/>
          </g>
          <g id="g10184" transform="translate(7.351 15.277)">
            <path id="path10186" d="M-57.907-28.955a3.011,3.011,0,0,0-3.011-3.011,3.011,3.011,0,0,0-3.011,3.011A3.009,3.009,0,0,0-62.5-26.4v4.484h3.172V-26.4A3.009,3.009,0,0,0-57.907-28.955Z" transform="translate(63.928 31.965)" fill="none" stroke="#000" stroke-linecap="round" stroke-linejoin="round" stroke-miterlimit="10" stroke-width="1.5"/>
          </g>
          <g id="g10188" transform="translate(32.38 9.157)">
            <path id="path10190" d="M-93.859-218.9l-9.76-9.76,13-13,9.76,9.76Z" transform="translate(103.618 241.659)" fill="#f6e781"/>
          </g>
          <g id="g10192" transform="translate(38.372 9.157)">
            <path id="path10194" d="M-67.413,0l-1.256,1.256L-65.824,4.1a4.451,4.451,0,0,1,0,6.294l-8.6,8.6,3.768,3.767,13-13Z" transform="translate(74.422)" fill="#f4dd45"/>
          </g>
          <g id="g10196" transform="translate(21.188 34.064)">
            <path id="path10198" d="M-60.192-87.008l-6.259-6.259,2.788-2.788L-57.4-89.8Z" transform="translate(66.451 96.056)" fill="#cbafaf"/>
          </g>
          <g id="g10200" transform="translate(28.291 5.068)">
            <path id="path10202" d="M0-142.033l3.206,3.205L17.974-153.6,14.769-156.8Z" transform="translate(0 156.802)" fill="#cbafaf"/>
          </g>
          <g id="g10204" transform="translate(24.165 0.942)">
            <path id="path10206" d="M-174.9-46.5l-1.427-.668a1.284,1.284,0,0,1-.74-1.186,2.689,2.689,0,0,0-.787-1.947l-.247-.247a2.688,2.688,0,0,0-3.8,0l-10.4,10.4a2.688,2.688,0,0,0,0,3.8l.247.247a2.688,2.688,0,0,0,1.947.787,1.285,1.285,0,0,1,1.186.74l.667,1.427Z" transform="translate(193.085 51.336)" fill="#b78e8e"/>
          </g>
          <g id="g10208" transform="translate(41.256 18.033)">
            <path id="path10210" d="M-30.827-172.86l-3.205-3.205,14.769-14.769,3.206,3.205Z" transform="translate(34.032 190.834)" fill="#cbafaf"/>
          </g>
          <g id="g10212" transform="translate(45.17 21.948)">
            <path id="path10214" d="M-128.4,0l.668,1.427a1.284,1.284,0,0,0,1.186.74,2.689,2.689,0,0,1,1.947.787l.247.247a2.688,2.688,0,0,1,0,3.8l-10.4,10.4a2.688,2.688,0,0,1-3.8,0l-.247-.247a2.687,2.687,0,0,1-.787-1.947,1.285,1.285,0,0,0-.74-1.186l-1.427-.667Z" transform="translate(141.75)" fill="#b78e8e"/>
          </g>
          <g id="g10216" transform="translate(25.454 0.942)">
            <path id="path10218" d="M-148.776-40.08a1.285,1.285,0,0,1-.74-1.17,2.742,2.742,0,0,0-.787-1.964l-.247-.247a2.688,2.688,0,0,0-3.8,0l-.265.265a2.678,2.678,0,0,1,.077.69,1.268,1.268,0,0,0,.74,1.169,1.1,1.1,0,0,1,.313,1.782l-10.76,10.76a2.686,2.686,0,0,0,1.7.565,1.274,1.274,0,0,1,1.175.741l.668,1.427,13.351-13.351Z" transform="translate(164.246 44.247)" fill="#9d6b6b"/>
          </g>
          <g id="g10220" transform="translate(47.415 21.948)">
            <path id="path10222" d="M-145.742-30.787l-.247-.247a2.688,2.688,0,0,0-1.947-.787,1.285,1.285,0,0,1-1.186-.74l-.668-1.427-1.477,1.477a2.692,2.692,0,0,1,.255.221l.247.247a2.688,2.688,0,0,1,0,3.8L-160.9-18.11a2.685,2.685,0,0,0,.71,1.274l.247.247a2.688,2.688,0,0,0,3.8,0l10.4-10.4a2.688,2.688,0,0,0,0-3.8" transform="translate(160.897 33.988)" fill="#9d6b6b"/>
          </g>
          <g id="g10224" transform="translate(24.969 24.902)">
            <path id="path10226" d="M-41.089-138.746-30.934-148.9l-4.273-4.273-10.154,10.155Z" transform="translate(45.361 153.173)" fill="#b78e8e"/>
          </g>
          <g id="g10228" transform="translate(0.942 37.845)">
            <path id="path10230" d="M-204.257,0l-20.354,20.354a3.021,3.021,0,0,0,0,4.273,3.021,3.021,0,0,0,4.273,0l20.354-20.354Z" transform="translate(225.496)" fill="#b78e8e"/>
          </g>
          <g id="g10232" transform="translate(27.358 24.902)">
            <path id="path10234" d="M-74.682,0l-1.884,1.884.712.712a2.371,2.371,0,0,1,0,3.354l-6.594,6.594,1.884,1.884L-70.41,4.273Z" transform="translate(82.448)" fill="#9d6b6b"/>
          </g>
          <g id="g10236" transform="translate(2.079 37.845)">
            <path id="path10238" d="M-193.318,0-195.2,1.884l.712.712a2.372,2.372,0,0,1,0,3.354l-18.677,18.677a3.08,3.08,0,0,1-.253.224,3.021,3.021,0,0,0,4.02-.224l20.354-20.354Z" transform="translate(213.42)" fill="#9d6b6b"/>
          </g>
          <path id="path10240" d="M229.728-69.256H197.636v-6.161h32.092Z" transform="translate(-179.021 132.612)" fill="#b78e8e"/>
          <g id="g10242" transform="translate(18.615 57.195)">
            <path id="path10244" d="M-260.325,0V1.492a2.158,2.158,0,0,1-2.158,2.158h-24.911V6.161H-255.3V0Z" transform="translate(287.394)" fill="#9d6b6b"/>
          </g>
          <g id="g10246" transform="translate(21.457 52.766)">
            <path id="path10248" d="M-244.182-10.608a1.559,1.559,0,0,0-1.491-1.1h-21.392a1.559,1.559,0,0,0-1.491,1.1l-1.017,3.326h26.408Z" transform="translate(269.573 11.711)" fill="#cbafaf"/>
          </g>
          <g id="g10250" transform="translate(32.38 9.157)">
            <path id="path10252" d="M-93.859-218.9l-9.76-9.76,13-13,9.76,9.76Z" transform="translate(103.618 241.659)" fill="none" stroke="#000" stroke-linecap="round" stroke-linejoin="round" stroke-miterlimit="10" stroke-width="1.5"/>
          </g>
          <g id="g10254" transform="translate(21.188 34.064)">
            <path id="path10256" d="M-60.192-87.008l-6.259-6.259,2.788-2.788L-57.4-89.8Z" transform="translate(66.451 96.056)" fill="none" stroke="#000" stroke-linecap="round" stroke-linejoin="round" stroke-miterlimit="10" stroke-width="1.5"/>
          </g>
          <g id="g10258" transform="translate(28.291 5.068)">
            <path id="path10260" d="M-84.415-57.618l-8.778,8.778,3.206,3.205L-75.219-60.4l-3.205-3.205L-81.2-60.831" transform="translate(93.193 63.609)" fill="none" stroke="#000" stroke-linecap="round" stroke-linejoin="round" stroke-miterlimit="10" stroke-width="1.5"/>
          </g>
          <g id="g10262" transform="translate(24.165 0.942)">
            <path id="path10264" d="M-174.9-46.5l-1.427-.668a1.284,1.284,0,0,1-.74-1.186,2.689,2.689,0,0,0-.787-1.947l-.247-.247a2.688,2.688,0,0,0-3.8,0l-10.4,10.4a2.688,2.688,0,0,0,0,3.8l.247.247a2.688,2.688,0,0,0,1.947.787,1.285,1.285,0,0,1,1.186.74l.667,1.427" transform="translate(193.085 51.336)" fill="none" stroke="#000" stroke-linecap="round" stroke-linejoin="round" stroke-miterlimit="10" stroke-width="1.5"/>
          </g>
          <g id="g10266" transform="translate(41.256 18.033)">
            <path id="path10268" d="M-30.827-172.86l-3.205-3.205,14.769-14.769,3.206,3.205Z" transform="translate(34.032 190.834)" fill="none" stroke="#000" stroke-linecap="round" stroke-linejoin="round" stroke-miterlimit="10" stroke-width="1.5"/>
          </g>
          <g id="g10270" transform="translate(45.17 21.948)">
            <path id="path10272" d="M-128.4,0l.668,1.427a1.284,1.284,0,0,0,1.186.74,2.689,2.689,0,0,1,1.947.787l.247.247a2.688,2.688,0,0,1,0,3.8l-10.4,10.4a2.688,2.688,0,0,1-3.8,0l-.247-.247a2.687,2.687,0,0,1-.787-1.947,1.285,1.285,0,0,0-.74-1.186l-1.427-.667Z" transform="translate(141.75)" fill="none" stroke="#000" stroke-linecap="round" stroke-linejoin="round" stroke-miterlimit="10" stroke-width="1.5"/>
          </g>
          <g id="g10274" transform="translate(24.969 24.902)">
            <path id="path10276" d="M-138.746-41.09l-4.273-4.273-10.154,10.154,4.273,4.272Z" transform="translate(153.173 45.363)" fill="none" stroke="#000" stroke-linecap="round" stroke-linejoin="round" stroke-miterlimit="10" stroke-width="1.5"/>
          </g>
          <g id="g10278" transform="translate(0.942 37.845)">
            <path id="path10280" d="M-204.257,0l-20.354,20.354a3.021,3.021,0,0,0,0,4.273,3.021,3.021,0,0,0,4.273,0l20.354-20.354Z" transform="translate(225.496)" fill="none" stroke="#000" stroke-linecap="round" stroke-linejoin="round" stroke-miterlimit="10" stroke-width="1.5"/>
          </g>
          <g id="g10282" transform="translate(18.615 57.195)">
            <path id="path10284" d="M-253.909,0h5.691V6.161h-32.092V0H-258.3" transform="translate(280.311)" fill="none" stroke="#000" stroke-linecap="round" stroke-linejoin="round" stroke-miterlimit="10" stroke-width="1.5"/>
          </g>
          <g id="g10286" transform="translate(21.457 52.766)">
            <path id="path10288" d="M-253.964-42.594l-1.017-3.326a1.559,1.559,0,0,0-1.491-1.1h-21.392a1.559,1.559,0,0,0-1.491,1.1l-1.017,3.326" transform="translate(280.371 47.023)" fill="none" stroke="#000" stroke-linecap="round" stroke-linejoin="round" stroke-miterlimit="10" stroke-width="1.5"/>
          </g>
        </g>
      </g>
    </g>
  </g>
</svg>
