<svg xmlns="http://www.w3.org/2000/svg" xmlns:xlink="http://www.w3.org/1999/xlink" width="113" height="113" viewBox="0 0 113 113">
  <defs>
    <filter id="Trazado_982547" x="0" y="0" width="113" height="113" filterUnits="userSpaceOnUse">
      <feOffset dy="3" input="SourceAlpha"/>
      <feGaussianBlur stdDeviation="3" result="blur"/>
      <feFlood flood-opacity="0.161"/>
      <feComposite operator="in" in2="blur"/>
      <feComposite in="SourceGraphic"/>
    </filter>
  </defs>
  <g id="Grupo_1222700" data-name="Grupo 1222700" transform="translate(-6639 -2091.288)">
    <g id="Grupo_1222532" data-name="Grupo 1222532" transform="translate(6648 2097.288)">
      <g id="Grupo_1208010" data-name="Grupo 1208010" transform="translate(0 0)">
        <g id="Grupo_1202142" data-name="Grupo 1202142" transform="translate(0 0)">
          <g id="Grupo_1201923" data-name="Grupo 1201923">
            <g id="Grupo_1176928" data-name="Grupo 1176928" transform="translate(0)">
              <g id="Grupo_1172322" data-name="Grupo 1172322">
                <g id="Grupo_1164700" data-name="Grupo 1164700">
                  <g id="Grupo_1160931" data-name="Grupo 1160931">
                    <g id="Grupo_1160749" data-name="Grupo 1160749">
                      <g id="Grupo_1158891" data-name="Grupo 1158891">
                        <g id="Grupo_1157406" data-name="Grupo 1157406">
                          <g id="Grupo_1155793" data-name="Grupo 1155793">
                            <g id="Grupo_1154704" data-name="Grupo 1154704">
                              <g id="Grupo_1150790" data-name="Grupo 1150790">
                                <g id="Grupo_1154214" data-name="Grupo 1154214" transform="translate(0)">
                                  <g id="Grupo_1152583" data-name="Grupo 1152583">
                                    <g id="Grupo_1146973" data-name="Grupo 1146973">
                                      <g id="Grupo_1146954" data-name="Grupo 1146954">
                                        <g transform="matrix(1, 0, 0, 1, -9, -6)" filter="url(#Trazado_982547)">
                                          <g id="Trazado_982547-2" data-name="Trazado 982547" transform="translate(9 6)" fill="#f2f4f0">
                                            <path d="M 47.5 93.49984741210938 C 41.28938674926758 93.49984741210938 35.26533508300781 92.2838134765625 29.59519958496094 89.88556671142578 C 24.11773300170898 87.56878662109375 19.19814682006836 84.25181579589844 14.97310638427734 80.02677917480469 C 10.74805355072021 75.80173492431641 7.431079864501953 70.88216400146484 5.114306449890137 65.40470886230469 C 2.716039896011353 59.73457717895508 1.50001335144043 53.71053695678711 1.50001335144043 47.49992370605469 C 1.50001335144043 41.28931045532227 2.716039896011353 35.2652702331543 5.114306449890137 29.59513664245605 C 7.431079864501953 24.11768341064453 10.74805355072021 19.19811058044434 14.97310638427734 14.97307014465332 C 19.19814682006836 10.74803066253662 24.11773300170898 7.431056976318359 29.59519958496094 5.114283561706543 C 35.26533508300781 2.716030359268188 41.28938674926758 1.500003695487976 47.5 1.500003695487976 C 53.71062850952148 1.500003695487976 59.73466491699219 2.716030359268188 65.40481567382812 5.114283561706543 C 70.88227844238281 7.431056976318359 75.80186462402344 10.74803066253662 80.02690887451172 14.97307014465332 C 84.25196075439453 19.19811058044434 87.56893157958984 24.11768341064453 89.88570404052734 29.59513664245605 C 92.28397369384766 35.2652702331543 93.5 41.28931045532227 93.5 47.49992370605469 C 93.5 53.71053695678711 92.28397369384766 59.73457717895508 89.88570404052734 65.40470886230469 C 87.56893157958984 70.88216400146484 84.25196075439453 75.80173492431641 80.02690887451172 80.02677917480469 C 75.80186462402344 84.25181579589844 70.88227844238281 87.56878662109375 65.40481567382812 89.88556671142578 C 59.73466491699219 92.2838134765625 53.71062850952148 93.49984741210938 47.5 93.49984741210938 Z" stroke="none"/>
                                            <path d="M 47.5 3 C 41.49121475219727 3 35.66376876831055 4.176155090332031 30.17951965332031 6.495803833007812 C 24.88084411621094 8.7369384765625 20.12152099609375 11.94596862792969 16.03375244140625 16.03372192382812 C 11.94598388671875 20.12149047851562 8.736953735351562 24.88081359863281 6.495796203613281 30.17947387695312 C 4.176155090332031 35.6637077331543 3 41.49115371704102 3 47.49992370605469 C 3 53.50869369506836 4.176155090332031 59.33613967895508 6.495796203613281 64.82037353515625 C 8.736953735351562 70.11903381347656 11.94598388671875 74.87835693359375 16.03375244140625 78.96612548828125 C 20.12152099609375 83.05387878417969 24.88084411621094 86.26290893554688 30.17951965332031 88.50404357910156 C 35.66376876831055 90.82369232177734 41.49121475219727 91.99984741210938 47.5 91.99984741210938 C 53.50878524780273 91.99984741210938 59.33623123168945 90.82369232177734 64.82049560546875 88.50404357910156 C 70.11915588378906 86.26290893554688 74.87847900390625 83.05387878417969 78.96624755859375 78.96612548828125 C 83.05401611328125 74.87835693359375 86.26304626464844 70.11903381347656 88.50418090820312 64.82037353515625 C 90.82382965087891 59.33613967895508 91.99998474121094 53.50869369506836 91.99998474121094 47.49992370605469 C 91.99998474121094 41.49115371704102 90.82382965087891 35.6637077331543 88.50418090820312 30.17947387695312 C 86.26304626464844 24.88081359863281 83.05401611328125 20.12149047851562 78.96624755859375 16.03372192382812 C 74.87847900390625 11.94596862792969 70.11915588378906 8.7369384765625 64.82049560546875 6.495803833007812 C 59.33623123168945 4.176155090332031 53.50878524780273 3 47.5 3 M 47.5 0 C 73.7335205078125 0 94.99998474121094 21.26644897460938 94.99998474121094 47.49992370605469 C 94.99998474121094 73.7333984375 73.7335205078125 94.99984741210938 47.5 94.99984741210938 C 21.26649475097656 94.99984741210938 0 73.7333984375 0 47.49992370605469 C 0 21.26644897460938 21.26649475097656 0 47.5 0 Z" stroke="none" fill="#899e78"/>
                                          </g>
                                        </g>
                                      </g>
                                    </g>
                                  </g>
                                </g>
                              </g>
                            </g>
                          </g>
                        </g>
                      </g>
                    </g>
                  </g>
                </g>
              </g>
            </g>
          </g>
        </g>
      </g>
    </g>
    <g id="freedom_4394969_1_" data-name="freedom_4394969 (1)" transform="translate(6617.253 2109.813)">
      <g id="Grupo_1222690" data-name="Grupo 1222690" transform="translate(75.398 38.112)">
        <path id="Trazado_1175863" data-name="Trazado 1175863" d="M220.483,290.394c-1.222,2.411-6.229,5.008-10.368,5.759l7.5,4.489,4.185-3.371c7.509.925,10.03-3.487,9.41-7.376-.4-2.454-.45-3.553.818-5.116.718-.882,1.551-1.8,2.894-1.672l-2.207-2.117c-2.672-2.57-7.691-1.858-8.087,3.239-3.324-5.608-6.384-.066-11.248-5.271.384,5.786.818,8.6,5.372,10.774a9.73,9.73,0,0,0,1.734.662Z" transform="translate(-210.115 -278.958)" fill="#fff" fill-rule="evenodd"/>
      </g>
      <g id="Grupo_1222691" data-name="Grupo 1222691" transform="translate(55.446 12.411)">
        <path id="Trazado_1175864" data-name="Trazado 1175864" d="M64.079,106.54c0,6.312,4.709,5.674,4.546,13.046v6.273h7.641a20.175,20.175,0,0,1,20.169-19.18c.318,0,.64.008.954.023V96.741a3.369,3.369,0,0,1-6.737,0V98.15a3.85,3.85,0,0,1-7.7,0V96.679a4.651,4.651,0,0,0,1.555-3.638,1.8,1.8,0,0,0-1.555-1.958,18.7,18.7,0,0,0-4.042-.24H66.143a2.072,2.072,0,0,0-2.063,2.067v13.63Z" transform="translate(-64.079 -90.843)" fill="#f2b394" fill-rule="evenodd"/>
      </g>
      <g id="Grupo_1222692" data-name="Grupo 1222692" transform="translate(58.929 1.366)">
        <path id="Trazado_1175865" data-name="Trazado 1175865" d="M89.573,13.838v7.206h7.7V13.838a3.848,3.848,0,0,0-7.7,0Z" transform="translate(-89.573 -9.999)" fill="#f2b394" fill-rule="evenodd"/>
      </g>
      <g id="Grupo_1222693" data-name="Grupo 1222693" transform="translate(66.624 1.366)">
        <path id="Trazado_1175866" data-name="Trazado 1175866" d="M145.9,13.838v7.206h3.654a18.7,18.7,0,0,1,4.042.24V13.838a3.848,3.848,0,0,0-7.7,0Z" transform="translate(-145.898 -9.999)" fill="#f2b394" fill-rule="evenodd"/>
      </g>
      <g id="Grupo_1222694" data-name="Grupo 1222694" transform="translate(74.32 1.366)">
        <path id="Trazado_1175867" data-name="Trazado 1175867" d="M202.223,13.838v7.446a1.8,1.8,0,0,1,1.555,1.958,4.651,4.651,0,0,1-1.555,3.638v1.471a3.85,3.85,0,0,0,7.7,0V13.838a3.85,3.85,0,0,0-7.7,0Z" transform="translate(-202.223 -9.999)" fill="#f2b394" fill-rule="evenodd"/>
      </g>
      <g id="Grupo_1222695" data-name="Grupo 1222695" transform="translate(82.019 4.663)">
        <path id="Trazado_1175868" data-name="Trazado 1175868" d="M258.576,37.5V47.78a3.369,3.369,0,0,0,6.737,0V37.5a3.369,3.369,0,0,0-6.737,0Z" transform="translate(-258.576 -34.134)" fill="#f2b394" fill-rule="evenodd"/>
      </g>
      <g id="Grupo_1222696" data-name="Grupo 1222696" transform="translate(57.067 47.427)">
        <path id="Trazado_1175869" data-name="Trazado 1175869" d="M75.946,350.055v4.683H87.609a20.063,20.063,0,0,1-1.121-6.633q0-.482.023-.964H78.871a2.927,2.927,0,0,0-2.925,2.914Z" transform="translate(-75.946 -347.141)" fill="#bfdbff" fill-rule="evenodd"/>
      </g>
      <g id="Grupo_1222697" data-name="Grupo 1222697" transform="translate(57.067 55.024)">
        <path id="Trazado_1175870" data-name="Trazado 1175870" d="M75.946,402.745v13.514h30.692a20.2,20.2,0,0,1-19.029-13.514Z" transform="translate(-75.946 -402.745)" fill="#80b6ff" fill-rule="evenodd"/>
      </g>
      <g id="Grupo_1222698" data-name="Grupo 1222698" transform="translate(67.61 28.247)">
        <path id="Trazado_1175871" data-name="Trazado 1175871" d="M173.3,206.755a20.175,20.175,0,0,0-20.169,19.18q-.023.482-.023.964a20.139,20.139,0,0,0,20.15,20.147h.081a20.144,20.144,0,0,0,.915-40.267C173.942,206.763,173.62,206.755,173.3,206.755Zm-9.142,9.865c4.864,5.205,7.924-.337,11.248,5.271.4-5.1,5.415-5.809,8.087-3.239l2.207,2.117c-1.342-.124-2.176.79-2.894,1.672-1.268,1.564-1.214,2.663-.818,5.116.621,3.889-1.9,8.3-9.41,7.376L168.4,238.3l-7.5-4.489c4.139-.751,9.146-3.348,10.368-5.759a9.725,9.725,0,0,1-1.734-.662c-4.554-2.179-4.988-4.988-5.372-10.774Z" transform="translate(-153.11 -206.755)" fill="#a0e5a5" fill-rule="evenodd"/>
      </g>
      <g id="Grupo_1222699" data-name="Grupo 1222699" transform="translate(54.08 0)">
        <path id="Trazado_1175872" data-name="Trazado 1175872" d="M109.017,45.276a21.514,21.514,0,0,0-18.895-18.2V8.026A4.732,4.732,0,0,0,83.2,3.835,5.216,5.216,0,0,0,74.32,1.7a5.211,5.211,0,0,0-7.7,0,5.213,5.213,0,0,0-9.061,3.509v5.84H57.51a3.435,3.435,0,0,0-3.43,3.433v13.63a9.953,9.953,0,0,0,2.447,6.731,8.485,8.485,0,0,1,2.1,6.285c0,.01,0,.02,0,.03v5.131A4.288,4.288,0,0,0,55.7,50.341v18.2a1.366,1.366,0,0,0,2.732,0V56.39h9.223A21.6,21.6,0,0,0,84.521,69.714a21.932,21.932,0,0,0,3.211.237,21.428,21.428,0,0,0,9.837-2.388,1.366,1.366,0,0,0-1.25-2.429,18.757,18.757,0,1,1,8.108-8.082,1.366,1.366,0,0,0,2.426,1.256,21.36,21.36,0,0,0,2.164-13.031ZM85.389,6.03a2,2,0,0,1,2,2V18.309a2,2,0,0,1-4,0V8.026a2,2,0,0,1,2-2Zm-7.218-3.3a2.48,2.48,0,0,1,2.481,2.473V19.718a2.483,2.483,0,0,1-4.967,0v-.9a6.041,6.041,0,0,0,1.555-4.211,3.075,3.075,0,0,0-1.555-2.875V5.205a2.482,2.482,0,0,1,2.485-2.473Zm-7.7,0a2.48,2.48,0,0,1,2.481,2.473v5.888c-.784-.048-1.674-.048-2.675-.048H67.991V5.205a2.48,2.48,0,0,1,2.481-2.473ZM60.3,5.205a2.481,2.481,0,0,1,4.963,0v5.84H60.3ZM58.434,53.658V50.341a1.555,1.555,0,0,1,1.558-1.548h6.152a21.588,21.588,0,0,0,.632,4.865H58.434ZM72.455,33.224A21.33,21.33,0,0,0,66.27,46.061H61.358V41.168A11.112,11.112,0,0,0,58.713,33.2a7.27,7.27,0,0,1-1.9-5.092V14.478a.708.708,0,0,1,.7-.7H70.278A16.9,16.9,0,0,1,74.056,14c.4.117.452.158.452.612,0,3.49-3.935,4.073-6.281,4.11h-.01c-.231,0-3.7,0-5.511,0a1.366,1.366,0,1,0,0,2.732c2.541,0,4.688,3.084,4.688,6.734a1.366,1.366,0,0,0,2.732,0,10.966,10.966,0,0,0-2.044-6.545c-.049-.066-.1-.128-.15-.191l.337,0h0a13.307,13.307,0,0,0,4.758-.857,5.216,5.216,0,0,0,9.71,1.632,4.729,4.729,0,0,0,4.651.367v4.344a21.5,21.5,0,0,0-14.935,6.287Z" transform="translate(-54.08 0)"/>
        <path id="Trazado_1175873" data-name="Trazado 1175873" d="M227.527,275.042a1.366,1.366,0,0,0-.3-1.553l-2.206-2.116a6.362,6.362,0,0,0-6.622-1.448,5.564,5.564,0,0,0-3.026,2.764,6.278,6.278,0,0,0-4.55-1.243,5.6,5.6,0,0,1-5.085-2.053,1.366,1.366,0,0,0-2.361,1.023c.393,5.92.872,9.393,6.145,11.916l.08.037a19.31,19.31,0,0,1-8.368,3.807,1.366,1.366,0,0,0-.458,2.516l7.5,4.489a1.366,1.366,0,0,0,1.559-.108l3.745-3.016c4.575.421,7.1-1.082,8.416-2.45a7.6,7.6,0,0,0,1.925-6.562c-.375-2.324-.37-2.928.53-4.037.771-.949,1.169-1.223,1.708-1.173a1.367,1.367,0,0,0,1.369-.793Zm-5.2.244c-1.671,2.06-1.509,3.7-1.107,6.192a4.9,4.9,0,0,1-1.194,4.232c-1.353,1.4-3.67,1.946-6.7,1.573a1.366,1.366,0,0,0-1.024.292l-3.443,2.773L204.939,288c3.019-1.058,6.043-2.786,7.549-4.721a12.374,12.374,0,0,0,1.657.086,1.366,1.366,0,0,0,0-2.732,7.005,7.005,0,0,1-1.9-.176c-.03-.009-.061-.017-.092-.024a8.7,8.7,0,0,1-1.45-.564c-3.008-1.439-3.9-3.02-4.33-6.542a8.6,8.6,0,0,0,4.505.851c1.646-.032,2.648-.051,3.881,2.01a1.377,1.377,0,0,0,.114.2c.146.256.3.54.449.858a1.366,1.366,0,0,0,2.458-1.193c-.128-.263-.255-.51-.384-.744a3.3,3.3,0,0,1,1.976-2.827,3.669,3.669,0,0,1,3.757.865l.574.55A7.662,7.662,0,0,0,222.33,275.286Z" transform="translate(-180.162 -232.214)"/>
        <path id="Trazado_1175874" data-name="Trazado 1175874" d="M396.56,448.95a1.369,1.369,0,1,0,.609,1.837l0-.008A1.362,1.362,0,0,0,396.56,448.95Z" transform="translate(-348.061 -387.49)"/>
      </g>
    </g>
  </g>
</svg>
