<svg xmlns="http://www.w3.org/2000/svg" xmlns:xlink="http://www.w3.org/1999/xlink" width="99.544" height="99.544" viewBox="0 0 99.544 99.544">
  <defs>
    <filter id="Trazado_904820" x="0" y="0" width="99.544" height="99.544" filterUnits="userSpaceOnUse">
      <feOffset dy="3" input="SourceAlpha"/>
      <feGaussianBlur stdDeviation="3" result="blur"/>
      <feFlood flood-opacity="0.161"/>
      <feComposite operator="in" in2="blur"/>
      <feComposite in="SourceGraphic"/>
    </filter>
  </defs>
  <g id="Grupo_1222572" data-name="Grupo 1222572" transform="translate(9 6)">
    <g id="Grupo_1173585" data-name="Grupo 1173585" transform="translate(0 0)">
      <g id="Grupo_1173428" data-name="Grupo 1173428">
        <g id="Grupo_1171958" data-name="Grupo 1171958">
          <g id="Grupo_1167341" data-name="Grupo 1167341">
            <g id="Grupo_1166792" data-name="Grupo 1166792">
              <g transform="matrix(1, 0, 0, 1, -9, -6)" filter="url(#Trazado_904820)">
                <g id="Trazado_904820-2" data-name="Trazado 904820" transform="translate(9 6)" fill="#f2f4f0">
                  <path d="M 40.77218246459961 80.04439544677734 C 35.46981811523438 80.04439544677734 30.32684135437012 79.00625610351562 25.48614692687988 76.95880889892578 C 20.80981826782227 74.98088836669922 16.6097354888916 72.14900970458984 13.00255870819092 68.54183197021484 C 9.395394325256348 64.93465423583984 6.563511848449707 60.73457336425781 4.585594177246094 56.05824661254883 C 2.538147211074829 51.2175407409668 1.500005960464478 46.0745735168457 1.500005960464478 40.77219772338867 C 1.500005960464478 35.46982192993164 2.538147211074829 30.32685661315918 4.585594177246094 25.48615074157715 C 6.563511848449707 20.80982208251953 9.395394325256348 16.60973930358887 13.00255870819092 13.00256252288818 C 16.6097354888916 9.3953857421875 20.80981826782227 6.563503742218018 25.48614692687988 4.585586071014404 C 30.32684135437012 2.538138866424561 35.46981811523438 1.499997735023499 40.77218246459961 1.499997735023499 C 46.07455825805664 1.499997735023499 51.21752548217773 2.538138866424561 56.05823135375977 4.585586071014404 C 60.73455810546875 6.563503742218018 64.93463897705078 9.3953857421875 68.54181671142578 13.00256252288818 C 72.14897918701172 16.60973930358887 74.98086547851562 20.80982208251953 76.95878601074219 25.48615074157715 C 79.00623321533203 30.32685661315918 80.04437255859375 35.46982192993164 80.04437255859375 40.77219772338867 C 80.04437255859375 46.0745735168457 79.00623321533203 51.2175407409668 76.95878601074219 56.05824661254883 C 74.98086547851562 60.73457336425781 72.14897918701172 64.93465423583984 68.54181671142578 68.54183197021484 C 64.93463897705078 72.14900970458984 60.73455810546875 74.98088836669922 56.05823135375977 76.95880889892578 C 51.21752548217773 79.00625610351562 46.07455825805664 80.04439544677734 40.77218246459961 80.04439544677734 Z" stroke="none"/>
                  <path d="M 40.77218246459961 3 C 35.67164993286133 3 30.72527694702148 3.998275756835938 26.07046127319336 5.967094421386719 C 21.57294082641602 7.869384765625 17.53311920166016 10.59331512451172 14.06320953369141 14.06322479248047 C 10.59331512451172 17.53311920166016 7.869384765625 21.57294464111328 5.967086791992188 26.07047653198242 C 3.998275756835938 30.72529220581055 2.999992370605469 35.67166519165039 2.999992370605469 40.77219772338867 C 2.999992370605469 45.87273025512695 3.998275756835938 50.81910705566406 5.967086791992188 55.47391510009766 C 7.869384765625 59.97145080566406 10.59331512451172 64.01126098632812 14.06320953369141 67.48117065429688 C 17.53311920166016 70.95108032226562 21.57294082641602 73.67501068115234 26.07046127319336 75.57730102539062 C 30.72527694702148 77.54611968994141 35.67164993286133 78.54439544677734 40.77218246459961 78.54439544677734 C 45.87271499633789 78.54439544677734 50.819091796875 77.54611968994141 55.47389984130859 75.57730102539062 C 59.97142028808594 73.67501068115234 64.01124572753906 70.95108032226562 67.48115539550781 67.48117065429688 C 70.9510498046875 64.01126098632812 73.67498016357422 59.97145080566406 75.57727813720703 55.47391510009766 C 77.54608917236328 50.81910705566406 78.54437255859375 45.87273025512695 78.54437255859375 40.77219772338867 C 78.54437255859375 35.67166519165039 77.54608917236328 30.72529220581055 75.57727813720703 26.07047653198242 C 73.67498016357422 21.57294464111328 70.9510498046875 17.53311920166016 67.48115539550781 14.06322479248047 C 64.01124572753906 10.59331512451172 59.97142028808594 7.869384765625 55.47389984130859 5.967094421386719 C 50.819091796875 3.998275756835938 45.87271499633789 3 40.77218246459961 3 M 40.77218246459961 0 C 63.29003524780273 0 81.54437255859375 18.25432968139648 81.54437255859375 40.77219772338867 C 81.54437255859375 63.2900505065918 63.29003524780273 81.54439544677734 40.77218246459961 81.54439544677734 C 18.25432968139648 81.54439544677734 -7.62939453125e-06 63.2900505065918 -7.62939453125e-06 40.77219772338867 C -7.62939453125e-06 18.25432968139648 18.25432968139648 0 40.77218246459961 0 Z" stroke="none" fill="#4a5641"/>
                </g>
              </g>
            </g>
          </g>
        </g>
      </g>
    </g>
    <g id="legislation_12249980_1_" data-name="legislation_12249980 (1)" transform="translate(-7.476 9.655)">
      <g id="Grupo_1222585" data-name="Grupo 1222585" transform="translate(25.327 26.201)">
        <path id="Trazado_1175563" data-name="Trazado 1175563" d="M58.574,212.522a6.572,6.572,0,1,0,13.144,0Z" transform="translate(-58.574 -212.522)" fill="#f5b000" fill-rule="evenodd"/>
        <path id="Trazado_1175564" data-name="Trazado 1175564" d="M80.367,219.026a6.573,6.573,0,0,0,5.634-6.5H74.733a6.573,6.573,0,0,0,5.634,6.5Z" transform="translate(-72.857 -212.521)" fill="#ffbd1c" fill-rule="evenodd"/>
      </g>
      <path id="Trazado_1175565" data-name="Trazado 1175565" d="M241.806,63.772h3.3V90.727h-3.3Z" transform="translate(-195.206 -54.841)" fill="#e3a76f"/>
      <circle id="Elipse_14648" data-name="Elipse 14648" cx="3.121" cy="3.121" r="3.121" transform="translate(44.178 7.496) rotate(-67.486)" fill="#f5b000"/>
      <path id="Trazado_1175566" data-name="Trazado 1175566" d="M245.692,10.962a3.122,3.122,0,1,1-2.292,3.01A3.123,3.123,0,0,1,245.692,10.962Z" transform="translate(-196.615 -8.162)" fill="#ffbd1c" fill-rule="evenodd"/>
      <path id="Trazado_1175567" data-name="Trazado 1175567" d="M127.54,413.627H166.3" transform="translate(-94.206 -364.078)" fill="none" stroke="#000" stroke-linejoin="round" stroke-width="12"/>
      <g id="Grupo_1222586" data-name="Grupo 1222586" transform="translate(21.657 39.222)">
        <path id="Trazado_1175568" data-name="Trazado 1175568" d="M35.219,338.447h44.22a.707.707,0,0,0,.705-.705V335.71a.707.707,0,0,0-.705-.705H35.219V328.12h44.22a.707.707,0,0,0,.705-.705v-2.032a.707.707,0,0,0-.705-.705H30.468a3.515,3.515,0,0,0-3.5,3.5v6.76a3.515,3.515,0,0,0,3.5,3.5h4.751Z" transform="translate(-26.963 -324.678)" fill="#34ba82" fill-rule="evenodd"/>
        <path id="Trazado_1175569" data-name="Trazado 1175569" d="M53.781,338.447H98a.707.707,0,0,0,.705-.705V335.71A.707.707,0,0,0,98,335H53.781V328.12H98a.707.707,0,0,0,.705-.705v-2.032a.707.707,0,0,0-.705-.705H51.468a3.515,3.515,0,0,0-3.5,3.5v6.76a3.515,3.515,0,0,0,3.5,3.5h2.313Z" transform="translate(-45.525 -324.678)" fill="#4ac994" fill-rule="evenodd"/>
        <path id="Trazado_1175570" data-name="Trazado 1175570" d="M66.648,361.212h43.407v-6.885H64.272a1.757,1.757,0,0,0-1.752,1.752v3.38a1.758,1.758,0,0,0,1.752,1.752Z" transform="translate(-58.392 -350.885)" fill="#f3f5fb" fill-rule="evenodd"/>
      </g>
      <path id="Trazado_1175571" data-name="Trazado 1175571" d="M163.1,377.977h35.859v1.393H163.1Z" transform="translate(-125.635 -332.567)" fill="#cdd4de"/>
      <path id="Trazado_1175572" data-name="Trazado 1175572" d="M165.912,275.96H186.83v-3.77a2.637,2.637,0,0,1-2.629-2.629h-15.66a2.637,2.637,0,0,1-2.629,2.629Z" transform="translate(-128.123 -236.738)" fill="#c78b56" fill-rule="evenodd"/>
      <path id="Trazado_1175573" data-name="Trazado 1175573" d="M185.787,275.96H204.4v-3.77a2.637,2.637,0,0,1-2.629-2.629H188.416c0,1.446-1.444,4.24-2.629,4.109Z" transform="translate(-145.691 -236.738)" fill="#d09561" fill-rule="evenodd"/>
      <path id="Trazado_1175574" data-name="Trazado 1175574" d="M147.016,63.772v3.3H114.057v-3.3h32.959Z" transform="translate(-82.289 -54.841)" fill="#ecba78" fill-rule="evenodd"/>
      <path id="Trazado_1175575" data-name="Trazado 1175575" d="M241.806,92.16h1.648v20.6h-1.648Z" transform="translate(-195.206 -79.933)" fill="#d09561"/>
      <g id="Grupo_1222587" data-name="Grupo 1222587" transform="translate(58.415 26.201)">
        <path id="Trazado_1175576" data-name="Trazado 1175576" d="M343.573,212.522a6.572,6.572,0,0,0,13.144,0H343.573Z" transform="translate(-343.573 -212.522)" fill="#f5b000" fill-rule="evenodd"/>
        <path id="Trazado_1175577" data-name="Trazado 1175577" d="M365.368,219.026a6.573,6.573,0,0,0,5.634-6.5H359.734a6.573,6.573,0,0,0,5.634,6.5Z" transform="translate(-357.858 -212.521)" fill="#ffbd1c" fill-rule="evenodd"/>
      </g>
      <path id="Trazado_1175578" data-name="Trazado 1175578" d="M114.057,63.772H115.7v3.3h-1.648Z" transform="translate(-82.289 -54.841)" fill="#e3a76f"/>
      <path id="Trazado_1175579" data-name="Trazado 1175579" d="M105.625,377.977H98.076v14.4l3.774-3.478,3.774,3.478Z" transform="translate(-68.163 -332.567)" fill="#fd7a6e" fill-rule="evenodd"/>
      <path id="Trazado_1175580" data-name="Trazado 1175580" d="M101.85,377.977H98.076v14.4l3.774-3.478Z" transform="translate(-68.163 -332.567)" fill="#fb695b" fill-rule="evenodd"/>
      <path id="Trazado_1175581" data-name="Trazado 1175581" d="M73.32,43.977H27.537a2.452,2.452,0,0,0-2.449,2.449v3.38a2.452,2.452,0,0,0,2.449,2.449h1.679V54.3H25.162A2.811,2.811,0,0,1,22.354,51.5v-6.76a2.811,2.811,0,0,1,2.808-2.808H74.133a.011.011,0,0,1,.009.009v2.032a.012.012,0,0,1-.009.009H73.32Zm.813,8.278H38.158V54.3H74.133a.012.012,0,0,0,.009-.009V52.263a.012.012,0,0,0-.009-.009Zm-1.509-3.442H38.158v2.049H72.623V48.812ZM37.462,47.419H72.624V45.37H27.537a1.057,1.057,0,0,0-1.056,1.056v3.38a1.057,1.057,0,0,0,1.056,1.056h1.679V48.116a.7.7,0,0,1,.7-.7h7.549Zm-.7,12.81V48.812H30.609V60.229l2.606-2.4a.7.7,0,0,1,.944,0Zm1.72-22.144a3.337,3.337,0,0,0,2.555-2.556H55.454a3.337,3.337,0,0,0,2.556,2.556v2.45H38.485ZM49.2,14.933v19.2H47.3v-19.2ZM32.465,13.54v-1.9H64.03v1.9H32.465Zm5.008,13.772H26.064l5.7-11.507Zm-5.7,6.827A6.139,6.139,0,0,1,25.677,28.7H37.859a6.139,6.139,0,0,1-6.091,5.434ZM48.248,5.394a2.425,2.425,0,1,1-2.425,2.425,2.428,2.428,0,0,1,2.425-2.425ZM70.432,27.311H59.023l5.7-11.507Zm-5.705,6.827A6.138,6.138,0,0,1,58.636,28.7H70.818a6.14,6.14,0,0,1-6.092,5.434ZM74.133,45.37a1.4,1.4,0,0,0,1.4-1.4V41.936a1.4,1.4,0,0,0-1.4-1.4H59.4V37.461a.7.7,0,0,0-.7-.7,1.935,1.935,0,0,1-1.933-1.933.7.7,0,0,0-.7-.7H50.592v-19.2H63.6L57.276,27.7h0a.689.689,0,0,0-.073.309,7.524,7.524,0,1,0,15.047,0,.689.689,0,0,0-.073-.309h0L65.423,14.073V10.94a.7.7,0,0,0-.7-.7H51.194a3.818,3.818,0,1,0-5.894,0H31.768a.7.7,0,0,0-.7.7v3.133L24.317,27.7h0a.7.7,0,0,0-.073.309,7.524,7.524,0,0,0,15.048,0,.689.689,0,0,0-.073-.309h0L32.891,14.933H45.9v19.2H40.418a.7.7,0,0,0-.7.7,1.935,1.935,0,0,1-1.933,1.933.7.7,0,0,0-.7.7v3.073H25.162a4.206,4.206,0,0,0-4.2,4.2V51.5a4.206,4.206,0,0,0,4.2,4.2h4.054v6.121a.7.7,0,0,0,1.169.512l3.3-3.043,3.3,3.043a.7.7,0,0,0,1.169-.512V55.7H74.133a1.4,1.4,0,0,0,1.4-1.4V52.263a1.4,1.4,0,0,0-1.4-1.4h-.116V45.37h.116Z" transform="translate(0 -2.009)" fill="#242222" fill-rule="evenodd"/>
    </g>
  </g>
</svg>
