<svg xmlns="http://www.w3.org/2000/svg" xmlns:xlink="http://www.w3.org/1999/xlink" width="108" height="108" viewBox="0 0 108 108">
  <defs>
    <filter id="Trazado_904820" x="0" y="0" width="108" height="108" filterUnits="userSpaceOnUse">
      <feOffset dy="3" input="SourceAlpha"/>
      <feGaussianBlur stdDeviation="3" result="blur"/>
      <feFlood flood-opacity="0.161"/>
      <feComposite operator="in" in2="blur"/>
      <feComposite in="SourceGraphic"/>
    </filter>
  </defs>
  <g id="Grupo_1222683" data-name="Grupo 1222683" transform="translate(-619.5 -12285.539)">
    <g id="Grupo_1222482" data-name="Grupo 1222482" transform="translate(628.5 12291.539)">
      <g id="Grupo_1173585" data-name="Grupo 1173585" transform="translate(0 0)">
        <g id="Grupo_1173428" data-name="Grupo 1173428">
          <g id="Grupo_1171958" data-name="Grupo 1171958">
            <g id="Grupo_1167341" data-name="Grupo 1167341">
              <g id="Grupo_1166792" data-name="Grupo 1166792">
                <g transform="matrix(1, 0, 0, 1, -9, -6)" filter="url(#Trazado_904820)">
                  <g id="Trazado_904820-2" data-name="Trazado 904820" transform="translate(9 6)" fill="#f2f4f0">
                    <path d="M 44.99999618530273 88.49990844726562 C 39.12687301635742 88.49990844726562 33.43022155761719 87.34998321533203 28.06829643249512 85.08208465576172 C 22.88852119445801 82.89122772216797 18.23629570007324 79.75450897216797 14.24084663391113 75.75906372070312 C 10.24540901184082 71.76362609863281 7.108683586120605 67.11139678955078 4.917821407318115 61.93163681030273 C 2.649921178817749 56.5697135925293 1.499996185302734 50.87307357788086 1.499996185302734 44.99996185302734 C 1.499996185302734 39.12685012817383 2.649921178817749 33.43019866943359 4.917821407318115 28.06827354431152 C 7.108683586120605 22.88851165771484 10.24540901184082 18.23629951477051 14.24084663391113 14.24084949493408 C 18.23629570007324 10.24541187286377 22.88852119445801 7.108699321746826 28.06829643249512 4.917836666107178 C 33.43022155761719 2.64993691444397 39.12687301635742 1.500011801719666 44.99999618530273 1.500011801719666 C 50.87311935424805 1.500011801719666 56.56977081298828 2.64993691444397 61.93169784545898 4.917836666107178 C 67.11147308349609 7.108699321746826 71.76369476318359 10.24541187286377 75.75914764404297 14.24084949493408 C 79.75458526611328 18.23629951477051 82.89131164550781 22.88851165771484 85.08216857910156 28.06827354431152 C 87.35007476806641 33.43019866943359 88.5 39.12685012817383 88.5 44.99996185302734 C 88.5 50.87307357788086 87.35007476806641 56.5697135925293 85.08216857910156 61.93163681030273 C 82.89131164550781 67.11139678955078 79.75458526611328 71.76362609863281 75.75914764404297 75.75906372070312 C 71.76369476318359 79.75450897216797 67.11147308349609 82.89122772216797 61.93169784545898 85.08208465576172 C 56.56977081298828 87.34998321533203 50.87311935424805 88.49990844726562 44.99999618530273 88.49990844726562 Z" stroke="none"/>
                    <path d="M 44.99999618530273 3.000007629394531 C 39.32870864868164 3.000007629394531 33.82865142822266 4.110061645507812 28.65262603759766 6.299331665039062 C 23.65165710449219 8.414573669433594 19.15968322753906 11.44333648681641 15.301513671875 15.30150604248047 C 11.44333648681641 19.15967559814453 8.414566040039062 23.65163421630859 6.299339294433594 28.65260314941406 C 4.110054016113281 33.82863235473633 2.999992370605469 39.32867431640625 2.999992370605469 44.99996185302734 C 2.999992370605469 50.67123413085938 4.110054016113281 56.1712760925293 6.299339294433594 61.34730529785156 C 8.414566040039062 66.34827423095703 11.44333648681641 70.84023284912109 15.301513671875 74.69840240478516 C 19.15968322753906 78.55657958984375 23.65165710449219 81.58535003662109 28.65262603759766 83.70057678222656 C 33.82865142822266 85.88986206054688 39.32870864868164 86.99991607666016 44.99999618530273 86.99991607666016 C 50.67128372192383 86.99991607666016 56.17134094238281 85.88986206054688 61.34736633300781 83.70057678222656 C 66.34834289550781 81.58535003662109 70.84030914306641 78.55657958984375 74.69847869873047 74.69840240478516 C 78.55665588378906 70.84023284912109 81.58542633056641 66.34827423095703 83.70065307617188 61.34730529785156 C 85.88993835449219 56.1712760925293 87 50.67123413085938 87 44.99996185302734 C 87 39.32867431640625 85.88993835449219 33.82863235473633 83.70065307617188 28.65260314941406 C 81.58542633056641 23.65163421630859 78.55665588378906 19.15967559814453 74.69847869873047 15.30150604248047 C 70.84030914306641 11.44333648681641 66.34834289550781 8.414573669433594 61.34736633300781 6.299331665039062 C 56.17134094238281 4.110061645507812 50.67128372192383 3.000007629394531 44.99999618530273 3.000007629394531 M 44.99999618530273 7.62939453125e-06 C 69.85281372070312 7.62939453125e-06 90 20.14717864990234 90 44.99996185302734 C 90 69.85273742675781 69.85281372070312 89.99991607666016 44.99999618530273 89.99991607666016 C 20.14717864990234 89.99991607666016 -7.62939453125e-06 69.85273742675781 -7.62939453125e-06 44.99996185302734 C -7.62939453125e-06 20.14717864990234 20.14717864990234 7.62939453125e-06 44.99999618530273 7.62939453125e-06 Z" stroke="none" fill="#899e78"/>
                  </g>
                </g>
              </g>
            </g>
          </g>
        </g>
      </g>
    </g>
    <g id="human-rights_17785761" transform="translate(626.329 12282.645)">
      <g id="Grupo_1222682" data-name="Grupo 1222682" transform="translate(20.565 28.365)">
        <path id="Trazado_1175780" data-name="Trazado 1175780" d="M324.345,357.308H320.6c-.024-1.679,0-6.2,0-7.887,0-3.573,2.846-5.366,6.385-5.46l0,0,.429-1.478a6.813,6.813,0,0,0,2.939.577,4.681,4.681,0,0,0,2.1-.557l.3,1.458v0c3.542.087,6.394,1.884,6.394,5.46,0,1.683.024,6.208,0,7.887H324.345Z" transform="translate(-285.941 -306.172)" fill="#218380" fill-rule="evenodd"/>
        <path id="Trazado_1175781" data-name="Trazado 1175781" d="M369.26,344.008c.212-.02.422-.031.64-.037l0,0,.429-1.478a6.814,6.814,0,0,0,2.939.577,4.681,4.681,0,0,0,2.1-.557l.3,1.458v0c.232.007.459.02.687.04a.2.2,0,0,1-.033.037q-.4,2.4-3.506,4.24-3.113-1.841-3.509-4.24C369.284,344.034,369.273,344.021,369.26,344.008Z" transform="translate(-328.855 -306.181)" fill="#de8383" fill-rule="evenodd"/>
        <path id="Trazado_1175782" data-name="Trazado 1175782" d="M361.863,268.208a28.144,28.144,0,0,0,.04,3.016,5.689,5.689,0,0,1-5.216,5.674c-2.571.037-5.658-1.133-6.2-5.674-.009-.064-.017-.128-.024-.188a3.949,3.949,0,0,0,3.606-3.586C356.035,268.221,359.969,268.988,361.863,268.208Z" transform="translate(-312.278 -240.014)" fill="#de8383" fill-rule="evenodd"/>
        <path id="Trazado_1175783" data-name="Trazado 1175783" d="M355.9,238.418c1.5,0,1.619.838,4.609-.091.908-.281,1.612,1.153,1.193,3.2-.017.073-.031.151-.044.225-.04.245-.071.493-.087.74-1.894.78-5.828.013-7.8-.758a3.949,3.949,0,0,1-3.606,3.586c0-.06-.009-.117-.013-.174C349.811,240.839,352.834,238.418,355.9,238.418Z" transform="translate(-311.987 -214.303)" fill="#fbb13c" fill-rule="evenodd"/>
        <path id="Trazado_1175784" data-name="Trazado 1175784" d="M59.83,44.82h44.32v4.216H59.83Z" transform="translate(-56.012 -43.707)" fill="#fbb13c" fill-rule="evenodd"/>
        <path id="Trazado_1175785" data-name="Trazado 1175785" d="M214.686,44.1V66.671H209.7V44.1a4.7,4.7,0,1,1,4.991,0Z" transform="translate(-186.213 -35.41)" fill="#d81159" fill-rule="evenodd"/>
        <path id="Trazado_1175786" data-name="Trazado 1175786" d="M85,149.33H95.669v3.727a3.741,3.741,0,0,1-3.727,3.73H88.728A3.741,3.741,0,0,1,85,153.058Z" transform="translate(-78.206 -135.86)" fill="#1d4e89" fill-rule="evenodd"/>
        <path id="Trazado_1175787" data-name="Trazado 1175787" d="M319.28,149.33h10.665v3.727a3.739,3.739,0,0,1-3.727,3.73h-3.211a3.739,3.739,0,0,1-3.727-3.73Z" transform="translate(-284.785 -135.86)" fill="#1d4e89" fill-rule="evenodd"/>
        <path id="Trazado_1175788" data-name="Trazado 1175788" d="M42.346,357.308h3.743c.024-1.679,0-6.2,0-7.887,0-3.573-2.848-5.366-6.385-5.46l0,0-.433-1.478a6.807,6.807,0,0,1-2.936.577,4.673,4.673,0,0,1-2.1-.557l-.3,1.458,0,0c-3.542.087-6.4,1.884-6.4,5.46,0,1.683-.024,6.208,0,7.887H42.346Z" transform="translate(-27.541 -306.172)" fill="#19cfba" fill-rule="evenodd"/>
        <path id="Trazado_1175789" data-name="Trazado 1175789" d="M83.013,344.008c-.208-.02-.422-.031-.637-.037l0,0-.433-1.478a6.808,6.808,0,0,1-2.936.577,4.673,4.673,0,0,1-2.1-.557l-.3,1.458,0,0c-.232.007-.462.02-.687.04a.24.24,0,0,0,.031.037q.4,2.4,3.509,4.24,3.113-1.841,3.509-4.24C82.989,344.034,83,344.021,83.013,344.008Z" transform="translate(-70.209 -306.181)" fill="#de8383" fill-rule="evenodd"/>
        <path id="Trazado_1175790" data-name="Trazado 1175790" d="M57.91,268.208a28.142,28.142,0,0,1-.04,3.016,5.688,5.688,0,0,0,5.216,5.674c2.571.037,5.658-1.133,6.2-5.674.007-.064.013-.128.02-.188a3.945,3.945,0,0,1-3.6-3.586C63.736,268.221,59.8,268.988,57.91,268.208Z" transform="translate(-54.284 -240.014)" fill="#de8383" fill-rule="evenodd"/>
        <path id="Trazado_1175791" data-name="Trazado 1175791" d="M61.972,238.418c-1.495,0-1.615.838-4.605-.091-.912-.281-1.615,1.153-1.193,3.2l.04.225c.044.245.071.493.091.74,1.891.78,5.826.013,7.8-.758a3.945,3.945,0,0,0,3.6,3.586c.007-.06.011-.117.017-.174C68.061,240.839,65.041,238.418,61.972,238.418Z" transform="translate(-52.677 -214.303)" fill="#fbb13c" fill-rule="evenodd"/>
        <path id="Trazado_1175792" data-name="Trazado 1175792" d="M189.25,254.19h-1.469a1.533,1.533,0,0,1-1.531-1.531V244.47a7.45,7.45,0,1,1,14.9,0v8.188a1.535,1.535,0,0,1-1.531,1.531H189.25Z" transform="translate(-167.484 -213.182)" fill="#fbb13c" fill-rule="evenodd"/>
        <path id="Trazado_1175793" data-name="Trazado 1175793" d="M167.52,368.808c.009-2.28.037-7.22.037-8.46,0-3.771,9.116-2.621,7.065-7.008a5.342,5.342,0,0,0,3.033.841,4.215,4.215,0,0,0,1.924-.506c-.378.925-.577,2.141,2.229,3.432,2.252,1.039,4.836,1.24,4.836,3.858,0,1.217,0,5.758-.017,7.843Z" transform="translate(-150.969 -315.748)" fill="#d81159" fill-rule="evenodd"/>
        <path id="Trazado_1175794" data-name="Trazado 1175794" d="M210.6,356.789c1.67-.674,2.9-1.535,2.008-3.449a5.342,5.342,0,0,0,3.033.841,4.215,4.215,0,0,0,1.924-.506c-.378.922-.577,2.135,2.209,3.422-.007.024-.017.044-.024.067q-.513,1.825-4.514,3.228-4.007-1.4-4.518-3.228C210.674,357.041,210.634,356.913,210.6,356.789Z" transform="translate(-188.955 -315.748)" fill="#de8383" fill-rule="evenodd"/>
        <path id="Trazado_1175795" data-name="Trazado 1175795" d="M216.971,269.173a4.844,4.844,0,0,1-4.529,5.024c-2.353.033-4.927-1.277-5.4-5.155s1.357-5.875,3.794-6.412a4.728,4.728,0,0,0-.027.486c0,2.574,2.36,4.662,5.269,4.662.785,0,.889.171.889,1.4Z" transform="translate(-185.757 -235.764)" fill="#de8383" fill-rule="evenodd"/>
      </g>
      <path id="Trazado_1175796" data-name="Trazado 1175796" d="M52.728,61.774a6,6,0,0,1-2.779,5.161.832.832,0,0,0,.013.557,2.3,2.3,0,0,0,.992.935H52.7a.589.589,0,0,0,.586-.583V59.653a6.506,6.506,0,0,0-13.011,0v8.192a.589.589,0,0,0,.586.583h1.244c.084-.033.164-.071.241-.108.831-.389,1.4-.882,1.1-1.746a5.2,5.2,0,0,1-.537-.456,6.977,6.977,0,0,1-1.995-4.364,7.552,7.552,0,0,1,.8-4.84,5.577,5.577,0,0,1,3.73-2.6.942.942,0,0,1,1.133,1.063,3.463,3.463,0,0,0,1.206,2.936,4.669,4.669,0,0,0,3.1,1.126,1.535,1.535,0,0,1,1.538.678,3.011,3.011,0,0,1,.3,1.664Zm-4.675,5.892a6.416,6.416,0,0,1-2.561-.131A3.222,3.222,0,0,1,43.41,69.9a3.225,3.225,0,0,0,.851.831,11.14,11.14,0,0,0,2.585,1.273,11.129,11.129,0,0,0,2.584-1.273,3.71,3.71,0,0,0,.687-.614,3.771,3.771,0,0,1-2.064-2.452Zm1.716-3.02a4.26,4.26,0,0,0,1.065-2.872v-.449a6.065,6.065,0,0,1-6.091-4.773c-1.716.908-2.212,2.782-1.947,4.977a5.119,5.119,0,0,0,1.418,3.221,4.228,4.228,0,0,0,3.027,1.106,3.5,3.5,0,0,0,2.528-1.208Zm1.067-3.522c-.051-.077-.031-.037,0,.024Zm.607,15.019a.945.945,0,1,1,1.889,0V80.48h1.957l.007-6.9c0-1.635-1.884-2.041-3.438-2.645-.908,1.394-2.855,2.316-4.7,2.96a.924.924,0,0,1-.623,0c-1.934-.674-4.065-1.683-4.88-3.272-1.558.559-3.55,1.16-3.553,2.34l-.037,7.514h1.96V76.142a.945.945,0,0,1,1.889,0v4.337H51.44V76.143Zm2.772-6.338c.093.037.184.077.274.114.051-.194.111-.385.177-.57Zm1.995,1.169a3.417,3.417,0,0,1,.983,2.607l-.009,4.974h.848V71.072a.945.945,0,1,1,1.889,0v7.485h9.156V71.072a.947.947,0,0,1,1.893,0v7.485h1.863l-.013-6.942c0-2.578-1.746-3.952-4.079-4.377a7.962,7.962,0,0,1-3.743,4.045.941.941,0,0,1-.975-.007,7.948,7.948,0,0,1-3.73-4.045c-2.088.372-3.807,1.525-4.082,3.745Zm.965,9.475c0,.362,0,.694,0,.979a.945.945,0,0,1-.942.939v0H37.119a.945.945,0,0,1-.945-1.032c0-.268,0-.566.007-.888h-15.6v-.007a.936.936,0,0,1-.942-.928l-.007-7.9c0-3.9,2.936-6.027,6.562-6.358l.02-.1a6.789,6.789,0,0,1-3.007-5.584,17.577,17.577,0,0,0-.067-3.794,4.553,4.553,0,0,1,.559-3.72,1.7,1.7,0,0,1,1.834-.573c2.987.928,2.571-.117,4.867.067a6.688,6.688,0,0,1,4.29,2.015,7.3,7.3,0,0,1,1.82,6.117,7.071,7.071,0,0,1-3.087,5.45l.033.114a7.851,7.851,0,0,1,4.931,2.077V59.653A8.4,8.4,0,0,1,43.1,52.1V37.545a5.646,5.646,0,0,1-1.984-2.906H33.886l3.593,6.251h.546a.944.944,0,0,1,.945.945v3.727A4.685,4.685,0,0,1,34.3,50.237H31.087a4.685,4.685,0,0,1-4.675-4.675V41.835a.946.946,0,0,1,.945-.945h.55L31.5,34.638H24.387a.947.947,0,0,1-.948-.945V29.477a.949.949,0,0,1,.948-.945H43.176a5.656,5.656,0,0,1,6.737,0H68.706a.948.948,0,0,1,.945.945v4.216a.946.946,0,0,1-.945.945H61.59l3.59,6.251h.55a.944.944,0,0,1,.945.945v3.727A4.685,4.685,0,0,1,62,50.237H58.787a4.685,4.685,0,0,1-4.672-4.675V41.835a.944.944,0,0,1,.945-.945h.546L59.2,34.638H51.971a5.688,5.688,0,0,1-1.984,2.906V51.89a8.4,8.4,0,0,1,5.192,7.762v8.192a2.439,2.439,0,0,1-.064.566A7.2,7.2,0,0,1,60.89,65.25l.031-.114a7.084,7.084,0,0,1-3.087-5.45,7.305,7.305,0,0,1,1.823-6.117,6.7,6.7,0,0,1,4.827-2.037c1.716,0,1.586.808,4.33-.044a1.922,1.922,0,0,1,2.346,1.555,5.649,5.649,0,0,1,.047,2.738l-.114.851a28.172,28.172,0,0,0,.047,2.943,6.785,6.785,0,0,1-3.01,5.584l.02.1c3.626.332,6.562,2.453,6.562,6.358l0,7.9a.94.94,0,0,1-.942.928v.007ZM36.318,72.111A3.335,3.335,0,0,1,37.95,70.14a4.642,4.642,0,0,0-3.9-2.909,7.948,7.948,0,0,1-3.73,4.045.944.944,0,0,1-.975.007A7.981,7.981,0,0,1,25.6,67.238c-2.329.426-4.079,1.8-4.079,4.377l-.011,6.942h1.863V71.073a.945.945,0,0,1,1.889,0v7.485h9.156V71.073a.947.947,0,0,1,1.893,0v1.038ZM45,51.447a8.442,8.442,0,0,1,3.1-.091v-14.3h0a.947.947,0,0,1,.439-.8A3.758,3.758,0,1,0,42.824,33.6a3.646,3.646,0,0,0,.429,1.284A3.8,3.8,0,0,0,44.5,36.221a.941.941,0,0,1,.5.835ZM29.864,53.426c-1.3,0-1.632.851-4.759-.093a3.287,3.287,0,0,0-.117,2.075l.077.433a14.649,14.649,0,0,0,6.562-.908.94.94,0,0,1,1.3.784,2.894,2.894,0,0,0,1.746,2.44,4.779,4.779,0,0,0-4.814-4.731Zm4.668,6.683a4.674,4.674,0,0,1-3.221-3.077,16.531,16.531,0,0,1-6.14.727c-.013.657-.073,1.266-.073,1.816a4.887,4.887,0,0,0,3.214,4.542,5.3,5.3,0,0,0,3.6-.3v0A4.783,4.783,0,0,0,34.532,60.108Zm-2.7,6.3-.144-.506a8.92,8.92,0,0,1-2.245.292m0,0a5.99,5.99,0,0,1-1.469-.212c-.1.486-.087.634-.459.945a6.166,6.166,0,0,0,2.316,2.43A6.112,6.112,0,0,0,32.156,66.9a.939.939,0,0,1-.329-.493M63.007,40.89l-2.614-4.549L57.782,40.89Zm-27.7,0L32.7,36.341,30.081,40.89ZM64.784,42.78H56.006v2.782a2.792,2.792,0,0,0,2.782,2.782H62a2.8,2.8,0,0,0,2.786-2.782V42.78Zm-27.7,0H28.308v2.782a2.792,2.792,0,0,0,2.782,2.782H34.3a2.792,2.792,0,0,0,2.782-2.782V42.78ZM40.9,32.749a5.632,5.632,0,0,1,.647-2.322H25.331v2.322Zm10.634-2.323a5.588,5.588,0,0,1,.647,2.322H67.757V30.426Zm9.08,29.367-.808.315a4.785,4.785,0,0,0,2.621,3.71v0a5.542,5.542,0,0,0,1.606.442,5.412,5.412,0,0,0,1.3.024l.844-.218a4.888,4.888,0,0,0,3.067-4.488c0-.55-.06-1.16-.071-1.816a16.473,16.473,0,0,1-6.14-.727,4.6,4.6,0,0,1-2.152,2.625Zm4.793-6.226a3.417,3.417,0,0,0-1.321-.128,4.78,4.78,0,0,0-4.425,4.715,2.914,2.914,0,0,0,1.753-2.477.943.943,0,0,1,1.3-.747,15.68,15.68,0,0,0,6.01.985l.55-.077a4.67,4.67,0,0,0,.077-2.242,1.084,1.084,0,0,0-.117-.265,5.959,5.959,0,0,1-3.829.235ZM60.373,59.9l-.071.031M62.187,66.9a6.137,6.137,0,0,0,2.329,2.457,6.125,6.125,0,0,0,2.316-2.43L66.6,66.7m-1.531-.51-2.638-2.377m2.638,2.377h-.007m0,0h-.073m0,0h-.077" transform="translate(0 0)"/>
    </g>
  </g>
</svg>
