<svg xmlns="http://www.w3.org/2000/svg" xmlns:xlink="http://www.w3.org/1999/xlink" width="108" height="108" viewBox="0 0 108 108">
  <defs>
    <filter id="Trazado_904820" x="0" y="0" width="108" height="108" filterUnits="userSpaceOnUse">
      <feOffset dy="3" input="SourceAlpha"/>
      <feGaussianBlur stdDeviation="3" result="blur"/>
      <feFlood flood-opacity="0.161"/>
      <feComposite operator="in" in2="blur"/>
      <feComposite in="SourceGraphic"/>
    </filter>
  </defs>
  <g id="Grupo_1222657" data-name="Grupo 1222657" transform="translate(-200.5 -5682.3)">
    <g id="Grupo_1222462" data-name="Grupo 1222462" transform="translate(209.5 5688.3)">
      <g id="Grupo_1173585" data-name="Grupo 1173585" transform="translate(0 0)">
        <g id="Grupo_1173428" data-name="Grupo 1173428">
          <g id="Grupo_1171958" data-name="Grupo 1171958">
            <g id="Grupo_1167341" data-name="Grupo 1167341">
              <g id="Grupo_1166792" data-name="Grupo 1166792">
                <g transform="matrix(1, 0, 0, 1, -9, -6)" filter="url(#Trazado_904820)">
                  <g id="Trazado_904820-2" data-name="Trazado 904820" transform="translate(9 6)" fill="#e7f2f8">
                    <path d="M 44.99999618530273 88.49993133544922 C 39.12687301635742 88.49993133544922 33.43022155761719 87.35000610351562 28.06829643249512 85.08209991455078 C 22.88852119445801 82.89124298095703 18.23629570007324 79.75453186035156 14.24084663391113 75.75907897949219 C 10.24540901184082 71.76362609863281 7.108683586120605 67.11141204833984 4.917821407318115 61.931640625 C 2.649921178817749 56.56971740722656 1.499996185302734 50.87307739257812 1.499996185302734 44.99996566772461 C 1.499996185302734 39.12685394287109 2.649921178817749 33.43020248413086 4.917821407318115 28.06827735900879 C 7.108683586120605 22.88851547241211 10.24540901184082 18.23628997802734 14.24084663391113 14.24085330963135 C 18.23629570007324 10.24540328979492 22.88852119445801 7.108690738677979 28.06829643249512 4.91782808303833 C 33.43022155761719 2.649928092956543 39.12687301635742 1.500003218650818 44.99999618530273 1.500003218650818 C 50.87311935424805 1.500003218650818 56.56977081298828 2.649928092956543 61.93169784545898 4.91782808303833 C 67.11147308349609 7.108690738677979 71.76369476318359 10.24540328979492 75.75914764404297 14.24085330963135 C 79.75458526611328 18.23628997802734 82.89131164550781 22.88851547241211 85.08216857910156 28.06827735900879 C 87.35007476806641 33.43020248413086 88.5 39.12685394287109 88.5 44.99996566772461 C 88.5 50.87307739257812 87.35007476806641 56.56971740722656 85.08216857910156 61.931640625 C 82.89131164550781 67.11141204833984 79.75458526611328 71.76362609863281 75.75914764404297 75.75907897949219 C 71.76369476318359 79.75453186035156 67.11147308349609 82.89124298095703 61.93169784545898 85.08209991455078 C 56.56977081298828 87.35000610351562 50.87311935424805 88.49993133544922 44.99999618530273 88.49993133544922 Z" stroke="none"/>
                    <path d="M 44.99999618530273 3.000007629394531 C 39.32870864868164 3.000007629394531 33.82865142822266 4.110069274902344 28.65262603759766 6.299339294433594 C 23.65165710449219 8.414581298828125 19.15968322753906 11.44333648681641 15.301513671875 15.30150604248047 C 11.44333648681641 19.15968322753906 8.414566040039062 23.65163421630859 6.299339294433594 28.65260696411133 C 4.110054016113281 33.82863616943359 2.999992370605469 39.32867813110352 2.999992370605469 44.99996566772461 C 2.999992370605469 50.67123794555664 4.110054016113281 56.17127990722656 6.299339294433594 61.34730911254883 C 8.414566040039062 66.34828186035156 11.44333648681641 70.84024047851562 15.301513671875 74.69841003417969 C 19.15968322753906 78.55657958984375 23.65165710449219 81.58535003662109 28.65262603759766 83.70057678222656 C 33.82865142822266 85.88986206054688 39.32870864868164 86.99992370605469 44.99999618530273 86.99992370605469 C 50.67128372192383 86.99992370605469 56.17134094238281 85.88986206054688 61.34736633300781 83.70057678222656 C 66.34834289550781 81.58535003662109 70.84030914306641 78.55657958984375 74.69847869873047 74.69841003417969 C 78.55665588378906 70.84024047851562 81.58542633056641 66.34828186035156 83.70065307617188 61.34730911254883 C 85.88993835449219 56.17127990722656 87 50.67123794555664 87 44.99996566772461 C 87 39.32867813110352 85.88993835449219 33.82863616943359 83.70065307617188 28.65260696411133 C 81.58542633056641 23.65163421630859 78.55665588378906 19.15968322753906 74.69847869873047 15.30150604248047 C 70.84030914306641 11.44333648681641 66.34834289550781 8.414581298828125 61.34736633300781 6.299339294433594 C 56.17134094238281 4.110069274902344 50.67128372192383 3.000007629394531 44.99999618530273 3.000007629394531 M 44.99999618530273 7.62939453125e-06 C 69.85281372070312 7.62939453125e-06 90 20.14717864990234 90 44.99996566772461 C 90 69.85273742675781 69.85281372070312 89.99992370605469 44.99999618530273 89.99992370605469 C 20.14717864990234 89.99992370605469 -7.62939453125e-06 69.85273742675781 -7.62939453125e-06 44.99996566772461 C -7.62939453125e-06 20.14717864990234 20.14717864990234 7.62939453125e-06 44.99999618530273 7.62939453125e-06 Z" stroke="none" fill="#248abf"/>
                  </g>
                </g>
              </g>
            </g>
          </g>
        </g>
      </g>
    </g>
    <g id="auction_2495348" transform="translate(225.054 5704.054)">
      <g id="Grupo_1222628" data-name="Grupo 1222628" transform="translate(5.669 1.934)">
        <path id="Trazado_1175685" data-name="Trazado 1175685" d="M47.085,52.423H17.205V54.29a3.735,3.735,0,0,1-7.47,0V5.735A3.735,3.735,0,0,0,6,2H40.549a6.536,6.536,0,0,1,6.536,6.536Z" transform="translate(-6 -2)" fill="#adaba6"/>
      </g>
      <g id="Grupo_1222629" data-name="Grupo 1222629" transform="translate(5.669 1.934)">
        <path id="Trazado_1175686" data-name="Trazado 1175686" d="M9.735,5.735V43.948a20.677,20.677,0,0,0,13.073,4.74c12.377,0,22.41-11.287,22.41-25.211C45.218,14.4,40.948,6.438,34.546,2H6A3.735,3.735,0,0,1,9.735,5.735Z" transform="translate(-6 -2)" fill="#f1efeb"/>
      </g>
      <g id="Grupo_1222631" data-name="Grupo 1222631" transform="translate(13.139 52.356)">
        <g id="Grupo_1222630" data-name="Grupo 1222630">
          <path id="Trazado_1175687" data-name="Trazado 1175687" d="M47.615,56H17.735v1.868A3.735,3.735,0,0,1,14,61.6H47.615a3.735,3.735,0,0,0,3.735-3.735V56Z" transform="translate(-14 -56)" fill="#74726f"/>
        </g>
      </g>
      <g id="Grupo_1222632" data-name="Grupo 1222632" transform="translate(1.934 1.934)">
        <path id="Trazado_1175688" data-name="Trazado 1175688" d="M9.47,13.205H2V5.735a3.735,3.735,0,0,1,7.47,0Z" transform="translate(-2 -2)" fill="#74726f"/>
      </g>
      <g id="Grupo_1222633" data-name="Grupo 1222633" transform="translate(13.139 33.681)">
        <circle id="Elipse_14650" data-name="Elipse 14650" cx="7.5" cy="7.5" r="7.5" transform="translate(-0.192 0.265)" fill="#b57769"/>
      </g>
      <g id="Grupo_1222634" data-name="Grupo 1222634" transform="translate(16.874 37.416)">
        <ellipse id="Elipse_14651" data-name="Elipse 14651" cx="3.5" cy="4" rx="3.5" ry="4" transform="translate(0.072 -0.47)" fill="#f29f8c"/>
      </g>
      <g id="Grupo_1222635" data-name="Grupo 1222635" transform="translate(43.943 34.617)">
        <path id="Trazado_1175689" data-name="Trazado 1175689" d="M0,0H3.3V16.507H0Z" transform="translate(0 2.334) rotate(-45)" fill="#bf8859"/>
      </g>
      <g id="Grupo_1222636" data-name="Grupo 1222636" transform="translate(37.408 28.081)">
        <path id="Trazado_1175690" data-name="Trazado 1175690" d="M0,0H9.243V6.6H0Z" transform="translate(0 6.535) rotate(-45)" fill="#bf8859"/>
      </g>
      <g id="Grupo_1222637" data-name="Grupo 1222637" transform="translate(33.674 33.681)">
        <path id="Trazado_1175691" data-name="Trazado 1175691" d="M0,0H3.962V9.243H0Z" transform="translate(0 2.801) rotate(-45)" fill="#bf8859"/>
      </g>
      <g id="Grupo_1222638" data-name="Grupo 1222638" transform="translate(43.011 24.346)">
        <path id="Trazado_1175692" data-name="Trazado 1175692" d="M0,0H3.962V9.243H0Z" transform="translate(0 2.801) rotate(-45)" fill="#bf8859"/>
      </g>
      <g id="Grupo_1222639" data-name="Grupo 1222639" transform="translate(1 1)">
        <path id="Trazado_1175693" data-name="Trazado 1175693" d="M46.754,58.893H13.139A4.674,4.674,0,0,1,8.47,54.224V14.073H1.934A.933.933,0,0,1,1,13.139V5.669a4.669,4.669,0,1,1,9.338,0V54.224a2.8,2.8,0,1,0,5.6,0V52.356a.933.933,0,0,1,.934-.934H50.489a.933.933,0,0,1,.934.934v1.868A4.674,4.674,0,0,1,46.754,58.893ZM16.872,57.025H46.754a2.8,2.8,0,0,0,2.8-2.8V53.29H17.808v.934a4.644,4.644,0,0,1-.936,2.8Zm-14-44.82h5.6V5.669a2.8,2.8,0,0,0-5.6,0Z" transform="translate(-1 -1)"/>
      </g>
      <g id="Grupo_1222640" data-name="Grupo 1222640" transform="translate(45.82 39.751)">
        <path id="Trazado_1175694" data-name="Trazado 1175694" d="M49,42.5h1.868V55.106H49Z" transform="translate(-49 -42.5)"/>
      </g>
      <g id="Grupo_1222641" data-name="Grupo 1222641" transform="translate(5.669 1)">
        <path id="Trazado_1175695" data-name="Trazado 1175695" d="M48.019,25.278H46.151V7.536a4.674,4.674,0,0,0-4.669-4.669H6V1H41.483a6.544,6.544,0,0,1,6.536,6.536Z" transform="translate(-6 -1)"/>
      </g>
      <g id="Grupo_1222642" data-name="Grupo 1222642" transform="translate(32.747 32.747)">
        <path id="Trazado_1175696" data-name="Trazado 1175696" d="M42.47,46.2a.931.931,0,0,1-.66-.274L35.274,39.4a.933.933,0,0,1,0-1.32l2.8-2.8a.933.933,0,0,1,1.32,0l6.536,6.536a.933.933,0,0,1,0,1.32l-2.8,2.8A.931.931,0,0,1,42.47,46.2Zm-5.216-7.47,5.216,5.216,1.481-1.481-5.216-5.216Z" transform="translate(-35 -35)"/>
      </g>
      <g id="Grupo_1222643" data-name="Grupo 1222643" transform="translate(42.085 23.41)">
        <path id="Trazado_1175697" data-name="Trazado 1175697" d="M52.47,36.2a.931.931,0,0,1-.66-.274L45.274,29.4a.933.933,0,0,1,0-1.32l2.8-2.8a.933.933,0,0,1,1.32,0l6.536,6.536a.933.933,0,0,1,0,1.32l-2.8,2.8A.931.931,0,0,1,52.47,36.2Zm-5.216-7.47,5.216,5.216,1.481-1.481-5.216-5.216Z" transform="translate(-45 -25)"/>
      </g>
      <g id="Grupo_1222644" data-name="Grupo 1222644" transform="translate(36.749 27.421)">
        <path id="Trazado_1175698" data-name="Trazado 1175698" d="M0,0H9.243V1.868H0Z" transform="translate(0 6.535) rotate(-45)"/>
      </g>
      <g id="Grupo_1222645" data-name="Grupo 1222645" transform="translate(41.417 32.089)">
        <path id="Trazado_1175699" data-name="Trazado 1175699" d="M0,0H9.243V1.868H0Z" transform="translate(0 6.535) rotate(-45)"/>
      </g>
      <g id="Grupo_1222646" data-name="Grupo 1222646" transform="translate(43.292 33.955)">
        <path id="Trazado_1175700" data-name="Trazado 1175700" d="M58.625,51.893a.931.931,0,0,1-.66-.274L46.293,39.948l1.32-1.32L58.625,49.639l1.014-1.014L48.627,37.613l1.32-1.32L61.62,47.965a.933.933,0,0,1,0,1.32L59.285,51.62A.931.931,0,0,1,58.625,51.893Z" transform="translate(-46.293 -36.293)"/>
      </g>
      <g id="Grupo_1222647" data-name="Grupo 1222647" transform="translate(13.139 17.808)">
        <path id="Trazado_1175701" data-name="Trazado 1175701" d="M14,19H44.814v1.868H14Z" transform="translate(-14 -19)"/>
      </g>
      <g id="Grupo_1222648" data-name="Grupo 1222648" transform="translate(13.139 25.278)">
        <path id="Trazado_1175702" data-name="Trazado 1175702" d="M14,27H41.079v1.868H14Z" transform="translate(-14 -27)"/>
      </g>
      <g id="Grupo_1222649" data-name="Grupo 1222649" transform="translate(13.139 21.543)">
        <path id="Trazado_1175703" data-name="Trazado 1175703" d="M14,23H44.814v1.868H14Z" transform="translate(-14 -23)"/>
      </g>
      <g id="Grupo_1222650" data-name="Grupo 1222650" transform="translate(13.139 10.338)">
        <path id="Trazado_1175704" data-name="Trazado 1175704" d="M14,11H44.814v1.868H14Z" transform="translate(-14 -11)"/>
      </g>
      <g id="Grupo_1222651" data-name="Grupo 1222651" transform="translate(13.139 6.603)">
        <path id="Trazado_1175705" data-name="Trazado 1175705" d="M14,7H44.814V8.868H14Z" transform="translate(-14 -7)"/>
      </g>
      <g id="Grupo_1222652" data-name="Grupo 1222652" transform="translate(13.139 14.073)">
        <path id="Trazado_1175706" data-name="Trazado 1175706" d="M14,15H44.814v1.868H14Z" transform="translate(-14 -15)"/>
      </g>
      <g id="Grupo_1222653" data-name="Grupo 1222653" transform="translate(13.139 29.013)">
        <path id="Trazado_1175707" data-name="Trazado 1175707" d="M14,31H39.211v1.868H14Z" transform="translate(-14 -31)"/>
      </g>
      <g id="Grupo_1222654" data-name="Grupo 1222654" transform="translate(12.205 32.748)">
        <path id="Trazado_1175708" data-name="Trazado 1175708" d="M21.4,51.808a8.4,8.4,0,1,1,8.4-8.4A8.413,8.413,0,0,1,21.4,51.808Zm0-14.94A6.536,6.536,0,1,0,27.94,43.4,6.544,6.544,0,0,0,21.4,36.868Z" transform="translate(-13 -35)"/>
      </g>
      <g id="Grupo_1222655" data-name="Grupo 1222655" transform="translate(15.94 36.483)">
        <path id="Trazado_1175709" data-name="Trazado 1175709" d="M21.669,48.338a4.669,4.669,0,1,1,4.669-4.669A4.674,4.674,0,0,1,21.669,48.338Zm0-7.47a2.8,2.8,0,1,0,2.8,2.8A2.8,2.8,0,0,0,21.669,40.868Z" transform="translate(-17 -39)"/>
      </g>
      <g id="Grupo_1222656" data-name="Grupo 1222656" transform="translate(30.88 44.886)">
        <path id="Trazado_1175710" data-name="Trazado 1175710" d="M44.205,52.669H40.47a3.736,3.736,0,0,1-3.164-1.751A6.157,6.157,0,0,1,33,52.669V50.8a4.293,4.293,0,0,0,3.578-1.915l.314-.471a.934.934,0,0,1,1.711.518A1.869,1.869,0,0,0,40.47,50.8h3.735Z" transform="translate(-33 -47.999)"/>
      </g>
    </g>
  </g>
</svg>
