<svg xmlns="http://www.w3.org/2000/svg" xmlns:xlink="http://www.w3.org/1999/xlink" width="113" height="113" viewBox="0 0 113 113">
  <defs>
    <filter id="Trazado_982547" x="0" y="0" width="113" height="113" filterUnits="userSpaceOnUse">
      <feOffset dy="3" input="SourceAlpha"/>
      <feGaussianBlur stdDeviation="3" result="blur"/>
      <feFlood flood-opacity="0.161"/>
      <feComposite operator="in" in2="blur"/>
      <feComposite in="SourceGraphic"/>
    </filter>
  </defs>
  <g id="Grupo_1222602" data-name="Grupo 1222602" transform="translate(-672.51 -2321.377)">
    <g id="Grupo_1222421" data-name="Grupo 1222421" transform="translate(681.51 2327.377)">
      <g id="Grupo_1208010" data-name="Grupo 1208010" transform="translate(0 0)">
        <g id="Grupo_1202142" data-name="Grupo 1202142" transform="translate(0 0)">
          <g id="Grupo_1201923" data-name="Grupo 1201923">
            <g id="Grupo_1176928" data-name="Grupo 1176928" transform="translate(0)">
              <g id="Grupo_1172322" data-name="Grupo 1172322">
                <g id="Grupo_1164700" data-name="Grupo 1164700">
                  <g id="Grupo_1160931" data-name="Grupo 1160931">
                    <g id="Grupo_1160749" data-name="Grupo 1160749">
                      <g id="Grupo_1158891" data-name="Grupo 1158891">
                        <g id="Grupo_1157406" data-name="Grupo 1157406">
                          <g id="Grupo_1155793" data-name="Grupo 1155793">
                            <g id="Grupo_1154704" data-name="Grupo 1154704">
                              <g id="Grupo_1150790" data-name="Grupo 1150790">
                                <g id="Grupo_1154214" data-name="Grupo 1154214" transform="translate(0)">
                                  <g id="Grupo_1152583" data-name="Grupo 1152583">
                                    <g id="Grupo_1146973" data-name="Grupo 1146973">
                                      <g id="Grupo_1146954" data-name="Grupo 1146954">
                                        <g transform="matrix(1, 0, 0, 1, -9, -6)" filter="url(#Trazado_982547)">
                                          <g id="Trazado_982547-2" data-name="Trazado 982547" transform="translate(9 6)" fill="#f2f4f0">
                                            <path d="M 47.50000762939453 93.49986267089844 C 41.28937911987305 93.49986267089844 35.26534271240234 92.28383636474609 29.59519386291504 89.88558197021484 C 24.11772727966309 87.56880950927734 19.19814109802246 84.25183868408203 14.97310066223145 80.02679443359375 C 10.74804782867432 75.8017578125 7.431074142456055 70.88218688964844 5.114300727844238 65.40471649169922 C 2.716034412384033 59.73458480834961 1.500007629394531 53.71054458618164 1.500007629394531 47.49993133544922 C 1.500007629394531 41.2893180847168 2.716034412384033 35.26527786254883 5.114300727844238 29.59514427185059 C 7.431074142456055 24.11767768859863 10.74804782867432 19.19810485839844 14.97310066223145 14.97306442260742 C 19.19814109802246 10.74802494049072 24.11772727966309 7.431051254272461 29.59519386291504 5.114277839660645 C 35.26534271240234 2.71602463722229 41.28937911987305 1.499997973442078 47.50000762939453 1.499997973442078 C 53.71063613891602 1.499997973442078 59.73467254638672 2.71602463722229 65.40482330322266 5.114277839660645 C 70.88228607177734 7.431051254272461 75.80187225341797 10.74802494049072 80.02691650390625 14.97306442260742 C 84.25196838378906 19.19810485839844 87.56893920898438 24.11767768859863 89.88571166992188 29.59514427185059 C 92.28398132324219 35.26527786254883 93.50000762939453 41.2893180847168 93.50000762939453 47.49993133544922 C 93.50000762939453 53.71054458618164 92.28398132324219 59.73458480834961 89.88571166992188 65.40471649169922 C 87.56893920898438 70.88218688964844 84.25196838378906 75.8017578125 80.02691650390625 80.02679443359375 C 75.80187225341797 84.25183868408203 70.88228607177734 87.56880950927734 65.40482330322266 89.88558197021484 C 59.73467254638672 92.28383636474609 53.71063613891602 93.49986267089844 47.50000762939453 93.49986267089844 Z" stroke="none"/>
                                            <path d="M 47.50000762939453 2.999992370605469 C 41.4912223815918 2.999992370605469 35.66377639770508 4.1761474609375 30.17951202392578 6.495796203613281 C 24.88085174560547 8.736930847167969 20.12152862548828 11.94596099853516 16.03376007080078 16.03372955322266 C 11.94597625732422 20.12148284912109 8.736961364746094 24.88080596923828 6.495803833007812 30.17946624755859 C 4.176162719726562 35.66371536254883 3.000007629394531 41.49116134643555 3.000007629394531 47.49993133544922 C 3.000007629394531 53.50870132446289 4.176162719726562 59.33614730834961 6.495803833007812 64.82038879394531 C 8.736961364746094 70.11905670166016 11.94597625732422 74.87836456298828 16.03376007080078 78.96613311767578 C 20.12152862548828 83.05390167236328 24.88085174560547 86.26291656494141 30.17951202392578 88.50406646728516 C 35.66377639770508 90.82369995117188 41.4912223815918 91.99985504150391 47.50000762939453 91.99985504150391 C 53.50879287719727 91.99985504150391 59.33623886108398 90.82369995117188 64.82049560546875 88.50406646728516 C 70.11916351318359 86.26291656494141 74.87848663330078 83.05390167236328 78.96625518798828 78.96613311767578 C 83.05403900146484 74.87836456298828 86.26305389404297 70.11905670166016 88.50421142578125 64.82038879394531 C 90.8238525390625 59.33614730834961 92.00000762939453 53.50870132446289 92.00000762939453 47.49993133544922 C 92.00000762939453 41.49116134643555 90.8238525390625 35.66371536254883 88.50421142578125 30.17946624755859 C 86.26305389404297 24.88080596923828 83.05403900146484 20.12148284912109 78.96625518798828 16.03372955322266 C 74.87848663330078 11.94596099853516 70.11916351318359 8.736930847167969 64.82049560546875 6.495796203613281 C 59.33623886108398 4.1761474609375 53.50879287719727 2.999992370605469 47.50000762939453 2.999992370605469 M 47.50000762939453 -7.62939453125e-06 C 73.73352813720703 -7.62939453125e-06 95.00000762939453 21.26644134521484 95.00000762939453 47.49993133544922 C 95.00000762939453 73.73342132568359 73.73352813720703 94.99985504150391 47.50000762939453 94.99985504150391 C 21.26648712158203 94.99985504150391 7.62939453125e-06 73.73342132568359 7.62939453125e-06 47.49993133544922 C 7.62939453125e-06 21.26644134521484 21.26648712158203 -7.62939453125e-06 47.50000762939453 -7.62939453125e-06 Z" stroke="none" fill="#899e78"/>
                                          </g>
                                        </g>
                                      </g>
                                    </g>
                                  </g>
                                </g>
                              </g>
                            </g>
                          </g>
                        </g>
                      </g>
                    </g>
                  </g>
                </g>
              </g>
            </g>
          </g>
        </g>
      </g>
    </g>
    <g id="subpoena_4078642" transform="translate(699.212 2344.579)">
      <g id="Grupo_1222600" data-name="Grupo 1222600" transform="translate(0.977 0.975)">
        <g id="Grupo_1222589" data-name="Grupo 1222589" transform="translate(0 3.909)">
          <path id="Trazado_1175582" data-name="Trazado 1175582" d="M38.638,12.817a18.806,18.806,0,0,0,6.754,10.526,5.663,5.663,0,0,0,3.5,1.2,5.426,5.426,0,0,0,.977-.088V59.73H1V5H38.139V8.516a18.547,18.547,0,0,0,.5,4.3Z" transform="translate(-1 -4.998)" fill="#ffeaa7"/>
        </g>
        <g id="Grupo_1222590" data-name="Grupo 1222590" transform="translate(3.909 7.819)">
          <path id="Trazado_1175583" data-name="Trazado 1175583" d="M11.841,9A6.841,6.841,0,1,1,5,15.839,6.836,6.836,0,0,1,11.841,9Z" transform="translate(-5 -8.998)" fill="#aab2bd"/>
        </g>
        <g id="Grupo_1222591" data-name="Grupo 1222591" transform="translate(7.819 11.728)">
          <circle id="Elipse_14649" data-name="Elipse 14649" cx="2.932" cy="2.932" r="2.932" fill="#ccd1d9"/>
        </g>
        <g id="Grupo_1222592" data-name="Grupo 1222592" transform="translate(37.139)">
          <path id="Trazado_1175584" data-name="Trazado 1175584" d="M60.5,4.907V8.426A18.84,18.84,0,0,1,53.25,23.252a5.6,5.6,0,0,1-2.522,1.114,5.426,5.426,0,0,1-.977.088,5.663,5.663,0,0,1-3.5-1.2A18.806,18.806,0,0,1,39.5,12.726a18.547,18.547,0,0,1-.5-4.3V4.907L47.865,1.36a5.1,5.1,0,0,1,3.773,0Z" transform="translate(-39 -0.998)" fill="#aab2bd"/>
        </g>
        <g id="Grupo_1222593" data-name="Grupo 1222593" transform="translate(41.049 3.909)">
          <path id="Trazado_1175585" data-name="Trazado 1175585" d="M49.841,5a1.092,1.092,0,0,1,.43.088l6.411,2.561v.87a14.754,14.754,0,0,1-5.747,11.738,1.838,1.838,0,0,1-2.189,0A14.754,14.754,0,0,1,43,8.516v-.87l6.411-2.561A1.092,1.092,0,0,1,49.841,5Z" transform="translate(-43 -4.998)" fill="#ccd1d9"/>
        </g>
        <g id="Grupo_1222594" data-name="Grupo 1222594" transform="translate(22.479 33.23)">
          <path id="Trazado_1175586" data-name="Trazado 1175586" d="M24,35h3.909V52.59H24Z" transform="translate(-24 -34.998)" fill="#cf9e76"/>
        </g>
        <g id="Grupo_1222595" data-name="Grupo 1222595" transform="translate(22.479 23.456)">
          <path id="Trazado_1175587" data-name="Trazado 1175587" d="M27.909,25.975v4.887H24V25.975A.98.98,0,0,1,24.977,25h1.955A.98.98,0,0,1,27.909,25.975Z" transform="translate(-24 -24.998)" fill="#cf9e76"/>
        </g>
        <g id="Grupo_1222596" data-name="Grupo 1222596" transform="translate(7.819 29.321)">
          <path id="Trazado_1175588" data-name="Trazado 1175588" d="M42.23,31.975V33.93a.98.98,0,0,1-.977.977H9.977A.98.98,0,0,1,9,33.93V31.975A.98.98,0,0,1,9.977,31H41.253a.98.98,0,0,1,.977.977Z" transform="translate(-9 -30.998)" fill="#cf9e76"/>
        </g>
        <g id="Grupo_1222597" data-name="Grupo 1222597" transform="translate(14.66 50.822)">
          <path id="Trazado_1175589" data-name="Trazado 1175589" d="M35.547,53.975V55.93a.98.98,0,0,1-.977.977H16.977A.98.98,0,0,1,16,55.93V53.975A.98.98,0,0,1,16.977,53H34.57A.98.98,0,0,1,35.547,53.975Z" transform="translate(-16 -52.998)" fill="#b27946"/>
        </g>
        <g id="Grupo_1222598" data-name="Grupo 1222598" transform="translate(30.298 43.004)">
          <path id="Trazado_1175590" data-name="Trazado 1175590" d="M32,45h9.774a3.9,3.9,0,0,1-3.909,3.909H35.909A3.908,3.908,0,0,1,32,45Z" transform="translate(-32 -44.998)" fill="#d3a06c"/>
        </g>
        <g id="Grupo_1222599" data-name="Grupo 1222599" transform="translate(8.796 43.004)">
          <path id="Trazado_1175591" data-name="Trazado 1175591" d="M18.63,47.764a3.934,3.934,0,0,1-2.766,1.144H13.909A3.908,3.908,0,0,1,10,45h9.774a3.934,3.934,0,0,1-1.144,2.766Z" transform="translate(-10 -44.998)" fill="#d3a06c"/>
        </g>
      </g>
      <g id="Grupo_1222601" data-name="Grupo 1222601" transform="translate(0 0.001)">
        <path id="Trazado_1175592" data-name="Trazado 1175592" d="M41.23,29.862H28.524V25.953A1.957,1.957,0,0,0,26.57,24H24.615a1.957,1.957,0,0,0-1.955,1.955v3.909H9.955A1.957,1.957,0,0,0,8,31.817v1.955a1.957,1.957,0,0,0,1.955,1.955h2.466L8.977,44.335v.188a4.892,4.892,0,0,0,4.887,4.887h1.955a4.892,4.892,0,0,0,4.887-4.887v-.188l-3.443-8.609h5.4V51.364H16.8a1.957,1.957,0,0,0-1.955,1.955v1.955A1.957,1.957,0,0,0,16.8,57.228H34.389a1.957,1.957,0,0,0,1.955-1.955V53.319a1.957,1.957,0,0,0-1.955-1.955H28.524V35.726h5.4l-3.443,8.609v.188a4.892,4.892,0,0,0,4.887,4.887h1.955a4.892,4.892,0,0,0,4.887-4.887v-.188l-3.443-8.609H41.23a1.957,1.957,0,0,0,1.955-1.955V31.817a1.957,1.957,0,0,0-1.955-1.955ZM24.615,25.953H26.57v3.909H24.615Zm-8.8,21.5H13.864A2.928,2.928,0,0,1,11.113,45.5h7.456a2.926,2.926,0,0,1-2.75,1.955Zm2.466-3.909H11.4l3.128-7.819h.63Zm16.1,11.728H16.8V53.319H34.389Zm-7.82-3.909H24.615V35.726H26.57Zm10.751-3.909H35.366A2.928,2.928,0,0,1,32.615,45.5h7.456a2.926,2.926,0,0,1-2.75,1.955Zm2.466-3.909H32.9l3.128-7.819h.63ZM9.955,33.772V31.817H41.23v1.955Z" transform="translate(-0.181 -0.544)"/>
        <path id="Trazado_1175593" data-name="Trazado 1175593" d="M19.638,15.817a7.819,7.819,0,1,0-7.819,7.819,7.828,7.828,0,0,0,7.819-7.819Zm-13.683,0a5.864,5.864,0,1,1,5.864,5.864,5.87,5.87,0,0,1-5.864-5.864Z" transform="translate(-0.091 -0.182)"/>
        <path id="Trazado_1175594" data-name="Trazado 1175594" d="M15.819,15.907a3.909,3.909,0,1,0-3.909,3.909,3.913,3.913,0,0,0,3.909-3.909Zm-5.864,0a1.955,1.955,0,1,1,1.955,1.955,1.957,1.957,0,0,1-1.955-1.955Z" transform="translate(-0.181 -0.272)"/>
        <path id="Trazado_1175595" data-name="Trazado 1175595" d="M22,8h3.909V9.953H22Z" transform="translate(-0.498 -0.182)"/>
        <path id="Trazado_1175596" data-name="Trazado 1175596" d="M22,16h5.864v1.955H22Z" transform="translate(-0.498 -0.363)"/>
        <path id="Trazado_1175597" data-name="Trazado 1175597" d="M30,16h1.955v1.955H30Z" transform="translate(-0.679 -0.363)"/>
        <path id="Trazado_1175598" data-name="Trazado 1175598" d="M22,20H39.592v1.955H22Z" transform="translate(-0.498 -0.453)"/>
        <path id="Trazado_1175599" data-name="Trazado 1175599" d="M51.116.432a6.073,6.073,0,0,0-4.5,0L37.928,3.908H0V60.595H50.822V25.1A6.648,6.648,0,0,0,52.965,24,19.639,19.639,0,0,0,60.6,8.4V4.223ZM48.868,58.639H1.955V5.862H37.139V7.817H27.366V9.772h9.825c.045.659.118,1.312.227,1.955H21.5v1.955H37.854a19.577,19.577,0,0,0,.651,1.955H33.23V17.59H39.4A19.748,19.748,0,0,0,44.77,24a6.706,6.706,0,0,0,4.1,1.406ZM58.641,8.4a17.694,17.694,0,0,1-6.877,14.059,4.845,4.845,0,0,1-5.795,0A17.7,17.7,0,0,1,39.094,8.4V5.546l8.252-3.3a4.119,4.119,0,0,1,3.043,0l8.252,3.3Z" transform="translate(0 -0.001)"/>
        <path id="Trazado_1175600" data-name="Trazado 1175600" d="M49.023,4.151,42,6.96V8.492a15.751,15.751,0,0,0,6.121,12.515,2.8,2.8,0,0,0,3.4,0A15.753,15.753,0,0,0,57.638,8.492V6.96L50.614,4.151a2.133,2.133,0,0,0-1.591,0Zm6.66,4.34A13.788,13.788,0,0,1,50.8,19.045V12.793H48.841v6.251A13.787,13.787,0,0,1,43.955,8.491V8.284l4.887-1.955v4.51H50.8V6.33l4.887,1.955Z" transform="translate(-0.951 -0.091)"/>
      </g>
    </g>
  </g>
</svg>
