<svg xmlns="http://www.w3.org/2000/svg" xmlns:xlink="http://www.w3.org/1999/xlink" width="113" height="113" viewBox="0 0 113 113">
  <defs>
    <filter id="Trazado_982547" x="0" y="0" width="113" height="113" filterUnits="userSpaceOnUse">
      <feOffset dy="3" input="SourceAlpha"/>
      <feGaussianBlur stdDeviation="3" result="blur"/>
      <feFlood flood-opacity="0.161"/>
      <feComposite operator="in" in2="blur"/>
      <feComposite in="SourceGraphic"/>
    </filter>
  </defs>
  <g id="Grupo_1222689" data-name="Grupo 1222689" transform="translate(-1131.51 -2091.549)">
    <g id="Grupo_1222531" data-name="Grupo 1222531" transform="translate(1140.51 2097.549)">
      <g id="Grupo_1208010" data-name="Grupo 1208010" transform="translate(0 0)">
        <g id="Grupo_1202142" data-name="Grupo 1202142" transform="translate(0 0)">
          <g id="Grupo_1201923" data-name="Grupo 1201923">
            <g id="Grupo_1176928" data-name="Grupo 1176928" transform="translate(0)">
              <g id="Grupo_1172322" data-name="Grupo 1172322">
                <g id="Grupo_1164700" data-name="Grupo 1164700">
                  <g id="Grupo_1160931" data-name="Grupo 1160931">
                    <g id="Grupo_1160749" data-name="Grupo 1160749">
                      <g id="Grupo_1158891" data-name="Grupo 1158891">
                        <g id="Grupo_1157406" data-name="Grupo 1157406">
                          <g id="Grupo_1155793" data-name="Grupo 1155793">
                            <g id="Grupo_1154704" data-name="Grupo 1154704">
                              <g id="Grupo_1150790" data-name="Grupo 1150790">
                                <g id="Grupo_1154214" data-name="Grupo 1154214" transform="translate(0)">
                                  <g id="Grupo_1152583" data-name="Grupo 1152583">
                                    <g id="Grupo_1146973" data-name="Grupo 1146973">
                                      <g id="Grupo_1146954" data-name="Grupo 1146954">
                                        <g transform="matrix(1, 0, 0, 1, -9, -6)" filter="url(#Trazado_982547)">
                                          <g id="Trazado_982547-2" data-name="Trazado 982547" transform="translate(9 6)" fill="#f2f4f0">
                                            <path d="M 47.5 93.49984741210938 C 41.28938674926758 93.49984741210938 35.26533508300781 92.2838134765625 29.59519958496094 89.88556671142578 C 24.11773300170898 87.56878662109375 19.19814682006836 84.25181579589844 14.97310638427734 80.02677917480469 C 10.74805355072021 75.80173492431641 7.431079864501953 70.88216400146484 5.114306449890137 65.40470886230469 C 2.716039896011353 59.73457717895508 1.50001335144043 53.71053695678711 1.50001335144043 47.49992370605469 C 1.50001335144043 41.28931045532227 2.716039896011353 35.2652702331543 5.114306449890137 29.59513664245605 C 7.431079864501953 24.11768341064453 10.74805355072021 19.19811058044434 14.97310638427734 14.97307014465332 C 19.19814682006836 10.74803066253662 24.11773300170898 7.431056976318359 29.59519958496094 5.114283561706543 C 35.26533508300781 2.716030359268188 41.28938674926758 1.500003695487976 47.5 1.500003695487976 C 53.71062850952148 1.500003695487976 59.73466491699219 2.716030359268188 65.40481567382812 5.114283561706543 C 70.88227844238281 7.431056976318359 75.80186462402344 10.74803066253662 80.02690887451172 14.97307014465332 C 84.25196075439453 19.19811058044434 87.56893157958984 24.11768341064453 89.88570404052734 29.59513664245605 C 92.28397369384766 35.2652702331543 93.5 41.28931045532227 93.5 47.49992370605469 C 93.5 53.71053695678711 92.28397369384766 59.73457717895508 89.88570404052734 65.40470886230469 C 87.56893157958984 70.88216400146484 84.25196075439453 75.80173492431641 80.02690887451172 80.02677917480469 C 75.80186462402344 84.25181579589844 70.88227844238281 87.56878662109375 65.40481567382812 89.88556671142578 C 59.73466491699219 92.2838134765625 53.71062850952148 93.49984741210938 47.5 93.49984741210938 Z" stroke="none"/>
                                            <path d="M 47.5 3 C 41.49121475219727 3 35.66376876831055 4.176155090332031 30.17951965332031 6.495803833007812 C 24.88084411621094 8.7369384765625 20.12152099609375 11.94596862792969 16.03375244140625 16.03372192382812 C 11.94598388671875 20.12149047851562 8.736953735351562 24.88081359863281 6.495796203613281 30.17947387695312 C 4.176155090332031 35.6637077331543 3 41.49115371704102 3 47.49992370605469 C 3 53.50869369506836 4.176155090332031 59.33613967895508 6.495796203613281 64.82037353515625 C 8.736953735351562 70.11903381347656 11.94598388671875 74.87835693359375 16.03375244140625 78.96612548828125 C 20.12152099609375 83.05387878417969 24.88084411621094 86.26290893554688 30.17951965332031 88.50404357910156 C 35.66376876831055 90.82369232177734 41.49121475219727 91.99984741210938 47.5 91.99984741210938 C 53.50878524780273 91.99984741210938 59.33623123168945 90.82369232177734 64.82049560546875 88.50404357910156 C 70.11915588378906 86.26290893554688 74.87847900390625 83.05387878417969 78.96624755859375 78.96612548828125 C 83.05401611328125 74.87835693359375 86.26304626464844 70.11903381347656 88.50418090820312 64.82037353515625 C 90.82382965087891 59.33613967895508 91.99998474121094 53.50869369506836 91.99998474121094 47.49992370605469 C 91.99998474121094 41.49115371704102 90.82382965087891 35.6637077331543 88.50418090820312 30.17947387695312 C 86.26304626464844 24.88081359863281 83.05401611328125 20.12149047851562 78.96624755859375 16.03372192382812 C 74.87847900390625 11.94596862792969 70.11915588378906 8.7369384765625 64.82049560546875 6.495803833007812 C 59.33623123168945 4.176155090332031 53.50878524780273 3 47.5 3 M 47.5 0 C 73.7335205078125 0 94.99998474121094 21.26644897460938 94.99998474121094 47.49992370605469 C 94.99998474121094 73.7333984375 73.7335205078125 94.99984741210938 47.5 94.99984741210938 C 21.26649475097656 94.99984741210938 0 73.7333984375 0 47.49992370605469 C 0 21.26644897460938 21.26649475097656 0 47.5 0 Z" stroke="none" fill="#899e78"/>
                                          </g>
                                        </g>
                                      </g>
                                    </g>
                                  </g>
                                </g>
                              </g>
                            </g>
                          </g>
                        </g>
                      </g>
                    </g>
                  </g>
                </g>
              </g>
            </g>
          </g>
        </g>
      </g>
    </g>
    <g id="solidarity_18721393" transform="translate(1153.757 2098.406)">
      <g id="Grupo_1222688" data-name="Grupo 1222688" transform="translate(1.076 19.998)">
        <g id="Grupo_1222687" data-name="Grupo 1222687" transform="translate(0 0.001)">
          <path id="Trazado_1175827" data-name="Trazado 1175827" d="M41.181,36.756c-17.605-26.012-64.917,2.562,0,51.467C106.1,39.318,58.786,10.744,41.181,36.756Z" transform="translate(-8.004 -26.935)" fill="#ff4646" fill-rule="evenodd"/>
          <path id="Trazado_1175828" data-name="Trazado 1175828" d="M190.618,304.6q2.667,2.181,5.639,4.424c2.551-1.921,4.907-3.806,7.118-5.661v-8.289a5.506,5.506,0,0,1,.706-2.761l.792-1.439a5.5,5.5,0,0,0,.71-2.761V281.84h-17.21l-1.343,3.022,1.328,4.954a5.5,5.5,0,0,0,.872,1.851l.317.441a5.488,5.488,0,0,1,1.072,3.335v9.16Z" transform="translate(-163.08 -247.739)" fill="#ff4646" fill-rule="evenodd"/>
          <path id="Trazado_1175829" data-name="Trazado 1175829" d="M254.794,287.445V281.85H243.84v.957a4.344,4.344,0,0,0,5.809,4.09,4.346,4.346,0,0,0,5.145.548Z" transform="translate(-212.291 -247.748)" fill="#ff4646" fill-rule="evenodd"/>
          <path id="Trazado_1175830" data-name="Trazado 1175830" d="M254.794,287.445V281.85H243.84v.957a4.344,4.344,0,0,0,5.809,4.09,4.346,4.346,0,0,0,5.145.548Z" transform="translate(-212.291 -247.748)" fill="#ff4646" fill-rule="evenodd"/>
          <path id="Trazado_1175831" data-name="Trazado 1175831" d="M196.161,232.926a2.21,2.21,0,0,0-2.2,2.2v4.262a2.2,2.2,0,0,0,4.405,0v-1.2a2.2,2.2,0,1,0,4.405,0v1.2a2.2,2.2,0,0,0,4.409,0v-4.262a2.2,2.2,0,1,0-4.409,0v-1.2a2.2,2.2,0,0,0-4.405,0v1.2A2.21,2.21,0,0,0,196.161,232.926Z" transform="translate(-169.083 -204.333)" fill="#ff4646" fill-rule="evenodd"/>
          <path id="Trazado_1175832" data-name="Trazado 1175832" d="M193.96,256.058v2.367a2.4,2.4,0,0,1,.784-.368l1.9-.511,3.453-.924a2.212,2.212,0,0,1,2.7,1.557,2.187,2.187,0,0,1,0,1.145,2.212,2.212,0,0,0,1.5,1.8,4.337,4.337,0,0,0-4.749-6.574l-5.355,1.435C194.11,256.01,194.034,256.033,193.96,256.058Z" transform="translate(-169.083 -223.976)" fill="#ff4646" fill-rule="evenodd"/>
          <path id="Trazado_1175833" data-name="Trazado 1175833" d="M294.991,247.38a2.207,2.207,0,0,0-2.2,2.2v4.262a2.2,2.2,0,1,0,4.405,0v-4.262A2.21,2.21,0,0,0,294.991,247.38Z" transform="translate(-254.692 -217.889)" fill="#ff4646" fill-rule="evenodd"/>
          <path id="Trazado_1175834" data-name="Trazado 1175834" d="M225.688,304.758l.857-.231a3.772,3.772,0,0,0,2.524-1.843l-2.919-.273a1.075,1.075,0,0,1-.158.048l-3.453.927.876,3.276h.555a4.189,4.189,0,0,1,4.111,3.419.934.934,0,0,0,.92.765h.273a.938.938,0,0,0,.924-1.1A6.346,6.346,0,0,0,225.688,304.758Z" transform="translate(-193.84 -265.558)" fill="#ff4646" fill-rule="evenodd"/>
          <path id="Trazado_1175835" data-name="Trazado 1175835" d="M189.978,294.7q2.667,2.181,5.639,4.424c.391-.294.758-.582,1.137-.876V283.12a4.191,4.191,0,0,0-4.182-4.185h-.555l-.876-3.276,3.453-.927a2.2,2.2,0,0,0-1.141-4.255L190,271.4l-1.9.511a2.445,2.445,0,0,0-1.726,2.989l1.343,5.01a5.5,5.5,0,0,0,.872,1.851l.317.442a5.488,5.488,0,0,1,1.072,3.335Z" transform="translate(-162.441 -237.831)" fill="#ff4646" fill-rule="evenodd"/>
        </g>
        <path id="Trazado_1175836" data-name="Trazado 1175836" d="M353.735,129.8l-1.328,4.951a5.39,5.39,0,0,1-.872,1.851l-.317.445a5.483,5.483,0,0,0-1.072,3.335v9.26a92.081,92.081,0,0,1-12.757,14.381v-24.01a5.485,5.485,0,0,0-.706-2.761l-.792-1.443a5.485,5.485,0,0,1-.71-2.761V126.77h17.21Z" transform="translate(-291.411 -113.413)" fill="#fbbd80" fill-rule="evenodd"/>
        <path id="Trazado_1175837" data-name="Trazado 1175837" d="M335.18,132.385V126.79h10.954v.957a4.352,4.352,0,0,1-4.344,4.344,4.279,4.279,0,0,1-1.465-.254,4.329,4.329,0,0,1-5.145.548Z" transform="translate(-291.411 -113.431)" fill="#e2aa73" fill-rule="evenodd"/>
        <path id="Trazado_1175838" data-name="Trazado 1175838" d="M335.18,132.385V126.79h10.954v.957a4.352,4.352,0,0,1-4.344,4.344,4.279,4.279,0,0,1-1.465-.254,4.329,4.329,0,0,1-5.145.548Z" transform="translate(-291.411 -113.431)" fill="#e2aa73" fill-rule="evenodd"/>
        <path id="Trazado_1175839" data-name="Trazado 1175839" d="M379.165,77.86a2.207,2.207,0,0,1,2.2,2.2v4.262a2.2,2.2,0,1,1-4.405,0v-1.2a2.2,2.2,0,0,1-4.405,0v1.2a2.2,2.2,0,1,1-4.405,0V80.061a2.2,2.2,0,0,1,4.405,0v-1.2a2.2,2.2,0,1,1,4.405,0v1.2A2.208,2.208,0,0,1,379.165,77.86Z" transform="translate(-319.971 -70.007)" fill="#fbbd80" fill-rule="evenodd"/>
        <path id="Trazado_1175840" data-name="Trazado 1175840" d="M395.4,101.008v2.371a2.383,2.383,0,0,0-.784-.372l-1.9-.508-3.453-.927a2.212,2.212,0,0,0-2.7,1.561,2.173,2.173,0,0,0,0,1.141,2.222,2.222,0,0,1-1.5,1.807,4.337,4.337,0,0,1,4.752-6.574l5.351,1.431C395.249,100.96,395.327,100.983,395.4,101.008Z" transform="translate(-334.004 -89.67)" fill="#e2aa73" fill-rule="evenodd"/>
        <path id="Trazado_1175841" data-name="Trazado 1175841" d="M337.395,92.31a2.211,2.211,0,0,1,2.2,2.2v4.258a2.2,2.2,0,0,1-4.409,0V94.515A2.209,2.209,0,0,1,337.395,92.31Z" transform="translate(-291.42 -83.563)" fill="#fbbd80" fill-rule="evenodd"/>
        <path id="Trazado_1175842" data-name="Trazado 1175842" d="M385.531,149.688l-.858-.231a3.777,3.777,0,0,1-2.524-1.841l2.919-.276c.052.019.1.037.158.052l3.453.924-.876,3.276h-.553a4.2,4.2,0,0,0-4.115,3.419.93.93,0,0,1-.92.765h-.273a.933.933,0,0,1-.92-1.1A6.336,6.336,0,0,1,385.531,149.688Z" transform="translate(-331.105 -131.232)" fill="#e2aa73" fill-rule="evenodd"/>
        <path id="Trazado_1175843" data-name="Trazado 1175843" d="M404.564,126.688l-.317.445a5.483,5.483,0,0,0-1.072,3.335v9.26a80.3,80.3,0,0,1-6.776,8.366V128.046a4.192,4.192,0,0,1,4.185-4.185h.552l.876-3.276-3.453-.924A2.2,2.2,0,0,1,399.7,115.4l3.453.927,1.9.508a2.441,2.441,0,0,1,1.726,2.989l-1.343,5.01A5.411,5.411,0,0,1,404.564,126.688Z" transform="translate(-344.441 -103.501)" fill="#fbbd80" fill-rule="evenodd"/>
        <path id="Trazado_1175844" data-name="Trazado 1175844" d="M38.12,129.8l1.328,4.951a5.374,5.374,0,0,0,.876,1.851l.317.445a5.5,5.5,0,0,1,1.068,3.335v9.26a92.083,92.083,0,0,0,12.757,14.381v-24.01a5.489,5.489,0,0,1,.71-2.761l.792-1.443a5.481,5.481,0,0,0,.706-2.761V126.77H39.463Z" transform="translate(-34.091 -113.413)" fill="#fbbd80" fill-rule="evenodd"/>
        <path id="Trazado_1175845" data-name="Trazado 1175845" d="M105.894,132.385V126.79H94.94v.957a4.352,4.352,0,0,0,4.344,4.344,4.278,4.278,0,0,0,1.465-.254,4.329,4.329,0,0,0,5.145.548Z" transform="translate(-83.31 -113.431)" fill="#e2aa73" fill-rule="evenodd"/>
        <path id="Trazado_1175846" data-name="Trazado 1175846" d="M105.894,132.385V126.79H94.94v.957a4.352,4.352,0,0,0,4.344,4.344,4.278,4.278,0,0,0,1.465-.254,4.329,4.329,0,0,0,5.145.548Z" transform="translate(-83.31 -113.431)" fill="#e2aa73" fill-rule="evenodd"/>
        <path id="Trazado_1175847" data-name="Trazado 1175847" d="M47.255,77.86a2.208,2.208,0,0,0-2.2,2.2v4.262a2.2,2.2,0,1,0,4.405,0v-1.2a2.2,2.2,0,0,0,4.405,0v1.2a2.2,2.2,0,0,0,4.409,0V80.061a2.2,2.2,0,0,0-4.409,0v-1.2a2.2,2.2,0,1,0-4.405,0v1.2A2.2,2.2,0,0,0,47.255,77.86Z" transform="translate(-40.094 -70.007)" fill="#fbbd80" fill-rule="evenodd"/>
        <path id="Trazado_1175848" data-name="Trazado 1175848" d="M45.05,101.008v2.371a2.409,2.409,0,0,1,.784-.372l1.9-.508,3.453-.927a2.212,2.212,0,0,1,2.7,1.561,2.145,2.145,0,0,1,0,1.141,2.214,2.214,0,0,0,1.5,1.807,4.336,4.336,0,0,0-4.749-6.574l-5.351,1.431C45.2,100.96,45.128,100.983,45.05,101.008Z" transform="translate(-40.094 -89.67)" fill="#e2aa73" fill-rule="evenodd"/>
        <path id="Trazado_1175849" data-name="Trazado 1175849" d="M146.091,92.31a2.208,2.208,0,0,0-2.2,2.2v4.258a2.2,2.2,0,1,0,4.405,0V94.515A2.209,2.209,0,0,0,146.091,92.31Z" transform="translate(-125.712 -83.563)" fill="#fbbd80" fill-rule="evenodd"/>
        <path id="Trazado_1175850" data-name="Trazado 1175850" d="M76.786,149.688l.862-.231a3.784,3.784,0,0,0,2.522-1.841l-2.919-.276c-.052.019-.1.037-.158.052l-3.453.924.876,3.276h.555a4.193,4.193,0,0,1,4.111,3.419.93.93,0,0,0,.92.765h.273a.938.938,0,0,0,.924-1.1A6.348,6.348,0,0,0,76.786,149.688Z" transform="translate(-64.859 -131.232)" fill="#e2aa73" fill-rule="evenodd"/>
        <path id="Trazado_1175851" data-name="Trazado 1175851" d="M39.693,126.688l.317.445a5.5,5.5,0,0,1,1.068,3.335v9.26a80.824,80.824,0,0,0,6.776,8.366V128.046a4.191,4.191,0,0,0-4.182-4.185h-.555l-.876-3.276,3.453-.924a2.2,2.2,0,0,0-1.141-4.259l-3.453.927-1.9.508a2.445,2.445,0,0,0-1.726,2.989l1.343,5.01A5.418,5.418,0,0,0,39.693,126.688Z" transform="translate(-33.46 -103.501)" fill="#fbbd80" fill-rule="evenodd"/>
        <path id="Trazado_1175852" data-name="Trazado 1175852" d="M35.545,79.615q-3.975-3.55-7.162-6.92v4.84a91.806,91.806,0,0,1-12.75-14.373s0,0-.008-.007V54.608a34.664,34.664,0,0,1-1.873-5.3,5.259,5.259,0,0,1-.387-1.042l-1.328-4.951-.015-.059a2.45,2.45,0,0,1,.942-2.617V36.98a2.211,2.211,0,0,1,1.94-2.186,15.3,15.3,0,0,1,11.525-7.7C8,24.607-9.131,50.272,41.11,88.162l.074.055c.391-.294.759-.582,1.137-.876V85.313Q38.673,82.409,35.545,79.615Z" transform="translate(-8.008 -26.928)" fill="#e63f3f" fill-rule="evenodd"/>
        <path id="Trazado_1175853" data-name="Trazado 1175853" d="M274.3,33.673a25.387,25.387,0,0,1,2.448,3.077A21.383,21.383,0,0,1,291.5,27.1,19.9,19.9,0,0,0,274.3,33.673Z" transform="translate(-238.676 -26.929)" fill="#e63f3f" fill-rule="evenodd"/>
        <path id="Trazado_1175854" data-name="Trazado 1175854" d="M187.02,284.863l1.328,4.954a5.5,5.5,0,0,0,.872,1.852l.317.441a5.488,5.488,0,0,1,1.072,3.335V304.6q2.667,2.181,5.639,4.424c2.551-1.921,4.907-3.806,7.118-5.661v-8.289a5.506,5.506,0,0,1,.706-2.761l.792-1.44a5.5,5.5,0,0,0,.71-2.761V281.84h-17.21Z" transform="translate(-163.072 -247.739)" fill="#fbbd80" fill-rule="evenodd"/>
        <path id="Trazado_1175855" data-name="Trazado 1175855" d="M254.794,287.445V281.85H243.84v.957a4.344,4.344,0,0,0,5.809,4.09,4.346,4.346,0,0,0,5.145.548Z" transform="translate(-212.291 -247.747)" fill="#e2aa73" fill-rule="evenodd"/>
        <path id="Trazado_1175856" data-name="Trazado 1175856" d="M254.794,287.445V281.85H243.84v.957a4.344,4.344,0,0,0,5.809,4.09,4.346,4.346,0,0,0,5.145.548Z" transform="translate(-212.291 -247.747)" fill="#e2aa73" fill-rule="evenodd"/>
        <path id="Trazado_1175857" data-name="Trazado 1175857" d="M196.161,232.926a2.21,2.21,0,0,0-2.2,2.2v4.262a2.2,2.2,0,0,0,4.405,0v-1.2a2.2,2.2,0,1,0,4.405,0v1.2a2.2,2.2,0,0,0,4.409,0v-4.262a2.2,2.2,0,1,0-4.409,0v-1.2a2.2,2.2,0,0,0-4.405,0v1.2A2.21,2.21,0,0,0,196.161,232.926Z" transform="translate(-169.083 -204.332)" fill="#fbbd80" fill-rule="evenodd"/>
        <path id="Trazado_1175858" data-name="Trazado 1175858" d="M193.96,256.058v2.367a2.4,2.4,0,0,1,.784-.368l1.9-.511,3.453-.924a2.212,2.212,0,0,1,2.7,1.557,2.187,2.187,0,0,1,0,1.145,2.212,2.212,0,0,0,1.5,1.8,4.337,4.337,0,0,0-4.749-6.574l-5.355,1.435C194.11,256.01,194.034,256.033,193.96,256.058Z" transform="translate(-169.083 -223.975)" fill="#e2aa73" fill-rule="evenodd"/>
        <path id="Trazado_1175859" data-name="Trazado 1175859" d="M294.991,247.38a2.207,2.207,0,0,0-2.2,2.2v4.262a2.2,2.2,0,1,0,4.405,0v-4.262A2.21,2.21,0,0,0,294.991,247.38Z" transform="translate(-254.692 -217.889)" fill="#fbbd80" fill-rule="evenodd"/>
        <path id="Trazado_1175860" data-name="Trazado 1175860" d="M225.688,304.758l.857-.231a3.772,3.772,0,0,0,2.524-1.843l-2.919-.273a1.075,1.075,0,0,1-.158.048l-3.453.927.876,3.276h.555a4.189,4.189,0,0,1,4.111,3.419.934.934,0,0,0,.92.765h.273a.938.938,0,0,0,.924-1.1A6.346,6.346,0,0,0,225.688,304.758Z" transform="translate(-193.84 -265.557)" fill="#e2aa73" fill-rule="evenodd"/>
        <path id="Trazado_1175861" data-name="Trazado 1175861" d="M188.6,281.76l.317.441a5.488,5.488,0,0,1,1.072,3.335V294.7q2.667,2.181,5.639,4.424c.391-.294.759-.582,1.137-.876V283.12a4.191,4.191,0,0,0-4.182-4.185h-.555l-.876-3.276,3.453-.927a2.2,2.2,0,1,0-1.141-4.255l-3.453.924-1.9.511a2.445,2.445,0,0,0-1.726,2.989l1.343,5.01A5.492,5.492,0,0,0,188.6,281.76Z" transform="translate(-162.449 -237.83)" fill="#fbbd80" fill-rule="evenodd"/>
      </g>
      <path id="Trazado_1175862" data-name="Trazado 1175862" d="M67.987,31.592a16.184,16.184,0,0,0-4.848-8.332,16.841,16.841,0,0,0-8.3-4.027,19.625,19.625,0,0,0-11.378,1.387,23.375,23.375,0,0,0-9.209,7.368,23.383,23.383,0,0,0-9.212-7.368,19.634,19.634,0,0,0-11.38-1.387,16.826,16.826,0,0,0-8.3,4.028,16.162,16.162,0,0,0-4.848,8.33C-.95,37.805.754,45.266,5.446,53.169Q6.524,54.985,7.8,56.822l0,.007c5.7,8.194,14.356,16.691,25.8,25.315a1.069,1.069,0,0,0,1.287,0c13.16-9.914,22.634-19.661,28.163-28.973,4.692-7.9,6.4-15.366,4.927-21.577ZM9.76,55.888V46.965a6.569,6.569,0,0,0-1.267-3.956l-.32-.451a4.406,4.406,0,0,1-.71-1.5L6.122,36.049a1.374,1.374,0,0,1,.97-1.682l3.557-.955a1.025,1.025,0,0,0,.126-.033l1.668-.448a1.152,1.152,0,0,1,1.351.689,1.179,1.179,0,0,0,.037.116,1.136,1.136,0,0,1-.8,1.387l-3.454.926a1.069,1.069,0,0,0-.756,1.31L9.7,40.634a1.069,1.069,0,0,0,1.033.793h.554A3.118,3.118,0,0,1,14.4,44.541a1.069,1.069,0,0,0,2.138,0A5.261,5.261,0,0,0,11.553,39.3l-.389-1.457,2.424-.649a3.234,3.234,0,0,0,1.146-.569,3.26,3.26,0,0,0,4.045.47,3.268,3.268,0,0,0,3.81,1.188v1.355a4.443,4.443,0,0,1-.577,2.245l-.793,1.442a6.546,6.546,0,0,0-.837,3.275V68.119A87.488,87.488,0,0,1,9.76,55.888Zm1.748-25.835v-1.2a1.136,1.136,0,0,1,1.134-1.134,1.15,1.15,0,0,1,1.134,1.134v2.074a3.265,3.265,0,0,0-1.885-.06l-.383.1v-.918Zm8.812.895a1.136,1.136,0,0,1,1.134-1.134,1.15,1.15,0,0,1,1.134,1.134V35.21a1.134,1.134,0,0,1-2.269,0V30.948Zm-2.138,0v3.367a1.15,1.15,0,0,1-1.134,1.134,1.136,1.136,0,0,1-1.093-.833,3.259,3.259,0,0,0-.041-1.362v-3.2a1.134,1.134,0,0,1,2.269,0Zm-8.813.6-2.272.61v-2.1a1.136,1.136,0,0,1,2.272,0Zm24.884,48.4q-2.243-1.7-4.334-3.4V66.974A6.349,6.349,0,0,0,28.7,63.16l-.3-.425a4.139,4.139,0,0,1-.674-1.429l-1.286-4.8a1.27,1.27,0,0,1,.9-1.553l5.128-1.373a1.028,1.028,0,0,1,.787.107,1.04,1.04,0,0,1,.467.57s0,0,0,0c.007.02.013.039.019.06a1.04,1.04,0,0,1-.736,1.27l-3.311.887a1.071,1.071,0,0,0-.756,1.311l.841,3.14a1.07,1.07,0,0,0,1.033.792h.531a2.942,2.942,0,0,1,2.939,2.939,1.069,1.069,0,1,0,2.138,0,5.083,5.083,0,0,0-4.785-5.069l-.355-1.323,2.277-.61a3.155,3.155,0,0,0,1.088-.53,3.165,3.165,0,0,0,3.863.452,3.175,3.175,0,0,0,3.62,1.142v1.235a4.184,4.184,0,0,1-.547,2.128l-.759,1.381A6.323,6.323,0,0,0,40,66.622v8.769Q37.263,77.659,34.254,79.948ZM31.591,50.773V49.624a1.041,1.041,0,0,1,2.083,0v1.926a3.152,3.152,0,0,0-1.771-.039l-.31.083v-.821Zm8.441.856a1.043,1.043,0,0,1,2.086,0v4.084a1.043,1.043,0,1,1-2.086,0V51.63Zm-2.139,0v3.227a1.041,1.041,0,0,1-2.04.289,3.135,3.135,0,0,0-.043-1.314V50.772a1.041,1.041,0,1,1,2.083,0Zm-8.441.538-2.086.558V50.773a1.043,1.043,0,0,1,2.087,0v1.394ZM48.121,68.124V46.6a6.554,6.554,0,0,0-.837-3.276l-.792-1.439a4.447,4.447,0,0,1-.578-2.247V38.28a3.268,3.268,0,0,0,3.81-1.188,3.262,3.262,0,0,0,4.047-.47,3.278,3.278,0,0,0,1.15.57l2.419.649L56.95,39.3a5.261,5.261,0,0,0-4.987,5.245,1.069,1.069,0,1,0,2.138,0,3.118,3.118,0,0,1,3.117-3.113h.554a1.068,1.068,0,0,0,1.033-.793l.876-3.276a1.071,1.071,0,0,0-.756-1.31l-3.45-.926a1.136,1.136,0,0,1-.8-1.39.864.864,0,0,0,.033-.1,1.149,1.149,0,0,1,1.352-.7l1.686.451c.023.007.045.013.07.019l3.6.967a1.373,1.373,0,0,1,.969,1.678L61.041,41.06a4.357,4.357,0,0,1-.714,1.508l-.312.44a6.575,6.575,0,0,0-1.27,3.96v8.926A87.924,87.924,0,0,1,48.121,68.124Zm12.151-39.2a1.136,1.136,0,0,1,1.134,1.134v2.1l-2.268-.609V30.054a1.133,1.133,0,0,1,1.133-1.134ZM57,30.053v.918l-.388-.1a3.249,3.249,0,0,0-1.884.062V28.854a1.137,1.137,0,0,1,1.137-1.134A1.15,1.15,0,0,1,57,28.854Zm-4.409,3.065v.136a3.253,3.253,0,0,0-.041,1.361,1.133,1.133,0,0,1-1.093.835,1.15,1.15,0,0,1-1.134-1.134V30.053a1.134,1.134,0,0,1,2.269,0Zm-4.407,1.2v.895a1.134,1.134,0,0,1-2.269,0V30.948a1.15,1.15,0,0,1,1.134-1.134,1.136,1.136,0,0,1,1.134,1.134ZM61.22,52.078c-.11.186-.225.372-.338.558V46.966a4.453,4.453,0,0,1,.872-2.718l.31-.437a6.4,6.4,0,0,0,1.041-2.2L64.447,36.6a3.479,3.479,0,0,0-.353-2.665,3.525,3.525,0,0,0-.551-.721V30.054A3.27,3.27,0,0,0,58.681,27.2a3.272,3.272,0,0,0-5.639,0,3.266,3.266,0,0,0-4.265.978,3.271,3.271,0,0,0-5,2.776v8.687a6.58,6.58,0,0,0,.841,3.276l.792,1.441a4.433,4.433,0,0,1,.573,2.246V70.16q-1.84,1.708-3.841,3.426V66.623a4.2,4.2,0,0,1,.547-2.128l.757-1.379a6.3,6.3,0,0,0,.812-3.16V51.632a3.181,3.181,0,0,0-4.827-2.718,3.175,3.175,0,0,0-4.083-.94,3.179,3.179,0,0,0-5.43,0,3.181,3.181,0,0,0-4.689,2.8v3.011a3.414,3.414,0,0,0-.862,3.271l1.286,4.8a6.255,6.255,0,0,0,1,2.12l.3.425a4.228,4.228,0,0,1,.824,2.571v7.813q-2.773-2.326-5.26-4.63V46.6a4.428,4.428,0,0,1,.573-2.245l.793-1.443a6.562,6.562,0,0,0,.84-3.274V30.949a3.271,3.271,0,0,0-5-2.776,3.266,3.266,0,0,0-4.265-.978,3.269,3.269,0,0,0-5.635,0,3.273,3.273,0,0,0-4.865,2.859v3.165a3.521,3.521,0,0,0-.9,3.383L5.4,41.615A6.5,6.5,0,0,0,6.432,43.8l.317.448a4.457,4.457,0,0,1,.87,2.714v5.667c-.112-.185-.226-.371-.336-.555C2.882,44.66,1.262,37.746,2.6,32.085A14,14,0,0,1,14.048,21.337,16.441,16.441,0,0,1,17,21.074c5.282,0,11.677,2.421,16.365,9.347a1.07,1.07,0,0,0,1.771,0c5.6-8.282,13.652-10.123,19.316-9.083a14,14,0,0,1,11.45,10.746c1.338,5.663-.282,12.576-4.685,19.994Z" transform="translate(0)"/>
    </g>
  </g>
</svg>
