<svg xmlns="http://www.w3.org/2000/svg" xmlns:xlink="http://www.w3.org/1999/xlink" width="113" height="113" viewBox="0 0 113 113">
  <defs>
    <filter id="Trazado_982547" x="0" y="0" width="113" height="113" filterUnits="userSpaceOnUse">
      <feOffset dy="3" input="SourceAlpha"/>
      <feGaussianBlur stdDeviation="3" result="blur"/>
      <feFlood flood-opacity="0.161"/>
      <feComposite operator="in" in2="blur"/>
      <feComposite in="SourceGraphic"/>
    </filter>
  </defs>
  <g id="Grupo_1222702" data-name="Grupo 1222702" transform="translate(-6953.51 -2091.288)">
    <g id="Grupo_1222533" data-name="Grupo 1222533" transform="translate(6962.51 2097.288)">
      <g id="Grupo_1208010" data-name="Grupo 1208010" transform="translate(0 0)">
        <g id="Grupo_1202142" data-name="Grupo 1202142" transform="translate(0 0)">
          <g id="Grupo_1201923" data-name="Grupo 1201923">
            <g id="Grupo_1176928" data-name="Grupo 1176928" transform="translate(0)">
              <g id="Grupo_1172322" data-name="Grupo 1172322">
                <g id="Grupo_1164700" data-name="Grupo 1164700">
                  <g id="Grupo_1160931" data-name="Grupo 1160931">
                    <g id="Grupo_1160749" data-name="Grupo 1160749">
                      <g id="Grupo_1158891" data-name="Grupo 1158891">
                        <g id="Grupo_1157406" data-name="Grupo 1157406">
                          <g id="Grupo_1155793" data-name="Grupo 1155793">
                            <g id="Grupo_1154704" data-name="Grupo 1154704">
                              <g id="Grupo_1150790" data-name="Grupo 1150790">
                                <g id="Grupo_1154214" data-name="Grupo 1154214" transform="translate(0)">
                                  <g id="Grupo_1152583" data-name="Grupo 1152583">
                                    <g id="Grupo_1146973" data-name="Grupo 1146973">
                                      <g id="Grupo_1146954" data-name="Grupo 1146954">
                                        <g transform="matrix(1, 0, 0, 1, -9, -6)" filter="url(#Trazado_982547)">
                                          <g id="Trazado_982547-2" data-name="Trazado 982547" transform="translate(9 6)" fill="#f2f4f0">
                                            <path d="M 47.5 93.49984741210938 C 41.28938674926758 93.49984741210938 35.26533508300781 92.2838134765625 29.59519958496094 89.88556671142578 C 24.11773300170898 87.56878662109375 19.19814682006836 84.25181579589844 14.97310638427734 80.02677917480469 C 10.74805355072021 75.80173492431641 7.431079864501953 70.88216400146484 5.114306449890137 65.40470886230469 C 2.716039896011353 59.73457717895508 1.50001335144043 53.71053695678711 1.50001335144043 47.49992370605469 C 1.50001335144043 41.28931045532227 2.716039896011353 35.2652702331543 5.114306449890137 29.59513664245605 C 7.431079864501953 24.11768341064453 10.74805355072021 19.19811058044434 14.97310638427734 14.97307014465332 C 19.19814682006836 10.74803066253662 24.11773300170898 7.431056976318359 29.59519958496094 5.114283561706543 C 35.26533508300781 2.716030359268188 41.28938674926758 1.500003695487976 47.5 1.500003695487976 C 53.71062850952148 1.500003695487976 59.73466491699219 2.716030359268188 65.40481567382812 5.114283561706543 C 70.88227844238281 7.431056976318359 75.80186462402344 10.74803066253662 80.02690887451172 14.97307014465332 C 84.25196075439453 19.19811058044434 87.56893157958984 24.11768341064453 89.88570404052734 29.59513664245605 C 92.28397369384766 35.2652702331543 93.5 41.28931045532227 93.5 47.49992370605469 C 93.5 53.71053695678711 92.28397369384766 59.73457717895508 89.88570404052734 65.40470886230469 C 87.56893157958984 70.88216400146484 84.25196075439453 75.80173492431641 80.02690887451172 80.02677917480469 C 75.80186462402344 84.25181579589844 70.88227844238281 87.56878662109375 65.40481567382812 89.88556671142578 C 59.73466491699219 92.2838134765625 53.71062850952148 93.49984741210938 47.5 93.49984741210938 Z" stroke="none"/>
                                            <path d="M 47.5 3 C 41.49121475219727 3 35.66376876831055 4.176155090332031 30.17951965332031 6.495803833007812 C 24.88084411621094 8.7369384765625 20.12152099609375 11.94596862792969 16.03375244140625 16.03372192382812 C 11.94598388671875 20.12149047851562 8.736953735351562 24.88081359863281 6.495796203613281 30.17947387695312 C 4.176155090332031 35.6637077331543 3 41.49115371704102 3 47.49992370605469 C 3 53.50869369506836 4.176155090332031 59.33613967895508 6.495796203613281 64.82037353515625 C 8.736953735351562 70.11903381347656 11.94598388671875 74.87835693359375 16.03375244140625 78.96612548828125 C 20.12152099609375 83.05387878417969 24.88084411621094 86.26290893554688 30.17951965332031 88.50404357910156 C 35.66376876831055 90.82369232177734 41.49121475219727 91.99984741210938 47.5 91.99984741210938 C 53.50878524780273 91.99984741210938 59.33623123168945 90.82369232177734 64.82049560546875 88.50404357910156 C 70.11915588378906 86.26290893554688 74.87847900390625 83.05387878417969 78.96624755859375 78.96612548828125 C 83.05401611328125 74.87835693359375 86.26304626464844 70.11903381347656 88.50418090820312 64.82037353515625 C 90.82382965087891 59.33613967895508 91.99998474121094 53.50869369506836 91.99998474121094 47.49992370605469 C 91.99998474121094 41.49115371704102 90.82382965087891 35.6637077331543 88.50418090820312 30.17947387695312 C 86.26304626464844 24.88081359863281 83.05401611328125 20.12149047851562 78.96624755859375 16.03372192382812 C 74.87847900390625 11.94596862792969 70.11915588378906 8.7369384765625 64.82049560546875 6.495803833007812 C 59.33623123168945 4.176155090332031 53.50878524780273 3 47.5 3 M 47.5 0 C 73.7335205078125 0 94.99998474121094 21.26644897460938 94.99998474121094 47.49992370605469 C 94.99998474121094 73.7333984375 73.7335205078125 94.99984741210938 47.5 94.99984741210938 C 21.26649475097656 94.99984741210938 0 73.7333984375 0 47.49992370605469 C 0 21.26644897460938 21.26649475097656 0 47.5 0 Z" stroke="none" fill="#899e78"/>
                                          </g>
                                        </g>
                                      </g>
                                    </g>
                                  </g>
                                </g>
                              </g>
                            </g>
                          </g>
                        </g>
                      </g>
                    </g>
                  </g>
                </g>
              </g>
            </g>
          </g>
        </g>
      </g>
    </g>
    <g id="human-rights_17977531" transform="translate(6972.446 2098.706)">
      <path id="Trazado_1175875" data-name="Trazado 1175875" d="M363.384,302.551a10.887,10.887,0,1,1-21.774,0Z" transform="translate(-292.351 -250.109)" fill="#ffd987" fill-rule="evenodd"/>
      <circle id="Elipse_14656" data-name="Elipse 14656" cx="3.179" cy="3.179" r="3.179" transform="translate(56.327 45.548) rotate(-76.7)" fill="#ffcec0"/>
      <path id="Trazado_1175876" data-name="Trazado 1175876" d="M387.924,264.005a6.277,6.277,0,0,0-12.549,0Z" transform="translate(-321.504 -211.564)" fill="#85caff" fill-rule="evenodd"/>
      <path id="Trazado_1175877" data-name="Trazado 1175877" d="M32.779,302.551a10.887,10.887,0,1,1-21.774,0Z" transform="translate(-6.907 -250.109)" fill="#ffd987" fill-rule="evenodd"/>
      <circle id="Elipse_14657" data-name="Elipse 14657" cx="3.179" cy="3.179" r="3.179" transform="translate(10.484 43.162) rotate(-45)" fill="#ffcec0"/>
      <g id="Grupo_1222701" data-name="Grupo 1222701" transform="translate(3.005 12.871)">
        <path id="Trazado_1175878" data-name="Trazado 1175878" d="M57.319,264.005a6.277,6.277,0,0,0-12.549,0Z" transform="translate(-39.065 -224.435)" fill="#88f288" fill-rule="evenodd"/>
        <path id="Trazado_1175879" data-name="Trazado 1175879" d="M192.327,105.847l-.107,7.061h13.74l-.082-3.677a8.245,8.245,0,0,1,.934-4.1c2.133-4.194,4.405-5.146,5.1-10.539a9.245,9.245,0,0,0-.747-5.7,3.445,3.445,0,0,0-2.765-1.642V84.427a2.319,2.319,0,1,0-4.638,0V83.74a2.43,2.43,0,1,0-4.859,0v.552a2.289,2.289,0,1,0-4.578,0v1.021a2.071,2.071,0,0,0-4.142,0v3.824a2.055,2.055,0,0,0,.318,1.1h0c-1.709,13.9,1.9,11.074,1.829,15.61Z" transform="translate(-164.489 -71.961)" fill="#ffcec0" fill-rule="evenodd"/>
        <path id="Trazado_1175880" data-name="Trazado 1175880" d="M195.882,283.8a2.359,2.359,0,0,0-2.352,2.352v25.969H210.6V286.153a2.359,2.359,0,0,0-2.352-2.352Z" transform="translate(-167.504 -246.792)" fill="#85caff" fill-rule="evenodd"/>
        <path id="Trazado_1175881" data-name="Trazado 1175881" d="M45,77.109V52.233a1.261,1.261,0,0,0-1.258-1.259H31.384a1.262,1.262,0,0,0-1.265,1.259V77.109ZM72.124,52.6a1.233,1.233,0,0,0-.1-.62L61.852,29.931H65.81a1.093,1.093,0,1,0,0-2.185H52.743a1.093,1.093,0,1,0,0,2.185h5.69L48.265,51.984a1.069,1.069,0,0,0-.1.458,11.98,11.98,0,0,0,23.958.162ZM30.857,43.187c-.777-1.294-1.732-2.885-1.014-10.077a3.161,3.161,0,0,0,3.043-.733,3.377,3.377,0,0,0,4.426-.012,3.523,3.523,0,0,0,3.036,1.743h1.317a10.855,10.855,0,0,0-3.682,6.514,1.094,1.094,0,0,0,2.16.35c.514-3.17,2.384-4.749,3.879-6.017l.382-.322a1.56,1.56,0,0,0,.652-1.791c-.151-.42-.566-.919-1.66-.919H40.348a1.342,1.342,0,0,1,0-2.684h5.881a2.634,2.634,0,0,1,2.5,1.145,8.287,8.287,0,0,1,.606,5.014,12.589,12.589,0,0,1-2.753,6.611,27.455,27.455,0,0,0-2.246,3.6,9.36,9.36,0,0,0-.988,3.184H31.858l.033-1.957a5.951,5.951,0,0,0-1.034-3.643Zm-1.12-13.121a.981.981,0,1,0,1.963,0V26.233a.981.981,0,1,0-1.963,0Zm4.149-3.832V29.81a1.2,1.2,0,1,0,2.4,0v-4.6a1.2,1.2,0,1,0-2.4,0Zm4.59-1.577v2.937a3.492,3.492,0,0,1,1.87-.541h.817v-2.4a1.344,1.344,0,0,0-2.687,0Zm4.874.689v1.707h2.457V25.344a1.228,1.228,0,1,0-2.457,0ZM56.24,78.2a1.092,1.092,0,0,1-1.093,1.093H19.977a1.093,1.093,0,1,1,0-2.185H27.94V52.232a3.438,3.438,0,0,1,1.726-2.985L29.7,46.8a3.866,3.866,0,0,0-.718-2.484c-1-1.664-2.246-3.734-1.153-12.936a3.223,3.223,0,0,1-.283-1.312V26.233a3.168,3.168,0,0,1,4.656-2.8,3.378,3.378,0,0,1,4.854-.977,3.526,3.526,0,0,1,5.579.076,3.379,3.379,0,0,1,1.936-.607,3.422,3.422,0,0,1,3.418,3.417v1.94a4.356,4.356,0,0,1,2.621,1.983,10.268,10.268,0,0,1,.889,6.407,14.68,14.68,0,0,1-3.135,7.592,25.411,25.411,0,0,0-2.081,3.327,7.062,7.062,0,0,0-.784,2.678,3.448,3.448,0,0,1,1.686,2.961V77.109h7.956A1.091,1.091,0,0,1,56.24,78.2ZM24.713,53.535H5.251a9.792,9.792,0,0,0,19.462,0Zm-.553-2.186-9.174-19.9L5.8,51.349H7.727a7.441,7.441,0,0,1,4.057-5.354,4.271,4.271,0,1,1,6.4,0,7.463,7.463,0,0,1,4.064,5.354h1.917Zm-14.2,0H20a5.179,5.179,0,0,0-10.044,0Zm5.025-6.1a2.087,2.087,0,1,1,2.081-2.086A2.089,2.089,0,0,1,14.985,45.251Zm0,19.171a11.994,11.994,0,0,0,11.98-11.98,1.072,1.072,0,0,0-.105-.458L16.691,29.931h8.628a1.093,1.093,0,0,0,0-2.185h-16a1.093,1.093,0,1,0,0,2.185h3.958L3.1,51.984a1.066,1.066,0,0,0-.1.458,11.994,11.994,0,0,0,11.98,11.98Zm54.9-10.887a9.8,9.8,0,0,1-19.468,0Zm-.56-2.186H67.4A7.463,7.463,0,0,0,63.34,46a4.271,4.271,0,0,0-3.194-7.1,4.271,4.271,0,0,0-3.2,7.1,7.457,7.457,0,0,0-4.057,5.354H50.965l9.181-19.9Zm-14.2,0a5.179,5.179,0,0,1,10.044,0H55.121Zm5.025-6.1a2.087,2.087,0,1,1,2.088-2.086A2.089,2.089,0,0,1,60.146,45.251ZM22.328,21.82l2.608,1.669a1.094,1.094,0,1,0,1.179-1.842L23.5,19.978a1.092,1.092,0,1,0-1.172,1.842Zm22.287-2.843A1.093,1.093,0,0,0,46.15,18.8l1.719-2.174a1.093,1.093,0,1,0-1.712-1.357l-1.719,2.174a1.092,1.092,0,0,0,.178,1.536Zm6.118,4.683a1.1,1.1,0,0,0,.593-.172l2.608-1.669a1.092,1.092,0,1,0-1.172-1.842l-2.615,1.668a1.092,1.092,0,0,0,.586,2.014ZM30.113,18.8a1.1,1.1,0,0,0,.863.414,1.068,1.068,0,0,0,.672-.236,1.092,1.092,0,0,0,.178-1.536l-1.719-2.174a1.093,1.093,0,1,0-1.712,1.357L30.113,18.8Zm6.929-2.324V13.964a1.093,1.093,0,0,1,2.187,0v2.511a1.093,1.093,0,0,1-2.187,0Z" transform="translate(-3.005 -12.871)" fill-rule="evenodd"/>
      </g>
    </g>
  </g>
</svg>
