<svg xmlns="http://www.w3.org/2000/svg" xmlns:xlink="http://www.w3.org/1999/xlink" width="113" height="113" viewBox="0 0 113 113">
  <defs>
    <filter id="Trazado_982547" x="0" y="0" width="113" height="113" filterUnits="userSpaceOnUse">
      <feOffset dy="3" input="SourceAlpha"/>
      <feGaussianBlur stdDeviation="3" result="blur"/>
      <feFlood flood-opacity="0.161"/>
      <feComposite operator="in" in2="blur"/>
      <feComposite in="SourceGraphic"/>
    </filter>
  </defs>
  <g id="Grupo_1222530" data-name="Grupo 1222530" transform="translate(9 6)">
    <g id="Grupo_1208010" data-name="Grupo 1208010" transform="translate(0 0)">
      <g id="Grupo_1202142" data-name="Grupo 1202142" transform="translate(0 0)">
        <g id="Grupo_1201923" data-name="Grupo 1201923">
          <g id="Grupo_1176928" data-name="Grupo 1176928" transform="translate(0)">
            <g id="Grupo_1172322" data-name="Grupo 1172322">
              <g id="Grupo_1164700" data-name="Grupo 1164700">
                <g id="Grupo_1160931" data-name="Grupo 1160931">
                  <g id="Grupo_1160749" data-name="Grupo 1160749">
                    <g id="Grupo_1158891" data-name="Grupo 1158891">
                      <g id="Grupo_1157406" data-name="Grupo 1157406">
                        <g id="Grupo_1155793" data-name="Grupo 1155793">
                          <g id="Grupo_1154704" data-name="Grupo 1154704">
                            <g id="Grupo_1150790" data-name="Grupo 1150790">
                              <g id="Grupo_1154214" data-name="Grupo 1154214" transform="translate(0)">
                                <g id="Grupo_1152583" data-name="Grupo 1152583">
                                  <g id="Grupo_1146973" data-name="Grupo 1146973">
                                    <g id="Grupo_1146954" data-name="Grupo 1146954">
                                      <g transform="matrix(1, 0, 0, 1, -9, -6)" filter="url(#Trazado_982547)">
                                        <g id="Trazado_982547-2" data-name="Trazado 982547" transform="translate(9 6)" fill="#f2f4f0">
                                          <path d="M 47.5 93.49984741210938 C 41.28938674926758 93.49984741210938 35.26533508300781 92.2838134765625 29.59519958496094 89.88556671142578 C 24.11773300170898 87.56878662109375 19.19814682006836 84.25181579589844 14.97310638427734 80.02677917480469 C 10.74805355072021 75.80173492431641 7.431079864501953 70.88216400146484 5.114306449890137 65.40470886230469 C 2.716039896011353 59.73457717895508 1.50001335144043 53.71053695678711 1.50001335144043 47.49992370605469 C 1.50001335144043 41.28931045532227 2.716039896011353 35.2652702331543 5.114306449890137 29.59513664245605 C 7.431079864501953 24.11768341064453 10.74805355072021 19.19811058044434 14.97310638427734 14.97307014465332 C 19.19814682006836 10.74803066253662 24.11773300170898 7.431056976318359 29.59519958496094 5.114283561706543 C 35.26533508300781 2.716030359268188 41.28938674926758 1.500003695487976 47.5 1.500003695487976 C 53.71062850952148 1.500003695487976 59.73466491699219 2.716030359268188 65.40481567382812 5.114283561706543 C 70.88227844238281 7.431056976318359 75.80186462402344 10.74803066253662 80.02690887451172 14.97307014465332 C 84.25196075439453 19.19811058044434 87.56893157958984 24.11768341064453 89.88570404052734 29.59513664245605 C 92.28397369384766 35.2652702331543 93.5 41.28931045532227 93.5 47.49992370605469 C 93.5 53.71053695678711 92.28397369384766 59.73457717895508 89.88570404052734 65.40470886230469 C 87.56893157958984 70.88216400146484 84.25196075439453 75.80173492431641 80.02690887451172 80.02677917480469 C 75.80186462402344 84.25181579589844 70.88227844238281 87.56878662109375 65.40481567382812 89.88556671142578 C 59.73466491699219 92.2838134765625 53.71062850952148 93.49984741210938 47.5 93.49984741210938 Z" stroke="none"/>
                                          <path d="M 47.5 3 C 41.49121475219727 3 35.66376876831055 4.176155090332031 30.17951965332031 6.495803833007812 C 24.88084411621094 8.7369384765625 20.12152099609375 11.94596862792969 16.03375244140625 16.03372192382812 C 11.94598388671875 20.12149047851562 8.736953735351562 24.88081359863281 6.495796203613281 30.17947387695312 C 4.176155090332031 35.6637077331543 3 41.49115371704102 3 47.49992370605469 C 3 53.50869369506836 4.176155090332031 59.33613967895508 6.495796203613281 64.82037353515625 C 8.736953735351562 70.11903381347656 11.94598388671875 74.87835693359375 16.03375244140625 78.96612548828125 C 20.12152099609375 83.05387878417969 24.88084411621094 86.26290893554688 30.17951965332031 88.50404357910156 C 35.66376876831055 90.82369232177734 41.49121475219727 91.99984741210938 47.5 91.99984741210938 C 53.50878524780273 91.99984741210938 59.33623123168945 90.82369232177734 64.82049560546875 88.50404357910156 C 70.11915588378906 86.26290893554688 74.87847900390625 83.05387878417969 78.96624755859375 78.96612548828125 C 83.05401611328125 74.87835693359375 86.26304626464844 70.11903381347656 88.50418090820312 64.82037353515625 C 90.82382965087891 59.33613967895508 91.99998474121094 53.50869369506836 91.99998474121094 47.49992370605469 C 91.99998474121094 41.49115371704102 90.82382965087891 35.6637077331543 88.50418090820312 30.17947387695312 C 86.26304626464844 24.88081359863281 83.05401611328125 20.12149047851562 78.96624755859375 16.03372192382812 C 74.87847900390625 11.94596862792969 70.11915588378906 8.7369384765625 64.82049560546875 6.495803833007812 C 59.33623123168945 4.176155090332031 53.50878524780273 3 47.5 3 M 47.5 0 C 73.7335205078125 0 94.99998474121094 21.26644897460938 94.99998474121094 47.49992370605469 C 94.99998474121094 73.7333984375 73.7335205078125 94.99984741210938 47.5 94.99984741210938 C 21.26649475097656 94.99984741210938 0 73.7333984375 0 47.49992370605469 C 0 21.26644897460938 21.26649475097656 0 47.5 0 Z" stroke="none" fill="#899e78"/>
                                        </g>
                                      </g>
                                    </g>
                                  </g>
                                </g>
                              </g>
                            </g>
                          </g>
                        </g>
                      </g>
                    </g>
                  </g>
                </g>
              </g>
            </g>
          </g>
        </g>
      </g>
    </g>
    <g id="blindfold_6333063_1_" data-name="blindfold_6333063 (1)" transform="translate(14.147 13.554)">
      <g id="Grupo_1222685" data-name="Grupo 1222685" transform="translate(0.976 1.662)">
        <path id="Trazado_1175797" data-name="Trazado 1175797" d="M239.238,191.93a4.206,4.206,0,1,0-7.45,1.239,4.206,4.206,0,1,0,7.45-1.239Z" transform="translate(-201.881 -163.284)" fill="#a65d4e"/>
        <path id="Trazado_1175798" data-name="Trazado 1175798" d="M111.017,143.743c-1.632-.742-3.375-2.127-3.375-4.089a3.155,3.155,0,0,1,3.375-3.028h18.567a3.044,3.044,0,0,1,3.244,3.028c0,1.962-1.612,3.347-3.244,4.089Z" transform="translate(-94.592 -119.892)" fill="#d09180"/>
        <path id="Trazado_1175799" data-name="Trazado 1175799" d="M387.392,8.26a5.436,5.436,0,0,0-4.411,1.072,3.909,3.909,0,0,0-.568,4.807C387.4,16.478,389.656,10.524,387.392,8.26Z" transform="translate(-333.064 -8.187)" fill="#ebae9d"/>
        <path id="Trazado_1175800" data-name="Trazado 1175800" d="M80.212,135.661H76.3a36.222,36.222,0,0,1-3.291,7.237,5.4,5.4,0,0,1-1.263,1.177s-.441,2.844-4.462,2.844c-1.342.782-2.732,1.554-3.952,2.218l-4.656,4.107H46.954l-5.91,1.706a15.37,15.37,0,0,0-5.173,2.634c-2.369,1.842-5.232,6.117-7.316,9.887l18.284,7.817L64.413,158.9c2.081-1.664,11.283-8.85,13.167-12.72a38.739,38.739,0,0,0,2.632-10.515Z" transform="translate(-25.809 -119.053)" fill="#ebae9d"/>
        <path id="Trazado_1175801" data-name="Trazado 1175801" d="M82.557,9.82a4.341,4.341,0,0,0-2.419-1.072,4.267,4.267,0,0,1-4.979,5.878,3.907,3.907,0,0,0,3.332,1.866A54.884,54.884,0,0,1,76.3,25.283l2.54,1.383A48.28,48.28,0,0,1,76.891,33.7H71.75a50.859,50.859,0,0,1-4.462,2.844,8.113,8.113,0,0,0,6.1,2.1,92.943,92.943,0,0,1-8.97,8.059L62.59,41.082a7.036,7.036,0,0,0,.746-2.323c-2.086,1.135-3.677,1.952-3.677,1.952l-4.226-2.375-7.833.435V42.68l-.646.186c.2.209.408.4.611.573a10.9,10.9,0,0,0,6.557,2.878,7.56,7.56,0,0,0,2.467-.463V57.749L38.566,54.87a14.355,14.355,0,0,1,.872-1.68.977.977,0,1,0-1.674-1.008A12.129,12.129,0,0,0,35.625,59.1l-7.07-2V64.91H61.17l4.138-15.572S76.689,40.706,79.143,35.8c2.29-4.579,5.652-23.739,3.413-25.978Z" transform="translate(-25.809 -8.675)" fill="#d09180"/>
        <path id="Trazado_1175802" data-name="Trazado 1175802" d="M110.51,368.219v-5.46H99.577a9.4,9.4,0,0,0-.824,4.826l2.236,1.937Z" transform="translate(-86.82 -316.564)" fill="#bed9fd"/>
        <path id="Trazado_1175803" data-name="Trazado 1175803" d="M99.071,399.8a10.515,10.515,0,0,0,.933,3.24l1.694.528,9.129-2.079v-1.055h-7.2A16.725,16.725,0,0,1,99.071,399.8Z" transform="translate(-87.138 -348.78)" fill="#9ec8fc"/>
        <path id="Trazado_1175804" data-name="Trazado 1175804" d="M164.384,285.148l-.939-8.1-4.375,2.61c-1.35,3.968-4.232,8.838-10.1,14.018l11.281,1.3A29.674,29.674,0,0,0,164.384,285.148Z" transform="translate(-130.534 -242.016)" fill="#faf8f8"/>
        <path id="Trazado_1175805" data-name="Trazado 1175805" d="M230.382,249.042l1.434,4.416v-11.1a2.68,2.68,0,0,0-2.515-1.756,2.591,2.591,0,0,0-1.6.81l-.106.309a19.388,19.388,0,0,1-1.089,6.238,7.209,7.209,0,0,0,1.58-.252A1.886,1.886,0,0,1,230.382,249.042Z" transform="translate(-197.967 -210.326)" fill="#e1dee2"/>
        <path id="Trazado_1175806" data-name="Trazado 1175806" d="M134.393,404.665H123.112q-1.464,1.291-3.181,2.606l-.692.528,9.6,2.994,5.55-4.825Z" transform="translate(-104.679 -353.01)" fill="#e1dee2"/>
        <path id="Trazado_1175807" data-name="Trazado 1175807" d="M235.065,329.763l-5.011-12.719a38.613,38.613,0,0,1-4.5,11.416Z" transform="translate(-197.143 -276.805)" fill="#bed9fd"/>
        <path id="Trazado_1175808" data-name="Trazado 1175808" d="M19.2,388.875a9.59,9.59,0,0,0,7.005,2.606,2.117,2.117,0,0,0,2.259-2.259l-1.3-3.53c-.3-.023-.625-.032-.956-.032H20.347l-10.12-5.843a41,41,0,0,0-2.515,5.259,3.779,3.779,0,0,0-.181,1.91,4.49,4.49,0,0,0,3.752,1.888Z" transform="translate(-7.48 -331.399)" fill="#ebae9d"/>
        <path id="Trazado_1175809" data-name="Trazado 1175809" d="M27.5,424.909v3.53c0,.577-.181.956-.956.956a9.589,9.589,0,0,1-7.005-2.606H11.614a11.9,11.9,0,0,1-3.752-.585,3.8,3.8,0,0,0,3.752,3.191h7.922a8.553,8.553,0,0,0,7.005,3.908c2.165,0,3.562-.292,3.562-2.259v-3.909C30.1,425.5,29,425.023,27.5,424.909Z" transform="translate(-7.812 -370.616)" fill="#d09180"/>
        <path id="Trazado_1175810" data-name="Trazado 1175810" d="M326.88,192.387a1.03,1.03,0,0,0,0-1.177H320.24a1.111,1.111,0,0,0-.633,1.965C322.3,194.809,324.583,194.385,326.88,192.387Z" transform="translate(-278.598 -167.365)" fill="#ffd064"/>
        <path id="Trazado_1175811" data-name="Trazado 1175811" d="M330.589,191.21h-1.074a1.13,1.13,0,0,1-.377.662c-2.3,2-4.588,2.386-6.9,1.3,2.979,2.592,6,2.592,8.982,0A1.111,1.111,0,0,0,330.589,191.21Z" transform="translate(-281.233 -167.365)" fill="#ebb044"/>
        <path id="Trazado_1175812" data-name="Trazado 1175812" d="M437.122,252.387a1.029,1.029,0,0,0,0-1.177h-6.641a1.111,1.111,0,0,0-.633,1.965C432.543,254.809,434.825,254.385,437.122,252.387Z" transform="translate(-374.477 -219.548)" fill="#ffd064"/>
        <path id="Trazado_1175813" data-name="Trazado 1175813" d="M440.831,251.21h-1.074a1.13,1.13,0,0,1-.377.662c-2.3,2-4.588,2.386-6.9,1.3,2.979,2.592,6,2.592,8.982,0A1.111,1.111,0,0,0,440.831,251.21Z" transform="translate(-377.112 -219.548)" fill="#ebb044"/>
        <path id="Trazado_1175814" data-name="Trazado 1175814" d="M150.806,78.57V72.215c0-4.3-1.662-8.223-4.507-10.229a19.743,19.743,0,0,0-3.473-.3c-6.351,0-9.283,2.721-9.283,2.721v7.8l.709.3s-.709,1.209-.709,4.843v1.21a7.389,7.389,0,0,0,2.727,5.7,10.9,10.9,0,0,0,6.557,2.878,10.479,10.479,0,0,0,5.544-2.878A7.728,7.728,0,0,0,150.806,78.57Z" transform="translate(-117.118 -54.719)" fill="#ebae9d"/>
        <path id="Trazado_1175815" data-name="Trazado 1175815" d="M214.081,66.392a12.1,12.1,0,0,0-5.81-2.424,19.342,19.342,0,0,1,3.2,10.229v6.354a7.728,7.728,0,0,1-2.436,5.7,14.681,14.681,0,0,1-4.241,2.878,10.9,10.9,0,0,0,6.557-2.878,7.389,7.389,0,0,0,2.727-5.7v-1.21c0-3.634-.709-4.843-.709-4.843l.709-.3Z" transform="translate(-179.091 -56.701)" fill="#d09180"/>
        <path id="Trazado_1175816" data-name="Trazado 1175816" d="M142.826,112.741a35.5,35.5,0,0,1,7.981.762s0-3.513-1.689-4.884a16.763,16.763,0,0,0-6.292-1c-6.253,0-9.283,2.013-9.283,4.541v1.543C135.183,112.963,137.582,112.741,142.826,112.741Z" transform="translate(-117.119 -94.666)" fill="#bed9fd"/>
        <path id="Trazado_1175817" data-name="Trazado 1175817" d="M152.109,118.825c0-1.441-.987-2.714-2.992-3.543a16.994,16.994,0,0,1,.333,2.233.977.977,0,0,1-1.153,1.039,30.414,30.414,0,0,0-5.472-.452c-5.244,0-8.3.945-9.283,2.267v3.6c0-1.817,3.031-3.263,9.283-3.263s9.283,1.446,9.283,3.263Z" transform="translate(-117.118 -101.329)" fill="#9ec8fc"/>
        <path id="Trazado_1175818" data-name="Trazado 1175818" d="M235.038,45.006a3.665,3.665,0,0,0-2-3.43c.448,1.314.307,2.7-.522,3.19s-2.486-.092-3.921-1.345l-.134,2.245c1.315,1.827,4.448,2.068,4.448,2.068,1.243,1.311,1.753,5.067,1.753,6.988C234.661,54.722,239.37,48.992,235.038,45.006Z" transform="translate(-199.67 -37.226)" fill="#a65d4e"/>
        <path id="Trazado_1175819" data-name="Trazado 1175819" d="M233.41,40.785c.828-.493.969-1.875.522-3.19a5.443,5.443,0,0,0-4.316-.273l-.126,2.118C230.924,40.694,232.58,41.28,233.41,40.785Z" transform="translate(-200.565 -33.246)" fill="#b46e5a"/>
        <path id="Trazado_1175820" data-name="Trazado 1175820" d="M124.807,35.465c1.626,1.285,4.977,1.228,5.959,0a3.783,3.783,0,0,0,.653-3.217,4.337,4.337,0,0,0-3.343-1.083c-2.208,0-5.018,1.723-8.471,1.723a3.8,3.8,0,0,0-1.19,3.063c-4.332,3.986.377,9.716.377,9.716,0-1.921.509-5.677,1.753-6.988C120.545,38.679,123.669,37.747,124.807,35.465Z" transform="translate(-102.369 -28.171)" fill="#b46e5a"/>
        <path id="Trazado_1175821" data-name="Trazado 1175821" d="M148.959,39.479a3.92,3.92,0,0,1-1.3,2.249,4.436,4.436,0,0,1-4.744-.08.976.976,0,0,0-1.366.265,4.386,4.386,0,0,1-3.839,1.9c-1.373.144-1.283,2.2.379,2.1,0,0,3.133-.241,4.448-2.068,1.176,1.176,5.007,1.158,6.166,0A3.6,3.6,0,0,0,148.959,39.479Z" transform="translate(-119.908 -35.402)" fill="#a65d4e"/>
        <path id="Trazado_1175822" data-name="Trazado 1175822" d="M210.607,278.594l-7.962-24.511a38.537,38.537,0,0,1-.939,8.2L205,272.423a.977.977,0,0,1-.929,1.278h-6.862c-.521.873-1.087,1.743-1.709,2.606l-2.538,3.522,3.193,1Z" transform="translate(-168.795 -222.047)" fill="#9ec8fc"/>
        <path id="Trazado_1175823" data-name="Trazado 1175823" d="M215.279,432.543c-2.824-2.234-5.94-3.2-10.339-3.2H179.791a29.813,29.813,0,0,0-.245,3.909l25.393,1.954,10.709-1.954A.9.9,0,0,0,215.279,432.543Z" transform="translate(-157.128 -374.471)" fill="#faf8f8"/>
        <path id="Trazado_1175824" data-name="Trazado 1175824" d="M212.794,459.341H179.546c0,.657.02,1.313.059,1.954,0,0,21.094,1.3,25.335,1.3A10.938,10.938,0,0,0,212.794,459.341Z" transform="translate(-157.128 -400.563)" fill="#e1dee2"/>
        <path id="Trazado_1175825" data-name="Trazado 1175825" d="M213.186,459.341a14.133,14.133,0,0,1-7.854,1.954H180c.041.674.1,1.332.187,1.954h25.148c4.4,0,7.515-.968,10.339-3.2a.9.9,0,0,0,.37-.707Z" transform="translate(-157.521 -400.563)" fill="#c5bec6"/>
      </g>
      <g id="Grupo_1222686" data-name="Grupo 1222686" transform="translate(0.002 0.685)">
        <path id="Trazado_1175826" data-name="Trazado 1175826" d="M66.564,33.664a2.016,2.016,0,0,0-1.072-1.149L61.783,18.6a.977.977,0,0,0-.477-.607l-2.842-1.547q.113-.688.218-1.382a62.565,62.565,0,0,0,.752-7.881c.031-1.854-.057-4.105-1.019-5.067A5.811,5.811,0,0,0,54.308.685,5.811,5.811,0,0,0,50.2,2.116a4.887,4.887,0,0,0,2.478,8.243V13.3l-5.737-3.123a.977.977,0,0,0-1.411.607L41.822,24.7a2.016,2.016,0,0,0-1.072,1.149,2.119,2.119,0,0,0,.593,2.362c.2.173.4.334.6.487-.848.494-1.718.986-2.552,1.448l-.007-.012a5.178,5.178,0,0,0-1.4-4.677,5.044,5.044,0,0,0,2.205-4.031A3.819,3.819,0,0,0,37.95,17.87a11.687,11.687,0,0,0,.758-1.77,6.6,6.6,0,0,0-1.4-7.086,4.548,4.548,0,0,0-2.06-3.6,6.436,6.436,0,0,0-4.979-.779,6.149,6.149,0,0,0-3.583-.954,8.575,8.575,0,0,0-2.276.37.977.977,0,1,0,.516,1.885,6.787,6.787,0,0,1,1.76-.3,3.57,3.57,0,0,1,2.575.71,2.632,2.632,0,0,1-.184,3.068c-.782.782-4,.782-4.784,0a.977.977,0,0,0-1.484.12c-.855,1.187-2.984,1.6-3.73,1.665a.977.977,0,0,0-.634.3,9.214,9.214,0,0,0-1.734,4.524c-.069-.172-.135-.349-.2-.532a4.7,4.7,0,0,1,1.17-5.328A.977.977,0,0,0,18,9.442a3.032,3.032,0,0,1,.621-2.093,13.476,13.476,0,0,0,2.258-.282.977.977,0,0,0-.395-1.914,11.171,11.171,0,0,1-2.272.249.977.977,0,0,0-.642.24,4.562,4.562,0,0,0-1.514,3.376,6.6,6.6,0,0,0-1.4,7.082,11.657,11.657,0,0,0,.747,1.749,4.339,4.339,0,0,0-.923.562,3.788,3.788,0,0,0-1.435,3.012c0,1.858,1.214,3.539,3.354,4.685a4.916,4.916,0,0,1-.8,2.445,4.6,4.6,0,0,0-.788,2.52A4.025,4.025,0,0,0,16.5,34.124a.977.977,0,1,0,1.258-1.5,2.351,2.351,0,0,1-.983-1.555,2.739,2.739,0,0,1,.523-1.539l.094-.163a8.89,8.89,0,0,0,2.106,2.588,15.568,15.568,0,0,0,2.3,1.624v1.349L15.94,36.62a16.425,16.425,0,0,0-2.12.774.977.977,0,1,0,.8,1.785,14.449,14.449,0,0,1,1.867-.682l6.556-1.893a.977.977,0,0,0,.706-.939V34.5a8.649,8.649,0,0,0,2.939.568,8.6,8.6,0,0,0,2.875-.545c-.4,4.63-2.634,8.834-5.391,12.356H15.326c.039-.066.076-.132.116-.2a.977.977,0,1,0-1.674-1.008,15.126,15.126,0,0,0-.908,1.748.953.953,0,0,0-.052.125,10.225,10.225,0,0,0-.7,6.243L5.048,49.717c.332-.58.675-1.159,1.023-1.723a28.447,28.447,0,0,1,5.567-7.03.977.977,0,1,0-1.2-1.543C6.556,42.441,1.66,51.227.289,55.005a4.778,4.778,0,0,0,4.489,6.412h7.4a9.4,9.4,0,0,0,7.522,3.909,6.893,6.893,0,0,0,3.015-.494c.088.578.194,1.128.319,1.633a.977.977,0,1,0,1.9-.47c-.053-.214-.1-.438-.147-.669H35.832a.977.977,0,0,0,0-1.954H24.507c-.063-.631-.1-1.288-.124-1.954h28.7a.977.977,0,0,0,0-1.954h-28.7c.02-.666.062-1.323.124-1.954H48.787c4.131,0,7.026.878,9.657,2.931-2.63,2.054-5.525,2.931-9.657,2.931H39.74a.977.977,0,0,0,0,1.954h9.047c4.586,0,7.961-1.053,10.945-3.413a1.834,1.834,0,0,0,0-2.946c-2.984-2.36-6.36-3.413-10.945-3.413H42.953l-2.741-8.437L41.334,42.9c.787-.608,3.2-2.494,5.784-4.768,4.278-3.762,6.992-6.759,8.067-8.907.933-1.867,2.052-6.032,2.925-10.745l1.587.864L56.186,32.515a2.016,2.016,0,0,0-1.072,1.149,2.119,2.119,0,0,0,.593,2.362,7.841,7.841,0,0,0,5.132,2.19,7.84,7.84,0,0,0,5.132-2.19,2.118,2.118,0,0,0,.593-2.362ZM54.634,9.479a.977.977,0,0,0-.977-.977,2.931,2.931,0,0,1-2.073-5,4.751,4.751,0,0,1,5.448,0c.34.354.951,3.075-.288,11.309q-.049.324-.1.648l-2.01-1.094Zm-8.159,5.348,2.586,9.7H43.89ZM50.384,26.6a.158.158,0,0,1-.059.138c-2.627,2.285-5.073,2.285-7.7,0a.158.158,0,0,1-.059-.138.131.131,0,0,1,.051-.112h7.724A.173.173,0,0,1,50.384,26.6ZM35.21,32.4a3.681,3.681,0,0,0-.9-.832,8.415,8.415,0,0,0,2.49-4.51,3.221,3.221,0,0,1,.6,2.973.977.977,0,0,0,.142.849c.048.067.093.137.136.208C36.668,31.628,35.8,32.087,35.21,32.4ZM26.684,20.063c-4.323,0-6.845.646-8.306,1.465V19.161h0c0-2.165,3.26-3.564,8.306-3.564s8.306,1.4,8.306,3.564v2.369c-1.461-.819-3.984-1.465-8.306-1.465ZM36.944,23.78V19.543a1.985,1.985,0,0,1,1.29,1.881A3.076,3.076,0,0,1,36.944,23.78ZM34.163,7.039a2.707,2.707,0,0,1,1.2,2.4.977.977,0,0,0,.316.719c2,1.836,1.681,4.153.979,5.885A9.251,9.251,0,0,0,34.923,11.5a.982.982,0,0,0-.632-.3A6.756,6.756,0,0,1,31.04,10.03a4.764,4.764,0,0,0,.388-3.622,4.412,4.412,0,0,1,2.735.63Zm-14.5,6.054a8.218,8.218,0,0,0,4.1-1.717,7.634,7.634,0,0,0,5.848,0,8.219,8.219,0,0,0,4.1,1.719,7.078,7.078,0,0,1,.828,2.216c-.13-.08-.263-.158-.4-.232a16.081,16.081,0,0,0-7.446-1.437,16.08,16.08,0,0,0-7.445,1.437c-.139.074-.272.152-.4.232a7.078,7.078,0,0,1,.828-2.216ZM15,21.424a1.944,1.944,0,0,1,1.42-1.88V23.8A3.135,3.135,0,0,1,15,21.424Zm5.756,9.046a6.408,6.408,0,0,1-2.382-4.957V24.3c0-.477.624-1,1.669-1.4a17.436,17.436,0,0,1,5.66-.873v.819a.977.977,0,0,0,1.954,0v-.818c5.317.142,7.329,1.438,7.329,2.272v1.21a6.408,6.408,0,0,1-2.382,4.957,9.965,9.965,0,0,1-5.924,2.646,9.965,9.965,0,0,1-5.924-2.646Zm1.769,18.365A50.122,50.122,0,0,1,15.9,54.946H14.489a8.039,8.039,0,0,1-.1-6.111ZM22.29,62.09c0,.842-.115,1.282-2.585,1.282a7.5,7.5,0,0,1-6.163-3.428.977.977,0,0,0-.842-.481H4.778a2.824,2.824,0,0,1-2.652-3.791A36.224,36.224,0,0,1,4.1,51.428l9.251,5.341a.978.978,0,0,0,.489.131H19.7c2.4,0,2.585.507,2.585,1.282V62.09Zm2.5-6.535c.046-.231.094-.455.147-.669a.977.977,0,0,0-1.9-.47c-.087.35-.164.723-.233,1.11a6.577,6.577,0,0,0-3.1-.58h-.691a46.292,46.292,0,0,0,6.4-6.465l0,0a32.344,32.344,0,0,0,3.5-5.321,22.339,22.339,0,0,0,2.65-9.567q.513-.3,1.02-.645a1.711,1.711,0,0,1,1.259.948,38.583,38.583,0,0,1-4.973,18.372.977.977,0,1,0,1.7.972,40.306,40.306,0,0,0,4.868-14.487L40.9,55.555H24.788ZM53.436,28.348c-.947,1.894-3.575,4.766-7.6,8.306-3.09,2.718-5.924,4.871-5.952,4.893a.977.977,0,0,0-.354.528l-.43,1.62-3.089-9.51c1.48-.775,4.92-2.6,7.845-4.347a6.568,6.568,0,0,0,2.62.564,7.841,7.841,0,0,0,5.132-2.19,2.119,2.119,0,0,0,.593-2.362A2.016,2.016,0,0,0,51.128,24.7l-.469-1.76A42.883,42.883,0,0,0,52.4,18.585a.977.977,0,0,0-1.85-.628q-.336.99-.7,1.921l-1.839-6.9L53.188,15.8l.007,0L56.3,17.494c-.85,4.754-1.978,9.08-2.865,10.855Zm9.988,4H58.253l2.586-9.7Zm1.264,2.2c-2.626,2.285-5.073,2.285-7.7,0a.158.158,0,0,1-.059-.138.131.131,0,0,1,.051-.112H64.7a.172.172,0,0,1,.042.113.158.158,0,0,1-.059.138Z" transform="translate(-0.002 -0.685)"/>
      </g>
    </g>
  </g>
</svg>
