<svg xmlns="http://www.w3.org/2000/svg" xmlns:xlink="http://www.w3.org/1999/xlink" width="113" height="113" viewBox="0 0 113 113">
  <defs>
    <filter id="Trazado_982547" x="0" y="0" width="113" height="113" filterUnits="userSpaceOnUse">
      <feOffset dy="3" input="SourceAlpha"/>
      <feGaussianBlur stdDeviation="3" result="blur"/>
      <feFlood flood-opacity="0.161"/>
      <feComposite operator="in" in2="blur"/>
      <feComposite in="SourceGraphic"/>
    </filter>
    <clipPath id="clip-path">
      <path id="path6093" d="M0-682.665H70.3v70.3H0Z" transform="translate(0 682.665)"/>
    </clipPath>
  </defs>
  <g id="Grupo_1222663" data-name="Grupo 1222663" transform="translate(-1131.51 -11066.529)">
    <g id="Grupo_1222484" data-name="Grupo 1222484" transform="translate(1140.51 11072.529)">
      <g id="Grupo_1208010" data-name="Grupo 1208010" transform="translate(0 0)">
        <g id="Grupo_1202142" data-name="Grupo 1202142" transform="translate(0 0)">
          <g id="Grupo_1201923" data-name="Grupo 1201923">
            <g id="Grupo_1176928" data-name="Grupo 1176928" transform="translate(0)">
              <g id="Grupo_1172322" data-name="Grupo 1172322">
                <g id="Grupo_1164700" data-name="Grupo 1164700">
                  <g id="Grupo_1160931" data-name="Grupo 1160931">
                    <g id="Grupo_1160749" data-name="Grupo 1160749">
                      <g id="Grupo_1158891" data-name="Grupo 1158891">
                        <g id="Grupo_1157406" data-name="Grupo 1157406">
                          <g id="Grupo_1155793" data-name="Grupo 1155793">
                            <g id="Grupo_1154704" data-name="Grupo 1154704">
                              <g id="Grupo_1150790" data-name="Grupo 1150790">
                                <g id="Grupo_1154214" data-name="Grupo 1154214" transform="translate(0)">
                                  <g id="Grupo_1152583" data-name="Grupo 1152583">
                                    <g id="Grupo_1146973" data-name="Grupo 1146973">
                                      <g id="Grupo_1146954" data-name="Grupo 1146954">
                                        <g transform="matrix(1, 0, 0, 1, -9, -6)" filter="url(#Trazado_982547)">
                                          <g id="Trazado_982547-2" data-name="Trazado 982547" transform="translate(9 6)" fill="#f2f4f0">
                                            <path d="M 47.5 93.49984741210938 C 41.28938674926758 93.49984741210938 35.26533508300781 92.2838134765625 29.59519958496094 89.88556671142578 C 24.11773300170898 87.56878662109375 19.19814682006836 84.25181579589844 14.97310638427734 80.02677917480469 C 10.74805355072021 75.80173492431641 7.431079864501953 70.88216400146484 5.114306449890137 65.40470886230469 C 2.716039896011353 59.73457717895508 1.50001335144043 53.71053695678711 1.50001335144043 47.49992370605469 C 1.50001335144043 41.28931045532227 2.716039896011353 35.2652702331543 5.114306449890137 29.59513664245605 C 7.431079864501953 24.11768341064453 10.74805355072021 19.19811058044434 14.97310638427734 14.97307014465332 C 19.19814682006836 10.74803066253662 24.11773300170898 7.431056976318359 29.59519958496094 5.114283561706543 C 35.26533508300781 2.716030359268188 41.28938674926758 1.500003695487976 47.5 1.500003695487976 C 53.71062850952148 1.500003695487976 59.73466491699219 2.716030359268188 65.40481567382812 5.114283561706543 C 70.88227844238281 7.431056976318359 75.80186462402344 10.74803066253662 80.02690887451172 14.97307014465332 C 84.25196075439453 19.19811058044434 87.56893157958984 24.11768341064453 89.88570404052734 29.59513664245605 C 92.28397369384766 35.2652702331543 93.5 41.28931045532227 93.5 47.49992370605469 C 93.5 53.71053695678711 92.28397369384766 59.73457717895508 89.88570404052734 65.40470886230469 C 87.56893157958984 70.88216400146484 84.25196075439453 75.80173492431641 80.02690887451172 80.02677917480469 C 75.80186462402344 84.25181579589844 70.88227844238281 87.56878662109375 65.40481567382812 89.88556671142578 C 59.73466491699219 92.2838134765625 53.71062850952148 93.49984741210938 47.5 93.49984741210938 Z" stroke="none"/>
                                            <path d="M 47.5 3 C 41.49121475219727 3 35.66376876831055 4.176155090332031 30.17951965332031 6.495803833007812 C 24.88084411621094 8.7369384765625 20.12152099609375 11.94596862792969 16.03375244140625 16.03372192382812 C 11.94598388671875 20.12149047851562 8.736953735351562 24.88081359863281 6.495796203613281 30.17947387695312 C 4.176155090332031 35.6637077331543 3 41.49115371704102 3 47.49992370605469 C 3 53.50869369506836 4.176155090332031 59.33613967895508 6.495796203613281 64.82037353515625 C 8.736953735351562 70.11903381347656 11.94598388671875 74.87835693359375 16.03375244140625 78.96612548828125 C 20.12152099609375 83.05387878417969 24.88084411621094 86.26290893554688 30.17951965332031 88.50404357910156 C 35.66376876831055 90.82369232177734 41.49121475219727 91.99984741210938 47.5 91.99984741210938 C 53.50878524780273 91.99984741210938 59.33623123168945 90.82369232177734 64.82049560546875 88.50404357910156 C 70.11915588378906 86.26290893554688 74.87847900390625 83.05387878417969 78.96624755859375 78.96612548828125 C 83.05401611328125 74.87835693359375 86.26304626464844 70.11903381347656 88.50418090820312 64.82037353515625 C 90.82382965087891 59.33613967895508 91.99998474121094 53.50869369506836 91.99998474121094 47.49992370605469 C 91.99998474121094 41.49115371704102 90.82382965087891 35.6637077331543 88.50418090820312 30.17947387695312 C 86.26304626464844 24.88081359863281 83.05401611328125 20.12149047851562 78.96624755859375 16.03372192382812 C 74.87847900390625 11.94596862792969 70.11915588378906 8.7369384765625 64.82049560546875 6.495803833007812 C 59.33623123168945 4.176155090332031 53.50878524780273 3 47.5 3 M 47.5 0 C 73.7335205078125 0 94.99998474121094 21.26644897460938 94.99998474121094 47.49992370605469 C 94.99998474121094 73.7333984375 73.7335205078125 94.99984741210938 47.5 94.99984741210938 C 21.26649475097656 94.99984741210938 0 73.7333984375 0 47.49992370605469 C 0 21.26644897460938 21.26649475097656 0 47.5 0 Z" stroke="none" fill="#899e78"/>
                                          </g>
                                        </g>
                                      </g>
                                    </g>
                                  </g>
                                </g>
                              </g>
                            </g>
                          </g>
                        </g>
                      </g>
                    </g>
                  </g>
                </g>
              </g>
            </g>
          </g>
        </g>
      </g>
    </g>
    <g id="g6087" transform="translate(1153.361 11767.546)">
      <g id="g6089" transform="translate(0 -682.665)">
        <g id="g6091" clip-path="url(#clip-path)">
          <g id="g6097" transform="translate(1.03 6.935)">
            <path id="path6099" d="M-151.921-334.409h0a3.425,3.425,0,0,0,1.376-4.644l-2.907-5.357a26.859,26.859,0,0,0,3.441-7.181,30.84,30.84,0,0,0,1.026-5.1,5.373,5.373,0,0,0-1.54-4.424L-162.206-372.8l-7.155,7.155,13.68,11.83-3.185,9.552,5.449,9.431a1.114,1.114,0,0,0,1.5.422" transform="translate(169.361 372.798)" fill="#a54f3e"/>
          </g>
          <g id="g6101" transform="translate(1.03 6.935)">
            <path id="path6103" d="M0-62.325,13.68-50.5l-3.185,9.552,5.449,9.431a1.114,1.114,0,0,0,1.5.422,3.425,3.425,0,0,0,1.376-4.644l-2.907-5.357a26.857,26.857,0,0,0,3.441-7.181,30.828,30.828,0,0,0,1.026-5.1,5.373,5.373,0,0,0-1.54-4.424L7.155-69.48" transform="translate(0 69.48)" fill="none" stroke="#000" stroke-linecap="round" stroke-linejoin="round" stroke-miterlimit="10" stroke-width="1"/>
          </g>
          <g id="g6105" transform="translate(8.924 32.233)">
            <path id="path6107" d="M-55.034-18l-.9,3.048,2.907,5.357a3.425,3.425,0,0,1-1.376,4.644,1.114,1.114,0,0,1-1.5-.422L-61.352-14.8l1.56-5.262Z" transform="translate(61.352 20.064)" fill="#a54f3e"/>
          </g>
          <g id="g6109" transform="translate(14.699 39.521)">
            <path id="path6111" d="M0-67.6a1.114,1.114,0,0,0,1.17.066,3.425,3.425,0,0,0,1.376-4.644L.819-75.361" transform="translate(0 75.361)" fill="none" stroke="#000" stroke-linecap="round" stroke-linejoin="round" stroke-miterlimit="10" stroke-width="1"/>
          </g>
          <g id="g6113" transform="translate(5.964 24.087)">
            <path id="path6115" d="M-83.38-12.746l-4.937-1.463L-92.952,1.429l5.449,9.431a1.114,1.114,0,0,0,1.5.422A3.425,3.425,0,0,0-84.63,6.637l-2.907-5.357Z" transform="translate(92.952 14.209)" fill="#a54f3e"/>
          </g>
          <g id="g6117" transform="translate(5.964 24.087)">
            <path id="path6119" d="M-3.268-125.2l-.375,1.266L1.806-114.5a1.114,1.114,0,0,0,1.5.422h0a3.425,3.425,0,0,0,1.376-4.644l-2.907-5.357L5.929-138.1.992-139.568l-2.88,9.715" transform="translate(3.643 139.568)" fill="none" stroke="#000" stroke-linecap="round" stroke-linejoin="round" stroke-miterlimit="10" stroke-width="1"/>
          </g>
          <g id="g6121" transform="translate(8.784 20.516)">
            <path id="path6123" d="M-40.428-162.386l-4.4-7.053-.235-5.189a3.953,3.953,0,0,1,1-2.811l2.28-2.554,1.184-.642a3.22,3.22,0,0,1,4.366,1.294c.972,1.876-.185,6.473-2.3,7.769-.2.124-.834.452-.834.452l2.16,3.979a3.833,3.833,0,0,1-1.541,5.2,1.265,1.265,0,0,1-1.676-.442" transform="translate(45.068 181.027)" fill="#bc5d4c"/>
          </g>
          <g id="g6125" transform="translate(8.784 20.501)">
            <path id="path6127" d="M-79.972-31.566c-.046,2.132-1.086,4.888-2.649,5.845-.2.124-.833.452-.833.452l2.16,3.979a3.833,3.833,0,0,1-1.541,5.2,1.265,1.265,0,0,1-1.676-.442l-4.4-7.053-.235-5.19a3.953,3.953,0,0,1,1-2.811l2.28-2.554,1.931-1.048" transform="translate(89.152 35.189)" fill="none" stroke="#000" stroke-linecap="round" stroke-linejoin="round" stroke-miterlimit="10" stroke-width="1"/>
          </g>
          <g id="g6129" transform="translate(49.107 25.09)">
            <path id="path6131" d="M-25.9-1.177h0a3.425,3.425,0,0,0-1.376,4.644l2.907,5.357A26.859,26.859,0,0,0-27.807,16a30.843,30.843,0,0,0-1.026,5.1,5.373,5.373,0,0,0,1.54,4.424L-15.864,36.96-8.709,29.8-22.137,18.227l3.185-9.552L-24.4-.755a1.114,1.114,0,0,0-1.5-.422" transform="translate(28.87 1.312)" fill="#6d3326"/>
          </g>
          <g id="g6133" transform="translate(49.107 25.09)">
            <path id="path6135" d="M-175.621-271.065l-13.428-11.578,3.185-9.552-5.449-9.431a1.114,1.114,0,0,0-1.5-.422,3.425,3.425,0,0,0-1.376,4.643l2.907,5.357a26.857,26.857,0,0,0-3.441,7.181,30.828,30.828,0,0,0-1.026,5.1,5.373,5.373,0,0,0,1.54,4.424l11.43,11.429" transform="translate(195.782 302.182)" fill="none" stroke="#000" stroke-linecap="round" stroke-linejoin="round" stroke-miterlimit="10" stroke-width="1"/>
          </g>
          <g id="g6137" transform="translate(52.889 23.066)">
            <path id="path6139" d="M-21.073-114.843l.9-3.048-2.907-5.357a3.425,3.425,0,0,1,1.376-4.644,1.114,1.114,0,0,1,1.5.422l5.449,9.431-1.56,5.262Z" transform="translate(23.492 128.027)" fill="#6d3326"/>
          </g>
          <g id="g6141" transform="translate(52.889 23.066)">
            <path id="path6143" d="M-25.8-1.755a1.114,1.114,0,0,0-1.17-.066,3.425,3.425,0,0,0-1.376,4.644l1.728,3.183" transform="translate(28.767 1.956)" fill="none" stroke="#000" stroke-linecap="round" stroke-linejoin="round" stroke-miterlimit="10" stroke-width="1"/>
          </g>
          <g id="g6145" transform="translate(55.014 20.837)">
            <path id="path6147" d="M0-210.48l4.937,1.463,4.635-15.638-5.449-9.431a1.114,1.114,0,0,0-1.5-.422,3.425,3.425,0,0,0-1.376,4.644l2.907,5.357Z" transform="translate(0 234.642)" fill="#6d3326"/>
          </g>
          <g id="g6149" transform="translate(55.014 20.837)">
            <path id="path6151" d="M0-210.48l4.937,1.463,4.635-15.638-5.449-9.431a1.114,1.114,0,0,0-1.5-.422,3.425,3.425,0,0,0-1.376,4.644l2.907,5.357Z" transform="translate(0 234.642)" fill="none" stroke="#000" stroke-linecap="round" stroke-linejoin="round" stroke-miterlimit="10" stroke-width="1"/>
          </g>
          <g id="g6153" transform="translate(52.583 30.797)">
            <path id="path6155" d="M-39.558-5.186l4.4,7.053.235,5.189a3.953,3.953,0,0,1-1,2.811l-2.28,2.554-1.184.642a3.22,3.22,0,0,1-4.366-1.294c-.972-1.876.185-6.473,2.3-7.769.2-.124.834-.452.834-.452L-42.774-.43a3.833,3.833,0,0,1,1.541-5.2,1.265,1.265,0,0,1,1.676.442" transform="translate(44.099 5.781)" fill="#883f2d"/>
          </g>
          <g id="g6157" transform="translate(52.585 30.797)">
            <path id="path6159" d="M0-136.138c.046-2.132,1.086-4.888,2.649-5.845.2-.124.833-.452.833-.452l-2.16-3.979a3.833,3.833,0,0,1,1.541-5.2,1.265,1.265,0,0,1,1.676.442l4.4,7.053.235,5.189a3.953,3.953,0,0,1-1,2.811L5.9-133.562l-1.931,1.048" transform="translate(0 151.766)" fill="none" stroke="#000" stroke-linecap="round" stroke-linejoin="round" stroke-miterlimit="10" stroke-width="1"/>
          </g>
          <g id="g6161" transform="translate(6.935 48.855)">
            <path id="path6163" d="M-334.41-25.9h0a3.425,3.425,0,0,0-4.644-1.376l-5.357,2.907a26.854,26.854,0,0,0-7.181-3.441,30.86,30.86,0,0,0-5.1-1.026,5.373,5.373,0,0,0-4.424,1.54L-372.8-15.613l7.155,7.155,11.83-13.68,9.552,3.185,9.431-5.449a1.114,1.114,0,0,0,.422-1.5" transform="translate(372.799 28.871)" fill="#ffcebf"/>
          </g>
          <g id="g6165" transform="translate(6.935 48.855)">
            <path id="path6167" d="M-62.324-177.818l11.83-13.68,9.552,3.185,9.431-5.449a1.114,1.114,0,0,0,.422-1.5,3.425,3.425,0,0,0-4.644-1.376l-5.357,2.907a26.855,26.855,0,0,0-7.181-3.441,30.862,30.862,0,0,0-5.1-1.026,5.373,5.373,0,0,0-4.424,1.54l-11.681,11.681" transform="translate(69.478 198.231)" fill="none" stroke="#000" stroke-linecap="round" stroke-linejoin="round" stroke-miterlimit="10" stroke-width="1"/>
          </g>
          <g id="g6169" transform="translate(32.233 52.636)">
            <path id="path6171" d="M-18-21.074l3.048.9,5.357-2.907A3.425,3.425,0,0,1-4.949-21.7a1.114,1.114,0,0,1-.422,1.5L-14.8-14.757l-5.262-1.56Z" transform="translate(20.064 23.494)" fill="#ffcebf"/>
          </g>
          <g id="g6173" transform="translate(39.521 52.637)">
            <path id="path6175" d="M-67.6-25.8a1.114,1.114,0,0,0,.066-1.171,3.425,3.425,0,0,0-4.643-1.376l-3.183,1.728" transform="translate(75.361 28.767)" fill="none" stroke="#000" stroke-linecap="round" stroke-linejoin="round" stroke-miterlimit="10" stroke-width="1"/>
          </g>
          <g id="g6177" transform="translate(24.087 54.762)">
            <path id="path6179" d="M-12.746,0l-1.463,4.937L1.428,9.572l9.431-5.449a1.114,1.114,0,0,0,.422-1.5A3.425,3.425,0,0,0,6.637,1.25L1.281,4.157Z" transform="translate(14.209)" fill="#ffcebf"/>
          </g>
          <g id="g6181" transform="translate(24.087 54.762)">
            <path id="path6183" d="M-12.746,0l-1.463,4.937L1.428,9.572l9.431-5.449a1.114,1.114,0,0,0,.422-1.5A3.425,3.425,0,0,0,6.637,1.25L1.281,4.157Z" transform="translate(14.209)" fill="none" stroke="#000" stroke-linecap="round" stroke-linejoin="round" stroke-miterlimit="10" stroke-width="1"/>
          </g>
          <g id="g6185" transform="translate(20.516 52.331)">
            <path id="path6187" d="M-162.386-39.557l-7.053,4.4-5.19.235a3.953,3.953,0,0,1-2.811-1l-2.554-2.28-.642-1.184a3.22,3.22,0,0,1,1.294-4.366c1.876-.972,6.473.185,7.769,2.3.124.2.452.833.452.833l3.98-2.16a3.833,3.833,0,0,1,5.2,1.541,1.265,1.265,0,0,1-.442,1.676" transform="translate(181.027 44.099)" fill="#ffdfcf"/>
          </g>
          <g id="g6189" transform="translate(20.501 52.333)">
            <path id="path6191" d="M-31.564,0c2.132.046,4.888,1.086,5.845,2.649.124.2.452.833.452.833l3.98-2.16a3.833,3.833,0,0,1,5.2,1.541,1.265,1.265,0,0,1-.442,1.676l-7.053,4.4-5.19.235a3.953,3.953,0,0,1-2.811-1L-34.14,5.9l-1.048-1.931" transform="translate(35.188)" fill="none" stroke="#000" stroke-linecap="round" stroke-linejoin="round" stroke-miterlimit="10" stroke-width="1"/>
          </g>
          <g id="g6193" transform="translate(25.09 1.03)">
            <path id="path6195" d="M-1.177-149.724h0a3.425,3.425,0,0,0,4.644,1.376l5.357-2.907A26.854,26.854,0,0,0,16-147.814a30.845,30.845,0,0,0,5.1,1.026,5.373,5.373,0,0,0,4.424-1.54L36.96-159.757l-7.155-7.155L18.227-153.484l-9.552-3.185L-.755-151.22a1.114,1.114,0,0,0-.422,1.5" transform="translate(1.312 166.912)" fill="#fba08d"/>
          </g>
          <g id="g6197" transform="translate(25.09 1.03)">
            <path id="path6199" d="M-271.065,0l-11.578,13.428-9.552-3.185-9.431,5.449a1.114,1.114,0,0,0-.422,1.5,3.425,3.425,0,0,0,4.644,1.376l5.357-2.907a26.829,26.829,0,0,0,5.03,2.684" transform="translate(302.182)" fill="none" stroke="#000" stroke-linecap="round" stroke-linejoin="round" stroke-miterlimit="10" stroke-width="1"/>
          </g>
          <g id="g6201" transform="translate(44.909 8.184)">
            <path id="path6203" d="M0-109.4c.952.19,1.837.321,2.6.411a5.374,5.374,0,0,0,4.424-1.54L18.454-121.96" transform="translate(0 121.96)" fill="none" stroke="#000" stroke-linecap="round" stroke-linejoin="round" stroke-miterlimit="10" stroke-width="1"/>
          </g>
          <g id="g6205" transform="translate(23.066 8.672)">
            <path id="path6207" d="M-114.843-55.034l-3.048-.9-5.357,2.907a3.425,3.425,0,0,1-4.643-1.376,1.114,1.114,0,0,1,.422-1.5l9.431-5.449,5.262,1.56Z" transform="translate(128.027 61.352)" fill="#fba08d"/>
          </g>
          <g id="g6209" transform="translate(23.066 14.447)">
            <path id="path6211" d="M-1.754,0A1.114,1.114,0,0,0-1.82,1.171,3.425,3.425,0,0,0,2.823,2.547L6.006.819" transform="translate(1.955)" fill="none" stroke="#000" stroke-linecap="round" stroke-linejoin="round" stroke-miterlimit="10" stroke-width="1"/>
          </g>
          <g id="g6213" transform="translate(20.837 5.712)">
            <path id="path6215" d="M-210.48-83.38l1.463-4.937-15.638-4.635-9.431,5.449a1.114,1.114,0,0,0-.422,1.5,3.425,3.425,0,0,0,4.644,1.376l5.357-2.907Z" transform="translate(234.642 92.952)" fill="#fba08d"/>
          </g>
          <g id="g6217" transform="translate(20.837 5.712)">
            <path id="path6219" d="M-210.48-83.38l1.463-4.937-15.638-4.635-9.431,5.449a1.114,1.114,0,0,0-.422,1.5,3.425,3.425,0,0,0,4.644,1.376l5.357-2.907Z" transform="translate(234.642 92.952)" fill="none" stroke="#000" stroke-linecap="round" stroke-linejoin="round" stroke-miterlimit="10" stroke-width="1"/>
          </g>
          <g id="g6221" transform="translate(30.797 8.532)">
            <path id="path6223" d="M-5.186-40.428l7.053-4.4,5.19-.235a3.953,3.953,0,0,1,2.811,1l2.554,2.28.642,1.184a3.22,3.22,0,0,1-1.294,4.366C9.895-35.263,5.3-36.42,4-38.538c-.124-.2-.452-.833-.452-.833L-.43-37.211a3.833,3.833,0,0,1-5.2-1.541,1.265,1.265,0,0,1,.442-1.676" transform="translate(5.781 45.069)" fill="#ffb09e"/>
          </g>
          <g id="g6225" transform="translate(30.797 8.532)">
            <path id="path6227" d="M-136.138-79.972c-2.132-.046-4.888-1.086-5.845-2.649-.124-.2-.452-.833-.452-.833l-3.98,2.16a3.833,3.833,0,0,1-5.2-1.541,1.265,1.265,0,0,1,.442-1.676l7.053-4.4,5.189-.235a3.953,3.953,0,0,1,2.811,1l2.554,2.28,1.048,1.931" transform="translate(151.766 89.152)" fill="none" stroke="#000" stroke-linecap="round" stroke-linejoin="round" stroke-miterlimit="10" stroke-width="1"/>
          </g>
          <g id="g6229" transform="translate(25.426 27.863)">
            <path id="path6231" d="M-154.891-84.692a5.7,5.7,0,0,0,0-8.053,5.7,5.7,0,0,0-8.053,0,5.7,5.7,0,0,0-8.054,0,5.7,5.7,0,0,0,0,8.053l7.285,7.286a1.094,1.094,0,0,0,1.546,0Z" transform="translate(172.672 94.414)" fill="#fe76a8"/>
          </g>
          <g id="g6233" transform="translate(32.891 27.865)">
            <path id="path6235" d="M-89.871-84.666l-7.286,7.286a1.093,1.093,0,0,1-1.546,0l-1.485-1.485,7.11-7.111c2.221-2.225,2.808-5.241.585-7.464a5.7,5.7,0,0,0-1.247-.945,5.677,5.677,0,0,1,3.864,1.666,5.7,5.7,0,0,1,.006,8.053" transform="translate(100.188 94.385)" fill="#ff5795"/>
          </g>
          <g id="g6237" transform="translate(25.426 27.863)">
            <path id="path6239" d="M-12.863-82.974a5.7,5.7,0,0,1,.192-7.856,5.7,5.7,0,0,1,8.054,0,5.7,5.7,0,0,1,8.053,0,5.7,5.7,0,0,1,.005,8.053l-7.285,7.285a1.094,1.094,0,0,1-1.547,0l-4.041-4.041" transform="translate(14.34 92.499)" fill="none" stroke="#000" stroke-linecap="round" stroke-linejoin="round" stroke-miterlimit="10" stroke-width="1"/>
          </g>
        </g>
      </g>
    </g>
  </g>
</svg>
