<svg xmlns="http://www.w3.org/2000/svg" xmlns:xlink="http://www.w3.org/1999/xlink" width="113" height="113" viewBox="0 0 113 113">
  <defs>
    <filter id="Trazado_982547" x="0" y="0" width="113" height="113" filterUnits="userSpaceOnUse">
      <feOffset dy="3" input="SourceAlpha"/>
      <feGaussianBlur stdDeviation="3" result="blur"/>
      <feFlood flood-opacity="0.161"/>
      <feComposite operator="in" in2="blur"/>
      <feComposite in="SourceGraphic"/>
    </filter>
  </defs>
  <g id="Grupo_1222420" data-name="Grupo 1222420" transform="translate(9 6)">
    <g id="Grupo_1208010" data-name="Grupo 1208010" transform="translate(0 0)">
      <g id="Grupo_1202142" data-name="Grupo 1202142" transform="translate(0 0)">
        <g id="Grupo_1201923" data-name="Grupo 1201923">
          <g id="Grupo_1176928" data-name="Grupo 1176928" transform="translate(0)">
            <g id="Grupo_1172322" data-name="Grupo 1172322">
              <g id="Grupo_1164700" data-name="Grupo 1164700">
                <g id="Grupo_1160931" data-name="Grupo 1160931">
                  <g id="Grupo_1160749" data-name="Grupo 1160749">
                    <g id="Grupo_1158891" data-name="Grupo 1158891">
                      <g id="Grupo_1157406" data-name="Grupo 1157406">
                        <g id="Grupo_1155793" data-name="Grupo 1155793">
                          <g id="Grupo_1154704" data-name="Grupo 1154704">
                            <g id="Grupo_1150790" data-name="Grupo 1150790">
                              <g id="Grupo_1154214" data-name="Grupo 1154214" transform="translate(0)">
                                <g id="Grupo_1152583" data-name="Grupo 1152583">
                                  <g id="Grupo_1146973" data-name="Grupo 1146973">
                                    <g id="Grupo_1146954" data-name="Grupo 1146954">
                                      <g transform="matrix(1, 0, 0, 1, -9, -6)" filter="url(#Trazado_982547)">
                                        <g id="Trazado_982547-2" data-name="Trazado 982547" transform="translate(9 6)" fill="#f2f4f0">
                                          <path d="M 47.50000762939453 93.49986267089844 C 41.28937911987305 93.49986267089844 35.26534271240234 92.28383636474609 29.59519386291504 89.88558197021484 C 24.11772727966309 87.56880950927734 19.19814109802246 84.25183868408203 14.97310066223145 80.02679443359375 C 10.74804782867432 75.8017578125 7.431074142456055 70.88218688964844 5.114300727844238 65.40471649169922 C 2.716034412384033 59.73458480834961 1.500007629394531 53.71054458618164 1.500007629394531 47.49993133544922 C 1.500007629394531 41.2893180847168 2.716034412384033 35.26527786254883 5.114300727844238 29.59514427185059 C 7.431074142456055 24.11767768859863 10.74804782867432 19.19810485839844 14.97310066223145 14.97306442260742 C 19.19814109802246 10.74802494049072 24.11772727966309 7.431051254272461 29.59519386291504 5.114277839660645 C 35.26534271240234 2.71602463722229 41.28937911987305 1.499997973442078 47.50000762939453 1.499997973442078 C 53.71063613891602 1.499997973442078 59.73467254638672 2.71602463722229 65.40482330322266 5.114277839660645 C 70.88228607177734 7.431051254272461 75.80187225341797 10.74802494049072 80.02691650390625 14.97306442260742 C 84.25196838378906 19.19810485839844 87.56893920898438 24.11767768859863 89.88571166992188 29.59514427185059 C 92.28398132324219 35.26527786254883 93.50000762939453 41.2893180847168 93.50000762939453 47.49993133544922 C 93.50000762939453 53.71054458618164 92.28398132324219 59.73458480834961 89.88571166992188 65.40471649169922 C 87.56893920898438 70.88218688964844 84.25196838378906 75.8017578125 80.02691650390625 80.02679443359375 C 75.80187225341797 84.25183868408203 70.88228607177734 87.56880950927734 65.40482330322266 89.88558197021484 C 59.73467254638672 92.28383636474609 53.71063613891602 93.49986267089844 47.50000762939453 93.49986267089844 Z" stroke="none"/>
                                          <path d="M 47.50000762939453 2.999992370605469 C 41.4912223815918 2.999992370605469 35.66377639770508 4.1761474609375 30.17951202392578 6.495796203613281 C 24.88085174560547 8.736930847167969 20.12152862548828 11.94596099853516 16.03376007080078 16.03372955322266 C 11.94597625732422 20.12148284912109 8.736961364746094 24.88080596923828 6.495803833007812 30.17946624755859 C 4.176162719726562 35.66371536254883 3.000007629394531 41.49116134643555 3.000007629394531 47.49993133544922 C 3.000007629394531 53.50870132446289 4.176162719726562 59.33614730834961 6.495803833007812 64.82038879394531 C 8.736961364746094 70.11905670166016 11.94597625732422 74.87836456298828 16.03376007080078 78.96613311767578 C 20.12152862548828 83.05390167236328 24.88085174560547 86.26291656494141 30.17951202392578 88.50406646728516 C 35.66377639770508 90.82369995117188 41.4912223815918 91.99985504150391 47.50000762939453 91.99985504150391 C 53.50879287719727 91.99985504150391 59.33623886108398 90.82369995117188 64.82049560546875 88.50406646728516 C 70.11916351318359 86.26291656494141 74.87848663330078 83.05390167236328 78.96625518798828 78.96613311767578 C 83.05403900146484 74.87836456298828 86.26305389404297 70.11905670166016 88.50421142578125 64.82038879394531 C 90.8238525390625 59.33614730834961 92.00000762939453 53.50870132446289 92.00000762939453 47.49993133544922 C 92.00000762939453 41.49116134643555 90.8238525390625 35.66371536254883 88.50421142578125 30.17946624755859 C 86.26305389404297 24.88080596923828 83.05403900146484 20.12148284912109 78.96625518798828 16.03372955322266 C 74.87848663330078 11.94596099853516 70.11916351318359 8.736930847167969 64.82049560546875 6.495796203613281 C 59.33623886108398 4.1761474609375 53.50879287719727 2.999992370605469 47.50000762939453 2.999992370605469 M 47.50000762939453 -7.62939453125e-06 C 73.73352813720703 -7.62939453125e-06 95.00000762939453 21.26644134521484 95.00000762939453 47.49993133544922 C 95.00000762939453 73.73342132568359 73.73352813720703 94.99985504150391 47.50000762939453 94.99985504150391 C 21.26648712158203 94.99985504150391 7.62939453125e-06 73.73342132568359 7.62939453125e-06 47.49993133544922 C 7.62939453125e-06 21.26644134521484 21.26648712158203 -7.62939453125e-06 47.50000762939453 -7.62939453125e-06 Z" stroke="none" fill="#899e78"/>
                                        </g>
                                      </g>
                                    </g>
                                  </g>
                                </g>
                              </g>
                            </g>
                          </g>
                        </g>
                      </g>
                    </g>
                  </g>
                </g>
              </g>
            </g>
          </g>
        </g>
      </g>
    </g>
    <g id="legislation_12249980_1_" data-name="legislation_12249980 (1)" transform="translate(-3.381 13.547)">
      <g id="Grupo_1222585" data-name="Grupo 1222585" transform="translate(25.748 28.562)">
        <path id="Trazado_1175563" data-name="Trazado 1175563" d="M58.574,212.522a7.206,7.206,0,1,0,14.412,0Z" transform="translate(-58.574 -212.522)" fill="#f5b000" fill-rule="evenodd"/>
        <path id="Trazado_1175564" data-name="Trazado 1175564" d="M80.911,219.654a7.207,7.207,0,0,0,6.177-7.133H74.733a7.207,7.207,0,0,0,6.178,7.133Z" transform="translate(-72.676 -212.521)" fill="#ffbd1c" fill-rule="evenodd"/>
      </g>
      <path id="Trazado_1175565" data-name="Trazado 1175565" d="M241.806,63.772h3.614V93.328h-3.614Z" transform="translate(-192.732 -54.146)" fill="#e3a76f"/>
      <circle id="Elipse_14648" data-name="Elipse 14648" cx="3.422" cy="3.422" r="3.422" transform="translate(46.418 8.053) rotate(-67.486)" fill="#f5b000"/>
      <path id="Trazado_1175566" data-name="Trazado 1175566" d="M245.913,10.962a3.423,3.423,0,1,1-2.513,3.3A3.424,3.424,0,0,1,245.913,10.962Z" transform="translate(-194.123 -8.058)" fill="#ffbd1c" fill-rule="evenodd"/>
      <path id="Trazado_1175567" data-name="Trazado 1175567" d="M127.54,413.627h42.5" transform="translate(-93.012 -359.464)" fill="none" stroke="#000" stroke-linejoin="round" stroke-width="12"/>
      <g id="Grupo_1222586" data-name="Grupo 1222586" transform="translate(21.724 42.84)">
        <path id="Trazado_1175568" data-name="Trazado 1175568" d="M36.016,339.776H84.5a.776.776,0,0,0,.773-.773v-2.228A.776.776,0,0,0,84.5,336H36.016v-7.549H84.5a.776.776,0,0,0,.773-.773v-2.228a.775.775,0,0,0-.773-.773h-53.7a3.854,3.854,0,0,0-3.843,3.843v7.412a3.854,3.854,0,0,0,3.843,3.843h5.21Z" transform="translate(-26.963 -324.678)" fill="#34ba82" fill-rule="evenodd"/>
        <path id="Trazado_1175569" data-name="Trazado 1175569" d="M54.342,339.776h48.487A.776.776,0,0,0,103.6,339v-2.228a.776.776,0,0,0-.773-.773H54.342v-7.549h48.487a.776.776,0,0,0,.773-.773v-2.228a.775.775,0,0,0-.773-.773H51.806a3.854,3.854,0,0,0-3.843,3.843v7.412a3.854,3.854,0,0,0,3.843,3.843h2.536Z" transform="translate(-45.29 -324.678)" fill="#4ac994" fill-rule="evenodd"/>
        <path id="Trazado_1175570" data-name="Trazado 1175570" d="M67.046,361.876h47.6v-7.549h-50.2a1.927,1.927,0,0,0-1.921,1.922v3.706a1.927,1.927,0,0,0,1.921,1.922Z" transform="translate(-57.994 -350.553)" fill="#f3f5fb" fill-rule="evenodd"/>
      </g>
      <path id="Trazado_1175571" data-name="Trazado 1175571" d="M163.1,377.977h39.319V379.5H163.1Z" transform="translate(-124.043 -328.352)" fill="#cdd4de"/>
      <path id="Trazado_1175572" data-name="Trazado 1175572" d="M165.912,276.577h22.937v-4.133a2.891,2.891,0,0,1-2.883-2.883H168.795a2.891,2.891,0,0,1-2.883,2.883Z" transform="translate(-126.5 -233.737)" fill="#c78b56" fill-rule="evenodd"/>
      <path id="Trazado_1175573" data-name="Trazado 1175573" d="M185.787,276.577h20.406v-4.133a2.891,2.891,0,0,1-2.883-2.883H188.67c0,1.586-1.584,4.649-2.883,4.506Z" transform="translate(-143.844 -233.737)" fill="#d09561" fill-rule="evenodd"/>
      <path id="Trazado_1175574" data-name="Trazado 1175574" d="M150.2,63.772v3.614H114.057V63.772H150.2Z" transform="translate(-81.246 -54.146)" fill="#ecba78" fill-rule="evenodd"/>
      <path id="Trazado_1175575" data-name="Trazado 1175575" d="M241.806,92.16h1.807v22.583h-1.807Z" transform="translate(-192.732 -78.92)" fill="#d09561"/>
      <g id="Grupo_1222587" data-name="Grupo 1222587" transform="translate(62.029 28.562)">
        <path id="Trazado_1175576" data-name="Trazado 1175576" d="M343.573,212.522a7.206,7.206,0,0,0,14.412,0H343.573Z" transform="translate(-343.573 -212.522)" fill="#f5b000" fill-rule="evenodd"/>
        <path id="Trazado_1175577" data-name="Trazado 1175577" d="M365.912,219.654a7.207,7.207,0,0,0,6.177-7.133H359.734a7.207,7.207,0,0,0,6.177,7.133Z" transform="translate(-357.677 -212.521)" fill="#ffbd1c" fill-rule="evenodd"/>
      </g>
      <path id="Trazado_1175578" data-name="Trazado 1175578" d="M114.057,63.772h1.807v3.614h-1.807Z" transform="translate(-81.246 -54.146)" fill="#e3a76f"/>
      <path id="Trazado_1175579" data-name="Trazado 1175579" d="M106.353,377.977H98.076v15.788l4.139-3.813,4.139,3.813Z" transform="translate(-67.299 -328.352)" fill="#fd7a6e" fill-rule="evenodd"/>
      <path id="Trazado_1175580" data-name="Trazado 1175580" d="M102.215,377.977H98.076v15.788l4.139-3.813Z" transform="translate(-67.299 -328.352)" fill="#fb695b" fill-rule="evenodd"/>
      <path id="Trazado_1175581" data-name="Trazado 1175581" d="M78.372,47.834h-50.2a2.689,2.689,0,0,0-2.685,2.685v3.706a2.688,2.688,0,0,0,2.685,2.685h1.841v2.247H25.567a3.082,3.082,0,0,1-3.079-3.079V48.666a3.082,3.082,0,0,1,3.079-3.079h53.7a.013.013,0,0,1,.01.01v2.228a.013.013,0,0,1-.01.01h-.891Zm.891,9.076H39.817v2.247H79.263a.013.013,0,0,0,.01-.01V56.92a.013.013,0,0,0-.01-.01Zm-1.655-3.774H39.817v2.247H77.608V53.136ZM39.054,51.608H77.609V49.362H28.172a1.159,1.159,0,0,0-1.158,1.158v3.706a1.159,1.159,0,0,0,1.158,1.157h1.841V52.372a.764.764,0,0,1,.764-.764h8.277ZM38.29,65.654V53.136H31.54V65.654L34.4,63.021a.765.765,0,0,1,1.035,0Zm1.886-24.281a3.659,3.659,0,0,0,2.8-2.8h15.8a3.659,3.659,0,0,0,2.8,2.8V44.06H40.176ZM51.924,15.988V37.043H49.838V15.988ZM33.575,14.46V12.373H68.186V14.46H33.575Zm5.491,15.1H26.556l6.255-12.617Zm-6.255,7.486a6.732,6.732,0,0,1-6.679-5.959H39.49a6.732,6.732,0,0,1-6.679,5.959ZM50.881,5.529a2.659,2.659,0,1,1-2.659,2.659,2.662,2.662,0,0,1,2.659-2.659ZM75.205,29.56H62.7L68.95,16.943ZM68.95,37.047a6.73,6.73,0,0,1-6.678-5.959H75.629a6.732,6.732,0,0,1-6.68,5.959ZM79.263,49.362A1.54,1.54,0,0,0,80.8,47.825V45.6a1.539,1.539,0,0,0-1.538-1.537H63.113V40.69a.764.764,0,0,0-.764-.764,2.121,2.121,0,0,1-2.119-2.119.764.764,0,0,0-.764-.764H53.452V15.988H67.719l-6.939,14h0a.755.755,0,0,0-.08.339,8.25,8.25,0,1,0,16.5,0,.755.755,0,0,0-.08-.339h0l-7.406-14.94V11.61a.763.763,0,0,0-.764-.764H54.112a4.187,4.187,0,1,0-6.463,0H32.811a.764.764,0,0,0-.764.764v3.435L24.64,29.985h0a.764.764,0,0,0-.08.339,8.25,8.25,0,0,0,16.5,0,.755.755,0,0,0-.08-.339h0l-6.939-14H48.31V37.043H42.295a.764.764,0,0,0-.764.764,2.121,2.121,0,0,1-2.119,2.119.764.764,0,0,0-.764.764v3.37H25.567a4.612,4.612,0,0,0-4.607,4.606v7.412a4.612,4.612,0,0,0,4.607,4.607h4.446V67.4a.764.764,0,0,0,1.281.562l3.621-3.336,3.621,3.336a.764.764,0,0,0,1.281-.562V60.685H79.263A1.539,1.539,0,0,0,80.8,59.148V56.92a1.54,1.54,0,0,0-1.538-1.537h-.127V49.361h.127Z" transform="translate(0 -1.983)" fill="#242222" fill-rule="evenodd"/>
    </g>
  </g>
</svg>
